<svg id="图层_1" data-name="图层 1" xmlns="http://www.w3.org/2000/svg" viewBox="0 0 337.53 337.53"><defs><style>.cls-1{fill:#bfa27c;}.cls-2{fill:#dde3df;fill-opacity:0.2;}</style></defs><path class="cls-1" d="M540.2,177.78c4.39,3.29,7.67,7.67,11,12.06S557.74,198.6,561,203s5.48,8.76,8.77,14.24,5.48,9.87,6.58,15.35,4.38,9.86,5.48,15.34,3.28,11,4.38,16.44,2.19,11,2.19,16.44,1.1,10.95,1.1,16.43,0,11-1.1,16.44-1.09,11-2.19,16.44a91.79,91.79,0,0,1-4.38,16.44c-2.2,5.48-3.29,11-5.48,15.34-2.2,5.48-4.39,9.87-6.58,15.34A99.18,99.18,0,0,1,561,391.48l-9.86,13.15c-3.29,4.39-6.57,8.77-11,12.06s-7.67,7.67-12.05,11-8.77,6.57-13.15,9.86-8.77,5.48-14.25,8.77-9.86,4.38-15.34,6.57a134.31,134.31,0,0,1-15.34,5.48c-5.48,1.1-11,3.29-16.44,4.38A166.67,166.67,0,0,1,420.75,466c-5.48,0-11,0-16.44-1.09-5.48,0-11-1.1-16.44-2.2a91,91,0,0,1-16.44-4.38c-5.47-1.1-9.86-3.29-15.34-5.48s-9.86-4.38-15.34-6.57a101.21,101.21,0,0,1-14.25-8.77q-6.57-4.93-13.15-9.86a121.78,121.78,0,0,1-12.05-11,119.63,119.63,0,0,1-11-12.06l-9.86-13.15c-3.29-4.38-5.48-8.77-8.77-14.25s-5.48-9.86-6.58-15.34c-2.19-5.48-4.38-9.86-5.48-15.34s-3.28-11-4.38-16.44-2.19-11-2.19-16.44-1.1-11-1.1-16.44,0-11,1.1-16.43,1.09-11,2.19-16.44a91.79,91.79,0,0,1,4.38-16.44,63.54,63.54,0,0,1,5.48-15.34c2.2-5.48,4.39-9.87,6.58-15.35s5.48-9.86,8.77-14.24,6.57-8.77,9.86-13.15,6.57-8.77,11-12.06,7.67-7.67,12.05-11,8.77-6.57,13.15-9.86c8.77-6.58,18.63-11,28.5-15.34,5.48-2.19,9.86-4.39,15.34-5.48s11-3.29,16.44-4.39,11-2.19,16.44-2.19,10.95-1.09,16.43-1.09,11,0,16.44,1.09,11,1.1,16.44,2.19A91.83,91.83,0,0,1,469,136.14c5.48,2.19,11,3.29,15.34,5.48s9.86,4.38,15.34,7.67a99.18,99.18,0,0,1,14.25,8.77l13.15,9.86C531.43,171.21,535.82,173.4,540.2,177.78Z" transform="translate(-251.98 -128.47)"/><path class="cls-2" d="M335.27,394.77c2.19-3.29,5.48-6.58,8.77-9.86-13.15-18.63-39.45-23-58.08-9.87a25.76,25.76,0,0,0-7.68,7.67c1.1,2.2,2.2,3.29,3.29,5.48s0,0,0,1.1l3.29,5.48c5.48-8.77,14.25-13.15,25.21-13.15C319.93,379.43,329.79,384.91,335.27,394.77Z" transform="translate(-251.98 -128.47)"/><path class="cls-2" d="M382.39,359.7a91,91,0,0,1,16.44-4.38c-29.59-49.32-94.24-65.76-143.56-36.17h0c0,3.29,1.1,5.48,1.1,8.77s1.09,5.48,2.19,8.77C298,309.29,352.8,318.06,380.2,358.6A3.8,3.8,0,0,1,382.39,359.7Z" transform="translate(-251.98 -128.47)"/><path class="cls-2" d="M357.19,374a96,96,0,0,1,11-6.58c-13.15-18.63-35.07-29.59-58.09-29.59-16.43,0-32.87,5.48-44.93,16.44,0,1.1,1.1,2.19,1.1,3.29l1.1,3.29c1.09,2.19,2.19,4.38,2.19,5.48,11-11,25.2-16.44,40.54-16.44A57.65,57.65,0,0,1,357.19,374Z" transform="translate(-251.98 -128.47)"/><path class="cls-2" d="M318.83,178.88h5.48a43.51,43.51,0,0,1,3.29-4.39,20.09,20.09,0,0,0-7.67-11c-2.19,2.19-5.48,4.38-7.67,6.57C316.64,170.11,318.83,174.49,318.83,178.88Z" transform="translate(-251.98 -128.47)"/><path class="cls-2" d="M324.31,295a42.57,42.57,0,0,1,3.29-4.38c-2.19-9.86-12.06-16.44-20.82-14.25-6.58,1.1-12.06,6.58-14.25,14.25a8.26,8.26,0,0,1,2.19,4.38c2.19,0,4.39,0,5.48-1.09h0c1.1-5.48,5.48-8.77,9.86-7.67a7.49,7.49,0,0,1,7.68,7.67h0A19.35,19.35,0,0,0,324.31,295Z" transform="translate(-251.98 -128.47)"/><path class="cls-2" d="M499.65,154.77l8.77,8.77c2.19-2.2,3.29-5.48,6.58-7.68-3.29-2.19-7.67-4.38-11-6.57C501.85,151.48,500.75,152.58,499.65,154.77Z" transform="translate(-251.98 -128.47)"/><path class="cls-2" d="M486.5,143.81l1.1-1.1-7.67-3.28A22.8,22.8,0,0,1,486.5,143.81Z" transform="translate(-251.98 -128.47)"/><path class="cls-2" d="M420.75,130.66a103.71,103.71,0,0,0-86.58,50.41c5.48,1.1,11,3.29,16.44,4.38C375.82,146,429.52,135,469,160.25a91.86,91.86,0,0,1,25.2,25.2,91.79,91.79,0,0,1,16.44-4.38A105.16,105.16,0,0,0,424,130.66h-3.29Z" transform="translate(-251.98 -128.47)"/><path class="cls-2" d="M340.75,150.38c-3.29,2.2-7.67,4.39-11,6.58a48,48,0,0,1,6.58,7.67c2.19-3.29,5.48-6.57,8.76-9.86Z" transform="translate(-251.98 -128.47)"/><path class="cls-2" d="M422.94,437.51c9.86,1.09,18.63,6.57,23,14.25a33.36,33.36,0,0,1,8.76-8.77,44.46,44.46,0,0,0-31.78-17.54h-3.29A44.5,44.5,0,0,0,387.87,443c3.29,3.29,5.48,6.57,8.77,8.77A30.82,30.82,0,0,1,422.94,437.51Z" transform="translate(-251.98 -128.47)"/><path class="cls-2" d="M422.94,378.33a89.94,89.94,0,0,1,71.23,39.45,91,91,0,0,1,16.44-4.38A105.16,105.16,0,0,0,424,363h-2.19a103.7,103.7,0,0,0-86.58,50.41c5.48,1.09,11,3.29,16.44,4.38C366,393.67,393.35,378.33,422.94,378.33Z" transform="translate(-251.98 -128.47)"/><path class="cls-2" d="M258.56,256.69c1.09,1.09,2.19,1.09,3.29,2.19,18.63-26.3,55.89-31.78,82.19-13.15a74.78,74.78,0,0,1,13.15,13.15,96,96,0,0,1,11-6.58c-13.15-18.63-35.07-29.59-58.09-29.59-16.43,0-32.87,5.48-44.93,16.44C262.94,244.63,260.75,250.11,258.56,256.69Z" transform="translate(-251.98 -128.47)"/><path class="cls-2" d="M310.06,420H309a256.47,256.47,0,0,0,27.4,20.83,76.28,76.28,0,0,1,25.2,12.05l7.67,3.29a20.42,20.42,0,0,0,7.67,2.19c2.2,1.1,5.48,1.1,8.77,2.19,2.19,1.1,5.48,1.1,8.77,2.19C373.63,435.32,342.94,420,310.06,420Z" transform="translate(-251.98 -128.47)"/><path class="cls-2" d="M422.94,407.92C440.48,409,458,417.78,467.87,432a98.4,98.4,0,0,1,11-6.58C465.68,407.92,446,397,424,395.86h-2.19c-21.92,1.1-41.65,12.06-54.8,29.59,3.29,2.2,7.67,4.39,11,6.58C387.87,416.69,404.31,407.92,422.94,407.92Z" transform="translate(-251.98 -128.47)"/><path class="cls-2" d="M580.75,258.88c1.1-1.1,2.19-1.1,3.29-2.19-1.1-6.58-3.29-12.06-5.48-17.54C549,214,504,218.33,478.83,247.92c-1.09,1.1-2.19,3.29-3.29,4.38,3.29,2.19,7.68,4.39,11,6.58,18.63-26.3,55.89-31.78,81.1-13.15a37.8,37.8,0,0,1,13.15,13.15Z" transform="translate(-251.98 -128.47)"/><path class="cls-2" d="M567.6,269.84c-13.15-18.63-39.45-23-58.08-11a51.77,51.77,0,0,0-11,11l8.77,8.76a30.37,30.37,0,0,1,25.2-14.24c11,0,20.82,5.48,25.21,15.34C562.12,276.41,564.31,273.12,567.6,269.84Z" transform="translate(-251.98 -128.47)"/><path class="cls-2" d="M422.94,279.7h-2.19c-21.92,1.1-41.64,12.05-54.79,29.59,3.28,2.19,7.67,4.38,11,6.57,11-14.24,27.4-23,46-23,17.54,1.1,34,8.77,44.93,24.11a96.93,96.93,0,0,1,11-6.57,71.11,71.11,0,0,0-55.89-30.69Z" transform="translate(-251.98 -128.47)"/><path class="cls-2" d="M310.06,252.3a42.06,42.06,0,0,0-34,17.54c3.29,3.28,5.48,6.57,8.77,8.76,7.67-14.24,26.3-18.63,40.55-11a26.47,26.47,0,0,1,11,11c2.19-3.28,5.48-6.57,8.76-9.86C336.37,258.88,323.22,252.3,310.06,252.3Z" transform="translate(-251.98 -128.47)"/><path class="cls-2" d="M565.41,381.62c-7.67-9.86-19.73-14.25-31.78-15.34a42.08,42.08,0,0,0-34,17.53c3.29,3.29,5.48,6.58,8.77,9.86a30.28,30.28,0,0,1,40.55-11,21.53,21.53,0,0,1,9.86,9.87l3.29-5.48V386C563.22,386,564.31,383.81,565.41,381.62Z" transform="translate(-251.98 -128.47)"/><path class="cls-2" d="M324.31,410.11a42.57,42.57,0,0,1,3.29-4.38c-2.19-8.77-8.77-14.25-17.53-14.25a17.8,17.8,0,0,0-16.44,12.06c1.09,2.19,3.28,4.38,5.48,6.57h2.19c1.09-5.48,5.48-8.77,9.86-7.67a7.49,7.49,0,0,1,7.67,7.67h5.48Z" transform="translate(-251.98 -128.47)"/><path class="cls-2" d="M533.63,420c-32.88,0-64.66,15.35-84.39,42.74,3.29,0,5.48-1.09,8.77-2.19s5.48-1.09,8.77-2.19c2.19-1.1,5.48-1.1,7.67-2.19l7.67-3.29a76.23,76.23,0,0,1,25.21-12.05A128.85,128.85,0,0,0,534.72,420Z" transform="translate(-251.98 -128.47)"/><path class="cls-2" d="M333.08,297.23c5.48,1.1,11,3.29,16.44,4.39,25.2-39.45,78.9-50.41,118.35-25.21a91.94,91.94,0,0,1,25.21,25.21,91.83,91.83,0,0,1,16.44-4.39,105.23,105.23,0,0,0-86.58-50.41h-2.19C384.59,246.82,351.71,266.55,333.08,297.23Z" transform="translate(-251.98 -128.47)"/><path class="cls-2" d="M422.94,206.28c9.86,1.09,18.63,6.57,23,14.24a33.51,33.51,0,0,1,8.76-8.77,44.49,44.49,0,0,0-31.78-17.53h-3.29a44.49,44.49,0,0,0-31.78,17.53l8.77,8.77A30.82,30.82,0,0,1,422.94,206.28Z" transform="translate(-251.98 -128.47)"/><path class="cls-2" d="M422.94,164.63h-2.19c-21.92,1.1-41.64,12.06-54.79,29.59,3.28,2.19,7.67,4.38,11,6.58,17.54-25.21,52.61-31.79,77.81-14.25,5.48,3.29,9.87,8.77,14.25,14.25a94.59,94.59,0,0,1,11-6.58c-13.15-17.53-32.88-28.49-54.8-29.59Z" transform="translate(-251.98 -128.47)"/><path class="cls-2" d="M435,237a43.6,43.6,0,0,1,3.28-4.38c-2.19-7.67-7.67-13.15-15.34-14.25h-2.19c-7.67,1.1-13.15,6.58-15.34,14.25,1.09,1.09,2.19,4.38,3.29,4.38h5.47c0-4.38,3.29-8.77,7.68-8.77,4.38,1.1,7.67,4.39,7.67,8.77H435Z" transform="translate(-251.98 -128.47)"/><path class="cls-2" d="M438.28,462.71c-2.19-7.67-7.67-13.15-15.34-14.24h-2.19c-7.67,1.09-13.15,6.57-15.34,14.24v1.1h8.76c1.1-4.38,4.39-6.58,8.77-6.58,3.29,0,5.48,3.29,6.58,6.58a30.68,30.68,0,0,0,8.76-1.1C437.19,463.81,437.19,462.71,438.28,462.71Z" transform="translate(-251.98 -128.47)"/><path class="cls-2" d="M357.19,143.81l6.57-4.38c-2.19,1.09-5.48,2.19-7.67,3.28A1.08,1.08,0,0,1,357.19,143.81Z" transform="translate(-251.98 -128.47)"/><path class="cls-2" d="M310.06,206.28c29.59,0,57,14.24,72.33,38.35a91,91,0,0,1,16.44-4.38c-18.63-31.78-52.6-50.41-89.86-50.41-6.58,0-12.06,0-17.54,2.19a132.33,132.33,0,0,0-10.95,15.34h0c-1.1,2.19-2.2,3.29-3.29,5.48A88,88,0,0,1,310.06,206.28Z" transform="translate(-251.98 -128.47)"/><path class="cls-2" d="M443.76,240.25c5.48,1.09,11,3.29,16.44,4.38a86.89,86.89,0,0,1,105.21-31.78c-1.1-2.19-2.19-3.29-3.29-5.48v-1.09c-3.29-5.48-7.67-11-11-15.35-5.48-1.09-12-1.09-17.53-2.19C497.46,188.74,463.49,208.47,443.76,240.25Z" transform="translate(-251.98 -128.47)"/><path class="cls-2" d="M443.76,355.32c5.48,1.09,11,3.28,16.44,4.38,27.4-40.55,81.1-51.51,121.65-24.11,1.09,0,1.09,1.1,2.19,1.1,1.09-3.29,1.09-5.48,2.19-8.77,0-3.29,1.1-5.48,1.1-8.77a103.33,103.33,0,0,0-143.57,36.17Z" transform="translate(-251.98 -128.47)"/><path class="cls-2" d="M435,352a43.6,43.6,0,0,1,3.28-4.38c-2.19-7.68-7.67-13.16-15.34-14.25h-2.19c-7.67,1.09-13.15,6.57-15.34,14.25,1.09,1.09,2.19,4.38,3.29,4.38h5.47c0-4.38,3.29-8.77,7.68-8.77,4.38,1.1,7.67,4.39,7.67,8.77H435Z" transform="translate(-251.98 -128.47)"/><path class="cls-2" d="M446,336.69c3.28-3.29,5.48-6.58,8.76-9.87a44.49,44.49,0,0,0-31.78-17.53h-3.29a46.7,46.7,0,0,0-31.78,17.53c3.29,3.29,5.48,6.58,8.77,9.87,5.48-8.77,14.25-14.25,25.21-14.25C431.71,322.44,441.57,327.92,446,336.69Z" transform="translate(-251.98 -128.47)"/><path class="cls-2" d="M578.56,354.22a68.93,68.93,0,0,0-44.93-16.44c-23,0-43.84,11-58.09,29.59,3.29,2.19,7.68,4.39,11,6.58a57.66,57.66,0,0,1,47.13-24.11c15.34,0,29.59,5.48,40.54,16.44,1.1-2.2,1.1-4.39,2.2-5.48a3.42,3.42,0,0,0,1.09-2.2A8.24,8.24,0,0,0,578.56,354.22Z" transform="translate(-251.98 -128.47)"/></svg>