<svg xmlns="http://www.w3.org/2000/svg" viewBox="0 0 220.12 90.97"><defs><style>.cls-1{fill:#b8bfc9;}.cls-2,.cls-4{fill:#dee4e0;}.cls-2{fill-opacity:0.2;}.cls-3{fill:#8795a2;}</style></defs><g id="图层_3" data-name="图层 3"><path class="cls-1" d="M3.45,40.31c-1.16,2-1.08,4.2,0,5.37,1.46,1.58,5,1.5,7.11-1.27A6.25,6.25,0,0,1,18.94,38a7,7,0,0,1,10.29-5.93,3.77,3.77,0,0,0-.33,1.32,3.31,3.31,0,0,1,0,.63,5.59,5.59,0,0,1-.3.6,5.7,5.7,0,0,0-.49,2.57,5.55,5.55,0,0,0,2.2,4.19,5.8,5.8,0,0,0,2.4,1,6.24,6.24,0,0,0,.15,1.17,8.76,8.76,0,0,0-6.55-.86,20.77,20.77,0,0,0-7.07,3.64,24.54,24.54,0,0,1-7.26,4,8.42,8.42,0,0,1-4.08.18A7.42,7.42,0,0,1,4.8,49a7.19,7.19,0,0,1-2.49-7,9.05,9.05,0,0,1,.3-1,.2.2,0,0,0,0-.15C2.89,40.65,3.15,40.46,3.45,40.31Zm187.64-6.76v.38c0,.11.08.19.11.3a4.54,4.54,0,0,1,.3.68,5.66,5.66,0,0,1-.45,4.91,5.58,5.58,0,0,1-3.81,2.56,7.16,7.16,0,0,1-.15,1.2,1.35,1.35,0,0,1,.33-.19,9.25,9.25,0,0,1,7.15-.41,26.15,26.15,0,0,1,7,4,19.24,19.24,0,0,0,7.41,3.6,8.14,8.14,0,0,0,3.89-.26,7.81,7.81,0,0,0,2.92-1.88,7,7,0,0,0,1.76-3.08,7.35,7.35,0,0,0-.22-4.28.38.38,0,0,1,0-.15,6.59,6.59,0,0,0-.86-.49c1.16,2,1.09,4.21,0,5.37-1.46,1.58-5,1.51-7.11-1.28a6.23,6.23,0,0,0-5.7-6.73,6.12,6.12,0,0,0-2.68.36,7,7,0,0,0-10.29-5.94,3.43,3.43,0,0,1,.4,1.33ZM47,15.21a3.52,3.52,0,0,0,3.85.07,1.55,1.55,0,0,1-1.65-.75c-.29-.67.34-1.42.68-1.72,1-.87,2.84-.64,4.71.41a8.73,8.73,0,0,0,4.57,6.23,8.52,8.52,0,0,0,7.33-.07,3.15,3.15,0,0,1-.3-1.54,2.89,2.89,0,0,1,.71-1.77,2.09,2.09,0,0,1,1.76-.67,1.81,1.81,0,0,1,1.31.75,1.77,1.77,0,0,1,.23,1.5,2.31,2.31,0,0,1-.38.64,1.13,1.13,0,0,1-.64.37.4.4,0,0,1-.37-.33c0-.27.15-.34.33-.46a.92.92,0,0,0,.26-1.27l-.06-.09A1.16,1.16,0,0,0,68,16.17a1.77,1.77,0,0,0-1,1.09A2.63,2.63,0,0,0,67.11,19a.15.15,0,0,1,0,.18,7.79,7.79,0,0,0,11-.11c4.75,1.35,8.53-.94,8.9-3.19.26-1.65-1.2-3.75-3.55-5.07a7.55,7.55,0,0,1-.9,2.85A6.41,6.41,0,0,1,78,17a5.31,5.31,0,0,1-5.87-3.14,4.79,4.79,0,0,1,.78-4.66,4.13,4.13,0,0,1,5.47-.56,3.4,3.4,0,0,1,1.3,2.48,2.39,2.39,0,0,1-1.16,2.21A2.09,2.09,0,0,1,76,13a1.41,1.41,0,0,1,.3-2.25c.3-.15,1-.23,1,.26a.4.4,0,0,1-.23.42c-.19.07-.37-.08-.6.07-.56.37,0,1.13.41,1.28a1.45,1.45,0,0,0,1.35-.23,1.92,1.92,0,0,0,.41-2.4A2.77,2.77,0,0,0,77,8.75a3.33,3.33,0,0,0-4.08,1.73A4,4,0,0,0,74,15.28a4.6,4.6,0,0,0,3.18,1.09,5.17,5.17,0,0,0,3.1-1.2A6.71,6.71,0,0,0,82.71,10c0-.12.07-.19.15-.19A6.73,6.73,0,0,0,75.53,3.7L75,3.77h0a5.49,5.49,0,0,0-2.36,2.36c-.11.27-.18.72-.52.76s-.41-.3-.52-.57a5,5,0,0,0-.57-1,4.73,4.73,0,0,0-4-1.81,4.36,4.36,0,0,0-3.64,2.7,4.38,4.38,0,0,0-.33,2.4,1.16,1.16,0,0,0,.07.37.15.15,0,0,0,.07.12.28.28,0,0,1,0,.18.41.41,0,0,0,.08.19,2.82,2.82,0,0,0,.71,1,1.8,1.8,0,0,0,2.17.49,1.45,1.45,0,0,0,.63-1.77,1.4,1.4,0,0,0-.71-.82.73.73,0,0,0-.56-.07.39.39,0,0,0-.18.18.21.21,0,0,0,.11.23.37.37,0,0,1-.11.51l-.12,0c-.3.08-.52-.22-.56-.49a1,1,0,0,1,.69-1.24,1.1,1.1,0,0,1,.36,0,2,2,0,0,1,1.65,1,2.27,2.27,0,0,1-.78,3.12,2.64,2.64,0,0,1-.38.18c-1.47.53-2.92-.71-3.52-2-.08-.19-.11-.42-.26-.53A1.77,1.77,0,0,0,61.93,9a2.44,2.44,0,0,0-1-.23,3.29,3.29,0,0,0-2,.68,4.46,4.46,0,0,0-1.72,3.94,3.22,3.22,0,0,0,2.66,3c1.53.15,3.14-1.51,2.2-3a1.71,1.71,0,0,0-1.83-.82,1,1,0,0,0-.75.67c-.07.3.08.72.45.72s.3-.38.6-.45a.33.33,0,0,1,.43.21.3.3,0,0,1,0,.16,1.1,1.1,0,0,1-1.33.81l-.17-.06A1.31,1.31,0,0,1,58.82,13a1.93,1.93,0,0,1,1.5-1.17,2.58,2.58,0,0,1,2.79,2.35,2.62,2.62,0,0,1,0,.28,3,3,0,0,1-3,2.71,3.71,3.71,0,0,1-3.4-2.48A5.06,5.06,0,0,1,57,10.78h0a1.75,1.75,0,0,0-2-.94,2.08,2.08,0,0,0-.9.56c-.18.19-.34.49-.63.34-.64-.34.37-1.13.63-1.31a2.41,2.41,0,0,1,3.29.67,4.37,4.37,0,0,1,2.14-1.72,3.65,3.65,0,0,1,2.81.11A5.81,5.81,0,0,1,63,5.3a5,5,0,0,1,4.75-2.6,5.69,5.69,0,0,1,4.34,2.82A6.22,6.22,0,0,1,74.74,3h0A5.12,5.12,0,0,0,71,.08a5.25,5.25,0,0,0-5.46,2.7,3.48,3.48,0,0,0-5.84,3.34,4.63,4.63,0,0,0-5.46-.34,4.72,4.72,0,0,0-1.79,3.61,4.26,4.26,0,0,0-5.17.41C45.85,11.26,45.51,14,47,15.21ZM43.15,52.37A9,9,0,0,0,51.31,58a8.91,8.91,0,0,0,8.23-5.3.08.08,0,0,1-.08-.07A4.31,4.31,0,0,0,57,50.3a3.59,3.59,0,0,0-4.48,2.37,4.4,4.4,0,0,0-.13.63,2.14,2.14,0,0,0,1.39,2.21,1.3,1.3,0,0,0,1.42-.33,1.2,1.2,0,0,0,.08-1.47h0a.38.38,0,0,1,.08-.53.38.38,0,0,1,.29-.07c.34.07.53.6.6.9a2,2,0,0,1-.9,2.1,2.41,2.41,0,0,1-3.25-1.06A.25.25,0,0,1,52,55a3.59,3.59,0,0,1,.41-3.79,4.56,4.56,0,0,1,4-1.69,5,5,0,0,1,3.74,2.89.12.12,0,0,1,0,.16,8.91,8.91,0,0,0,9.69-3.72,9.1,9.1,0,0,0-2.54-12A7.1,7.1,0,0,0,67.06,32,7.23,7.23,0,0,0,61,27.89a6.66,6.66,0,0,0-4.56-3.83,6.55,6.55,0,0,0-5.84,1.8,5.59,5.59,0,0,0-6.36,4.32,10.38,10.38,0,0,0-2.36-1.69l-.11.11a15.36,15.36,0,0,0-1.57.79A9.34,9.34,0,0,0,36,35.1c-.57,2.25-.45,5.18,1.83,6.42a4.36,4.36,0,0,0,3.55.26,3.64,3.64,0,0,0,2.21-2.29,2.66,2.66,0,0,0-.86-2.85,2,2,0,0,0-2.77.33,1.66,1.66,0,0,0,.47,2.31,1.41,1.41,0,0,0,.32.17.38.38,0,0,1,.34.38.46.46,0,0,1-.27.37,1.26,1.26,0,0,1-.63-.14,1.56,1.56,0,0,1-.56-.42,2.41,2.41,0,0,1,1.57-4.13,2.82,2.82,0,0,1,2.54,1.13,3.28,3.28,0,0,1,.45.82,6.2,6.2,0,0,1,5.46-4.69A5.43,5.43,0,0,1,55.5,36,3.61,3.61,0,0,1,57,35a2.86,2.86,0,0,1,.12-.82,5.1,5.1,0,0,1,.33-1,4.57,4.57,0,0,1,4.79-2.69,4.27,4.27,0,0,1,1,.23c.23.07.64.19.75.41a.38.38,0,0,1-.15.49c-.22.15-.48,0-.71-.15a4,4,0,0,0-3.66.45,4,4,0,0,0-1.65,2.89,4.07,4.07,0,0,1,2.24.19,4.14,4.14,0,0,1,2,5.49,3.15,3.15,0,0,1-.28.51,2.53,2.53,0,0,1,1.69,1.17,2.75,2.75,0,0,1-1,3.71,4.35,4.35,0,0,1-4.41,0A2.39,2.39,0,0,1,57.62,47a2,2,0,0,1-2.69.45,2.21,2.21,0,0,1-.9-1.2.42.42,0,0,1,.19-.49.39.39,0,0,1,.48.12c.08.11.08.26.16.37a.77.77,0,0,0,.22.34,1.22,1.22,0,0,0,.63.41,1.24,1.24,0,0,0,1.39-.41,1.36,1.36,0,0,0,.26-.75,1.21,1.21,0,0,0,0-.38,1.28,1.28,0,0,1-.07-.34.36.36,0,0,1,.4-.31h.05c.11,0,.22.15.34.19a3.3,3.3,0,0,0,.41.23,3.6,3.6,0,0,0,3.59.07,2,2,0,0,0,.79-2.71v0a1.56,1.56,0,0,0-1.61-.75c-.22,0-.41.08-.56-.15s0-.38.15-.56A3.54,3.54,0,0,0,61.7,38a3.09,3.09,0,0,0-2-2.37,3.7,3.7,0,0,0-3.18.46,2.67,2.67,0,0,0-.67.67c-.15.19-.22.42-.45.42a.44.44,0,0,1-.41-.42,2.25,2.25,0,0,0-.23-.75,4.27,4.27,0,0,0-2.69-2.33,6,6,0,0,0-6.21,2,4.48,4.48,0,0,0-.94,3.19,3.69,3.69,0,0,0,2,3,3.15,3.15,0,0,0,3.36-.3A2.82,2.82,0,0,0,51,38.26a2.06,2.06,0,0,0-2.7-1,1.36,1.36,0,0,0-.07,2.26.37.37,0,0,1,.07.53.23.23,0,0,1-.07.07c-.27.19-.53,0-.72-.19a1.9,1.9,0,0,1-.48-.71,2.23,2.23,0,0,1,.11-1.77,2.38,2.38,0,0,1,3.22-.82c2.17,1.09,2,4.28.22,5.63a4,4,0,0,1-4.3.11,4.31,4.31,0,0,1-2-2.63,4.55,4.55,0,0,1-4.49,3.08,4.68,4.68,0,0,1-4.48-3.26,9.32,9.32,0,0,1,.9-7.1,10.62,10.62,0,0,1,2.36-2.89,11.4,11.4,0,0,1,1.49-1l.83-.45h0a8.43,8.43,0,0,0-3.59-.48c-4.82.45-7,4.91-7.11,5.11a.69.69,0,0,0-.3-.2,2.28,2.28,0,0,0-.22,1,2.62,2.62,0,0,1,0,.79,3.68,3.68,0,0,1-.37.71,3.37,3.37,0,0,0-.27.87,4.83,4.83,0,0,0,1.95,5,4.29,4.29,0,0,0,1.35.64,5.49,5.49,0,0,0,.78.18.42.42,0,0,1,.42.27,2.29,2.29,0,0,1,0,.37v.45a5.24,5.24,0,0,0,.15.79,4.2,4.2,0,0,0,.22.79c.12.15.19.22.15.38a8.85,8.85,0,0,0,1.16,2,8.36,8.36,0,0,0,8,2.93,5,5,0,0,0,3.14-1.92A2.9,2.9,0,0,0,46,43.86a2.26,2.26,0,0,0-2-.45,1.62,1.62,0,0,0-1.19,1.42.92.92,0,0,0,.92.94h.08a.67.67,0,0,0,.57-.37.35.35,0,0,1,.47-.15.31.31,0,0,1,.09.07c.45.41-.34,1-.68,1.13a1.73,1.73,0,0,1-1.53-.23c-1.08-.75-.71-2.33.19-3.08a2.88,2.88,0,0,1,3.63.27,3.48,3.48,0,0,1,.89,3.82c-1,3-4.63,3.8-7.44,3.27a8.86,8.86,0,0,1-6.66-5.33,1.13,1.13,0,0,0-.26-.45,3.91,3.91,0,0,0-.41-.3c-.3-.19-.6-.37-.9-.53a6.44,6.44,0,0,0-2.06-.56,9.32,9.32,0,0,0-4.19.45c-3,1-5.5,3.08-8.12,4.81s-5.76,3.23-9,2.85a8.14,8.14,0,0,1-2.8-.9A8,8,0,0,1,2.1,46.75a8.85,8.85,0,0,1-.68-3,9.89,9.89,0,0,1,.12-1.54,2.34,2.34,0,0,0,.07-.45,5.62,5.62,0,0,0-1.3,5.76A5.7,5.7,0,0,0,5.81,51,9,9,0,0,0,18,54.6a8.7,8.7,0,0,0,1.52-1,21.66,21.66,0,0,1,13.29-4.35,21.17,21.17,0,0,1,10.32,3.11Zm98.74-33.22a7.77,7.77,0,0,0,11,.12h0a.15.15,0,0,1,0-.18,2.57,2.57,0,0,0,.15-1.77,1.77,1.77,0,0,0-.9-1,1.32,1.32,0,0,0-1.23.15,1,1,0,0,0-.22,1.17.51.51,0,0,0,.22.26c.08.07.19.07.26.15a.36.36,0,0,1,.11.45c-.18.45-.74.07-1-.15a1.72,1.72,0,0,1,0-2.4,2,2,0,0,1,2.69,0,2.43,2.43,0,0,1,.83,1.54,3.34,3.34,0,0,1-.27,1.92,8.58,8.58,0,0,0,7.34.07,8.73,8.73,0,0,0,4.55-6.26c1.87-1.05,3.71-1.28,4.72-.41.33.3,1,1,.67,1.72a1.57,1.57,0,0,1-1.64.75A3.62,3.62,0,0,0,173,15.2c1.46-1.2,1.12-3.9-.34-5.33a4.27,4.27,0,0,0-5.16-.41,4.73,4.73,0,0,0-1.8-3.61,4.57,4.57,0,0,0-5.46.34,3.46,3.46,0,0,0-1.16-3.6,3.65,3.65,0,0,0-4.68.26A5.28,5.28,0,0,0,149,.14,5.08,5.08,0,0,0,145.22,3h0a6.59,6.59,0,0,1,2.62,2.51,5.28,5.28,0,0,1,2-2.06,5.13,5.13,0,0,1,5.39,0,5.56,5.56,0,0,1,2.47,5,3.63,3.63,0,0,1,2.8-.11,4.78,4.78,0,0,1,2.13,1.72,2.72,2.72,0,0,1,1.73-1,2.51,2.51,0,0,1,1.94.64c.19.19.53.49.53.79a.38.38,0,0,1-.4.34l-.13,0c-.15-.07-.22-.26-.33-.37a1.91,1.91,0,0,0-.38-.31,2,2,0,0,0-1.09-.26,1.88,1.88,0,0,0-1,.46,1.06,1.06,0,0,0-.33.45.29.29,0,0,0-.08.14,6,6,0,0,1,.53,1.81,4.27,4.27,0,0,1-1.47,3.79,3.39,3.39,0,0,1-2.13.79,3.14,3.14,0,0,1-2-.75,2.78,2.78,0,0,1-1-1.92A2.58,2.58,0,0,1,159.81,12a1.89,1.89,0,0,1,1.5,1,1.3,1.3,0,0,1-.64,1.69,1.11,1.11,0,0,1-1.47-.55l-.06-.17a.36.36,0,0,1,.3-.41h.11c.3,0,.3.41.56.45s.56-.34.49-.67a.94.94,0,0,0-.72-.68,1.68,1.68,0,0,0-1.83.75,1.81,1.81,0,0,0,.15,2.21,2.4,2.4,0,0,0,2,.87,2.82,2.82,0,0,0,1.87-.94c2.09-2.21.26-6.64-2.81-6.64a3.39,3.39,0,0,0-1,.18,2.3,2.3,0,0,0-.49.26,1.17,1.17,0,0,0-.26.46A4,4,0,0,1,156,11.48a2.55,2.55,0,0,1-2.06.34,2.32,2.32,0,0,1-1.39-1.32,2.2,2.2,0,0,1,1.23-2.86,2.16,2.16,0,0,1,.57-.14,1,1,0,0,1,1.13.85,1,1,0,0,1,0,.35c0,.26-.26.6-.56.56a.39.39,0,0,1-.32-.45s0-.05,0-.07.15-.15.12-.23a.51.51,0,0,0-.19-.22.69.69,0,0,0-.49,0,1.45,1.45,0,0,0-.79.82,1.48,1.48,0,0,0,.57,1.77,1.76,1.76,0,0,0,2.17-.42,3.09,3.09,0,0,0,.71-1,.9.9,0,0,0,.11-.27.28.28,0,0,1,0-.18.26.26,0,0,0,.07-.15.54.54,0,0,1,.08-.34,4.77,4.77,0,0,0-1.66-4.25,4.31,4.31,0,0,0-4.52-.49,4.65,4.65,0,0,0-1.72,1.32,5.22,5.22,0,0,0-.61.94c-.1.26-.14.67-.52.63s-.41-.44-.52-.67a5.85,5.85,0,0,0-.64-1A5.26,5.26,0,0,0,145,3.58h0A6.72,6.72,0,0,0,137.24,9c0,.19-.05.37-.07.56a.18.18,0,0,1,.15.19,7.33,7.33,0,0,0,.11,1.24,6.53,6.53,0,0,0,2.51,4.2,5,5,0,0,0,5.47.3,4,4,0,0,0,2-4,3.4,3.4,0,0,0-2.58-3,3.28,3.28,0,0,0-3.45,1.27,2.15,2.15,0,0,0-.14,2.07,1.46,1.46,0,0,0,1.95.63l.05,0c.33-.23.63-.87.18-1.16-.18-.12-.37,0-.59-.08a.32.32,0,0,1-.23-.3c-.08-.38.37-.49.67-.45a1.23,1.23,0,0,1,.94.6,1.55,1.55,0,0,1-.52,2,2.1,2.1,0,0,1-2.25.08,2.73,2.73,0,0,1-.77-3.78,1.86,1.86,0,0,1,.21-.28,4.06,4.06,0,0,1,4.9-1,4.31,4.31,0,0,1,2.28,3.42,4.77,4.77,0,0,1-1.12,3.64,5.44,5.44,0,0,1-4.45,1.8,6.35,6.35,0,0,1-4.27-2.21,7.57,7.57,0,0,1-1.68-4c-2.36,1.35-3.82,3.42-3.55,5.07.37,2.41,4.15,4.65,8.9,3.3Zm76.47,22.52a1,1,0,0,1,0,.34,9.53,9.53,0,0,1,.15,1.5,7.55,7.55,0,0,1-.6,3v.07a8.23,8.23,0,0,1-1.12,1.84,8.32,8.32,0,0,1-3.48,2.52,8.83,8.83,0,0,1-4.86.26c-3.52-.75-6.32-3-9.24-5-2.73-1.84-5.88-3.46-9.28-2.89a6.23,6.23,0,0,0-2.17.75,4.07,4.07,0,0,0-.93.67c-.16.11-.19.34-.27.49a2.17,2.17,0,0,1-.26.53,9.08,9.08,0,0,1-3.22,3.46,9.26,9.26,0,0,1-4.77,1.39,6.74,6.74,0,0,1-4.49-1.54,4.21,4.21,0,0,1-1.34-4.36,3.25,3.25,0,0,1,3.44-2.13,2.33,2.33,0,0,1,1.68,1.12,2,2,0,0,1,.19,1.84,1.65,1.65,0,0,1-1.5.9,1.83,1.83,0,0,1-.86-.22,1.26,1.26,0,0,1-.52-.68.39.39,0,0,1,.36-.42.29.29,0,0,1,.13,0c.14,0,.18.18.26.3a.58.58,0,0,0,.29.22,1,1,0,0,0,1.19-.76v0a1.57,1.57,0,0,0-1.27-1.53,2.35,2.35,0,0,0-2.17.71c-1.2,1.2-.71,3.19.34,4.28a5.82,5.82,0,0,0,3.78,1.5,8.2,8.2,0,0,0,8.12-5,.24.24,0,0,1,0-.23c0-.11.15-.18.18-.26a3.78,3.78,0,0,0,.23-.86c.07-.34.11-.64.15-1s0-.53.18-.67a2,2,0,0,1,.68-.16,2.45,2.45,0,0,0,.71-.22,5.09,5.09,0,0,0,1.35-.79A4.82,4.82,0,0,0,191,38.29a5.16,5.16,0,0,0,0-2.81,3.69,3.69,0,0,0-.34-.79,3.94,3.94,0,0,1-.31-.48v-.83a3.7,3.7,0,0,0-.22-.87l-.3.2c-.08-.2-2.28-4.7-7.11-5.11a8.62,8.62,0,0,0-3.63.48,10.93,10.93,0,0,1,1.42.79,10.41,10.41,0,0,1,4.3,6.12c.56,2.33.42,5.26-1.68,6.84a5,5,0,0,1-5.76.07,4.12,4.12,0,0,1-1.61-2.21,4.43,4.43,0,0,1-.6,1.35,4.23,4.23,0,0,1-4.27,1.76,3.41,3.41,0,0,1-2.54-2.59,3.2,3.2,0,0,1,.9-3.27,2.61,2.61,0,0,1,3.55,0,2.31,2.31,0,0,1,.48,1.84,1.74,1.74,0,0,1-.37.87c-.15.18-.48.52-.79.45a.41.41,0,0,1-.26-.5.64.64,0,0,1,.08-.14c.11-.11.26-.19.37-.3a1.23,1.23,0,0,0,.19-.38,1.43,1.43,0,0,0-.56-1.61,1.71,1.71,0,0,0-1.43-.15,2.36,2.36,0,0,0-1.57,2.51,2.78,2.78,0,0,0,2,2.44,3.47,3.47,0,0,0,3.25-.9,3.92,3.92,0,0,0,1-3.22,5.28,5.28,0,0,0-4-4.29c-2.25-.6-5.05.16-5.91,2.56a1.74,1.74,0,0,0-.11.45.51.51,0,0,1-.08.33.35.35,0,0,1-.45.16c-.22-.08-.34-.38-.48-.53a3.1,3.1,0,0,0-.64-.56,3.62,3.62,0,0,0-3-.45,3,3,0,0,0-2.06,2.14,3.66,3.66,0,0,0,.49,3,3.07,3.07,0,0,0,.29.34.61.61,0,0,1,.19.26.38.38,0,0,1-.22.45.39.39,0,0,1-.3,0,1.69,1.69,0,0,0-.45,0,1.88,1.88,0,0,0-.75.3,1.84,1.84,0,0,0-.4,2.57,2,2,0,0,0,.18.21,3,3,0,0,0,3.1.83,5.28,5.28,0,0,0,.94-.34c.26-.14.5-.29.74-.45a.37.37,0,0,1,.5.12l0,.07a1.9,1.9,0,0,1,0,.63,1.36,1.36,0,0,0,.6,1.24,1.23,1.23,0,0,0,1.42-.07,1.59,1.59,0,0,0,.49-.6c.07-.19.07-.38.3-.45A.43.43,0,0,1,166,46c.11.18,0,.41-.08.56a2,2,0,0,1-3.93-.64,5.12,5.12,0,0,1-2.65.64A3.46,3.46,0,0,1,156.25,44a2.51,2.51,0,0,1,1.92-3l.08,0a4.17,4.17,0,0,1,.52-5.22,4,4,0,0,1,3.48-1,4,4,0,0,0-2.09-3.19,3.43,3.43,0,0,0-1.85-.42,4.79,4.79,0,0,0-1,.11,4,4,0,0,0-.45.15c-.11,0-.26.15-.37.15a.38.38,0,0,1-.45-.26c-.07-.26.15-.42.38-.49a4.79,4.79,0,0,1,1.94-.41,4.66,4.66,0,0,1,3.37,1.43,5,5,0,0,1,1,1.54,3.39,3.39,0,0,1,.26.93,3.83,3.83,0,0,1,.08.68,4.44,4.44,0,0,1,1.49,1,3.69,3.69,0,0,1,.34-.79c1.39-2.41,4.57-3,7-2.11a6.19,6.19,0,0,1,3.66,3.27,4.91,4.91,0,0,1,.34,1.13,3.24,3.24,0,0,1,1-1.43,2.77,2.77,0,0,1,3-.19,2.29,2.29,0,0,1,1.16,2.59,2.43,2.43,0,0,1-.75,1.28c-.26.23-.93.67-1.23.34-.11-.15-.15-.38,0-.49a.85.85,0,0,1,.3-.15.88.88,0,0,0,.41-.23,1.71,1.71,0,0,0,.6-1.42,1.84,1.84,0,0,0-2.13-1.5,1.66,1.66,0,0,0-.38.11,2.51,2.51,0,0,0-1.51,2.76,3.5,3.5,0,0,0,2.25,2.59,4.3,4.3,0,0,0,3.82-.37c2.39-1.54,2.13-5,1.27-7.28a9.47,9.47,0,0,0-5.45-5.48l-.11-.11a9.1,9.1,0,0,0-2.34,1.65,5.8,5.8,0,0,0-2.55-3.53,5.62,5.62,0,0,0-3.82-.75,6.77,6.77,0,0,0-5.83-1.8A6.57,6.57,0,0,0,159.09,28a7.29,7.29,0,0,0-6.1,4.09,7,7,0,0,0-.26,4.84,9.12,9.12,0,0,0-2.54,12,9,9,0,0,0,9.68,3.71v-.14a4.85,4.85,0,0,1,4-2.89c2.69-.19,5.5,2.43,4.42,5.17a2.53,2.53,0,0,1-2.77,1.69A1.93,1.93,0,0,1,164,54.16a2,2,0,0,1,.31-.73v-.07c0-.07.07,0,.11-.08a.37.37,0,0,1,.48.15c.16.26-.1.45-.18.68a1.19,1.19,0,0,0,.67,1.53h0a1.58,1.58,0,0,0,1.57-.34,2.08,2.08,0,0,0,.71-1.31,3,3,0,0,0-1.23-2.86,3.76,3.76,0,0,0-3.45-.67,4.27,4.27,0,0,0-2.43,2.29.07.07,0,0,1-.07.07h0a8.89,8.89,0,0,0,16.39-.33,20.89,20.89,0,0,1,10.43-3.08,21.4,21.4,0,0,1,13.25,4.35,9.17,9.17,0,0,0,7.11,2,9.56,9.56,0,0,0,6.64-4.56,5.77,5.77,0,0,0,5.5-3.49,6.19,6.19,0,0,0-1.5-6.1ZM106.23,83.87c.26,1.88-1.08,3.91-3.14,5.22.18-.41,1.08-2.74,0-4.43-1.31-2.06-5.2-2.74-8.83-.38A10.29,10.29,0,0,1,88,89.92a10,10,0,0,1-5.61-.08,2.38,2.38,0,0,0,.19-.68,6.09,6.09,0,0,0,0-1.35A3,3,0,0,0,81.1,85.6a2.5,2.5,0,0,0-2.51,0,2.22,2.22,0,0,0-1.16,2,1.75,1.75,0,0,0,1.76,1.65h.12a.35.35,0,0,0,.29-.39s0,0,0-.06c-.08-.3-.34-.26-.57-.3a1,1,0,0,1-.71-.71,1.34,1.34,0,0,1,.26-1.17,1.76,1.76,0,0,1,1.76-.6,2.21,2.21,0,0,1,1.46,1.32,3.1,3.1,0,0,1-.26,2.7.17.17,0,0,0,0,.19,5.58,5.58,0,0,1-6.7-.94,5.76,5.76,0,0,1-.93-5,8.62,8.62,0,0,1-8.2,4.47,8.34,8.34,0,0,1-5.38-3h0a7.36,7.36,0,0,0,.93-3v-.48a3.66,3.66,0,0,0-.08-.94,7.12,7.12,0,0,0-.37-1.58,6.81,6.81,0,0,0-3.22-3.87,5.62,5.62,0,0,0-2.84-.67,4.73,4.73,0,0,0-4.23,2.89,4,4,0,0,0,1.27,4.65,3.08,3.08,0,0,0,4.31-.48,2.4,2.4,0,0,0,.15-2.18A1.72,1.72,0,0,0,54.31,79a1.24,1.24,0,0,0-.86.68c-.11.27-.22.75.11.86a.34.34,0,0,0,.34,0c.15-.11.15-.23.19-.38,0-.3.44-.41.71-.41.86,0,1.08,1.28.78,2a2,2,0,0,1-1.94,1,2.69,2.69,0,0,1-2.14-1.38,3.35,3.35,0,0,1-.3-2.78,3.91,3.91,0,0,1,1.76-2,4.58,4.58,0,0,1,3-.41c3.63.75,5.5,5.29,4.07,8.59A5.26,5.26,0,0,1,59.32,86a.15.15,0,0,0,0,.18,13,13,0,0,1-9.88.79,12.61,12.61,0,0,1-6.09-4.58,13,13,0,0,1-9,2c-4.3-.75-9.54-4.24-9.21-8.26.23-2.44,2.36-4.13,3.45-4.84a4.74,4.74,0,0,0-.49,6.12,4.68,4.68,0,0,0,5.65,1.46,8.79,8.79,0,0,1,5-3,9.13,9.13,0,0,1,4.75.37,4,4,0,0,1-.64-4.84,3.91,3.91,0,0,1,5.2-1.27,5.41,5.41,0,0,1,2.17-6A5.3,5.3,0,0,1,57,65a7.75,7.75,0,0,1,3.7-3.79,8.1,8.1,0,0,1,6.21-.08.9.9,0,0,0-.19.15c-.11.08-.22.19-.33.26a7.82,7.82,0,0,0-1.13,1.17A9,9,0,0,0,63.7,65.5a7.13,7.13,0,0,0,1.12,6.61,6.49,6.49,0,0,0,3,2.07,5.54,5.54,0,0,0,5.91-2,4.52,4.52,0,0,0-.12-5.56,3.46,3.46,0,0,0-4.86-.47,3.09,3.09,0,0,0-.41.4,2.76,2.76,0,0,0-.52,2.78,1.7,1.7,0,0,0,2.13,1,1.27,1.27,0,0,0,.69-1.66,1.39,1.39,0,0,0-.33-.46c-.15-.12-.3-.2-.45-.12a.42.42,0,0,0-.26.45c0,.19.26.26.34.45a.47.47,0,0,1-.23.56.86.86,0,0,1-1-.26,1.69,1.69,0,0,1-.26-1.46,2.49,2.49,0,0,1,2.1-1.8,3,3,0,0,1,2.58,1.09A3.42,3.42,0,0,1,73.8,70a4.62,4.62,0,0,1-5.13,3.49A5.63,5.63,0,0,1,64.11,69a7.33,7.33,0,0,1,2.2-6.46,12.13,12.13,0,0,1,1.27-1,.13.13,0,0,0,.09-.16v0a8.46,8.46,0,0,1,9.24,4.88c1.64,4.13-1.2,7.92-1.31,8.07A7,7,0,0,1,80.53,72,7.17,7.17,0,0,1,87,76.25h0a6,6,0,0,1-2.81,5.52,5.06,5.06,0,0,1-5.72-.11,3.84,3.84,0,0,1-1.42-2.37,3.24,3.24,0,0,1,.82-2.74,2.7,2.7,0,0,1,2.88-.79,2.5,2.5,0,0,1,1.72,2.29,1.37,1.37,0,0,1-.63,1.24c-.42.27-1.09.19-1.16-.41a.67.67,0,0,1,.07-.37c0-.08.15-.16.19-.23a.3.3,0,0,0-.06-.43l0,0c-.37-.38-.79.22-.86.52a1.43,1.43,0,0,0,.26,1.32,1.37,1.37,0,0,0,1.31.49,1.92,1.92,0,0,0,1.74-2,3.32,3.32,0,0,0-3.19-3.44,3.37,3.37,0,0,0-.55,0A3.9,3.9,0,0,0,76.39,79a4.82,4.82,0,0,0,3.29,4,6.22,6.22,0,0,0,5.61-1.09,7.39,7.39,0,0,0,1.09-1,6.6,6.6,0,0,0,1.46-5v-.07a4.37,4.37,0,0,1,3.4-.26,4.83,4.83,0,0,1,3,5,9.89,9.89,0,0,1,5.16-.93c2.12.08,6.42,1.17,6.83,4.17Zm-45.12-13a3,3,0,0,0-2.62-1.32,3,3,0,0,0-.75-.75,4.89,4.89,0,0,0-.93-.56A4.07,4.07,0,0,0,54.6,68a4,4,0,0,0-2.92,2.52,2.25,2.25,0,0,0-3.16.36l-.09.12c-.19.27-.71,1.32,0,1.36.26,0,.37-.19.41-.42a1.42,1.42,0,0,1,.56-.82,1.52,1.52,0,0,1,2.13.28l0,.05h0a.39.39,0,0,0,.56,0,.32.32,0,0,0,.08-.12c.07-.15.07-.34.15-.49a1.79,1.79,0,0,1,.19-.45A3.35,3.35,0,0,1,54,68.92a3.12,3.12,0,0,1,3.66.75,3,3,0,0,0-1.72,1.68.41.41,0,0,0,0,.49.49.49,0,0,0,.45.12c.18-.08.22-.27.3-.45a3.1,3.1,0,0,1,.41-.61,2.14,2.14,0,0,1,2.65-.33,2.08,2.08,0,0,1,.53.45c.15.15.22.41.45.45a.39.39,0,0,0,.41-.12A.36.36,0,0,0,61.11,70.87ZM192.81,72c.6,4-4.41,7.81-8.68,8.82A13.09,13.09,0,0,1,175,79.43a12.66,12.66,0,0,1-5.8,5,13.22,13.22,0,0,1-9.89-.22V84a6.54,6.54,0,0,1,.94-9,4.64,4.64,0,0,1,5-.67,3.52,3.52,0,0,1,1.72,4.5,2.82,2.82,0,0,1-1.76,1.58,2.1,2.1,0,0,1-2.09-.45,1.54,1.54,0,0,1-.15-2,.84.84,0,0,1,.85-.3.91.91,0,0,1,.38.19c.07.11,0,.26.11.37a.38.38,0,0,0,.52.12.34.34,0,0,0,.12-.12c.19-.22,0-.64-.15-.86a1.55,1.55,0,0,0-2-.34,2.1,2.1,0,0,0-.93,1.91,2.3,2.3,0,0,0,1,1.81,3.25,3.25,0,0,0,4.15-.68,4.09,4.09,0,0,0-.26-5.55,5.13,5.13,0,0,0-6.4-.57,7.33,7.33,0,0,0-3.18,5.86v.6a1.7,1.7,0,0,0,0,.45c.07.34.11.71.19,1a6.1,6.1,0,0,0,.93,2h0a8.2,8.2,0,0,1-5.17,3.3,8.63,8.63,0,0,1-8.45-3.94,5.81,5.81,0,0,1-.6,5,5.54,5.54,0,0,1-6.62,1.35V89.4a3,3,0,0,1-.3-3,2,2,0,0,1,2.28-1.09,1.67,1.67,0,0,1,1,.86,1.14,1.14,0,0,1-.26,1.36.48.48,0,0,1-.34.14.57.57,0,0,0-.26,0,.32.32,0,0,0-.26.3c-.07.38.34.45.6.42a1.81,1.81,0,0,0,1.38-1.92,2.4,2.4,0,0,0-2.73-2h-.07a3,3,0,0,0-2.36,3.08,3.81,3.81,0,0,0,.19,1.16,1.77,1.77,0,0,0,.18.45,9.72,9.72,0,0,1-5.57.42,10.3,10.3,0,0,1-6.59-5.26c-3.74-2.14-7.59-1.2-8.79.9-1,1.77.08,4,.3,4.43-2.13-1.2-3.59-3.11-3.44-5,.22-3,4.49-4.39,6.51-4.73a10,10,0,0,1,5.24.64,4.82,4.82,0,0,1,2.69-5.22,4.54,4.54,0,0,1,3.4,0v.07a6.71,6.71,0,0,0,1.87,5.07,6.94,6.94,0,0,0,4.52,2,5.45,5.45,0,0,0,2.74-.64,4.9,4.9,0,0,0,2.5-3.79,3.86,3.86,0,0,0-2.47-3.94,3.41,3.41,0,0,0-4.3,1.88,2.91,2.91,0,0,0,0,2.17,1.87,1.87,0,0,0,2,1.13,1.36,1.36,0,0,0,1.12-1.58,1.11,1.11,0,0,0-.07-.26c-.11-.3-.45-.75-.82-.57a.39.39,0,0,0-.19.38c0,.19.19.27.3.41a.66.66,0,0,1-.34.87l-.11,0A1.09,1.09,0,0,1,136,78a2,2,0,0,1,.26-2.29,2.75,2.75,0,0,1,2.54-1,3.28,3.28,0,0,1,2.14,1.65,3.76,3.76,0,0,1-1.09,4.43,4.93,4.93,0,0,1-5.09.56,6,6,0,0,1-3.52-4.24,8.17,8.17,0,0,1-.11-1.31h0a7.21,7.21,0,0,1,6.18-4.66,7.08,7.08,0,0,1,5.08,2c-.15-.15-3.21-3.79-1.83-8a8.47,8.47,0,0,1,8.94-5.44.27.27,0,0,0,.08.19,7.75,7.75,0,0,1,3.92,5.89,6,6,0,0,1-.78,3.61,5.64,5.64,0,0,1-2.7,2.36,4.62,4.62,0,0,1-6-2.57l0-.06a3.54,3.54,0,0,1,.37-3.19A2.89,2.89,0,0,1,147,64.63a2.48,2.48,0,0,1,2.18,1.91A1.45,1.45,0,0,1,148.7,68c-.31.18-.79.26-1-.11a.45.45,0,0,1,0-.42c0-.11.15-.15.23-.26a.35.35,0,0,0-.13-.48h0c-.41-.26-.79.34-.86.64a1.26,1.26,0,0,0,.41,1.28,1.38,1.38,0,0,0,1.27.22,2,2,0,0,0,1.24-2.44,3.21,3.21,0,0,0-2.1-2.37,3.59,3.59,0,0,0-3.1.49A3.87,3.87,0,0,0,143,67.14,4.87,4.87,0,0,0,146,72.33,5.52,5.52,0,0,0,152.42,71a6.4,6.4,0,0,0,1-1.31c1.68-3,.64-6.83-1.8-9.12a5.43,5.43,0,0,0-1-.79,1.9,1.9,0,0,0-.37-.26,7.81,7.81,0,0,1,6.21-.34,7.63,7.63,0,0,1,3.93,3.56,5.25,5.25,0,0,1,9.2,4.51,3.94,3.94,0,0,1,5.28,1,4,4,0,0,1-.34,4.89,8.76,8.76,0,0,1,4.71-.68,9,9,0,0,1,5.21,2.7A4.7,4.7,0,0,0,190,73.29a4.79,4.79,0,0,0-.86-6.08C190.19,68.09,192.47,69.63,192.81,72ZM169.54,69a2.08,2.08,0,0,0-.49-.68,2.3,2.3,0,0,0-1.46-.64,2.17,2.17,0,0,0-1.6.6,3.93,3.93,0,0,0-3.07-2.33,3.67,3.67,0,0,0-2.25.42,3.11,3.11,0,0,0-.9.63,4.17,4.17,0,0,0-.63.76,3,3,0,0,0-2.28,1.16c-.19.22-.57.71-.12.94s.64-.38.86-.64a2.15,2.15,0,0,1,2.73-.38,2.12,2.12,0,0,1,.53.46,3.35,3.35,0,0,1,.37.63.37.37,0,0,0,.68-.18,1.28,1.28,0,0,0-.26-.61,3.35,3.35,0,0,0-.53-.6,2.83,2.83,0,0,0-1.12-.63,3.17,3.17,0,0,1,3.44-1A3.36,3.36,0,0,1,165,68a3.28,3.28,0,0,1,.45.82c.08.23.11.53.45.57.15,0,.22-.08.34-.19a4.38,4.38,0,0,1,.41-.45,1.49,1.49,0,0,1,2.32.7c.07.19.11.37.37.41a.34.34,0,0,0,.41-.25h0A1.17,1.17,0,0,0,169.54,69Z" transform="translate(-0.01 0.02)"/></g><g id="图层_1" data-name="图层 1"><path class="cls-2" d="M200.6,53.67s-.08,0-.08-.07-.15-.11-.26-.19a1.13,1.13,0,0,1-.15-.11.58.58,0,0,0-.15-.11,17.17,17.17,0,0,0-2.21-1.35,6.4,6.4,0,0,1,4.3,2.66l-.07.08-.23-.12h-.07l-.23-.11h-.07c-.23-.12-.37-.27-.52-.34s0,0-.08,0-.08,0-.11-.07,0,0-.07,0a.14.14,0,0,0,.14-.13A.14.14,0,0,0,200.6,53.67ZM62.79,1.8a1.82,1.82,0,0,0-.33,0h0a.79.79,0,0,0-.3.08h0a1.09,1.09,0,0,1-.3.07h0a.85.85,0,0,0-.3.15,2.84,2.84,0,0,1,.45.64A9.16,9.16,0,0,1,62.79,1.8Zm4.64,72a6.65,6.65,0,0,1-2.24-1.54,15.77,15.77,0,0,0-3.56,4.12,19.63,19.63,0,0,1,2.59.75,13.55,13.55,0,0,1,3.21-3.29ZM79,14.44a14.76,14.76,0,0,1,1.61.45,6.88,6.88,0,0,0,2.13-4.68A16.25,16.25,0,0,0,79,14.48ZM59.13,69.55Zm80.18-59.34c.3.3.59.63.89.93a3.06,3.06,0,0,1,.64-1.84,4.06,4.06,0,0,1,4.9-1,3.89,3.89,0,0,1,2.06,2.52,3.13,3.13,0,0,1,.63.86,18.38,18.38,0,0,1,1.31-1.46,6.37,6.37,0,0,0-5.24-2.74A6.45,6.45,0,0,0,139.31,10.21ZM73.38,5.06a9,9,0,0,1,9.26,3.46h0a2.26,2.26,0,0,1-.11-.37V8.07a1.38,1.38,0,0,0-.15-.38h0c-.07-.16-.11-.26-.19-.42h0c-.07-.11-.11-.22-.18-.33s0-.08-.08-.08a2.77,2.77,0,0,1-.22-.37h0c-.11-.11-.19-.26-.3-.38s0-.07-.08-.07a1.07,1.07,0,0,0-.26-.26L81,5.67a2.64,2.64,0,0,0-.41-.34,6.88,6.88,0,0,0-5.39-1.39h0A5.71,5.71,0,0,0,73.42,5ZM2.11,46.62a8.85,8.85,0,0,1-.6-2.14,6.47,6.47,0,0,0-1,1.09c.45.45.9.94,1.32,1.43A2.88,2.88,0,0,0,2.11,46.62Zm135.1-36.41a4.21,4.21,0,0,0,.12,1,6.55,6.55,0,0,0,2,3.75c.52-.18,1.08-.29,1.6-.45A15.65,15.65,0,0,0,137.21,10.21Zm-81.53-5v.08a6.84,6.84,0,0,1,.9-.08V5.1A4,4,0,0,0,55.68,5.21ZM160.07,12a1.81,1.81,0,0,1,1.13,1,1.29,1.29,0,0,1,.07.75,4.69,4.69,0,0,1,.75,0,5.08,5.08,0,0,1,.78,0,3.79,3.79,0,0,0-.18-2H162a10.58,10.58,0,0,0-2,.21Zm57.77,37.92h0l.3-.19h0a1.3,1.3,0,0,1,.22-.19l.08-.07.19-.19s.07-.08.07-.11.11-.12.15-.19l.11-.11a.7.7,0,0,1,.15-.19l.11-.15.12-.15a1.63,1.63,0,0,1,.11-.23.25.25,0,0,1,.07-.15,1,1,0,0,0,.15-.37.27.27,0,0,1,.08-.23,15.3,15.3,0,0,0-1.91,2.48ZM75.4,7.42a6.34,6.34,0,0,0-5.23,2.79c.44.45.89.93,1.3,1.42a6.61,6.61,0,0,1,.64-.86A4.48,4.48,0,0,1,73,9.16a4.13,4.13,0,0,1,5.46-.57,3.41,3.41,0,0,1,1.31,2.48h0c.27-.3.56-.64.86-.94A6.33,6.33,0,0,0,75.4,7.42Zm-42.65,35a5.12,5.12,0,0,1-.56-.15l-.49.6c.15.07.3.18.45.26a4.56,4.56,0,0,1,.75.41c0-.33-.11-.75-.15-1.16Zm125.3-33.3a1.87,1.87,0,0,0-.48.26c-.15.11-.19.3-.27.45a1.11,1.11,0,0,1-.18.34,12.75,12.75,0,0,1,3.55-.83,3.81,3.81,0,0,0-1.61-.45,5,5,0,0,0-1,.19Zm-2.74-.27a.58.58,0,0,1-.56.57.4.4,0,0,1-.32-.47l0-.06c0-.07.15-.15.11-.23s0-.07,0-.11c-.49.27-1,.57-1.46.87a1.5,1.5,0,0,0,.59,1.65,1.78,1.78,0,0,0,2.18-.41,3.32,3.32,0,0,0,.71-1,.85.85,0,0,0,.11-.26.31.31,0,0,1,0-.19.28.28,0,0,0,.08-.15.55.55,0,0,1,.08-.34,4.5,4.5,0,0,0,0-1.16,13.75,13.75,0,0,0-1.64.67A.9.9,0,0,1,155.31,8.85ZM4.2,49.4a5.91,5.91,0,0,1-1-1,1.29,1.29,0,0,1-.12.38c.16.22.27.45.42.67A5.49,5.49,0,0,0,4.2,49.4ZM65,2.4h0a3,3,0,0,0-.56-.3,15.28,15.28,0,0,0-2.81,3.45,11.61,11.61,0,0,1,1.16.3c.08-.19.19-.37.27-.56a5.07,5.07,0,0,1,4.71-2.6A13.72,13.72,0,0,1,72.64.63a2.69,2.69,0,0,0-.38-.19h-.15A2.86,2.86,0,0,0,71.7.29h-.15A2.31,2.31,0,0,0,71,.17a5.28,5.28,0,0,0-5.47,2.71,2.75,2.75,0,0,0-.26-.22A.82.82,0,0,0,65,2.43Zm90.13,2a4.38,4.38,0,0,0-1.91-.87,12.73,12.73,0,0,1,2.51,2.82,4.27,4.27,0,0,0,.67-.27,4.29,4.29,0,0,0-1.27-1.65ZM58,27a15.24,15.24,0,0,1,2.69.27,5.35,5.35,0,0,0-.41-.64h0c-.08-.12-.17-.23-.26-.34h0a6.06,6.06,0,0,0-1.72-1.51,3.36,3.36,0,0,0-.6-.3A16.06,16.06,0,0,0,44.2,32.21a17.72,17.72,0,0,1,2.58.75A13.59,13.59,0,0,1,58,27ZM2.78,40.73a.12.12,0,0,0-.11.07l.67-.23c0-.07.08-.15.15-.26L3,40.54A1,1,0,0,0,2.78,40.73ZM19.92,53.3a.49.49,0,0,1,.14-.11,18.82,18.82,0,0,1,2.18-1.35,6.42,6.42,0,0,0-4.31,2.66.08.08,0,0,0,.08.08,1.07,1.07,0,0,0,.22-.15h.08a1.07,1.07,0,0,0,.22-.15h0c.22-.15.41-.26.56-.37h0a.13.13,0,0,0,.11-.08c0-.08,0,0,.07,0h.08c.08,0,.08,0,.08-.08a1.57,1.57,0,0,1,.26-.19A.58.58,0,0,0,19.92,53.3Zm33.22,9.84h-.9a1.3,1.3,0,0,0-.34.08h-.11a.61.61,0,0,0-.3.07.29.29,0,0,0-.14.08.62.62,0,0,1-.23.07l-.22.11a.2.2,0,0,0-.19.08c-.13.07-.26.14-.38.22a2.16,2.16,0,0,0-.33.27l-.08.07c-.07.08-.18.15-.26.23h0a1.07,1.07,0,0,0-.26.26h0a3,3,0,0,0-.27.29,7.07,7.07,0,0,0-.82,1.47,13.42,13.42,0,0,1,5.2-3.23A1.51,1.51,0,0,0,53.14,63.14Zm-2.13,7a8.92,8.92,0,0,1,7-3.31,9.12,9.12,0,0,1,5.5,1.88,6.3,6.3,0,0,1,0-2.29,10.9,10.9,0,0,0-14.37,3l.93.56a2,2,0,0,1,.94.23ZM2.7,46a3.75,3.75,0,0,1,.64-.49c-.07-.11-.19-.26-.26-.37h0a4,4,0,0,1-.34-.87h0a1.59,1.59,0,0,1-.07-.48c-.15.07-.3.19-.45.26A6.56,6.56,0,0,0,2.7,46ZM36.42,33.74A7.2,7.2,0,0,0,36,35a7.68,7.68,0,0,0-.27,1.65,13.33,13.33,0,0,1,4.46-.9,2.58,2.58,0,0,1,1-.34,2.83,2.83,0,0,1,2,.57,7.39,7.39,0,0,1,1.31.33,6.15,6.15,0,0,1,1.67-2.12,15.82,15.82,0,0,0-5.53-1,17,17,0,0,0-4.19.53ZM.5,48.05l.11.22c0,.08.07.11.11.19l.11.15A.9.9,0,0,0,1,48.8l.12.11a1.33,1.33,0,0,0,.14.19.07.07,0,0,0,.08.07c.08,0,.11.15.19.19l.07.07.23.23h0c.07.07.18.15.26.22A14.89,14.89,0,0,0,.12,47.29a.27.27,0,0,0,.08.23.92.92,0,0,1,.14.37C.37,48,.46,48,.5,48.05ZM56,71.88c-.11-.15-.07-.3,0-.49a3,3,0,0,1,1.72-1.68.67.67,0,0,0-.22-.19,6.44,6.44,0,0,0-4.71,2.7c.45.45.9.94,1.31,1.43A4.33,4.33,0,0,1,56,71.88ZM39.22,49.4h0A1.41,1.41,0,0,1,40.61,48,1.38,1.38,0,0,1,42,49.35h0v.07a3.14,3.14,0,0,1,.86.08,7.44,7.44,0,0,1,.45-.71,2.75,2.75,0,0,0-2.69-2.18,2.78,2.78,0,0,0-2.7,2.18A1.74,1.74,0,0,1,38,49a10.4,10.4,0,0,0,1.09.45A.2.2,0,0,1,39.22,49.4ZM131.67,90a1.53,1.53,0,0,1,.6.08l.15-.15a6.38,6.38,0,0,0-5.23-2.74,6.84,6.84,0,0,0-.9.08,3.6,3.6,0,0,0,.41.37h0l.41.34a.14.14,0,0,1,.11.07,3.91,3.91,0,0,0,.41.3l.15.11a3.28,3.28,0,0,1,.38.27,1,1,0,0,1,.22.14.87.87,0,0,0,.37.19c.12,0,.23.12.34.15a2.07,2.07,0,0,0,.34.15,2.18,2.18,0,0,0,.45.16l.26.11.75.22.63.11ZM61.93,73.65c.42-.53.86-1,1.31-1.47a6.6,6.6,0,0,0-3.89-2.59,3,3,0,0,1,1.76,1.24.41.41,0,0,1,0,.53.36.36,0,0,1-.41.11c-.23-.08-.31-.3-.45-.45a2.08,2.08,0,0,0-.53-.45,2.14,2.14,0,0,0-2.65.34,1.59,1.59,0,0,0-.42.6h0A4.9,4.9,0,0,1,58,71.32,4.61,4.61,0,0,1,61.93,73.65ZM52,9.21a.44.44,0,0,0-.19-.07.18.18,0,0,1-.15-.08c0-.08-.11,0-.15-.08H51a7.56,7.56,0,0,0-.82-.07,15.26,15.26,0,0,0-4,3.15,1.85,1.85,0,0,0-.07.41h0v.42h0a3.21,3.21,0,0,0,.37,1.61h0a1.33,1.33,0,0,0,.23.3h0c.07.11.18.19.26.3a13.56,13.56,0,0,1,6.47-5,2.89,2.89,0,0,1,.71-.64,2.33,2.33,0,0,1,2.43-.07c.49,0,1-.08,1.5-.08h.11a4.44,4.44,0,0,1,1.43-.9,3.63,3.63,0,0,1,2.8.11,7.88,7.88,0,0,1,0-1.19A15.3,15.3,0,0,0,58,6.72a16.26,16.26,0,0,0-5.13.83,5.55,5.55,0,0,0-.41,1.65v.19a.85.85,0,0,0-.3-.15A.19.19,0,0,0,52,9.21ZM144.43,88c.08-.12.11-.23.19-.34s0,0,0-.08a2.49,2.49,0,0,0,.11-.29v-.12a1.41,1.41,0,0,1,.11-.3c0-.08,0-.11,0-.15v-.37h-.41a16.17,16.17,0,0,0-3.26.33v.08a1.8,1.8,0,0,1-1.38,1.91c-.3,0-.67,0-.6-.41a.36.36,0,0,1,.27-.3h.26a1,1,0,0,0,.33-.15,1,1,0,0,0,.38-.9,17.46,17.46,0,0,0-3.63,1.43,3.48,3.48,0,0,0,.52,1.35v.15h0a2.86,2.86,0,0,0,.41.15h.08a2.75,2.75,0,0,1,.41.11h0a.51.51,0,0,1,.33.08,13.79,13.79,0,0,1,4.83-1.28l.26-.26c.08-.08.15-.19.22-.27l.23-.33s.34,0,.34-.06ZM60.7,4.53a2.82,2.82,0,0,0-.56-1.12,3.88,3.88,0,0,0-.38.86,1.85,1.85,0,0,1-.11.45h0a1.7,1.7,0,0,0,0,.45,1.76,1.76,0,0,1,.64.08Zm-.45,71.56s.3-.53.45-.72a2.74,2.74,0,0,0-5.32-.18,5.66,5.66,0,0,1,1.35.26,1.38,1.38,0,0,1,2.66.53v.07A6.19,6.19,0,0,1,60.25,76.09ZM36.72,27.62a.64.64,0,0,0-.38.08h0l-.42.11h0a1.5,1.5,0,0,0-.42.15c.45.45.87.9,1.24,1.35a4.41,4.41,0,0,1,1.87-1.76H38a3.42,3.42,0,0,0-.64,0,2,2,0,0,0-.49.07ZM124.53,85a8.6,8.6,0,0,1,2.66-.42,8.91,8.91,0,0,1,7.25,3.68,14.31,14.31,0,0,1,1.61-1,11,11,0,0,0-8.86-4.54,10.78,10.78,0,0,0-4.83,1.13,2.47,2.47,0,0,1,.52.18l.26.12.38.15.22.11a3,3,0,0,1,.6.34C124.42,84.68,124.45,84.8,124.53,85ZM89,89.49c.15-.08.3-.12.45-.19a1.35,1.35,0,0,0,.26-.15,1.93,1.93,0,0,1,.38-.19l.26-.15.33-.22a1.37,1.37,0,0,0,.23-.19c.11-.08.18-.15.3-.23a1.11,1.11,0,0,0,.22-.18c.07-.07.19-.16.27-.23s.14-.11.22-.19l.23-.22.14-.14a6.52,6.52,0,0,0-4.75,2.7l.07.08.45-.11a4.71,4.71,0,0,0,.71-.27.49.49,0,0,0,.23-.08Zm14.74-.94.55-.34h0a8,8,0,0,0,.93-1,11.14,11.14,0,0,0-1.68.68v.23c-.08.26-.15.48-.23.67h0v.11h0V89a.11.11,0,0,1,0,.08l.56-.38c-.2,0-.17-.08-.13-.08Zm-48-12.5H56a.69.69,0,0,1-.33-.07c-.11-.07,0,.07,0,.11ZM63.1,14.48a2.32,2.32,0,0,1-.16.68,9,9,0,0,1,2.32,2.17c.42-.3.87-.56,1.32-.86a1.29,1.29,0,0,1,.22-.3,11.14,11.14,0,0,0-4.38-3.49,2.54,2.54,0,0,1,.64,1.84Zm-26,26.43a9.07,9.07,0,0,1,3.52-.71,8.57,8.57,0,0,1,2.36.33,3.17,3.17,0,0,0,.59-1.12,2,2,0,0,0,.12-.68,10.28,10.28,0,0,0-3.07-.45,6.17,6.17,0,0,0-.86,0,1.48,1.48,0,0,0,1,1,.38.38,0,0,1,.34.37.45.45,0,0,1-.27.38,1.25,1.25,0,0,1-.63-.15,1.51,1.51,0,0,1-.56-.41A2.51,2.51,0,0,1,39,38.34a9.52,9.52,0,0,0-3,.9,4.12,4.12,0,0,0,1,1.71Zm9.77.79a3.29,3.29,0,0,0,2,.3,11,11,0,0,0-4-2.79,3.59,3.59,0,0,0,2,2.53Zm169,7.66a2.19,2.19,0,0,1,.67.07,7.44,7.44,0,0,1,.45-.71,1.47,1.47,0,0,0-.11-.38,13.25,13.25,0,0,1-1.06,1.06Zm-50.17,27c.52.12,1,.27,1.5.42a3.58,3.58,0,0,0-.75-1.54,7.89,7.89,0,0,0-.8,1.18ZM49.88,15.61l.34-.11h.11a2.81,2.81,0,0,0,.45-.19h-.67a2.73,2.73,0,0,0-.41.49A.2.2,0,0,1,49.88,15.61Zm19.31,70.5a19.06,19.06,0,0,1,2.58-.75,16.13,16.13,0,0,0-12-7.7,7.5,7.5,0,0,1,1.16,2.11l.23.75A13.35,13.35,0,0,1,69.19,86.11ZM29,38.11a5,5,0,0,0,1.39,2.32,13.28,13.28,0,0,1,4.49-3.37,10,10,0,0,1,.56-3,15.94,15.94,0,0,0-6.44,4Zm21.71-3a13.25,13.25,0,0,1,1.34-1.46H52a6.07,6.07,0,0,0-2.4-.15l-.48.6a16.68,16.68,0,0,1,1.61,1Zm138.85-2.9A11.75,11.75,0,0,0,188,34a16.63,16.63,0,0,1,1.61,1,5.16,5.16,0,0,1,.75-.8h0v-.83a3.7,3.7,0,0,0-.22-.87,1.64,1.64,0,0,0-.26.2A4.47,4.47,0,0,1,189.6,32.21Zm29.85,13.33a7.39,7.39,0,0,0-1-1.09,7.3,7.3,0,0,1-.53,2v.08s0,.11-.07.15a1.36,1.36,0,0,1,.26.41,16,16,0,0,1,1.34-1.52Zm-173.68-10a3.64,3.64,0,0,0-.6,1,12.13,12.13,0,0,1,1.84.82v-.11a2.4,2.4,0,0,1,3.22-.83,1.07,1.07,0,0,1,.22.15,15.72,15.72,0,0,0-3.59-2.14,6.25,6.25,0,0,0-1.09,1.15ZM77.46,75.86a3.61,3.61,0,0,1,2.17-1.16.57.57,0,0,0,.26,0,10.57,10.57,0,0,0-3.74-.94,2.4,2.4,0,0,0-.45.45h0l.15-.22h0a1.27,1.27,0,0,1,.11-.15h-.6a10.92,10.92,0,0,0-8.86,4.54,14.3,14.3,0,0,1,1.6,1.06,9,9,0,0,1,7.26-3.68,11.35,11.35,0,0,1,2.1.14Zm55,5.29c-.12-.11-.26-.22-.38-.34a6.68,6.68,0,0,1-1.68-3,15.46,15.46,0,0,0-3.25-.34,19.14,19.14,0,0,0-2.51.19,2.1,2.1,0,0,1-.15.3v.15a2,2,0,0,0-.07.23v.15s0,.15-.08.18,0,.12,0,.16v1.6a13.82,13.82,0,0,1,3.07-.34,13.13,13.13,0,0,1,5.09,1.12Zm6.7-6a10.55,10.55,0,0,0-3.41,3s0,.11.07.15h0a6.78,6.78,0,0,1,.86.52h.23a.61.61,0,0,0,.52-.69.58.58,0,0,0-.07-.21c-.07-.15-.26-.22-.3-.41a.47.47,0,0,1,.25-.3c.37-.18.71.26.82.57a1.32,1.32,0,0,1,.08.52,9.12,9.12,0,0,1,2.5-1.76,3.06,3.06,0,0,0-1.51-1.33Zm-85-62.21.45.23v.11a.11.11,0,0,0,0,.11,3.89,3.89,0,0,0,.23.87,11.35,11.35,0,0,1,1.64-.45,5.85,5.85,0,0,1,.11-2,12.49,12.49,0,0,0-3,.83c.15.08.3.12.45.19S54.08,12.94,54.11,12.94Zm101.7,64.27a17.72,17.72,0,0,1,2.28-.71c0-.07.11-.18.15-.26a16.42,16.42,0,0,0-5.5-5.4c-.11.14-.23.26-.34.41a6.73,6.73,0,0,1-1.83,1.35A14.54,14.54,0,0,1,155.81,77.21Zm23.61-1.53a9,9,0,0,1,7.25,3.68c.53-.38,1.05-.72,1.61-1.06a11.4,11.4,0,0,0-2.8-2.7,1.19,1.19,0,0,1-.49-.07c-.15-.07-.07,0-.07,0a4.61,4.61,0,0,1-.53-.15l-.15-.15h0l-.14-.15h0c-.08,0-.11-.11-.19-.18h0a1.13,1.13,0,0,0-.26-.23,10.93,10.93,0,0,0-13,3.72,14.88,14.88,0,0,1,1.61,1,9.28,9.28,0,0,1,7.16-3.75Zm37.89-34.92a.15.15,0,0,1-.12-.07,1.35,1.35,0,0,0-.26-.15l-.41-.23a1.14,1.14,0,0,0,.15.23ZM40.61,75.67a9,9,0,0,1,7.25,3.68,14.31,14.31,0,0,1,1.61-1,10.9,10.9,0,0,0-7-4.39,1.09,1.09,0,0,0,.07.3.34.34,0,0,0,.08.26h0a.5.5,0,0,1,.08.26v.08c0,.08.07.15.11.22s0,0,0,.08a1.18,1.18,0,0,1,.11.19.13.13,0,0,0,.08.11c.08,0,.07.11.11.15s.07.11.11.15,0,.07.08.11a2.75,2.75,0,0,1,.22.26,8.55,8.55,0,0,0-4.75-.37A8.75,8.75,0,0,0,35.7,77,11.45,11.45,0,0,0,34,78.5a.92.92,0,0,0-.22.26c-.15.08-.3.12-.45.19h0l-.45.11c.15.12.34.23.49.34A8.84,8.84,0,0,1,40.61,75.67Zm104,4.51a4.51,4.51,0,0,1,3.93,2.25c.41-.49.86-1,1.31-1.46a6.42,6.42,0,0,0-8-2.1,4.64,4.64,0,0,1-1.75,2.77c.22.23.41.49.63.72a4.83,4.83,0,0,1,3.9-2.15ZM61,8.89a3.34,3.34,0,0,0-1.69.45,13.57,13.57,0,0,1,3.56.83.68.68,0,0,0-.15-.26c-.07-.19-.11-.42-.26-.53a1.77,1.77,0,0,0-.49-.26A1.93,1.93,0,0,0,61,8.89ZM33.31,49.28a18.76,18.76,0,0,1,2.7.31h0a5.71,5.71,0,0,1,.82.18c-.26-.41-.52-.79-.78-1.16a7.86,7.86,0,0,1-2-2.22A16,16,0,0,0,29,43.21a10.36,10.36,0,0,0-3.41.49,12.77,12.77,0,0,0-2.35,1A13.36,13.36,0,0,1,33.31,49.28ZM160.63,76h0A1.43,1.43,0,0,1,162,74.59,1.38,1.38,0,0,1,163.4,76h0v.07a3.57,3.57,0,0,1,.86.07l.41-.71a2.8,2.8,0,0,0-.86-1.46,5,5,0,0,0-3.62,1.12c-.27.23-.49.46-.72.68.08.11.15.26.23.37A4.22,4.22,0,0,1,160.63,76ZM29.38,41.78c.19-.27.38-.53.56-.75a5.39,5.39,0,0,1-1.49-2.26A20.42,20.42,0,0,0,26.8,41,11.56,11.56,0,0,1,29.38,41.78ZM157.23,81h0a1.7,1.7,0,0,1,0-.45V80a6.25,6.25,0,0,1,.26-1.66,16,16,0,0,0-9.16,7.14,19.06,19.06,0,0,1,2.58.75A12.53,12.53,0,0,1,157.23,81Zm-100-67.5a.41.41,0,0,0,0,.22,5.21,5.21,0,0,1,.79,0,4.57,4.57,0,0,1,.74,0,1.7,1.7,0,0,1,0-.71,1.94,1.94,0,0,1,1.12-1.09,10.53,10.53,0,0,0-1.94-.18h-.6A5.78,5.78,0,0,0,57.18,13.51ZM158.09,2.81c.15-.22.3-.45.45-.64a.85.85,0,0,1-.3-.15h0a.79.79,0,0,0-.3-.08h0a.45.45,0,0,1-.29-.07h-.34A12,12,0,0,0,158.09,2.81Zm-95,5.82a1.51,1.51,0,0,0,.07.37.14.14,0,0,0,.08.12.28.28,0,0,1,0,.18.32.32,0,0,0,.07.19,2.82,2.82,0,0,0,.71,1,1.8,1.8,0,0,0,2.17.49,1.54,1.54,0,0,0,.68-1.69c-.49-.3-1-.6-1.46-.86V8.5a.24.24,0,0,0,.11.23.37.37,0,0,1-.11.51l-.11,0c-.3.08-.53-.22-.57-.49a1,1,0,0,1,.08-.71,11.92,11.92,0,0,0-1.65-.68,2.3,2.3,0,0,0,0,1.22Zm106.82,6.58h-.71a1.79,1.79,0,0,0,.45.19h.11l.34.11a.28.28,0,0,1,.23.08A5.14,5.14,0,0,0,169.91,15.21Zm-7.55,9.19a3.1,3.1,0,0,0-.57.3h0A8.42,8.42,0,0,0,160,26.21h0c-.08.11-.19.22-.26.33h0a3.85,3.85,0,0,0-.47.67A12.78,12.78,0,0,1,162,27a13.43,13.43,0,0,1,11.19,6,16.55,16.55,0,0,1,2.58-.75,16,16,0,0,0-13.41-7.81Zm1-19.29v.1a3.14,3.14,0,0,1,.86.08.11.11,0,0,0,0-.08,2.34,2.34,0,0,0-.45-.07.86.86,0,0,0-.45,0Zm-99.89,1c.23.08.45.17.67.27a13.12,13.12,0,0,1,2.54-2.82,4.43,4.43,0,0,0-3.17,2.51ZM139,5.63a3.19,3.19,0,0,0-.26.26l-.08.07a3.57,3.57,0,0,0-.3.38h0c-.07.11-.18.22-.26.37s0,.08-.07.08a1.35,1.35,0,0,0-.19.33h0a1.57,1.57,0,0,0-.18.42h0c0,.12-.12.27-.16.38s0,0,0,.08a2.64,2.64,0,0,1-.11.37h0a9,9,0,0,1,9.25-3.45A5.52,5.52,0,0,0,145,3.6h0A6.91,6.91,0,0,0,139.58,5l-.41.34c-.09.22-.13.26-.16.26ZM92.76,80.14a8.76,8.76,0,0,1,1.46.08v-.34a5.71,5.71,0,0,0-.45-2,.85.85,0,0,0-.15-.3h-.86a16.9,16.9,0,0,0-5.13.83,6.63,6.63,0,0,1-1.27,2.44,6.41,6.41,0,0,1-1.08,1,6.55,6.55,0,0,1-4.76,1.32A13.93,13.93,0,0,0,79,85.34H79a2.52,2.52,0,0,1,2.06.23,2.77,2.77,0,0,1,.52.38A13.81,13.81,0,0,1,92.8,80.1ZM148.31.26a1.56,1.56,0,0,0-.41.15h-.16c-.11.08-.26.12-.37.19a13.72,13.72,0,0,1,4.83,2.06,4.67,4.67,0,0,1,3,.76,5.15,5.15,0,0,1,2,2.4c.37-.11.78-.23,1.15-.3a16,16,0,0,0-2.8-3.45,3,3,0,0,0-.56.3h0c-.07,0-.15.12-.22.16a1.63,1.63,0,0,0-.27.22A5.27,5.27,0,0,0,149,0l-.52.12A.27.27,0,0,0,148.31.26Zm15.24,12.39a4.09,4.09,0,0,1,0,1.21,7.74,7.74,0,0,1,1.65.45,6.52,6.52,0,0,0,.22-.87.11.11,0,0,1,0-.11v-.12l.45-.23H166a3.52,3.52,0,0,1,.45-.18,10.07,10.07,0,0,0-3-.83,3.82,3.82,0,0,1,.15.67Zm-97-5.22a14.3,14.3,0,0,1,1.6,1.06,9.1,9.1,0,0,1,3.29-2.74c-.1-.15-.18-.3-.29-.45a4.33,4.33,0,0,0-1.09-1,10.75,10.75,0,0,0-3.52,3.12ZM47.86,26.21c.15-.11.31-.19.45-.3a2.84,2.84,0,0,0-.56.19A.17.17,0,0,1,47.86,26.21Zm119.7-16.9v-.1a4.89,4.89,0,0,0-.3-1.31,2.07,2.07,0,0,0-.15-.34A16.3,16.3,0,0,0,162,6.73a16.88,16.88,0,0,0-4.41.61,4,4,0,0,1,0,1.19,3.7,3.7,0,0,1,2.81-.11,4.4,4.4,0,0,1,1.42.9h.11a9.49,9.49,0,0,1,1.5.08,2,2,0,0,1,.82-.26,2.42,2.42,0,0,1,2,.63,2.22,2.22,0,0,1,.37.38,13.42,13.42,0,0,1,6.48,5,1.08,1.08,0,0,0,.26-.3h0c.07-.11.15-.22.22-.34a3.35,3.35,0,0,0,.38-1.61h0a1.41,1.41,0,0,0,0-.41h0a.69.69,0,0,0-.08-.41,16,16,0,0,0-4-3.15A7.53,7.53,0,0,0,169,9a.11.11,0,0,0-.11,0h-.48a.15.15,0,0,0-.15.08.21.21,0,0,0-.15.07.62.62,0,0,1-.19.07h-.11a1.17,1.17,0,0,0-.3.19.31.31,0,0,0,0-.19ZM51.46,76.74a4.71,4.71,0,0,1,2.21-1.36,16.17,16.17,0,0,0-4.36-4.17,1.33,1.33,0,0,0-.45.75c-.08.22-.15.45-.41.41-.68,0-.16-1,0-1.35a1,1,0,0,1,.19-.22,15.3,15.3,0,0,0-2.88-1.32,4.84,4.84,0,0,0-1.61.53h0a2.48,2.48,0,0,0-.26.19.07.07,0,0,0-.07.08c0,.08-.15.11-.23.19l-.07.07c-.08.07-.11.15-.19.23s0,.07-.08.07-.14.23-.22.34l-.11.18a13.55,13.55,0,0,1,8.54,5.37ZM74.8,3a.11.11,0,0,0,0-.08h0a11.12,11.12,0,0,0-4,1,5,5,0,0,1,1.31,1.54l.19-.08A6.78,6.78,0,0,1,74.84,3ZM50.31,32.66a6.59,6.59,0,0,1,2.44.44A9,9,0,0,1,58,31.41a3.75,3.75,0,0,1,.67,0h0a4.72,4.72,0,0,1,3.51-1h0A10.93,10.93,0,0,0,50.31,32.66Zm131.76-5.15h-.6a4.67,4.67,0,0,1,1.84,1.77,10.57,10.57,0,0,1,1.23-1.36,1,1,0,0,1-.41-.15h0a1.56,1.56,0,0,1-.41-.11h-.07a.72.72,0,0,1-.38-.07h-.11a1.06,1.06,0,0,1-.49-.08A3,3,0,0,1,182.07,27.51ZM82.31,78.87a1.58,1.58,0,0,0,.33-1,2.55,2.55,0,0,0-1.72-2.29,2.69,2.69,0,0,0-2.62.52A9.64,9.64,0,0,1,82.31,78.87ZM175.47,36.3v.07l1.31-.34h0a2.75,2.75,0,0,1,3-.19,13.08,13.08,0,0,1,4.46.9,10.23,10.23,0,0,0-.6-2.67l-.11-.3a15.89,15.89,0,0,0-9.73.44,5.73,5.73,0,0,1,1.69,2.09ZM159.31,4.53c.14.23.29.46.41.68a1.94,1.94,0,0,0,.63-.07,1.69,1.69,0,0,0,0-.45h0a1.41,1.41,0,0,0-.11-.45h0a3,3,0,0,0-.37-.82A4.14,4.14,0,0,0,159.31,4.53ZM76.84,80.44a5.2,5.2,0,0,1-.45-1.5,1.75,1.75,0,0,1,0-.56,8.42,8.42,0,0,0-1-.08A6.38,6.38,0,0,0,70.16,81c.44.46.89.94,1.3,1.43a4.54,4.54,0,0,1,3.93-2.25,3.68,3.68,0,0,1,1.47.22ZM58.47,69.52a2.81,2.81,0,0,0,.41,0h-.41ZM162.18,80.1a2.48,2.48,0,0,1-.37-1.12,2.1,2.1,0,0,1,.45-1.47H162a15.19,15.19,0,0,0-3.74.45,6.39,6.39,0,0,0-.3,2.78A13.48,13.48,0,0,1,162,80.1Zm-24.05,1.77A15.78,15.78,0,0,0,131.24,78a6,6,0,0,0,3.33,3.6,5.56,5.56,0,0,0,3.58.23ZM25.45,40.69s.3-.53.41-.71a2.72,2.72,0,0,0-2.69-2.18A2.75,2.75,0,0,0,20.48,40a6.68,6.68,0,0,1,.41.67,6.84,6.84,0,0,1,.9-.08h0a1.39,1.39,0,0,1,2.77-.24,1,1,0,0,1,0,.24v.07A6.64,6.64,0,0,1,25.45,40.69ZM139.31,81l.18.18.15-.11a4,4,0,0,0,1.12-1.54A6.74,6.74,0,0,0,139.31,81Zm12.49-1.69c.52-.38,1-.72,1.61-1.06a10.93,10.93,0,0,0-13.47-3.52,3.7,3.7,0,0,1,1.38,1.5A9,9,0,0,1,151.8,79.32ZM27.36,75.53c-.19.29-.38.56-.56.86.34.07.67.16,1,.26a2.79,2.79,0,0,1-.4-1.12ZM178,31.68h0a1.43,1.43,0,0,1,1.37-1.47h0a1.38,1.38,0,0,1,1.38,1.38h0v.07a3.14,3.14,0,0,1,.86.08l.34-.6a9.85,9.85,0,0,0-2.92-2.29A2.75,2.75,0,0,0,176.72,31c.15.22.27.45.41.67A6.77,6.77,0,0,1,178,31.68ZM60.31,80.33a7.19,7.19,0,0,0-1.57-2.78H58a15.81,15.81,0,0,0-6.89,1.58,3.15,3.15,0,0,0,.45,2.14c.07.11.19.27.26.37a15,15,0,0,1,3.85-1.31.9.9,0,0,0-.78-.63c-.26,0-.68.07-.71.41a.37.37,0,0,1-.19.37.33.33,0,0,1-.33,0c-.34-.11-.23-.64-.12-.86a1.4,1.4,0,0,1,.86-.68,1.7,1.7,0,0,1,2,1,1.46,1.46,0,0,1,.07.19A10.4,10.4,0,0,1,58,80,14.54,14.54,0,0,1,60.31,80.33ZM78.64,81.5a3.61,3.61,0,0,0,1,.59c.34-.37.67-.75,1-1.08a6.47,6.47,0,0,0-3.48-2.48,3,3,0,0,0,0,.6,4.2,4.2,0,0,0,1.46,2.37ZM27.42,73.31a7.3,7.3,0,0,1,.26-.79c.06-.13.12-.25.19-.37l.22-.34c0-.08-.11-.12-.15-.19a1.87,1.87,0,0,0-.3.26l-.07.08a2.75,2.75,0,0,1-.26.22l-.08.08a2.13,2.13,0,0,0-.3.3h0a2.37,2.37,0,0,0-.34.37,7.71,7.71,0,0,1,.52.75,4.37,4.37,0,0,1,.29-.37Zm102.07,2.78a5.54,5.54,0,0,0,.3-.53h-.42a5.16,5.16,0,0,0-.78-.08h-.08a2.65,2.65,0,0,1,.15.57v.07a5.49,5.49,0,0,1,.81,0Zm73.63-38.41A15.53,15.53,0,0,0,200.5,41a16.55,16.55,0,0,1,2.58.75,13.34,13.34,0,0,1,3.18-3.31,2.53,2.53,0,0,0-.37-.18h-.08l-.33-.15h-.08a5.37,5.37,0,0,0-1.05-.26h-1.23Zm-11.26-1.24a3.53,3.53,0,0,1,0,.65c.35.37.69.76,1,1.16a4.54,4.54,0,0,1,7.86,0c.08-.11.19-.18.27-.3a4.78,4.78,0,0,0-.08-.75,5.24,5.24,0,0,0-.15-.75,6.42,6.42,0,0,0-.56-1.39,6.43,6.43,0,0,0-3.41-1,6,6,0,0,0-4.95,2.35ZM209,45.57c.45.45.9.94,1.31,1.43a4,4,0,0,1,.87-1.06c-.23-.15-.49-.3-.72-.48h-.07a3.17,3.17,0,0,1-.34-.3h0l-.34-.34a3.07,3.07,0,0,0-.73.75Zm-3.68-2.7a12.6,12.6,0,0,1,1.6,1,8.68,8.68,0,0,1,2.1-2c0-.15-.12-.27-.15-.41a7,7,0,0,0-.71-1.28A9.59,9.59,0,0,0,205.31,42.87ZM183.76,32.35a15.64,15.64,0,0,1,1.87.6,12.94,12.94,0,0,1,2.43-2.74,4.38,4.38,0,0,0-.45-.41,4.83,4.83,0,0,0-.49-.41A10.78,10.78,0,0,0,186,28.6a15,15,0,0,0-2.62,3.11C183.49,31.9,183.65,32.13,183.76,32.35Zm7.33,1.13a8.83,8.83,0,0,1,4.68-2,6.72,6.72,0,0,0-2.28-.19h0a.45.45,0,0,0-.23,0,.28.28,0,0,0-.18,0h-.38a.51.51,0,0,0-.33.08,8.1,8.1,0,0,0-1.5.6A5.16,5.16,0,0,1,191.09,33.48Zm-1.65,34.31a1.23,1.23,0,0,1,.3.38h0l.23.33v.08c0,.08.11.22.19.34s0,.07,0,.07c.07.15.11.3.15.41.18-.18.41-.41.63-.6a7,7,0,0,0-.63-.59c-.12-.08-.23-.19-.34-.26h0l-.33-.23A.48.48,0,0,1,189.44,67.79Zm24.06-21.1a2.78,2.78,0,0,0-1.94,2.11c.14.22.26.45.41.67a6.54,6.54,0,0,1,.89-.07h0A1.39,1.39,0,0,1,214.25,48h0a1.4,1.4,0,0,1,1.24.75c.11-.11.26-.22.37-.34l.6-.67a3,3,0,0,0-1.72-1A7.36,7.36,0,0,1,213.5,46.69ZM191,43.21a17.39,17.39,0,0,0-5.08,3.16,8.82,8.82,0,0,1-2.06,2.29c-.26.37-.52.75-.75,1.12.26-.07.56-.11.82-.18h0a20.31,20.31,0,0,1,2.69-.3,13.37,13.37,0,0,1,10.07-4.58A12.21,12.21,0,0,0,191,43.21Zm-15.7,28.64a1.28,1.28,0,0,0,.07-.34V70.46a.76.76,0,0,0,0-.3v-.34a2.36,2.36,0,0,0-.19-.64,16,16,0,0,0-8.37,5.52,4.87,4.87,0,0,1,.63.86,4,4,0,0,1,.45,1.54.66.66,0,0,1,.26.11A13.42,13.42,0,0,1,175.31,71.85Zm-8.42,7c.07-.15.11-.3.19-.45a18.33,18.33,0,0,0-2.21-.56.79.79,0,0,1,0,.48c-.15.23-.48.15-.64,0s0-.26-.11-.37a.6.6,0,0,0-.37-.19.85.85,0,0,0-.86.3,1.55,1.55,0,0,0,.15,2,.7.7,0,0,0,.26.19c.56.07,1.16.15,1.68.26h.15a3,3,0,0,0,1.79-1.68ZM217.74,44a2.51,2.51,0,0,0-.45-.26,2,2,0,0,1-.08.49h0a4.48,4.48,0,0,1-.3.87h0a1.37,1.37,0,0,1-.26.37,4.55,4.55,0,0,1,.64.52,4.74,4.74,0,0,0,.26-.75,6,6,0,0,0,.22-1.27ZM12.36,50.21a13.47,13.47,0,0,1,9.24-5.37,15.23,15.23,0,0,1,4.79-2.11l.63-.11A16.1,16.1,0,0,0,9.44,50c.67.15,1.31.34,1.94.52a5.47,5.47,0,0,0,.68-.14A.57.57,0,0,1,12.36,50.21ZM142,13.55a2.43,2.43,0,0,1,.3.52,6.82,6.82,0,0,1,.9-.07h0a1.61,1.61,0,0,1,.07-.49A3,3,0,0,1,142,13.55Zm3.29,2.1a1.14,1.14,0,0,0,.23-.15h-.94a15.36,15.36,0,0,0-3.7.45,4.83,4.83,0,0,0,4.39-.3Zm-.6-7a3.3,3.3,0,0,0-3.42,1.29,2.32,2.32,0,0,0-.34,1.2,4.53,4.53,0,0,1,3.63-1.8,4.34,4.34,0,0,1,2,.45,3.13,3.13,0,0,0-1.87-1.13Zm-1.53,4c.34-.22.63-.86.18-1.16h0a2.66,2.66,0,0,0-1.24,1.32,1.25,1.25,0,0,0,1.06-.17Zm1.42-1.5a2,2,0,0,0-.49,0v.08a1.33,1.33,0,0,1,0,1.31,1.14,1.14,0,0,1,.41-.07,1.38,1.38,0,0,1,1.39,1.37h0v.08a3.57,3.57,0,0,1,.86.07.41.41,0,0,1,.07-.11,5.73,5.73,0,0,0,.3-.82,2.7,2.7,0,0,0-2.54-1.93Zm-82.5,9.06h0c.31-.39.65-.77,1-1.13a6.46,6.46,0,0,0-2.28-2,3.17,3.17,0,0,1-.86.15,3.6,3.6,0,0,1-2.28-.86,5.71,5.71,0,0,0-1.83.3,1.73,1.73,0,0,0,.3.41h0a6.38,6.38,0,0,0,1.12,1.2,2.62,2.62,0,0,1,.56,0,4.54,4.54,0,0,1,3.7,1.92h.15A.48.48,0,0,1,62.12,20.21Zm110.56,16.7a2.22,2.22,0,0,1,.3.49,15,15,0,0,1,1.83-.82,5.6,5.6,0,0,0-1.75-2.11,14.85,14.85,0,0,0-3.6,2.18,2.45,2.45,0,0,1,3.22.28ZM162.09,16.44a3.39,3.39,0,0,1-2.13.79,2.51,2.51,0,0,1-.94-.16,6.52,6.52,0,0,0-2.24,2,12.59,12.59,0,0,1,1,1.12h0a.81.81,0,0,0,.31,0h.22a4.52,4.52,0,0,1,3.71-2,3,3,0,0,1,.6,0A6.76,6.76,0,0,0,163.74,17l.3-.41a5.72,5.72,0,0,0-1.84-.3C162.13,16.36,162.09,16.4,162.09,16.44Zm-13.5-10.7a8.7,8.7,0,0,1,3.25,2.74c.52-.38,1-.72,1.61-1.06a11.42,11.42,0,0,0-3.52-3.15,4.47,4.47,0,0,0-1,.94A6,6,0,0,0,148.59,5.74Zm23.72,20.31a2.38,2.38,0,0,0-.52-.15c.15.11.29.19.45.3A.18.18,0,0,1,172.31,26.05ZM150.79,15.21a14.06,14.06,0,0,1,3.14-3.3.09.09,0,0,1-.1,0,2.28,2.28,0,0,1-1.39-1.31,3.5,3.5,0,0,1-.15-.64,16.54,16.54,0,0,0-4,4.5C149.11,14.67,150,14.93,150.79,15.21Zm-14.25,3.91.41.11h.19l.56.11h.22a2.35,2.35,0,0,0,.53,0h.15a13.45,13.45,0,0,1,13.13.6,7,7,0,0,0,1-.79l.08-.08a.15.15,0,0,1,0-.18,3.17,3.17,0,0,0,.27-1.17,19.19,19.19,0,0,0-2.47-1.27,1,1,0,0,0,0,.94.51.51,0,0,0,.22.26c.08.07.19.07.26.15a.36.36,0,0,1,.11.45c-.18.45-.74.07-1-.15a1.74,1.74,0,0,1-.3-1.92,17.72,17.72,0,0,0-3.29-.79,5.36,5.36,0,0,1-4.12,1.47,6.37,6.37,0,0,1-2.65-.86,16.5,16.5,0,0,0-4.68,2.32c.08,0,.11.08.19.12a2.09,2.09,0,0,0,.3.15.57.57,0,0,0,.22.07c.15.07.3.11.49.19s.1.25.18.29ZM74,13.94h0a1.34,1.34,0,0,1,1.25-1.43,1.42,1.42,0,0,1,.54.08,1.43,1.43,0,0,1,0-1.39,1.7,1.7,0,0,0-.45,0,2.74,2.74,0,0,0-2.62,2,4.89,4.89,0,0,0,.34.9h0A4.27,4.27,0,0,1,74,14Zm2.62-2.52h0c-.6.38-.08,1.17.37,1.32a1.16,1.16,0,0,0,.86,0,2.68,2.68,0,0,0-1.23-1.3Zm1,2.59a5.39,5.39,0,0,0,.3-.52,2,2,0,0,1-1.24-.12,1.77,1.77,0,0,1,.08.46v.07a5.23,5.23,0,0,0,.87.13ZM60.5,13.53a.33.33,0,0,1,.43.21.3.3,0,0,1,0,.16.61.61,0,0,1-.08.26,11.42,11.42,0,0,1,1.39.6A1.68,1.68,0,0,0,62,13.45a1.73,1.73,0,0,0-1.83-.83,1,1,0,0,0-.75.68.88.88,0,0,0,.08.53l.52.11c.2-.09.26-.32.46-.39ZM66,11.91a13.31,13.31,0,0,1,3.14,3.3,19.06,19.06,0,0,1,2.58-.75,15.81,15.81,0,0,0-4.08-4.54,2.26,2.26,0,0,1-1.49,2,.22.22,0,0,1-.14,0ZM77.11,8.72a3.44,3.44,0,0,0-3.66,1,4.35,4.35,0,0,1,1.94-.45A4.5,4.5,0,0,1,79,11.07a2.43,2.43,0,0,0-.22-1,2.79,2.79,0,0,0-1.68-1.33Zm2,7.17a17.84,17.84,0,0,0-3.71-.45,7.21,7.21,0,0,0-.93,0,4.72,4.72,0,0,0,2.8.82,4.63,4.63,0,0,0,1.84-.35ZM70.2,17.58a2.27,2.27,0,0,1-.37.64,1.13,1.13,0,0,1-.64.37.39.39,0,0,1-.37-.33c0-.27.15-.34.33-.46a1,1,0,0,0,.3-1.23A14.41,14.41,0,0,0,67,17.84,2.93,2.93,0,0,0,67.25,19a.15.15,0,0,1,0,.18l.06.06c.32.28.65.54,1,.79a13.39,13.39,0,0,1,13.1-.6h.86l.56-.11h.22l.38-.11.22-.07a2.92,2.92,0,0,0,.49-.19.46.46,0,0,1,.19-.08c.11,0,.22-.11.33-.15s.11-.07.19-.07a15.77,15.77,0,0,0-4.66-2.41A5.65,5.65,0,0,1,78.1,17a5.52,5.52,0,0,1-4.64-1.39,15.47,15.47,0,0,0-3.29.79,2.44,2.44,0,0,1,0,1.2Zm79-13.7a10.67,10.67,0,0,0-4-1h0V3a6.17,6.17,0,0,1,2.51,2.32.21.21,0,0,1,.19.08,6.54,6.54,0,0,1,1.32-1.46ZM122.58,80.41h-.07a1.78,1.78,0,0,0-.45-.08h0a1,1,0,0,1-.48-.08h-1.35a2.62,2.62,0,0,0-.56,0h-.12a2.89,2.89,0,0,0-.59.08.9.9,0,0,0-.45.08l-.53.11a15.62,15.62,0,0,0-4.52,4.88,20.52,20.52,0,0,1,2,.56c0-.11.12-.22.16-.34l.22-.34a.14.14,0,0,0,.07-.11c.08-.07.12-.15.19-.19l.12-.11c.07,0,.11-.11.18-.15a.28.28,0,0,0,.15-.15c0-.08.08,0,.11-.07a2.22,2.22,0,0,1,.49-.3h.11s.19-.11.3-.15.08,0,.11,0l.34-.11a13.13,13.13,0,0,1,5.46-3.08,2.11,2.11,0,0,1-.41-.11c-.15,0,0,0-.07,0A.5.5,0,0,0,122.58,80.41Zm-38.65,6.8a13.07,13.07,0,0,1,1.61,1.05,9.07,9.07,0,0,1,7.26-3.68,8.17,8.17,0,0,1,1.31.11c.08-.15.11-.26.15-.33a.11.11,0,0,1,0-.08,4.6,4.6,0,0,1,.6-.37.94.94,0,0,0,.18-.12c.15-.07.27-.15.41-.22l.23-.12.63-.24a11,11,0,0,0-12.38,4Zm-1.23.9a2.81,2.81,0,0,1-.08,1,2,2,0,0,1-.19.68h.16c.08,0,.41.11.67.18h0a10.17,10.17,0,0,0,2.58.23,15.37,15.37,0,0,0-3.14-2.1ZM101,79.78a5.77,5.77,0,0,0-.83-.15h0a1,1,0,0,0-.34,0h-.3a5.08,5.08,0,0,0-.78,0h-.26a2,2,0,0,0-.49,0,.57.57,0,0,0-.26,0H97a.75.75,0,0,0-.37.07l-.26.07a1.3,1.3,0,0,1-.34.08.33.33,0,0,0-.26.08c-.07.08-.19.07-.3.11l-.64.22a13.56,13.56,0,0,1,6.62,2.93l.49.22a.28.28,0,0,0,.15.08,1,1,0,0,1,.26.19c.08,0,.15.11.23.15a.57.57,0,0,0,.11.11l.26.26.08.08a1.52,1.52,0,0,1,.22.34,1.85,1.85,0,0,1,.19.37h0a2.5,2.5,0,0,1,.15.38,7.17,7.17,0,0,1,.52.71,13.77,13.77,0,0,1,2.1-.64.78.78,0,0,0,.07-.3.43.43,0,0,1,.08-.3A16.63,16.63,0,0,0,101,79.77Zm14.4,8.86a3.25,3.25,0,0,0-.11-.42v-.07a1,1,0,0,1,0-.34v-.56a14.44,14.44,0,0,0-2.5-.68,4.17,4.17,0,0,0,.48.94,5.32,5.32,0,0,0,.71.86h0l.37.38h.08c.08,0,.3.26.45.37s0,0,.08,0,.26.18.41.3.07,0,.11.07.34.19.48.3a.26.26,0,0,0-.07-.11h0s0-.11-.07-.15h0c0-.09-.08-.18-.11-.27h0a.61.61,0,0,1-.08-.26v-.08a1.09,1.09,0,0,0-.23-.29Zm-37-.87a1,1,0,0,0,.71.72c.23,0,.49,0,.56.3a.35.35,0,0,1-.23.44h-.09a1.73,1.73,0,0,1-1.76-1.66,2,2,0,0,1,.22-1,15,15,0,0,0-2.32-.18,12.32,12.32,0,0,0-1.72.11.41.41,0,0,0,0,.22v.34a.11.11,0,0,0,0,.11v.3a3.47,3.47,0,0,0,.19.57.81.81,0,0,0,.11.26.11.11,0,0,0,0,.08,1.35,1.35,0,0,0,.15.26.09.09,0,0,0,0,.07c0,.08.12.19.16.26h.82a13,13,0,0,1,5.91,1.39.21.21,0,0,0,.19-.08c.08-.08,0-.11,0-.19a3,3,0,0,0,.37-2.28,17.22,17.22,0,0,0-3.37-1.09,1.46,1.46,0,0,0,0,1ZM51.2,82a4.05,4.05,0,0,1-.83-2.51,16.56,16.56,0,0,0-5.27,4.58c.15.11.26.26.41.37l.07.08a3.57,3.57,0,0,0,.38.3.14.14,0,0,1,.11.07l.45.34h.08a4.07,4.07,0,0,1,.55.37,14,14,0,0,1,4-3.61Zm8.94,2.63a6.21,6.21,0,0,0,.45-1.69,10.83,10.83,0,0,0-2.54-.3,11,11,0,0,0-2.55.3,2.68,2.68,0,0,1-1.38.41,11.4,11.4,0,0,0-4.65,3.38h.08l.71.23h.19a3.82,3.82,0,0,0,.67.15h.49a9.12,9.12,0,0,1,6.44-2.71,9,9,0,0,1,2,.23s0,.06.05,0Zm1.16-1.47A8.13,8.13,0,0,1,60.81,85a8.92,8.92,0,0,1,4.5,3.18c.53-.38,1-.71,1.61-1a11,11,0,0,0-5.61-4Zm12.76,1.62a1.39,1.39,0,0,1,2.77-.24,1,1,0,0,1,0,.24v.08a3.57,3.57,0,0,1,.86.07s.3-.52.45-.71a2.76,2.76,0,0,0-5.39,0c.15.22.26.45.41.67h.37c.12-.19.23-.38.34-.57a5.34,5.34,0,0,0-.11.53h.3Zm-7.15,4a3.4,3.4,0,0,0,.64-.08h.18a1.2,1.2,0,0,0,.45-.07c.15-.07.15,0,.23,0l.41-.11a.28.28,0,0,0,.23-.08,1.2,1.2,0,0,0,.37-.15.44.44,0,0,1,.22-.07A1.93,1.93,0,0,0,70,88l.22-.11.38-.23.18-.11.45-.3c.15-.11.08,0,.12-.08a5.21,5.21,0,0,0,.52-.41,16.54,16.54,0,0,0-5,2Zm117.6-8a6.36,6.36,0,0,0-8.93-1.17l-.07.05a17,17,0,0,0,2.17.89,4.66,4.66,0,0,1,4.53.61,6,6,0,0,0,.74-.08h.56a4,4,0,0,0,.68-.16.9.9,0,0,1,.28-.13Zm-16.65-2.18a3.27,3.27,0,0,1-.83,1.47,3.54,3.54,0,0,1-.82.67A13.07,13.07,0,0,1,171,83.47c.19-.11.41-.26.57-.37h0c.15-.11.34-.22.49-.34l.07-.07a4.35,4.35,0,0,0,.41-.34h0a3.6,3.6,0,0,0,.41-.37,15.16,15.16,0,0,0-5.09-3.38Zm-127.21-.3A6.37,6.37,0,0,0,35.41,81c.45.46.9.94,1.31,1.43a4.56,4.56,0,0,1,7.86,0c.41-.49.86-1,1.31-1.46a6.39,6.39,0,0,0-5.28-2.7Zm152.13-6.75a2.38,2.38,0,0,0-.15-.45,6.67,6.67,0,0,0-1,1.12q.65.65,1.23,1.35a4.17,4.17,0,0,0,.07-.71V72.1c0-.11-.16-.41-.19-.55Zm-2.47,1.32a1.4,1.4,0,0,1-.15.3.73.73,0,0,1-.19.3c-.07.11-.19.26-.26.38s0,.07-.07.11-.16.19-.23.26l-.08.07-.26.23-.07.08c-.11.07-.23.18-.38.26a16.33,16.33,0,0,1,2,2.32h.15c.3-.34.6-.64.86-1a8.38,8.38,0,0,0,.68-1A16.91,16.91,0,0,0,190.31,72.86Zm13.8-20a14.31,14.31,0,0,1,1.61-1,10.92,10.92,0,0,0-15.24-2.48l-.21.15a7.33,7.33,0,0,1,1.27.19h.26l.49.11c.26.08.56.12.82.19a8.91,8.91,0,0,1,11,2.84Zm-66,32.89a3.91,3.91,0,0,1,.3.41l1.35-.45-.27-.11A1.75,1.75,0,0,0,138.11,85.7Zm75.73-34,.11-.15a.08.08,0,0,1,.08-.08,1.74,1.74,0,0,1,.11-.18v-.08a.3.3,0,0,0,.07-.15h0a.11.11,0,0,0,0-.11,2.62,2.62,0,0,0,.56,0h.07a1.88,1.88,0,0,0,.53-.07,5.53,5.53,0,0,1-1.16,0,8.34,8.34,0,0,0-1,0,9,9,0,0,1-2.81.45,16,16,0,0,0-7,3.79,3.61,3.61,0,0,0,.64.19l.22.07.3.07h.23a1.82,1.82,0,0,0,.52.08h1.61a13.36,13.36,0,0,1,5.16-2l.15-.11a1.37,1.37,0,0,1,.23-.19c.07-.07.15-.11.18-.18l.19-.19.15-.15.23-.23a.76.76,0,0,1,.11-.14c.07-.08.11-.16.18-.23s.08-.11.12-.15M135.45,89.79a.43.43,0,0,0,.3-.08h0a.42.42,0,0,0,.26-.07h0c.08,0,.15,0,.18-.07s0,0,.08,0h.15a.11.11,0,0,0,.08,0,4.32,4.32,0,0,1-.19-.45,1,1,0,0,1-.08-.34,18.85,18.85,0,0,0-1.87,1.35,8.58,8.58,0,0,0,1.09-.34Zm1.2-6.94a5.55,5.55,0,0,1-1.72-.3,12.48,12.48,0,0,1,2.73,2.55,2.4,2.4,0,0,1,.9-.34,2.45,2.45,0,0,1,2.13.64.43.43,0,0,0,.3-.08,16.47,16.47,0,0,0-2.21-2.85A6.17,6.17,0,0,1,136.65,82.85Zm16.46,4.36c.08,0,.15.11.23.15A8.37,8.37,0,0,0,158,84.58h0a.43.43,0,0,1,.16-.14l.07-.08a.12.12,0,0,1,.07-.11.11.11,0,0,0,.08-.11h0c-.11-.19-.26-.38-.37-.61A11,11,0,0,0,153.11,87.21Zm-6.25-2.29s.31-.52.45-.71A2.72,2.72,0,0,0,144.62,82a2.75,2.75,0,0,0-2.69,2.18c.15.22.26.45.41.67.3,0,.6-.06.9-.07h0a1.39,1.39,0,0,1,2.77-.24,1,1,0,0,1,0,.24v.08a6,6,0,0,1,.85,0ZM162,82.63a11.08,11.08,0,0,0-3.33.52,6.7,6.7,0,0,0,.6.87c.07.08.07.15,0,.19s0,0,.07,0a.58.58,0,0,0,.22.08h.15l.23.07a.29.29,0,0,1,.19.08c.08.08.14,0,.22.07l.19.08h.07a8.07,8.07,0,0,1,1.39-.12,9.41,9.41,0,0,1,3.44.68h.37a1,1,0,0,0,.34,0h.3a10,10,0,0,0,1.87-.45h0A11.44,11.44,0,0,0,162,82.62ZM124.53,22.21a6.82,6.82,0,0,1,.41.68,6.84,6.84,0,0,1,.9-.08h0a1.35,1.35,0,0,1,1.08-1.35c-.37-.34-.75-.64-1.16-1A2.83,2.83,0,0,0,124.53,22.21ZM82.59,13.65a6,6,0,0,1-1.13,1.56s.12,0,.15.07a14.05,14.05,0,0,1,3.33-3.42c-.11-.1-.26-.22-.37-.3s0,0-.08,0a1.9,1.9,0,0,0-.37-.26.12.12,0,0,1-.11-.08L83.67,11a.28.28,0,0,0-.15-.08h0a9.06,9.06,0,0,1-.93,2.77Zm1.34,2.63a14.88,14.88,0,0,1,1.61,1A8.92,8.92,0,0,1,87,15.71,2.12,2.12,0,0,0,87,15h0v-.3a.26.26,0,0,0-.07-.19c0-.15-.12-.26-.15-.41s0-.12-.07-.15,0-.12-.08-.15,0,0,0-.08a10.76,10.76,0,0,0-2.74,2.6Zm-52,13.93A13.49,13.49,0,0,1,34.36,33c.59-.22,1.23-.41,1.83-.6a3.87,3.87,0,0,1,.41-.64A19,19,0,0,0,34,28.6a5.81,5.81,0,0,0-1.12.79,3.72,3.72,0,0,0-.48.41A4.38,4.38,0,0,1,31.93,30.21Zm8.23-.9A8.39,8.39,0,0,0,38,31.21l.34.6a6.54,6.54,0,0,1,.89-.08h0A1.39,1.39,0,0,1,42,31.49a1,1,0,0,1,0,.24v.07a3.14,3.14,0,0,1,.86.08s.3-.53.45-.72A2.75,2.75,0,0,0,40.9,29,1.8,1.8,0,0,0,40.16,29.31Zm4.34,0a17.62,17.62,0,0,1,1.31-1.42,2.79,2.79,0,0,0-.3-.38,4.11,4.11,0,0,0-.38.45h0a5.94,5.94,0,0,0-.72,1.28C44.5,29.28,44.5,29.31,44.5,29.31ZM177.06,40.54a9.37,9.37,0,0,1,2.36-.3,9,9,0,0,1,3.51.71A4.3,4.3,0,0,0,184,39.34a10.52,10.52,0,0,0-3-.91,2.22,2.22,0,0,1-.74,1.24c-.27.23-.94.68-1.24.34a.36.36,0,0,1,0-.49.85.85,0,0,1,.3-.15.78.78,0,0,0,.41-.22,1.71,1.71,0,0,0,.53-.79,6.17,6.17,0,0,0-.86,0,10.66,10.66,0,0,0-3.07.45,2.41,2.41,0,0,0,0,.38A3,3,0,0,0,177.06,40.54Zm-1.57-11.23v-.07a4.87,4.87,0,0,0-.71-1.28h0a3.23,3.23,0,0,0-.38-.45,1.7,1.7,0,0,0-.26.38A15,15,0,0,1,175.49,29.31Zm-37.12-14.1a.38.38,0,0,1,.15,0l-.33-.34a7.58,7.58,0,0,1-1.69-4h0a.18.18,0,0,1-.15.08l-.33.22a.14.14,0,0,0-.12.08l-.37.26h-.07a3.57,3.57,0,0,0-.38.3A12.53,12.53,0,0,1,138.37,15.21Zm-3.93,2.14a14.31,14.31,0,0,1,1.61-1,10.74,10.74,0,0,0-2.62-2.59v.08a.28.28,0,0,0-.08.15.25.25,0,0,1-.07.15,1.56,1.56,0,0,0-.15.41.27.27,0,0,1-.08.23v.3h0a2.12,2.12,0,0,0,0,.71,8.7,8.7,0,0,1,1.39,1.58ZM9.7,47A18.38,18.38,0,0,1,11,45.57a7.48,7.48,0,0,0-.71-.87L10,45h0c-.12.11-.23.19-.34.3l-.08.08a4.91,4.91,0,0,1-.71.48A3.84,3.84,0,0,1,9.7,47Zm0,4.36a6.05,6.05,0,0,1-1.2-.08,7.79,7.79,0,0,1-1.57-.37,9.91,9.91,0,0,0-1.09,0,11.22,11.22,0,0,0-1.16,0A1.31,1.31,0,0,1,5.2,51h.56v.11h0a.25.25,0,0,0,.07.15c.07.08,0,0,0,.07s.08.12.11.15,0,.08.08.12.07.07.07.11a.9.9,0,0,0,.15.19l.12.11c0,.07.11.11.15.19a.67.67,0,0,0,.14.15.57.57,0,0,0,.16.15c0,.07.11.11.18.19l.19.18.15.15.22.23c.08.07.15.11.19.19l.15.14a13.36,13.36,0,0,1,5.16,2h1a.76.76,0,0,0,.3,0h.26a1.23,1.23,0,0,0,.49-.08c.15-.08.15,0,.22,0l.3-.07h.19c.22-.07.45-.11.64-.19a15,15,0,0,0-6.83-3.86Zm18.1-1.62.45-.11h.26c.42-.07.83-.15,1.28-.19a10.93,10.93,0,0,0-15.32,2.07l-.16.22a14.88,14.88,0,0,1,1.61,1,9,9,0,0,1,7.26-3.68,8.8,8.8,0,0,1,3.74.83c.29,0,.55-.1.85-.14ZM3.63,47.67a7.83,7.83,0,0,0,.94,1,1.43,1.43,0,0,1,1.23-.79,1.39,1.39,0,0,1,1.39,1.39h0v.08a3.61,3.61,0,0,1,.86.07,7.44,7.44,0,0,1,.45-.71,2.77,2.77,0,0,0-2-2.07H5.86a2.6,2.6,0,0,1-.56-.07,2.91,2.91,0,0,0-1.7,1.05Zm22.26,27.7a3.07,3.07,0,0,0-.33-.82,1,1,0,0,1-.11.26c0,.07,0,.08,0,.11a.33.33,0,0,1-.08.23c-.08.08,0,.11,0,.19v.19a1.41,1.41,0,0,0,0,.41v.11a.57.57,0,0,1,.26,0,3.77,3.77,0,0,1,.23-.68Zm3.78-41.93a4.33,4.33,0,0,1,0,.72l.79.9c.52-.38,1.05-.72,1.61-1.06a11.27,11.27,0,0,0-1.65-1.8,1.41,1.41,0,0,0-.22.42c-.08-.08-.19-.12-.27-.19a3.9,3.9,0,0,0-.29,1Zm6.64,50.91a16,16,0,0,0-10.92-6.69A8.12,8.12,0,0,0,26,78.9a2,2,0,0,0,.26.38,14.36,14.36,0,0,0,1.31,1.5,13.15,13.15,0,0,1,4.71,2.78l1,.34a.11.11,0,0,1,.11,0l.42.12h.11l.49.11a5.08,5.08,0,0,0,.67.07h.26a1,1,0,0,1,.34,0ZM28.94,33.52v-.11a4,4,0,0,1,.34-1.32,5.44,5.44,0,0,0-1.5-.56h0a.52.52,0,0,1-.34-.08H27a.38.38,0,0,1-.15,0,.31.31,0,0,1-.19,0h-.29a7.67,7.67,0,0,0-2.29.19,8.8,8.8,0,0,1,4.81,1.88Zm-9.7,4.69a4.54,4.54,0,0,1,7.86,0c.31-.4.65-.79,1-1.16a3.42,3.42,0,0,1,0-.64,6.34,6.34,0,0,0-5-2.36,6.52,6.52,0,0,0-3.41,1,6.29,6.29,0,0,0-.52,1.39,4.27,4.27,0,0,0-.15.71,4.88,4.88,0,0,0-.07.76A2.76,2.76,0,0,0,19.24,38.21ZM17,41.74A13.61,13.61,0,0,1,19.54,41a16,16,0,0,0-2.66-3.31h-.57a.45.45,0,0,0-.23,0,.57.57,0,0,0-.26,0,.2.2,0,0,0-.15,0c-.34.07-.67.16-1,.26H14.6a1.43,1.43,0,0,0-.34.14h-.08a1.43,1.43,0,0,0-.37.19A11,11,0,0,1,17,41.78ZM40.61,82a2.78,2.78,0,0,0-2.7,2.18h0a14,14,0,0,0,1.57-.3,1.39,1.39,0,0,1,1.09-.56h.37c.56-.23,1.05-.45,1.5-.68a2.82,2.82,0,0,0-1.83-.6ZM13,43.88a9.44,9.44,0,0,1,1.61-1,11.66,11.66,0,0,0-2.81-2.71,5.51,5.51,0,0,0-.71,1.28c-.07.15-.11.3-.15.41A10.66,10.66,0,0,1,13,43.88Zm143.71-7.1c.3.31.6.6.86.9a3.8,3.8,0,0,1,1.09-2,3.94,3.94,0,0,1,3.48-1,3.87,3.87,0,0,0-.11-.64H162A6.37,6.37,0,0,0,156.74,36.78ZM64.48,20h.07a.68.68,0,0,0,.3-.07A.11.11,0,0,0,65,20a1.28,1.28,0,0,1,.34-.07h.08l.26-.08h.07a.85.85,0,0,0,.26-.11h.08c.08,0,.15,0,.19-.07h0a.62.62,0,0,1,.19-.07,3.14,3.14,0,0,1-.26-1,14.2,14.2,0,0,0-2.06,1.73C64.25,20.08,64.36,20,64.48,20ZM32.75,41.62a.76.76,0,0,0,.3,0,.41.41,0,0,1,.41.26,1.21,1.21,0,0,1,0,.38v.45a5.94,5.94,0,0,0,.11.71,9.33,9.33,0,0,1,2.74-2.13,4.44,4.44,0,0,1-1-1.65A12,12,0,0,0,32.75,41.62Zm18.11-1.08a2.82,2.82,0,0,0,0-2.44,2.05,2.05,0,0,0-2.7-.94,1.22,1.22,0,0,0-.52.64A13,13,0,0,1,50.86,40.54Zm-.34,17.34a.57.57,0,0,1,.26,0h1.76a6.62,6.62,0,0,0,1.16-.23,16,16,0,0,0-13.06-6.72h-.07l.37.19a.44.44,0,0,0,.19.07c.11,0,.19.12.3.15l.18.08c.12.07.27.11.38.19s.07,0,.11.07a1.53,1.53,0,0,1,.3.19.23.23,0,0,1,.15.07.86.86,0,0,1,.22.15.14.14,0,0,1,.12.08c0,.08.19.11.3.19s.15.34.22.52a1.63,1.63,0,0,1,.11.23,1.35,1.35,0,0,0,.15.26c.12.22.26.41.38.64A12.27,12.27,0,0,1,50.52,57.88ZM44.31,46.32l-.26.07a2.84,2.84,0,0,1,.45.64,18.38,18.38,0,0,1,1.31-1.46,6.78,6.78,0,0,0-2.32-2,1.44,1.44,0,0,0-.68,1.16,1,1,0,0,0,1,.94.63.63,0,0,0,.55-.37.36.36,0,0,1,.49-.14l.08.06C45.43,45.6,44.65,46.21,44.31,46.32ZM52.2,77a15,15,0,0,1,2.18-.61,3.62,3.62,0,0,0-.27-.41,4.15,4.15,0,0,0-1.08.41A3.78,3.78,0,0,0,52.2,77Zm23.2-8.41a3.75,3.75,0,0,0-.67,0,4.92,4.92,0,0,1-.41,2.62h1.12a12.32,12.32,0,0,1,1.72.11,8.9,8.9,0,0,0,.41-2.56,12.14,12.14,0,0,0-2.17-.17Zm-18-13.07a2.6,2.6,0,0,0-1.79,1.32c.11-.08.22-.12.33-.19a1.07,1.07,0,0,1,.19-.11c.07,0,.15-.12.23-.15l.29-.19a.55.55,0,0,0,.19-.15c.11-.08.23-.19.34-.26l.11-.12.15-.15Zm9.43,13.93a12.24,12.24,0,0,0-2.65-2.63,5.84,5.84,0,0,0,.07,2,3.93,3.93,0,0,0,.19.67,11.17,11.17,0,0,1,.82,1,15.23,15.23,0,0,1,1.61-1ZM189.6,40.42a4.73,4.73,0,0,0,1.34-2.14v-.14A15.94,15.94,0,0,0,184.5,34a7.7,7.7,0,0,1,.26.94,9.63,9.63,0,0,1,.27,2A14.84,14.84,0,0,1,189.6,40.42Zm-117.42-19h.49a2.26,2.26,0,0,0,.52,0,3.39,3.39,0,0,0,.71-.11.13.13,0,0,0,.12,0,2.91,2.91,0,0,0,.63-.15c.18,0,0,0,.08,0A9.21,9.21,0,0,0,76,20.68h-.6a10.36,10.36,0,0,0-3.93.75h.49a.39.39,0,0,0,.26,0ZM70.09,70.21a1.53,1.53,0,0,1-1.35-.11,15.18,15.18,0,0,0-2.95,1.77,5.63,5.63,0,0,0,2.39,1.46,13.68,13.68,0,0,1,5.2-2A3.67,3.67,0,0,0,73.94,70a4.57,4.57,0,0,0,0-1.28,17.15,17.15,0,0,0-3.18.6A1.26,1.26,0,0,1,70.09,70.21Zm17.1,5.93h0a7.19,7.19,0,0,0-6.47-4.28,1.7,1.7,0,0,0-.45,0h-.41a13.35,13.35,0,0,1,6.81,5.25l.56-.22Zm72.62-63.5a1.68,1.68,0,0,0-1.83.75,1.64,1.64,0,0,0-.26,1.39,12,12,0,0,1,1.38-.6A.58.58,0,0,1,159,14a.36.36,0,0,1,.3-.41.21.21,0,0,1,.11,0c.27,0,.31.3.45.41l.53-.11a.65.65,0,0,0,.08-.49A1,1,0,0,0,159.81,12.64Zm-6.59,3.57.23.34a14.06,14.06,0,0,1,1.31.86,9.51,9.51,0,0,1,2.32-2.2,1.71,1.71,0,0,1-.11-.59,2.36,2.36,0,0,1,.67-1.88A10.45,10.45,0,0,0,153.22,16.21ZM162,29.5a10.27,10.27,0,0,0-4.3.9,2.91,2.91,0,0,1,.59,0,4.78,4.78,0,0,1,3,1.13H162a9.14,9.14,0,0,1,5.33,1.61,6.71,6.71,0,0,1,2.43-.45A10.84,10.84,0,0,0,162,29.5Zm29,10.32A5.08,5.08,0,0,1,190,41l.56.75a14.39,14.39,0,0,1,2.58-.75,15.88,15.88,0,0,0-1.64-2.26,8.73,8.73,0,0,1-.47,1.09ZM171.16,42a3.6,3.6,0,0,0,3-.94,3.42,3.42,0,0,0,1-1.91A10.55,10.55,0,0,0,171.19,42ZM83,79c.38-.26.79-.52,1.2-.75a11.68,11.68,0,0,0-1-1.23,2.67,2.67,0,0,1,.11,1.09,1.75,1.75,0,0,1-.28.86ZM187.8,42.21a2.73,2.73,0,0,0-.56.15,7.16,7.16,0,0,1-.15,1.2,1.35,1.35,0,0,1,.33-.19.72.72,0,0,0,.27-.15l.59-.37A5.93,5.93,0,0,0,187.8,42.21ZM87.9,75.77v.94c.42-.12.83-.23,1.24-.31-.18-.33-.41-.63-.63-1h0c-.12,0-.19.08-.3.11s-.08,0-.11,0a.62.62,0,0,1-.23.07h0a1,1,0,0,1,0,.21Zm-3.52,5.85a5.87,5.87,0,0,0,2.43-2.93,16.65,16.65,0,0,0-5.54,3.76,6,6,0,0,0,3.11-.81Zm5.76-6.23c.15.23.3.45.42.68a6.54,6.54,0,0,1,.89-.08h0a1.2,1.2,0,0,1,.08-.42l-.23-.11-.45-.11h-.07a1.21,1.21,0,0,0-.38,0h-.18c-.08,0-.08,0-.08.06ZM65.31,62.57l.6-.67a15.18,15.18,0,0,0-3.37-1.43.11.11,0,0,0-.11,0,.43.43,0,0,0-.3.08H62a.48.48,0,0,0-.3.07c-.11.07-.15,0-.22.08s-.15,0-.23.08a1.94,1.94,0,0,1-.48.18,5.24,5.24,0,0,0-.53.27c-.15.08-.07,0-.11.07a1.52,1.52,0,0,1-.41.27c-.15.08,0,0-.08,0a8.41,8.41,0,0,0-.86.72,13.31,13.31,0,0,1,5.58,1.57A15.51,15.51,0,0,1,65.31,62.57ZM70.62,66a2.57,2.57,0,0,0-2,1.65c.19.27.38.49.56.75.19-.07.41-.14.6-.22A.32.32,0,0,1,70,68a.3.3,0,0,1,.26,0c.48-.15,1-.3,1.53-.41C71.4,67,71,66.48,70.61,66ZM52.48,51.05a4.53,4.53,0,0,1,3.4-1.65A9.65,9.65,0,0,1,58,49.13a9.18,9.18,0,0,1,6.92,3.23h.22s.34-.12.49-.15.07,0,.11,0a5.27,5.27,0,0,0,.6-.26l.41-.23A11,11,0,0,0,58,47.21a3.42,3.42,0,0,0-.64,0,2,2,0,0,1-2.06.34,11.07,11.07,0,0,0-6.17,4.2,16.63,16.63,0,0,1,1.61,1,8.4,8.4,0,0,1,1.72-1.7ZM59.77,31.6a9.09,9.09,0,0,1,5.5,3.49,14.31,14.31,0,0,1,1.61-1A11.19,11.19,0,0,0,64,31.31a.32.32,0,0,1-.15.19c-.22.15-.48,0-.71-.15a4.14,4.14,0,0,0-3.34.25Zm-.11,3.94a3.6,3.6,0,0,0-3.63.83,5,5,0,0,1,2-.45,4.56,4.56,0,0,1,3.66,1.84,3.09,3.09,0,0,0-2-2.22Zm-3,5a1.41,1.41,0,0,1,1.39-1.42,1.38,1.38,0,0,1,1.38,1.38h0v.07a3.14,3.14,0,0,1,.86.08,7.44,7.44,0,0,1,.45-.71,2.76,2.76,0,0,0-5.39,0c.15.22.26.44.41.67a8.27,8.27,0,0,0,.86,0ZM73.31,67a2.84,2.84,0,0,0-.49-.49c.14.21.26.42.38.64a.41.41,0,0,0,.22,0C73.31,67.12,73.31,67.08,73.31,67ZM60,34.87a3.81,3.81,0,0,1,2.29,2.85c.29-.34.55-.63.85-.94A6.38,6.38,0,0,0,57.93,34h-.08a3.43,3.43,0,0,0-.11.64A4.43,4.43,0,0,1,60,34.87Zm-19.41,8a6.38,6.38,0,0,0-5.24,2.73c.45.45.9.94,1.31,1.43a4.51,4.51,0,0,1,3.93-2.25,5.61,5.61,0,0,1,1.57.26,2.47,2.47,0,0,1,.59-1.8A7,7,0,0,0,40.61,42.87Zm5.83-.46a8.66,8.66,0,0,1,1.39,1.51,11.8,11.8,0,0,1,1.6-1l-.1-.16a4.2,4.2,0,0,1-2.89-.35Zm9.06-6.49a3.61,3.61,0,0,1,1.49-1,2.59,2.59,0,0,1,.12-.78,6.21,6.21,0,0,0-2.18.71,2.58,2.58,0,0,1,.57,1.07ZM55.12,37a.53.53,0,0,1-.15-.34,2.81,2.81,0,0,0-.22-.75,2.93,2.93,0,0,0-.37-.67,5.62,5.62,0,0,0-1.58,1.57c.45.45.9.94,1.31,1.43a3.68,3.68,0,0,1,1-1.24Zm-4,.11a3.55,3.55,0,0,1,.27,4c.14.19.29.42.44.61A13.71,13.71,0,0,1,54.42,41a15.8,15.8,0,0,0-3.34-3.86Zm11.52,4.09a12.21,12.21,0,0,1,1.58.53,13.41,13.41,0,0,1,4.22-4.06,6,6,0,0,0-.52-.49c-.19-.14-.38-.34-.6-.48v-.12h0a.13.13,0,0,1,0-.12v-.06a.11.11,0,0,1,0-.11v-.08a.11.11,0,0,1,0-.11.11.11,0,0,1,0-.11.13.13,0,0,1,0-.12v-.11a.19.19,0,0,1,0-.15v-.41a15.77,15.77,0,0,0-5,4.91,5.75,5.75,0,0,1-.41.87A1.63,1.63,0,0,1,62.64,41.21Zm7.53,22a18.06,18.06,0,0,1,1.3,1.46,4.53,4.53,0,0,1,2.73-2.1h0c-.15-.08-.27-.19-.41-.26a1.32,1.32,0,0,1-.19-.12L73.26,62c-.12-.07-.26-.12-.37-.19l-.19-.08a6,6,0,0,0-.71-.26,7.12,7.12,0,0,0-1.82,1.81ZM66.54,42.79a12.6,12.6,0,0,1,1.6,1,9.26,9.26,0,0,1,2.58-2.37,1.61,1.61,0,0,0-.18-.52,2.07,2.07,0,0,0-.15-.34v-.12c-.11-.26-.26-.52-.37-.79a10.41,10.41,0,0,0-3.48,3.22Zm1.57,24.09a2.78,2.78,0,0,1,.37-.59,3.13,3.13,0,0,1,1.61-1,15.77,15.77,0,0,0-3.52-3,.66.66,0,0,0-.15.15A8.32,8.32,0,0,0,65,64.35,14.14,14.14,0,0,1,68.11,67ZM46.37,47.75a3.33,3.33,0,0,0,.48-1.13,14.68,14.68,0,0,0-2.13,2.59A4.73,4.73,0,0,0,46.37,47.75Zm11.19-3H58a12.44,12.44,0,0,1,3.92.6.12.12,0,0,0,.11-.07,2.21,2.21,0,0,0,1-2.29,16.34,16.34,0,0,0-5-.83A15.82,15.82,0,0,0,47.7,45.87a3.7,3.7,0,0,1-.23,1.27A4.72,4.72,0,0,1,44.59,50c.73.19,1.46.41,2.17.67A13.54,13.54,0,0,1,57.56,44.7Zm6.32-1.49a3,3,0,0,1-1.09,2.36,13.38,13.38,0,0,1,6,4.55c.19-.19.37-.42.56-.6v-.08a8.12,8.12,0,0,0,.48-.67c.12-.19.23-.38.34-.57a1.09,1.09,0,0,0,.11-.26A15.11,15.11,0,0,0,63.88,43.21Zm4.64,17.91a4.76,4.76,0,0,0-.75.07.13.13,0,0,1,0,.12c.15.07.26.18.41.26Zm1.65-15.55c.26.27.48.49.74.79a2.57,2.57,0,0,1,.11-.48,1.3,1.3,0,0,1,.08-.42v-.11a6.38,6.38,0,0,0,.07-.87,4.11,4.11,0,0,0-1,1.12Zm-10,6.72a.12.12,0,0,1,0,.16,5.47,5.47,0,0,1,.68.14h.33a6.17,6.17,0,0,0-1.08-.49.48.48,0,0,1,.07.22Zm-.71.27a4.3,4.3,0,0,0-.41-.72,4.81,4.81,0,0,0-1-.07,6.37,6.37,0,0,0-5.24,2.74,8.56,8.56,0,0,1,.9,1h.07a3.09,3.09,0,0,0,.6.08A4.15,4.15,0,0,1,55.5,54.5a1,1,0,0,0-.22-.79h0a.38.38,0,0,1,.1-.53.43.43,0,0,1,.27-.06c.34.07.53.59.6.9v.11a4.34,4.34,0,0,1,1.84-.38,3.65,3.65,0,0,1,.93.12.29.29,0,0,0,.07-.16c.08-.14.19-.3.26-.44a1.59,1.59,0,0,0,.19-.42.24.24,0,0,1,.08-.15ZM77.05,66.07a4,4,0,0,0-.26-.56.76.76,0,0,0-.12-.19,1.49,1.49,0,0,0-.18-.3c0-.07-.11-.15-.15-.22s-.15-.19-.23-.3a.91.91,0,0,1-.11-.16,4.64,4.64,0,0,0-.64-.07,2.75,2.75,0,0,0-2.43,1.46,4,4,0,0,1,.79.68c.11.11.18.26.3.38a1.39,1.39,0,0,1,2.77.22v.08a2.6,2.6,0,0,1,.56.07,3.88,3.88,0,0,1-.11-.49V66.6a2,2,0,0,1-.19-.5Zm94.77-28.86a1.69,1.69,0,0,0-1.42-.15,2.35,2.35,0,0,0-1.57,2.51,2.9,2.9,0,0,0,.3,1,13.75,13.75,0,0,1,3.18-2.81A1.31,1.31,0,0,0,171.82,37.21Zm.34,6.72a8.91,8.91,0,0,1,1.38-1.5,4.17,4.17,0,0,1-2.69.37.63.63,0,0,1-.23-.08.91.91,0,0,1-.11.16,15.41,15.41,0,0,1,1.65,1Zm7.26,2.7a2.78,2.78,0,0,0-2.7,2.18c.15.22.27.45.41.67.3,0,.6-.07.9-.07h0a1.39,1.39,0,0,1,2.77-.24,1,1,0,0,1,0,.24v.08h.11a9.63,9.63,0,0,0,1-.42c0-.07.11-.14.15-.22a2.8,2.8,0,0,0-2.64-2.27Zm6.89-3.17v-.07c.07-.34.11-.64.15-1s0-.52.18-.67a.94.94,0,0,1,.57-.12,10.5,10.5,0,0,0-2.59-2,4.9,4.9,0,0,1-1,1.65A9.26,9.26,0,0,1,186.31,43.46ZM153.11,34a14.88,14.88,0,0,1,1.61,1,9.14,9.14,0,0,1,5.5-3.49.14.14,0,0,1-.11-.07,3.52,3.52,0,0,0-1.8-.37,4.21,4.21,0,0,0-1,.12,1.76,1.76,0,0,0-.44.15c-.12,0-.27.15-.38.15a.42.42,0,0,1-.45-.23A10.77,10.77,0,0,0,153.11,34Zm-1.27,9.84a11.31,11.31,0,0,1,1.61-1A10.93,10.93,0,0,0,150,39.76c-.15.27-.26.53-.38.79v.11s-.11.23-.15.38-.12.33-.19.52A9.1,9.1,0,0,1,151.84,43.88ZM140.2,66.51a4.64,4.64,0,0,0-.07.64h0v.64a5.87,5.87,0,0,1,.83-.19A5.91,5.91,0,0,0,140.2,66.51Zm26.42-5.06h-.15a.73.73,0,0,1-.26-.11.31.31,0,0,0-.19,0,.26.26,0,0,1-.22-.08c-.07-.08-.15,0-.19,0h-.45a.31.31,0,0,1-.19,0h-.82a.76.76,0,0,0-.3,0h-.11a1,1,0,0,0-.34.08,5.2,5.2,0,0,0-2.58,1.35c.4,0,.8-.07,1.2-.08a13.64,13.64,0,0,1,7.41,2.22,6.44,6.44,0,0,0-.64-1.32,3.09,3.09,0,0,1-.26-.37l-.08-.08c-.07-.07-.15-.18-.22-.26l-.11-.11-.23-.23a.57.57,0,0,0-.11-.11,2.48,2.48,0,0,0-.26-.19s-.08-.07-.11-.07l-.38-.23a4,4,0,0,1-.41-.41Zm-13.1-42.09c.08,0,.12.08.19.08a.11.11,0,0,1,.08,0l.18.07h.08a.66.66,0,0,1,.26.11.09.09,0,0,1,.07,0,.26.26,0,0,1,.23.08c.07.08.08,0,.11,0a1.11,1.11,0,0,0,.3.08.21.21,0,0,1,.11,0,.36.36,0,0,1,.27.08h.11l.34.07a18,18,0,0,0-2.06-1.73,4.56,4.56,0,0,1-.27,1.16Zm-8.94,43.1a4.51,4.51,0,0,1,3.93,2.25,17.62,17.62,0,0,1,1.31-1.42,6.35,6.35,0,0,0-4.64-2.7h-.11c-.22.09-.43.19-.64.3h0l-.57.34h-.07a3.3,3.3,0,0,0-.49.34.42.42,0,0,1-.15.11c-.15.11-.26.22-.41.34l-.22.22a2.23,2.23,0,0,0-.27.26c-.14.15-.29.3-.41.45h0a9.15,9.15,0,0,0-.78,1.17,4.64,4.64,0,0,1,3.52-1.66Zm14.78-.94v-.07a.71.71,0,0,1-.19-.23l-.08-.07-.22-.23-.08-.07-.26-.23h0a1.41,1.41,0,0,0-.37-.27,15.15,15.15,0,0,0-5,2.29,9,9,0,0,1,1,2.44,13.64,13.64,0,0,1,6.1-2.52,6.37,6.37,0,0,0-.53-.75h0a1.16,1.16,0,0,1-.37-.29Zm-12.5,5.69s.31-.53.45-.71a1.34,1.34,0,0,0-2.54-.79A1.4,1.4,0,0,1,146,67.06v.08A7.56,7.56,0,0,1,146.86,67.21Zm22.45-32.12a10.78,10.78,0,0,1,1.6-1,4.51,4.51,0,0,0-.48-.6,5.76,5.76,0,0,0-2.51.19A10.89,10.89,0,0,1,169.31,35.09Zm-9.58,39.42a6.38,6.38,0,0,1,.67-.49,6.9,6.9,0,0,1,2-.79h-.34a2.72,2.72,0,0,0-2.36,1.28Zm6.66-16.85a6.59,6.59,0,0,0,1.16.22h1.23a2.26,2.26,0,0,0,.52,0,.61.61,0,0,0,.27,0,13.27,13.27,0,0,1,6.51-3.94,3.14,3.14,0,0,0,.37-.64c0-.07.08-.15.15-.26l.12-.22c.07-.19.14-.34.22-.53l.3-.19a.14.14,0,0,0,.11-.07l.22-.12s.12,0,.16-.07l.26-.15a.41.41,0,0,1,.19-.08l.33-.18a.76.76,0,0,0,.19-.12.73.73,0,0,0,.26-.11l.22-.11a1.4,1.4,0,0,0,.3-.15c.08,0,.12-.08.19-.08h-.19a16.27,16.27,0,0,0-13.12,6.8Zm-4.34,11.82h-.11a.45.45,0,0,1,0,.23.37.37,0,0,1-.4.33.36.36,0,0,1-.27-.15,1.63,1.63,0,0,1-.19-.34,6.49,6.49,0,0,0-4.3,2.67c.45.45.9.94,1.31,1.43a4.53,4.53,0,0,1,7.86,0,18.53,18.53,0,0,1,1.31-1.47,6.45,6.45,0,0,0-5.24-2.7ZM194.6,42.94a16,16,0,0,1,3.85,1.84,13.45,13.45,0,0,1,9.22,5.43,8.64,8.64,0,0,0,1,.26,10.93,10.93,0,0,1,1.94-.53,16,16,0,0,0-13.8-7.83,15.83,15.83,0,0,0-3.81.46,11.94,11.94,0,0,1,1.57.37Zm4.49-2.29a7.44,7.44,0,0,1,.45-.71,2.74,2.74,0,0,0-2.7-2.18,2.77,2.77,0,0,0-2.69,2.18c.15.22.26.45.41.67a6.82,6.82,0,0,1,.9-.07h0a1.39,1.39,0,0,1,2.77-.24,1,1,0,0,1,0,.24v.07a5.7,5.7,0,0,1,.83,0ZM164,67.08a2.85,2.85,0,0,0-.56-.26,3.3,3.3,0,0,0-2.06,0h.6a10.23,10.23,0,0,1,2,.26ZM140.12,72l-.26-.12h-.07a.84.84,0,0,0-.27-.08h-.11s-.26-.07-.41-.11-.15,0-.22,0h-.45a.31.31,0,0,1-.19,0,.76.76,0,0,1-.3,0h-.64a3.4,3.4,0,0,0-.63.08.19.19,0,0,0-.15,0l-.56.11h0a7.25,7.25,0,0,0-1.27.49,15.74,15.74,0,0,0-3.52,3.94h0v.34a17.89,17.89,0,0,1,2.4.71A13.84,13.84,0,0,1,140.09,72Zm5.06-50.95h.37l.22.07H146a.76.76,0,0,0,.3,0,.19.19,0,0,1,.15,0h1.5a.57.57,0,0,0,.26,0h.44a10.72,10.72,0,0,0-4-.75H144a1,1,0,0,1,.3.14,2.33,2.33,0,0,0,.84.54ZM169.31,70.5a15.85,15.85,0,0,1,1.6-1.06,10.88,10.88,0,0,0-16.91-1,6.42,6.42,0,0,1-.45,1.2,13.32,13.32,0,0,1,1.28.83,9,9,0,0,1,4.86-3.35c.08-.07.15-.15.22-.22a3.85,3.85,0,0,1,5.84.69c.27.11.53.26.79.37a2,2,0,0,1,1.19-.3,2.52,2.52,0,0,1,1.47.64,2.33,2.33,0,0,1,.48.68c.07.18.26.48.19.67a.39.39,0,0,1-.41.26c-.23,0-.3-.22-.38-.41a1.6,1.6,0,0,0-1.23-1,1.32,1.32,0,0,0-.56,0A14.69,14.69,0,0,1,169.31,70.5Zm-17.22,0a16.67,16.67,0,0,0-3.47-1.36,1.4,1.4,0,0,1-1.28-.22h-.07a15.36,15.36,0,0,0-2.62-.22,6.76,6.76,0,0,0-.9,0,3,3,0,0,0,.19.78,4.2,4.2,0,0,0,1.24,1.81,13.3,13.3,0,0,1,4.45.93l.33-.11a5.64,5.64,0,0,0,2.1-1.65ZM163,34.31A5.08,5.08,0,0,1,163,35a4.59,4.59,0,0,1,1.5,1,2.91,2.91,0,0,1,.34-.79c.07-.11.14-.22.18-.3a6.67,6.67,0,0,0-2.17-.71.26.26,0,0,1,0,.09ZM183.31,47c.41-.49.85-1,1.3-1.46a6.38,6.38,0,0,0-5.23-2.74,7,7,0,0,0-2.17.37,1.5,1.5,0,0,1,.29.42,2.22,2.22,0,0,1,.31,1.38,4.43,4.43,0,0,1,1.53-.26A4.58,4.58,0,0,1,183.31,47Zm-8,2.1a14.29,14.29,0,0,0-2.17-2.55,3.59,3.59,0,0,0,.94,1.69A3.42,3.42,0,0,0,175.31,49.13Zm-2.1,1.54a17.69,17.69,0,0,1,2.14-.67,6.16,6.16,0,0,1-1.57-1,4.56,4.56,0,0,1-1.54-3.23A15.86,15.86,0,0,0,162,42.06a16,16,0,0,0-5.05.82,2,2,0,0,0,.45,1.8,2.45,2.45,0,0,0,.67.57,13.42,13.42,0,0,1,15.15,5.4Zm1-5.1c.45.45.9.94,1.31,1.43.15-.23.3-.46.44-.65a1.24,1.24,0,0,1-.52-.18,1.18,1.18,0,0,1-.52-.68.39.39,0,0,1,.36-.42.29.29,0,0,1,.13,0c.14,0,.18.19.26.3a.58.58,0,0,0,.29.22,1,1,0,0,0,1.19-.76v0a1.47,1.47,0,0,0-.67-1.28,7,7,0,0,0-2.31,2Zm-3.3,6.19a10.91,10.91,0,0,0-6.17-4.2,2.1,2.1,0,0,1-1.16.15,2.07,2.07,0,0,1-.9-.45h-.63a11,11,0,0,0-8.8,4.43,4.5,4.5,0,0,0,1,.45h.11a1.92,1.92,0,0,0,.48.15h.27A9,9,0,0,1,162,49.06a8,8,0,0,1,2.17.27,4.63,4.63,0,0,1,3.29,1.57,8.46,8.46,0,0,1,1.82,1.91,12.63,12.63,0,0,1,1.57-1.05Zm-8.34,3.79a.54.54,0,0,1,.15.15l.15.15.3.23c.08,0,.15.11.22.15s.15.11.23.15a1.17,1.17,0,0,0,.3.19.14.14,0,0,1,.11.07l.41.23a2.83,2.83,0,0,0-1.9-1.32ZM143,68.69a20.28,20.28,0,0,0-2.69.52,3.82,3.82,0,0,0,.15.67,4.3,4.3,0,0,0,.19.65h0l.22.57a3.16,3.16,0,0,0,.26.52,12.73,12.73,0,0,1,3-.45A4.83,4.83,0,0,1,143,68.69ZM175.18,41l-.45.56a14.11,14.11,0,0,1,1.61-.79,5.17,5.17,0,0,1-.56-1.13,5,5,0,0,1-.63,1.36ZM150.82,68.39a13.11,13.11,0,0,1,2.55-2.81,7.82,7.82,0,0,0-.94-2.56,17.65,17.65,0,0,0-2.91,2.82,2.43,2.43,0,0,1,.29.86A2.54,2.54,0,0,1,149.7,68a8.27,8.27,0,0,1,1.09.38ZM43.71,40.8a13.89,13.89,0,0,1,1.65.79,4.18,4.18,0,0,1-1-2A5.11,5.11,0,0,1,43.71,40.8ZM165.65,41a17.72,17.72,0,0,1,2.58.75c.15-.19.3-.42.45-.6a3,3,0,0,1-.41-1A3.26,3.26,0,0,1,169,37,15.37,15.37,0,0,0,165.65,41Zm8.75,27-.22-.22c-.08-.08-.15-.12-.23-.19h0a1.82,1.82,0,0,0-.27-.15h0l-.26-.11h-.08l-.26-.11H173l-.26-.07h-.07a.33.33,0,0,1-.26-.08h-.3a13,13,0,0,1,1.16,1.5,9.52,9.52,0,0,0,1.13-.62Zm-11-32a3.62,3.62,0,0,0-3-.45,3,3,0,0,0-2.06,2.14v.15A4.45,4.45,0,0,1,162,36a4.65,4.65,0,0,1,1.91.41,3.05,3.05,0,0,0-.44-.44ZM162,51.79c-.33,0-.67,0-1,.08-.15.22-.3.48-.45.71l-.07.07c-.07.07,0,.08.07.12a2.17,2.17,0,0,1,.19.41c.07.15.15.26.22.41l.11.15a4.24,4.24,0,0,1,.94-.11,4.62,4.62,0,0,1,1.83.38,1.79,1.79,0,0,1,.34-.83v-.07c0-.07.07,0,.11-.08a.37.37,0,0,1,.49.15c.14.26-.12.45-.19.68a1,1,0,0,0-.08.52,4.34,4.34,0,0,1,1.13,1.09,1.91,1.91,0,0,0,.63-.07,11.12,11.12,0,0,1,.94-1A6.51,6.51,0,0,0,162,51.76ZM143,67.15a3.83,3.83,0,0,1,1.57-2.33,2.94,2.94,0,0,1,.75-.38,2.72,2.72,0,0,0-.75-.11,2.75,2.75,0,0,0-2.69,2.18c.15.22.26.45.41.67Zm21.33-26.5s.3-.53.41-.71A2.72,2.72,0,0,0,162,37.76a2.76,2.76,0,0,0-2.72,2.18c.14.22.3.45.41.67a6.82,6.82,0,0,1,.9-.07h0a1.38,1.38,0,1,1,2.76,0v.07A7.47,7.47,0,0,1,164.31,40.65Zm-5.2,11.94h.11l.64-.11h0v-.16a1.74,1.74,0,0,1,.11-.18,7.59,7.59,0,0,0-1.12.52l.21-.07ZM165,37a4.45,4.45,0,0,1,1,1.2,16.77,16.77,0,0,1,1.31-1.46,7.59,7.59,0,0,0-1.61-1.54,4.36,4.36,0,0,0-.49.9,1.74,1.74,0,0,0-.11.45.54.54,0,0,1-.08.34.93.93,0,0,0-.07.11ZM149.67,47.89a1.17,1.17,0,0,0,.15.27,4,4,0,0,0,.34.56c.15.22.3.45.49.68v.07a4,4,0,0,0,.56.6,13.82,13.82,0,0,1,6-4.54,3,3,0,0,1-1-1.61,3.22,3.22,0,0,1,0-.76A16.55,16.55,0,0,0,149.67,47.89Zm6.14-6.15c.52-.19,1.05-.38,1.57-.53a2.19,2.19,0,0,1,.82-.3,3.57,3.57,0,0,1-.41-.86,16.25,16.25,0,0,0-5.39-4.84v.56a.11.11,0,0,0,0,.11.13.13,0,0,0,0,.12.21.21,0,0,0,0,.11.11.11,0,0,0,0,.11.13.13,0,0,0,0,.12.11.11,0,0,0,0,.11v.07a.24.24,0,0,0,0,.12h0v.12a3.51,3.51,0,0,0-.6.48c-.19.15-.34.34-.52.49A14.75,14.75,0,0,1,155.81,41.74ZM149,67.79a2.12,2.12,0,0,0,.07-1c0-.11,0-.23-.07-.34-.26.37-.53.71-.75,1.09A3.89,3.89,0,0,0,149,67.79Zm-.15-23.31a6.11,6.11,0,0,0,.07.86v.12a.77.77,0,0,0,.08.41,2.2,2.2,0,0,1,.11.48c.22-.26.49-.52.75-.78A10.43,10.43,0,0,0,148.85,44.48Zm7.33,14.83a4.71,4.71,0,0,0-.64-.19,2.88,2.88,0,0,0,.27.34A2.39,2.39,0,0,0,156.18,59.31Zm-5.8.33c-.07,0-.11.08-.18.08.15.08.26.19.37.26l1,.79a8,8,0,0,1,.56.6,9.35,9.35,0,0,1,1.35-.82,8.92,8.92,0,0,0-1.31-1.5,9.58,9.58,0,0,0-1.65.52h-.11S150.42,59.64,150.38,59.64Z" transform="translate(-0.01 0.02)"/><path class="cls-2" d="M141.75,39.7l.05,0,.14.14h0l.18.14a16.42,16.42,0,0,0-1.3-2.45A3.89,3.89,0,0,0,141.75,39.7Z" transform="translate(-0.01 0.02)"/></g><g id="图层_2" data-name="图层 2"><path class="cls-3" d="M105.71,35.7c.35.35.69.73,1,1.11s.62.79.9,1.21.53.85.77,1.29a14,14,0,0,1,.64,1.36c.19.46.36.94.51,1.42s.26,1,.36,1.46a14.25,14.25,0,0,1,.22,1.48,14.84,14.84,0,0,1,.07,1.51,10.69,10.69,0,0,1-.07,1.5c-.07.5-.12,1-.22,1.49s-.22,1-.36,1.46A11.71,11.71,0,0,1,109,52.4a13,13,0,0,1-.64,1.36c-.24.45-.49.87-.77,1.29s-.58.82-.9,1.21-.65.76-1,1.12a11.65,11.65,0,0,1-1.11,1c-.39.31-.79.61-1.21.89s-.84.54-1.28.78a14,14,0,0,1-1.36.64,15.66,15.66,0,0,1-2.89.89,16.77,16.77,0,0,1-3,.3,9.43,9.43,0,0,1-1.5-.08,14.66,14.66,0,0,1-1.48-.22,14.86,14.86,0,0,1-1.46-.37,13.87,13.87,0,0,1-1.41-.5c-.46-.19-.91-.41-1.35-.64s-.87-.5-1.29-.78-.82-.58-1.21-.89-.75-.66-1.11-1a10.66,10.66,0,0,1-1-1.12c-.31-.39-.62-.79-.9-1.21s-.53-.84-.77-1.29a14,14,0,0,1-.64-1.36,13.87,13.87,0,0,1-.5-1.41,14.86,14.86,0,0,1-.37-1.46c-.09-.5-.17-1-.22-1.49a14.92,14.92,0,0,1-.07-1.5,11,11,0,0,1,.07-1.51c.07-.51.13-1,.22-1.48a14.86,14.86,0,0,1,.37-1.46,14.05,14.05,0,0,1,.5-1.42c.19-.46.41-.91.64-1.36s.5-.87.77-1.29a13.08,13.08,0,0,1,.9-1.21c.32-.39.65-.76,1-1.11s.73-.69,1.11-1,.79-.62,1.21-.9A15.56,15.56,0,0,1,89,32.41a11.86,11.86,0,0,1,1.41-.51,14.86,14.86,0,0,1,1.46-.37c.49-.09,1-.17,1.48-.22a16,16,0,0,1,3,0c.5.05,1,.13,1.49.22a14.67,14.67,0,0,1,1.45.37,12.21,12.21,0,0,1,1.41.5c.41.19.92.41,1.36.65a12.77,12.77,0,0,1,1.28.77c.42.28.82.58,1.21.9S105.31,35.34,105.71,35.7Z" transform="translate(-0.01 0.02)"/><path class="cls-2" d="M87,55.47c.24-.31.51-.58.77-.87a3.79,3.79,0,0,0-6-.27c.09.16.2.31.29.47s0,0,0,.07l.34.47a2.69,2.69,0,0,1,2.26-1.23A2.76,2.76,0,0,1,87,55.47Z" transform="translate(-0.01 0.02)"/><path class="cls-2" d="M91.31,52.35a10.31,10.31,0,0,1,1.53-.45,9.53,9.53,0,0,0-13.07-3.29h0a5.34,5.34,0,0,0,.13.8q.08.4.18.81a8,8,0,0,1,11.14,2Z" transform="translate(-0.01 0.02)"/><path class="cls-2" d="M89,53.62c.31-.23.62-.42,1-.63a6.55,6.55,0,0,0-5.27-2.7,6.43,6.43,0,0,0-4.13,1.5,2.88,2.88,0,0,0,.13.31l.11.27c.07.18.16.36.22.54a5.29,5.29,0,0,1,3.67-1.48A5.37,5.37,0,0,1,89,53.62Z" transform="translate(-0.01 0.02)"/><path class="cls-2" d="M85.52,35.79H86a4.9,4.9,0,0,1,.27-.42,1.6,1.6,0,0,0-.74-1c-.24.18-.47.38-.69.58A.8.8,0,0,1,85.52,35.79Z" transform="translate(-0.01 0.02)"/><path class="cls-2" d="M86,46.41A4.9,4.9,0,0,1,86.3,46a1.64,1.64,0,0,0-3.21,0c.09.13.17.26.25.4a4.75,4.75,0,0,1,.53,0h0a.83.83,0,0,1,1.65,0h0A4.46,4.46,0,0,1,86,46.41Z" transform="translate(-0.01 0.02)"/><path class="cls-2" d="M102,33.56a8.93,8.93,0,0,1,.78.85,3.27,3.27,0,0,1,.56-.67,6.79,6.79,0,0,0-1-.6C102.22,33.27,102.11,33.43,102,33.56Z" transform="translate(-0.01 0.02)"/><path class="cls-2" d="M100.79,32.56l.09-.12-.69-.26A2.9,2.9,0,0,1,100.79,32.56Z" transform="translate(-0.01 0.02)"/><path class="cls-2" d="M94.77,31.44a9.59,9.59,0,0,0-7.94,4.62,10.31,10.31,0,0,1,1.53.45,7.77,7.77,0,0,1,10.76-2.3,7.88,7.88,0,0,1,2.3,2.3,8.37,8.37,0,0,1,1.53-.45A9.53,9.53,0,0,0,95,31.44H95A.54.54,0,0,0,94.77,31.44Z" transform="translate(-0.01 0.02)"/><path class="cls-2" d="M87.45,33.21c-.33.18-.67.4-1,.6a3.27,3.27,0,0,1,.56.67c.24-.31.51-.58.78-.87A1,1,0,0,0,87.45,33.21Z" transform="translate(-0.01 0.02)"/><path class="cls-2" d="M95,59.38a2.66,2.66,0,0,1,2.13,1.33,7.76,7.76,0,0,1,.78-.84A3.77,3.77,0,0,0,95,58.26h-.27a3.77,3.77,0,0,0-2.87,1.61c.27.27.54.56.78.85A2.83,2.83,0,0,1,95,59.38Z" transform="translate(-0.01 0.02)"/><path class="cls-2" d="M95,54a8,8,0,0,1,6.47,3.55,8.37,8.37,0,0,1,1.53-.45A9.51,9.51,0,0,0,95,52.5h-.24a9.59,9.59,0,0,0-7.94,4.62,13.43,13.43,0,0,1,1.53.45A8,8,0,0,1,95,54Z" transform="translate(-0.01 0.02)"/><path class="cls-2" d="M80.05,42.89c.11.06.2.13.31.2a5.35,5.35,0,0,1,7.48-1.15A5.23,5.23,0,0,1,89,43.09c.31-.23.62-.43,1-.63a6.51,6.51,0,0,0-5.27-2.7,6.43,6.43,0,0,0-4.13,1.5C80.36,41.77,80.2,42.33,80.05,42.89Z" transform="translate(-0.01 0.02)"/><path class="cls-2" d="M84.67,57.79h-.15A15.2,15.2,0,0,0,87,59.67a8,8,0,0,1,2.3,1.13l.73.27a6.29,6.29,0,0,0,.74.22,5.11,5.11,0,0,0,.75.18c.25.07.51.11.78.16A9.47,9.47,0,0,0,84.67,57.79Z" transform="translate(-0.01 0.02)"/><path class="cls-2" d="M95,56.68a5.4,5.4,0,0,1,4.13,2.16,8.59,8.59,0,0,1,1-.63,6.6,6.6,0,0,0-5-2.7h-.24a6.51,6.51,0,0,0-5,2.7,7.93,7.93,0,0,1,1,.62A5.38,5.38,0,0,1,95,56.68Z" transform="translate(-0.01 0.02)"/><path class="cls-2" d="M109.42,43.09a3.28,3.28,0,0,1,.31-.2,13.28,13.28,0,0,0-.49-1.63,6.44,6.44,0,0,0-9.08.82,3.57,3.57,0,0,0-.3.38,9.35,9.35,0,0,1,1,.63,5.32,5.32,0,0,1,7.43-1.17,5.41,5.41,0,0,1,1.17,1.17Z" transform="translate(-0.01 0.02)"/><path class="cls-2" d="M108.22,44.09a3.79,3.79,0,0,0-6.23,0,8.93,8.93,0,0,1,.78.85,2.72,2.72,0,0,1,2.34-1.34A2.67,2.67,0,0,1,107.44,45,10.56,10.56,0,0,1,108.22,44.09Z" transform="translate(-0.01 0.02)"/><path class="cls-2" d="M95,45h-.2a6.51,6.51,0,0,0-5,2.7,7.93,7.93,0,0,1,1,.62A5.45,5.45,0,0,1,95,46.21a5.32,5.32,0,0,1,4.11,2.16,8.57,8.57,0,0,1,1-.62,6.56,6.56,0,0,0-5-2.7Z" transform="translate(-0.01 0.02)"/><path class="cls-2" d="M84.67,42.49a3.78,3.78,0,0,0-3.11,1.62c.26.27.53.56.78.85A2.69,2.69,0,0,1,87,45c.24-.31.51-.58.77-.87A3.71,3.71,0,0,0,84.67,42.49Z" transform="translate(-0.01 0.02)"/><path class="cls-2" d="M108,54.35A3.89,3.89,0,0,0,105.11,53,3.81,3.81,0,0,0,102,54.62a8.07,8.07,0,0,1,.78.87,2.71,2.71,0,0,1,4.61-.09l.33-.47v-.06C107.84,54.67,107.93,54.51,108,54.35Z" transform="translate(-0.01 0.02)"/><path class="cls-2" d="M86,56.92a4.9,4.9,0,0,1,.27-.42,1.64,1.64,0,0,0-1.61-1.3,1.6,1.6,0,0,0-1.53,1.12c.15.2.33.38.49.58h.22a.83.83,0,0,1,1.65,0h0A4.35,4.35,0,0,1,86,56.92Z" transform="translate(-0.01 0.02)"/><path class="cls-2" d="M105.11,57.77a9.55,9.55,0,0,0-7.67,3.86,3.19,3.19,0,0,0,.78-.16c.27-.07.51-.11.75-.18a6.14,6.14,0,0,0,.73-.22l.74-.27a7.2,7.2,0,0,1,2.33-1.13,15.6,15.6,0,0,0,2.54-1.88Z" transform="translate(-0.01 0.02)"/><path class="cls-2" d="M86.83,46.59a10.31,10.31,0,0,1,1.53.45,7.8,7.8,0,0,1,13.08,0,8.37,8.37,0,0,1,1.53-.45A9.51,9.51,0,0,0,95,42h-.24A9.54,9.54,0,0,0,86.83,46.59Z" transform="translate(-0.01 0.02)"/><path class="cls-2" d="M95,38.31a2.65,2.65,0,0,1,2.13,1.34,8.93,8.93,0,0,1,.78-.85A3.79,3.79,0,0,0,95,37.2h-.27a3.77,3.77,0,0,0-2.87,1.61,10.21,10.21,0,0,1,.78.84A2.85,2.85,0,0,1,95,38.31Z" transform="translate(-0.01 0.02)"/><path class="cls-2" d="M95,34.48h-.2a6.51,6.51,0,0,0-5,2.7,7.93,7.93,0,0,1,1,.62,5.1,5.1,0,0,1,7.1-1.26,5,5,0,0,1,1.26,1.26,10.17,10.17,0,0,1,1-.63,6.49,6.49,0,0,0-5-2.69Z" transform="translate(-0.01 0.02)"/><path class="cls-2" d="M96.1,41.1a4.9,4.9,0,0,1,.27-.42A1.69,1.69,0,0,0,95,39.4h-.24a1.69,1.69,0,0,0-1.36,1.28c.07.11.25.4.27.42h.51a.81.81,0,0,1,.73-.8.83.83,0,0,1,.69.8h.49Z" transform="translate(-0.01 0.02)"/><path class="cls-2" d="M96.37,61.74A1.67,1.67,0,0,0,95,60.47h-.24a1.67,1.67,0,0,0-1.36,1.27.09.09,0,0,0,0,.07h.77a.68.68,0,0,1,1.34,0h.76C96.31,61.76,96.31,61.74,96.37,61.74Z" transform="translate(-0.01 0.02)"/><path class="cls-2" d="M89,32.56l.6-.41c-.25.09-.47.18-.71.29A.43.43,0,0,1,89,32.56Z" transform="translate(-0.01 0.02)"/><path class="cls-2" d="M84.67,38.27a8,8,0,0,1,6.64,3.54,11.62,11.62,0,0,1,1.53-.44,9.51,9.51,0,0,0-8.18-4.64,7.53,7.53,0,0,0-1.64.15,15.9,15.9,0,0,0-1,1.43h0c-.11.16-.2.34-.31.52A8.1,8.1,0,0,1,84.67,38.27Z" transform="translate(-0.01 0.02)"/><path class="cls-2" d="M96.92,41.37a11.76,11.76,0,0,1,1.54.44,8,8,0,0,1,6.65-3.54,7.89,7.89,0,0,1,3,.58,3.12,3.12,0,0,0-.31-.49v0c-.32-.49-.67-1-1-1.43a11.23,11.23,0,0,0-1.64-.15A9.53,9.53,0,0,0,96.92,41.37Z" transform="translate(-0.01 0.02)"/><path class="cls-2" d="M96.92,51.88a11.76,11.76,0,0,1,1.54.44,8,8,0,0,1,11.09-2.22l.16.11q.11-.41.18-.81a5.79,5.79,0,0,1,.13-.8,9.35,9.35,0,0,0-4.91-1.36A9.55,9.55,0,0,0,96.92,51.88Z" transform="translate(-0.01 0.02)"/><path class="cls-2" d="M96.1,51.63a4.9,4.9,0,0,1,.27-.42A1.67,1.67,0,0,0,95,49.94h-.24a1.67,1.67,0,0,0-1.36,1.27c.07.11.25.4.27.42a4.34,4.34,0,0,1,.51,0h0a.72.72,0,1,1,1.42,0h0A4,4,0,0,1,96.1,51.63Z" transform="translate(-0.01 0.02)"/><path class="cls-2" d="M97.1,50.21q.38-.43.78-.87A3.79,3.79,0,0,0,95,47.74h-.27a3.87,3.87,0,0,0-2.86,1.6,10.77,10.77,0,0,1,.77.88,2.69,2.69,0,0,1,2.27-1.34A2.6,2.6,0,0,1,97.1,50.21Z" transform="translate(-0.01 0.02)"/><path class="cls-2" d="M109.24,51.79a6.43,6.43,0,0,0-4.13-1.5A6.51,6.51,0,0,0,99.84,53a9.35,9.35,0,0,1,1,.63,5.41,5.41,0,0,1,4.32-2.19,5.29,5.29,0,0,1,3.67,1.48c.09-.18.15-.36.22-.54a1.31,1.31,0,0,0,.09-.25C109.18,52,109.21,51.9,109.24,51.79Z" transform="translate(-0.01 0.02)"/><path class="cls-4" d="M128.94,58.3a12.42,12.42,0,0,0,.86-1,2.69,2.69,0,0,0-2.58-1.84,2.75,2.75,0,0,0-2.69,2.18,5.84,5.84,0,0,1,.41.68,6.84,6.84,0,0,1,.9-.08h0a1.39,1.39,0,0,1,2.77-.24,1,1,0,0,1,0,.24v.07a.92.92,0,0,1,.33,0Z" transform="translate(-0.01 0.02)"/><path class="cls-3" d="M140.68,37.35a15.27,15.27,0,0,0-15-6.54,14.89,14.89,0,0,1,4.83,4.58,15.29,15.29,0,0,1-4.13,21.22,15.57,15.57,0,0,1-6.18,2.44,15.29,15.29,0,0,0,20.48-21.7Z" transform="translate(-0.01 0.02)"/><path class="cls-2" d="M134.13,37.28a9.16,9.16,0,0,1,.05-1.17,2.74,2.74,0,0,1-2.64-.72,2.7,2.7,0,0,1-.7-2.66,6.79,6.79,0,0,0-1.19.07,4.2,4.2,0,0,0,0,1.5c.13.16.27.34.42.51a5.66,5.66,0,0,1,.4.56h0a.29.29,0,0,1,.08.14c.1.16.21.31.32.48s.26.42.37.63A3.82,3.82,0,0,0,134.13,37.28Z" transform="translate(-0.01 0.02)"/><path class="cls-2" d="M143,42.81v-.08a2.53,2.53,0,0,0-.13-.58,5.54,5.54,0,0,1-2.16-1.29,5.43,5.43,0,0,1-1.4-4.52,11.56,11.56,0,0,1-1.14-.24,6.67,6.67,0,0,0,1.68,5.56h0l.15.14h0a6.73,6.73,0,0,0,3.09,1.62A4.08,4.08,0,0,0,143,42.81Z" transform="translate(-0.01 0.02)"/><path class="cls-2" d="M135,41.46a9.41,9.41,0,0,1-2.12.13,7.06,7.06,0,0,0,.1.77,6.81,6.81,0,0,1,0,.78,9.74,9.74,0,0,0,2.74-.27A10.69,10.69,0,0,1,135,41.46Z" transform="translate(-0.01 0.02)"/><path class="cls-2" d="M134.51,40a11.56,11.56,0,0,1-.24-1.14,5.61,5.61,0,0,1-2-.09c.07.19.13.35.19.54v.1c0,.05.12.42.17.62A7.39,7.39,0,0,0,134.51,40Z" transform="translate(-0.01 0.02)"/><path class="cls-2" d="M132.57,32.41s-.35.09-.5.11a1.65,1.65,0,0,0,.22,2.08,1.68,1.68,0,0,0,2.09.22,2.37,2.37,0,0,1,.11-.46,4.87,4.87,0,0,1-.42-.35h0a.84.84,0,1,1-1.27-1.1.6.6,0,0,1,.08-.08h0A2.53,2.53,0,0,0,132.57,32.41Z" transform="translate(-0.01 0.02)"/><path class="cls-2" d="M139.13,35.41a15.35,15.35,0,0,0-1.69-1.53h0l-.35-.26h0l-.36-.25c-.48-.32-1-.63-1.49-.92h-.07c-.12-.05-.21-.12-.32-.16s-.08,0-.12,0l-.3-.15h-.11c-.39-.16-.77-.32-1.17-.47a10,10,0,0,0,1.07,1.27A9.51,9.51,0,0,0,139.13,35.41Z" transform="translate(-0.01 0.02)"/><path class="cls-2" d="M136.68,35.56a8.57,8.57,0,0,1-1.42-.79,9.64,9.64,0,0,0,2.39,9v0l.13.12h0a9.42,9.42,0,0,0,5.53,2.61V45a8.31,8.31,0,0,1-4.5-2.26A7.89,7.89,0,0,1,136.68,35.56Z" transform="translate(-0.01 0.02)"/></g></svg>