<?xml version="1.0" encoding="utf-8"?>
<!-- Generator: Adobe Illustrator 25.3.1, SVG Export Plug-In . SVG Version: 6.00 Build 0)  -->
<svg version="1.1" id="图层_1" xmlns="http://www.w3.org/2000/svg" xmlns:xlink="http://www.w3.org/1999/xlink" x="0px" y="0px"
	 viewBox="0 0 220.1 90.9" style="enable-background:new 0 0 220.1 90.9;" xml:space="preserve">
<style type="text/css">
	.st0{fill:#C2A57D;}
	.st1{fill:#9E2C36;}
	.st2{fill:#DEE4E0;fill-opacity:0.2;}
</style>
<g id="图层_3">
	<g>
		<g>
			<path class="st0" d="M3.5,40.3c-1.2,2-1.1,4.2,0,5.4c1.5,1.6,5,1.5,7.1-1.3c-0.3-3.4,2.3-6.5,5.7-6.8c0.9-0.1,1.8,0,2.7,0.4
				c0.1-3.9,3.4-6.9,7.2-6.7c1.1,0,2.1,0.3,3,0.8c-0.2,0.4-0.3,0.9-0.3,1.3c0,0.2,0,0.4,0,0.6c-0.1,0.2-0.2,0.4-0.3,0.6
				c-0.4,0.8-0.5,1.7-0.5,2.6c0.1,1.7,0.9,3.2,2.2,4.2c0.7,0.5,1.5,0.9,2.4,1c0,0.4,0.1,0.8,0.1,1.2c-2-1.1-4.3-1.4-6.5-0.9
				c-2.6,0.7-5,2-7.1,3.6c-2.2,1.6-4.6,3.2-7.3,4c-1.3,0.4-2.7,0.5-4.1,0.2c-1.1-0.3-2.2-0.8-3.1-1.5c-2.1-1.7-3-4.4-2.5-7
				c0.1-0.4,0.2-0.7,0.3-1.1c0,0,0-0.1,0-0.2C2.9,40.7,3.1,40.5,3.5,40.3z M191.1,33.5v0.4c0,0.1,0.1,0.2,0.1,0.3
				c0.1,0.2,0.2,0.4,0.3,0.7c0.6,1.6,0.4,3.4-0.5,4.9c-0.8,1.4-2.2,2.3-3.8,2.6c0,0.4-0.1,0.8-0.1,1.2c0.1-0.1,0.2-0.1,0.3-0.2
				c2.2-1.1,4.8-1.2,7.1-0.4c2.5,1,4.9,2.3,7,4c2.2,1.7,4.7,2.9,7.4,3.6c1.3,0.2,2.6,0.1,3.9-0.3c1.1-0.4,2.1-1,2.9-1.9
				c0.8-0.9,1.4-1.9,1.8-3.1c0.4-1.4,0.3-2.9-0.2-4.3c0,0,0-0.1,0-0.2c-0.3-0.2-0.6-0.3-0.9-0.5c1.2,2,1.1,4.2,0,5.4
				c-1.5,1.6-5,1.5-7.1-1.3c0.3-3.4-2.3-6.4-5.7-6.7c-0.9-0.1-1.8,0-2.7,0.4c-0.1-2.7-1.7-5-4.1-6.1c-2-0.9-4.3-0.8-6.2,0.2
				C190.9,32.6,191,33.1,191.1,33.5L191.1,33.5z M47,15.2c1.2,0.8,2.7,0.8,3.9,0.1c-0.7,0.1-1.3-0.2-1.6-0.8
				c-0.3-0.7,0.3-1.4,0.7-1.7c1-0.9,2.8-0.6,4.7,0.4c0.5,2.7,2.2,5,4.6,6.2c2.3,1.1,5,1.1,7.3-0.1c-0.2-0.5-0.3-1-0.3-1.5
				c0-0.7,0.3-1.3,0.7-1.8c0.4-0.5,1.1-0.7,1.8-0.7c0.5,0,1,0.3,1.3,0.8c0.3,0.4,0.4,1,0.2,1.5c-0.1,0.2-0.2,0.4-0.4,0.6
				c-0.2,0.2-0.4,0.3-0.6,0.4c-0.2,0-0.3-0.1-0.4-0.3c0-0.3,0.1-0.3,0.3-0.5c0.4-0.3,0.5-0.8,0.3-1.3c0,0,0-0.1-0.1-0.1
				c-0.4-0.3-1-0.4-1.4-0.2c-0.5,0.2-0.8,0.6-1,1.1c-0.2,0.6-0.1,1.2,0.1,1.8c0,0.1,0,0.1,0,0.2c3.1,3,8,3,11-0.1
				c4.8,1.3,8.5-0.9,8.9-3.2c0.3-1.7-1.2-3.8-3.5-5.1c-0.1,1-0.4,2-0.9,2.8c-0.9,1.7-2.6,3-4.5,3.3c-2,0.3-4.1-0.5-5.3-2.1
				c-0.2-0.3-0.4-0.6-0.6-1c-0.6-1.6-0.3-3.4,0.8-4.7c1.4-1.5,3.8-1.8,5.5-0.6c0.8,0.6,1.2,1.5,1.3,2.5c0.1,0.9-0.4,1.8-1.2,2.2
				c-0.8,0.5-1.9,0.4-2.5-0.3c-0.6-0.5-0.6-1.4,0-2c0.1-0.1,0.2-0.2,0.3-0.3c0.3-0.2,1-0.2,1,0.3c0,0.2-0.1,0.3-0.2,0.4
				c-0.2,0.1-0.4-0.1-0.6,0.1c-0.6,0.4,0,1.1,0.4,1.3c0.5,0.2,1,0.1,1.4-0.2c0.7-0.6,0.9-1.6,0.4-2.4c-0.4-0.7-1-1.2-1.8-1.5
				c-1.6-0.5-3.4,0.2-4.1,1.7c-0.8,1.7-0.3,3.6,1.1,4.8c0.9,0.8,2,1.1,3.2,1.1c1.1-0.1,2.2-0.5,3.1-1.2c1.5-1.3,2.4-3.2,2.4-5.2
				c0-0.1,0.1-0.2,0.1-0.2c-0.3-3.7-3.6-6.4-7.3-6.1c-0.2,0-0.4,0-0.5,0.1l0,0c-1,0.5-1.8,1.3-2.4,2.4c-0.1,0.3-0.2,0.7-0.5,0.8
				s-0.4-0.3-0.5-0.6c-0.2-0.4-0.3-0.7-0.6-1c-1-1.2-2.5-1.9-4-1.8c-1.6,0.1-3,1.2-3.6,2.7C63.1,7,63,7.8,63.1,8.6
				c0,0.1,0,0.3,0.1,0.4c0,0,0,0.1,0.1,0.1c0,0.1,0,0.1,0,0.2c0,0.1,0,0.1,0.1,0.2c0.2,0.4,0.4,0.7,0.7,1c0.5,0.6,1.4,0.8,2.2,0.5
				c0.6-0.4,0.9-1.1,0.6-1.8c-0.1-0.4-0.4-0.7-0.7-0.8c-0.2-0.1-0.4-0.1-0.6-0.1c-0.1,0-0.1,0.1-0.2,0.2c0,0.1,0,0.2,0.1,0.2
				c0.1,0.2,0.1,0.4-0.1,0.5h-0.1C65,9.3,64.8,9,64.7,8.7c-0.2-0.5,0.2-1.1,0.7-1.2c0.1,0,0.2,0,0.4,0c0.7,0,1.3,0.4,1.6,1
				c0.6,1.1,0.3,2.5-0.8,3.1c-0.1,0.1-0.3,0.1-0.4,0.2c-1.5,0.5-2.9-0.7-3.5-2c-0.1-0.2-0.1-0.4-0.3-0.5c-0.1-0.1-0.3-0.2-0.5-0.3
				c-0.3-0.1-0.7-0.2-1-0.2c-0.7,0-1.4,0.2-2,0.7c-1.2,0.9-1.9,2.4-1.7,3.9c0.1,1.5,1.2,2.7,2.7,3c1.5,0.2,3.1-1.5,2.2-3
				c-0.4-0.6-1.1-1-1.8-0.8c-0.4,0.1-0.6,0.3-0.8,0.7C59.4,13.6,59.6,14,60,14s0.3-0.4,0.6-0.5c0.2-0.1,0.4,0,0.4,0.2
				c0,0.1,0,0.1,0,0.2c-0.1,0.6-0.7,1-1.3,0.8c-0.1,0-0.1,0-0.2-0.1c-0.6-0.3-0.9-1-0.7-1.7c0.3-0.6,0.8-1.1,1.5-1.2
				c1.4-0.1,2.7,0.9,2.8,2.3c0,0.1,0,0.2,0,0.3c-0.1,1.5-1.5,2.7-3,2.7s-2.9-1-3.4-2.5c-0.4-1.3-0.3-2.7,0.3-3.9l0,0
				c-0.4-0.8-1.2-1.1-2-0.9c-0.3,0.1-0.7,0.3-0.9,0.6c-0.2,0.2-0.3,0.5-0.6,0.3c-0.6-0.3,0.4-1.1,0.6-1.3c1.1-0.7,2.6-0.4,3.3,0.7
				c0.5-0.8,1.3-1.4,2.1-1.7C60.4,8,61.4,8,62.3,8.4c-0.1-1.1,0.2-2.2,0.7-3.2c0.9-1.7,2.8-2.7,4.8-2.6c1.8,0.2,3.4,1.2,4.3,2.8
				c0.6-1.1,1.5-2,2.6-2.5l0,0C74,1.5,72.6,0.4,71,0.1c-2.2-0.4-4.4,0.7-5.5,2.7c-1.3-1.4-3.6-1.4-4.9,0c-0.9,0.9-1.2,2.2-0.9,3.4
				c-1.6-1.3-3.8-1.4-5.5-0.3c-1.1,0.9-1.8,2.2-1.8,3.6c-1.6-1.1-3.7-0.9-5.2,0.4C45.9,11.3,45.5,14,47,15.2z M43.1,52.4
				c1.4,3.3,4.6,5.5,8.2,5.6c3.6,0,6.8-2,8.2-5.3c0,0-0.1,0-0.1-0.1c-0.5-1.1-1.4-1.9-2.5-2.3c-1.9-0.6-3.9,0.5-4.5,2.4
				c-0.1,0.2-0.1,0.4-0.1,0.6c-0.1,1,0.5,1.9,1.4,2.2c0.5,0.2,1.1,0.1,1.4-0.3c0.4-0.4,0.4-1,0.1-1.5l0,0l0,0
				c-0.1-0.2-0.1-0.4,0.1-0.5c0.1-0.1,0.2-0.1,0.3-0.1c0.3,0.1,0.5,0.6,0.6,0.9c0.2,0.8-0.2,1.7-0.9,2.1c-1.2,0.6-2.6,0.1-3.3-1.1
				c0,0,0,0,0-0.1c-0.6-1.2-0.4-2.7,0.4-3.8c1-1.2,2.5-1.8,4-1.7c1.7,0.3,3.1,1.4,3.7,2.9c0,0,0,0.1,0,0.2c3.7,1,7.6-0.5,9.7-3.7
				c2.4-4.1,1.3-9.3-2.5-12c0.5-1.6,0.4-3.3-0.3-4.8c-1.1-2.4-3.5-3.9-6.1-4.1c-0.8-1.9-2.5-3.3-4.6-3.8c-2.1-0.4-4.3,0.3-5.8,1.8
				c-2.9-0.5-5.7,1.4-6.4,4.3c-0.7-0.7-1.5-1.2-2.4-1.7l-0.1,0.1c-0.5,0.2-1.1,0.5-1.6,0.8c-2.1,1.3-3.6,3.3-4.2,5.7
				c-0.6,2.2-0.5,5.2,1.8,6.4c1.1,0.6,2.4,0.7,3.5,0.3c1-0.4,1.9-1.2,2.2-2.3c0.3-1,0-2.2-0.9-2.8c-0.9-0.7-2.1-0.5-2.8,0.3
				c-0.5,0.8-0.3,1.8,0.5,2.3c0.1,0.1,0.2,0.1,0.3,0.2c0.2,0,0.3,0.2,0.3,0.4s-0.1,0.3-0.3,0.4c-0.2,0-0.4,0-0.6-0.1
				c-0.2-0.1-0.4-0.2-0.6-0.4c-0.7-0.7-0.9-1.7-0.6-2.6c0.4-0.9,1.2-1.5,2.1-1.5c1-0.1,1.9,0.3,2.5,1.1c0.2,0.3,0.3,0.5,0.5,0.8
				c0.6-2.6,2.8-4.5,5.5-4.7c2.5-0.4,4.9,0.9,5.9,3.2c0.4-0.5,0.9-0.8,1.5-1c0-0.3,0-0.6,0.1-0.8c0.1-0.3,0.2-0.7,0.3-1
				c0.3-0.7,0.7-1.2,1.3-1.7c1-0.8,2.3-1.1,3.5-1c0.3,0,0.7,0.1,1,0.2c0.2,0.1,0.6,0.2,0.8,0.4c0.1,0.2,0,0.4-0.1,0.5
				c-0.2,0.2-0.5,0-0.7-0.2c-1.2-0.5-2.6-0.3-3.7,0.4c-0.9,0.7-1.5,1.7-1.6,2.9c0.7-0.1,1.5-0.1,2.2,0.2c2.1,1,3,3.4,2,5.5
				c-0.1,0.2-0.2,0.3-0.3,0.5c0.7,0.1,1.3,0.6,1.7,1.2c0.7,1.3,0.3,3-1,3.7c-1.4,0.8-3.1,0.8-4.4,0c0,0.4-0.2,0.8-0.4,1.1
				c-0.6,0.8-1.8,1-2.7,0.4c-0.4-0.3-0.7-0.7-0.9-1.2c-0.1-0.2,0-0.4,0.2-0.5s0.4,0,0.5,0.1s0.1,0.3,0.2,0.4c0,0.1,0.1,0.2,0.2,0.3
				c0.2,0.2,0.4,0.3,0.6,0.4c0.5,0.2,1.1,0,1.4-0.4c0.2-0.2,0.2-0.5,0.3-0.8c0-0.1,0-0.3,0-0.4c0-0.1-0.1-0.2-0.1-0.3
				c0-0.2,0.2-0.3,0.4-0.3l0,0c0.1,0,0.2,0.2,0.3,0.2c0.1,0.1,0.3,0.2,0.4,0.2c1.1,0.7,2.5,0.7,3.6,0.1c1-0.5,1.3-1.7,0.8-2.7l0,0
				c-0.3-0.6-1-0.9-1.6-0.8c-0.2,0-0.4,0.1-0.6-0.2s0-0.4,0.1-0.6c0.8-0.8,1.1-2,0.9-3.1c-0.2-1.1-1-2-2-2.4
				c-1.1-0.3-2.2-0.2-3.2,0.5c-0.3,0.2-0.5,0.4-0.7,0.7c-0.1,0.2-0.2,0.4-0.5,0.4s0.1,0,0.1-0.2c0-0.3-0.1-0.5-0.2-0.8
				c-0.5-1.1-1.5-2-2.7-2.3c-2.3-0.6-4.7,0.2-6.2,2c-0.7,0.9-1.1,2-0.9,3.2c0.1,1.3,0.9,2.4,2,3s2.4,0.4,3.4-0.3
				c1-0.8,1.3-2.2,0.7-3.3c-0.5-1-1.7-1.5-2.7-1c-0.6,0.4-0.8,1.3-0.4,1.9c0.1,0.1,0.2,0.3,0.3,0.4c0.2,0.1,0.2,0.4,0.1,0.5
				c0,0,0,0-0.1,0.1c-0.3,0.2-0.5,0-0.7-0.2s-0.4-0.4-0.5-0.7c-0.2-0.6-0.2-1.2,0.1-1.8c0.7-1.1,2.1-1.5,3.2-0.8
				c2.2,1.1,2,4.3,0.2,5.6c-1.3,0.9-3,0.9-4.3,0.1c-1-0.6-1.7-1.5-2-2.6c-0.7,1.9-2.5,3.2-4.5,3.1c-2,0-3.9-1.3-4.5-3.3
				c-0.7-2.4-0.3-4.9,0.9-7.1c0.6-1.1,1.4-2.1,2.4-2.9c0.5-0.4,1-0.7,1.5-1l0.8-0.4l0,0c-1.1-0.4-2.4-0.6-3.6-0.5
				c-4.8,0.4-7,4.9-7.1,5.1c-0.1-0.1-0.2-0.2-0.3-0.2c-0.1,0.3-0.2,0.7-0.2,1s0,0.5,0,0.8c-0.1,0.2-0.2,0.5-0.4,0.7
				c-0.1,0.3-0.2,0.6-0.3,0.9c-0.4,1.9,0.3,3.9,2,5c0.4,0.3,0.9,0.5,1.4,0.6c0.3,0.1,0.5,0.1,0.8,0.2c0.2,0,0.3,0.1,0.4,0.3
				c0,0.1,0,0.2,0,0.4s0,0.3,0,0.4c0,0.3,0.1,0.5,0.1,0.8s0.1,0.5,0.2,0.8c0.1,0.2,0.2,0.2,0.1,0.4c0.3,0.7,0.7,1.4,1.2,2
				c1.9,2.4,5,3.5,8,2.9c1.3-0.2,2.4-0.9,3.1-1.9c0.9-1.2,0.8-2.9-0.3-3.9c-0.6-0.5-1.3-0.6-2-0.4c-0.7,0.2-1.1,0.7-1.2,1.4
				c0,0.5,0.4,0.9,0.9,0.9h0.1c0.2,0,0.5-0.2,0.6-0.4s0.3-0.2,0.5-0.1c0,0,0.1,0,0.1,0.1c0.5,0.4-0.3,1-0.7,1.1
				c-0.5,0.2-1.1,0.1-1.5-0.2c-1.1-0.8-0.7-2.3,0.2-3.1c1.1-0.8,2.6-0.7,3.6,0.3c1.1,1,1.4,2.5,0.9,3.8c-1,3-4.6,3.8-7.4,3.3
				c-3-0.5-5.5-2.5-6.7-5.3c-0.1-0.2-0.1-0.3-0.3-0.4c-0.1-0.1-0.3-0.2-0.4-0.3c-0.3-0.2-0.6-0.4-0.9-0.5c-0.7-0.3-1.3-0.5-2.1-0.6
				c-1.4-0.2-2.8,0-4.2,0.4c-3,1-5.5,3.1-8.1,4.8s-5.8,3.2-9,2.8c-1-0.1-1.9-0.4-2.8-0.9c-1.6-0.8-2.8-2.2-3.5-3.8
				c-0.4-1-0.6-2-0.7-3c0-0.5,0-1,0.1-1.5c0-0.1,0.1-0.3,0.1-0.4c-1.5,1.5-2,3.7-1.3,5.8c0.9,2.2,3.1,3.6,5.5,3.5
				c2.4,4.4,7.8,6,12.2,3.6c0.5-0.3,1.1-0.6,1.5-1c3.8-2.9,8.5-4.4,13.3-4.3C36.5,49.3,40,50.4,43.1,52.4L43.1,52.4z M141.9,19.2
				c3,3.1,7.9,3.1,11,0.1l0,0c0-0.1,0-0.1,0-0.2c0.3-0.6,0.3-1.2,0.1-1.8c-0.2-0.4-0.5-0.8-0.9-1s-0.9-0.1-1.2,0.2
				c-0.3,0.3-0.4,0.8-0.2,1.2c0,0.1,0.1,0.2,0.2,0.3c0.1,0.1,0.2,0.1,0.3,0.2s0.2,0.3,0.1,0.5c-0.2,0.5-0.7,0.1-1-0.2
				c-0.7-0.7-0.7-1.7,0-2.4c0.8-0.7,1.9-0.7,2.7,0c0.5,0.4,0.8,0.9,0.8,1.5c0.1,0.7,0,1.3-0.3,1.9c2.3,1.1,5,1.2,7.3,0.1
				c2.4-1.3,4.1-3.6,4.6-6.3c1.9-1,3.7-1.3,4.7-0.4c0.3,0.3,1,1,0.7,1.7c-0.3,0.6-1,0.9-1.6,0.8c1.2,0.7,2.7,0.7,3.9-0.1
				c1.5-1.2,1.1-3.9-0.3-5.3c-1.4-1.3-3.5-1.4-5.2-0.4c0-1.4-0.7-2.7-1.8-3.6c-1.7-1.1-3.9-1-5.5,0.3c0.4-1.3-0.1-2.7-1.2-3.6
				c-1.4-1.1-3.4-1-4.7,0.3c-1.1-2-3.2-3.1-5.5-2.7c-1.6,0.3-3,1.4-3.7,2.9l0,0c1.1,0.6,2,1.4,2.6,2.5c0.5-0.9,1.2-1.6,2-2.1
				c1.7-1,3.7-1,5.4,0c1.7,1.1,2.6,3,2.5,5c0.9-0.4,1.9-0.4,2.8-0.1c0.9,0.4,1.6,1,2.1,1.7c0.4-0.5,1-0.9,1.7-1s1.4,0.2,1.9,0.6
				c0.2,0.2,0.5,0.5,0.5,0.8c0,0.2-0.2,0.4-0.4,0.3h-0.1c-0.1-0.1-0.2-0.3-0.3-0.4c-0.1-0.1-0.2-0.2-0.4-0.3
				c-0.3-0.2-0.7-0.3-1.1-0.3c-0.4,0-0.7,0.2-1,0.5c-0.2,0.1-0.3,0.3-0.3,0.5L163,11c0.3,0.6,0.4,1.2,0.5,1.8
				c0.2,1.4-0.4,2.9-1.5,3.8c-0.6,0.5-1.3,0.8-2.1,0.8c-0.7,0-1.4-0.3-2-0.8s-0.9-1.2-1-1.9c-0.1-0.8,0.2-1.5,0.8-2
				c0.5-0.5,1.3-0.8,2-0.7c0.6,0,1.2,0.4,1.5,1s0,1.4-0.6,1.7s-1.2,0-1.5-0.6c0-0.1,0-0.1-0.1-0.2c0-0.2,0.1-0.4,0.3-0.4h0.1
				c0.3,0,0.3,0.4,0.6,0.5s0.6-0.3,0.5-0.7c-0.1-0.3-0.4-0.6-0.7-0.7c-0.7-0.2-1.4,0.1-1.8,0.8c-0.5,0.7-0.4,1.6,0.1,2.2
				s1.2,0.9,2,0.9c0.7-0.1,1.4-0.4,1.9-0.9c2.1-2.2,0.3-6.6-2.8-6.6c-0.3,0-0.7,0.1-1,0.2c-0.2,0.1-0.3,0.2-0.5,0.3
				c-0.1,0.1-0.2,0.3-0.3,0.5c-0.3,0.7-0.8,1.3-1.5,1.8c-0.6,0.4-1.4,0.5-2.1,0.3c-0.6-0.2-1.1-0.7-1.4-1.3
				c-0.4-1.1,0.1-2.4,1.2-2.9c0.2-0.1,0.4-0.1,0.6-0.1c0.5-0.1,1.1,0.3,1.1,0.8c0,0.1,0,0.2,0,0.4c0,0.3-0.3,0.6-0.6,0.6
				c-0.2,0-0.4-0.2-0.3-0.5c0,0,0,0,0-0.1s0.1-0.2,0.1-0.2s-0.1-0.2-0.2-0.2c-0.2-0.1-0.3-0.1-0.5,0c-0.4,0.2-0.6,0.5-0.8,0.8
				c-0.2,0.7,0,1.4,0.6,1.8c0.7,0.4,1.6,0.2,2.2-0.4c0.3-0.3,0.5-0.6,0.7-1c0-0.1,0.1-0.2,0.1-0.3s0-0.1,0-0.2c0,0,0.1-0.1,0.1-0.2
				c0-0.1,0-0.2,0.1-0.3c0.2-1.6-0.4-3.2-1.7-4.2s-3-1.2-4.5-0.5c-0.7,0.3-1.3,0.7-1.7,1.3c-0.2,0.3-0.4,0.6-0.6,0.9
				c-0.1,0.3-0.1,0.7-0.5,0.6s-0.4-0.4-0.5-0.7c-0.2-0.4-0.4-0.7-0.6-1c-0.5-0.6-1.1-1.1-1.8-1.4l0,0c-3.6-0.6-7.1,1.8-7.8,5.4
				c0,0.2-0.1,0.4-0.1,0.6c0.1,0,0.2,0.1,0.1,0.2c0,0.4,0,0.8,0.1,1.2c0.3,1.7,1.2,3.2,2.5,4.2c1.6,1.2,3.7,1.3,5.5,0.3
				c1.4-0.8,2.2-2.4,2-4c-0.1-1.5-1.2-2.7-2.6-3c-1.3-0.3-2.7,0.2-3.5,1.3c-0.4,0.6-0.5,1.4-0.1,2.1c0.4,0.7,1.2,1,2,0.6l0,0
				c0.3-0.2,0.6-0.9,0.2-1.2c-0.2-0.1-0.4,0-0.6-0.1c-0.1,0-0.2-0.2-0.2-0.3c-0.1-0.4,0.4-0.5,0.7-0.5c0.4,0,0.7,0.3,0.9,0.6
				c0.4,0.7,0.1,1.6-0.5,2c-0.7,0.5-1.5,0.5-2.2,0.1c-1.3-0.8-1.6-2.5-0.8-3.8c0.1-0.1,0.1-0.2,0.2-0.3c1.2-1.4,3.2-1.8,4.9-1
				c1.3,0.7,2.1,2,2.3,3.4c0.1,1.3-0.3,2.6-1.1,3.6c-1.1,1.3-2.8,1.9-4.5,1.8s-3.2-0.9-4.3-2.2c-0.9-1.1-1.5-2.5-1.7-4
				c-2.4,1.3-3.8,3.4-3.5,5.1C133.4,18.2,137.1,20.5,141.9,19.2L141.9,19.2z M218.4,41.7c0,0.1,0,0.2,0,0.3c0.1,0.5,0.1,1,0.1,1.5
				c0,1-0.2,2.1-0.6,3v0.1c-0.3,0.7-0.7,1.3-1.1,1.8c-0.9,1.1-2.1,2-3.5,2.5c-1.6,0.5-3.2,0.6-4.9,0.3c-3.5-0.8-6.3-3-9.2-5
				c-2.7-1.8-5.9-3.5-9.3-2.9c-0.8,0.1-1.5,0.4-2.2,0.8c-0.3,0.2-0.7,0.4-0.9,0.7c-0.2,0.1-0.2,0.3-0.3,0.5s-0.2,0.4-0.3,0.5
				c-0.7,1.4-1.9,2.6-3.2,3.5c-1.4,0.9-3.1,1.4-4.8,1.4c-1.6,0.1-3.2-0.5-4.5-1.5c-1.3-1.1-1.8-2.8-1.3-4.4c0.5-1.4,1.9-2.3,3.4-2.1
				c0.7,0.1,1.3,0.5,1.7,1.1c0.4,0.5,0.4,1.2,0.2,1.8c-0.3,0.6-0.9,0.9-1.5,0.9c-0.3,0-0.6-0.1-0.9-0.2c-0.2-0.2-0.4-0.4-0.5-0.7
				c0-0.2,0.1-0.4,0.4-0.4h0.1c0.1,0,0.2,0.2,0.3,0.3s0.2,0.2,0.3,0.2c0.5,0.1,1.1-0.2,1.2-0.8l0,0c0-0.7-0.5-1.4-1.3-1.5
				c-0.8-0.2-1.6,0.1-2.2,0.7c-1.2,1.2-0.7,3.2,0.3,4.3c1,0.9,2.4,1.5,3.8,1.5c3.5,0.2,6.8-1.8,8.1-5c0-0.1,0-0.2,0-0.2
				c0-0.1,0.1-0.2,0.2-0.3c0.1-0.3,0.2-0.6,0.2-0.9c0.1-0.3,0.1-0.6,0.1-1s0-0.5,0.2-0.7c0.2-0.1,0.4-0.1,0.7-0.2
				c0.2,0,0.5-0.1,0.7-0.2c0.5-0.2,0.9-0.5,1.4-0.8c0.7-0.6,1.3-1.4,1.5-2.3c0.3-0.9,0.3-1.9,0-2.8c-0.1-0.3-0.2-0.5-0.3-0.8
				c-0.1-0.2-0.2-0.3-0.3-0.5c0-0.3,0-0.6,0-0.8c0-0.3-0.1-0.6-0.2-0.9l-0.3,0.2c-0.1-0.2-2.3-4.7-7.1-5.1c-1.2-0.1-2.5,0.1-3.6,0.5
				c0.5,0.2,1,0.5,1.4,0.8c2.1,1.4,3.7,3.6,4.3,6.1c0.6,2.3,0.4,5.3-1.7,6.8c-1.7,1.2-4,1.3-5.8,0.1c-0.8-0.5-1.3-1.3-1.6-2.2
				c-0.1,0.5-0.3,0.9-0.6,1.3c-1,1.4-2.6,2.1-4.3,1.8c-1.3-0.3-2.3-1.3-2.5-2.6c-0.3-1.2,0-2.4,0.9-3.3c1-0.9,2.6-0.9,3.5,0
				c0.4,0.5,0.6,1.2,0.5,1.8c0,0.3-0.2,0.6-0.4,0.9c-0.1,0.2-0.5,0.5-0.8,0.4c-0.2-0.1-0.3-0.3-0.3-0.5c0,0,0-0.1,0.1-0.1
				c0.1-0.1,0.3-0.2,0.4-0.3c0.1-0.1,0.1-0.2,0.2-0.4c0.2-0.6,0-1.3-0.6-1.6c-0.4-0.3-1-0.3-1.4-0.2c-1,0.4-1.7,1.4-1.6,2.5
				c0.1,1.1,0.9,2.1,2,2.4c1.2,0.3,2.4-0.1,3.2-0.9c0.8-0.9,1.2-2.1,1-3.2c-0.3-2.1-1.9-3.8-4-4.3c-2.2-0.6-5,0.2-5.9,2.6
				c-0.1,0.1-0.1,0.3-0.1,0.4c0,0.1,0,0.2-0.1,0.3c-0.1,0.2-0.3,0.2-0.5,0.2c-0.2-0.1-0.3-0.4-0.5-0.5c-0.2-0.2-0.4-0.4-0.6-0.6
				c-0.9-0.6-2-0.7-3-0.4s-1.8,1.1-2.1,2.1s-0.1,2.1,0.5,3c0.1,0.1,0.2,0.2,0.3,0.3s0.2,0.2,0.2,0.3c0,0.2,0,0.4-0.2,0.4
				c-0.1,0-0.2,0-0.3,0s-0.3,0-0.5,0c-0.3,0-0.5,0.1-0.8,0.3c-0.8,0.6-1,1.8-0.4,2.6c0.1,0.1,0.1,0.1,0.2,0.2c0.8,0.9,2,1.2,3.1,0.8
				c0.3-0.1,0.6-0.2,0.9-0.3c0.3-0.1,0.5-0.3,0.7-0.4c0.2-0.1,0.4-0.1,0.5,0.1c0,0,0,0,0,0.1c0.1,0.2,0,0.4,0,0.6
				c0,0.5,0.2,1,0.6,1.2c0.4,0.3,1,0.3,1.4-0.1c0.2-0.2,0.4-0.4,0.5-0.6c0.1-0.2,0.1-0.4,0.3-0.4s0.4,0,0.5,0.2s0,0.4-0.1,0.6
				c-0.3,1.1-1.4,1.7-2.4,1.4c-0.9-0.2-1.6-1.1-1.5-2.1c-0.8,0.4-1.7,0.7-2.6,0.6c-1.5-0.1-2.7-1.1-3.1-2.5c-0.3-1.4,0.6-2.7,1.9-3
				h0.1c-1.1-1.6-0.9-3.8,0.5-5.2c0.9-0.9,2.2-1.2,3.5-1c-0.1-1.3-0.9-2.5-2.1-3.2c-0.6-0.3-1.2-0.5-1.9-0.4c-0.3,0-0.7,0-1,0.1
				c-0.2,0-0.3,0.1-0.5,0.2c-0.1,0-0.3,0.2-0.4,0.2c-0.2,0-0.4-0.1-0.5-0.3c-0.1-0.3,0.1-0.4,0.4-0.5c0.6-0.3,1.3-0.4,1.9-0.4
				c1.3,0,2.5,0.5,3.4,1.4c0.4,0.4,0.8,1,1,1.5c0.1,0.3,0.2,0.6,0.3,0.9c0,0.2,0.1,0.5,0.1,0.7c0.6,0.2,1.1,0.6,1.5,1
				c0.1-0.3,0.2-0.5,0.3-0.8c1.4-2.4,4.6-3,7-2.1c1.6,0.5,2.9,1.7,3.7,3.3c0.2,0.4,0.3,0.7,0.3,1.1c0.2-0.6,0.6-1.1,1-1.4
				c0.9-0.6,2-0.7,3-0.2c0.9,0.5,1.4,1.6,1.2,2.6c-0.1,0.5-0.4,0.9-0.8,1.3c-0.3,0.2-0.9,0.7-1.2,0.3c-0.1-0.2-0.1-0.4,0-0.5
				s0.2-0.1,0.3-0.2c0.2,0,0.3-0.1,0.4-0.2c0.4-0.4,0.6-0.9,0.6-1.4c-0.2-1-1.1-1.7-2.1-1.5c-0.1,0-0.3,0.1-0.4,0.1
				c-1.1,0.5-1.7,1.6-1.5,2.8s1.1,2.2,2.2,2.6c1.3,0.5,2.7,0.3,3.8-0.4c2.4-1.5,2.1-5,1.3-7.3c-1-2.5-2.9-4.5-5.4-5.5l-0.1-0.1
				c-0.9,0.4-1.7,1-2.3,1.7c-0.4-1.5-1.3-2.7-2.5-3.5c-1.1-0.7-2.5-1-3.8-0.8c-1.5-1.5-3.7-2.2-5.8-1.8c-2,0.5-3.7,1.9-4.6,3.8
				c-2.6,0.2-5,1.7-6.1,4.1c-0.7,1.5-0.7,3.2-0.3,4.8c-3.8,2.7-4.9,7.9-2.5,12c2.1,3.2,6,4.7,9.7,3.7v-0.1c0.7-1.6,2.2-2.7,4-2.9
				c2.7-0.2,5.5,2.4,4.4,5.2c-0.4,1.2-1.6,1.9-2.8,1.7c-1-0.2-1.7-1.2-1.5-2.3c0.1-0.3,0.2-0.5,0.3-0.7c0,0,0,0,0-0.1s0.1,0,0.1-0.1
				c0.2-0.1,0.4,0,0.5,0.2c0.2,0.3-0.1,0.4-0.2,0.7c-0.2,0.6,0.1,1.3,0.7,1.5l0,0c0.5,0.2,1.1,0,1.6-0.3c0.4-0.3,0.6-0.8,0.7-1.3
				c0.2-1.1-0.3-2.2-1.2-2.9c-1-0.8-2.3-1-3.5-0.7c-1.1,0.4-2,1.2-2.4,2.3c0,0,0,0.1-0.1,0.1l0,0c2,4.5,7.2,6.5,11.7,4.5
				c2.1-0.9,3.8-2.7,4.7-4.8c3.1-1.9,6.7-3,10.4-3.1c4.8-0.1,9.4,1.5,13.2,4.3c2,1.6,4.6,2.4,7.1,2c2.8-0.5,5.2-2.1,6.6-4.6
				c2.4,0.1,4.6-1.3,5.5-3.5C220.5,45.6,219.9,43.2,218.4,41.7L218.4,41.7z M106.2,83.9c0.3,1.9-1.1,3.9-3.1,5.2
				c0.2-0.4,1.1-2.7,0-4.4c-1.3-2.1-5.2-2.7-8.8-0.4C93.1,87,90.8,89,88,89.9c-1.8,0.5-3.8,0.5-5.6-0.1c0.1-0.2,0.2-0.4,0.2-0.7
				c0.1-0.4,0.1-0.9,0-1.3c-0.1-0.9-0.7-1.7-1.5-2.2s-1.7-0.5-2.5,0c-0.7,0.4-1.2,1.2-1.2,2c0,0.9,0.8,1.7,1.8,1.7h0.1
				c0.2,0,0.3-0.2,0.3-0.4c0,0,0,0,0-0.1c-0.1-0.3-0.3-0.3-0.6-0.3c-0.3-0.1-0.6-0.4-0.7-0.7c-0.1-0.4,0-0.8,0.3-1.2
				c0.4-0.5,1.1-0.8,1.8-0.6c0.7,0.2,1.2,0.7,1.5,1.3c0.3,0.9,0.2,1.9-0.3,2.7c0,0.1,0,0.1,0,0.2c-2.2,1.2-4.9,0.8-6.7-0.9
				c-1.7-2-1-4.7-0.9-5c-1.6,3-4.8,4.7-8.2,4.5c-2.1-0.3-4-1.3-5.4-3l0,0c0.5-0.9,0.8-1.9,0.9-3c0-0.1,0-0.2,0-0.3s0-0.2,0-0.2
				c0-0.3,0-0.7-0.1-0.9c-0.1-0.5-0.2-1.1-0.4-1.6c-0.5-1.7-1.7-3-3.2-3.9c-0.9-0.5-1.9-0.7-2.8-0.7c-1.9,0.1-3.5,1.2-4.2,2.9
				c-0.7,1.7-0.1,3.6,1.3,4.7c1.3,1,3.2,0.8,4.3-0.5c0.4-0.7,0.5-1.5,0.1-2.2c-0.3-0.8-1.1-1.2-1.9-1.1c-0.4,0.1-0.7,0.3-0.9,0.7
				c-0.1,0.3-0.2,0.8,0.1,0.9c0.1,0.1,0.2,0.1,0.3,0s0.1-0.2,0.2-0.4c0-0.3,0.4-0.4,0.7-0.4c0.9,0,1.1,1.3,0.8,2
				c-0.4,0.7-1.2,1.1-1.9,1c-0.9-0.1-1.7-0.6-2.1-1.4c-0.5-0.8-0.6-1.9-0.3-2.8s1-1.6,1.8-2c0.9-0.5,2-0.6,3-0.4
				c3.6,0.8,5.5,5.3,4.1,8.6c-0.2,0.4-0.4,0.8-0.7,1.2c0,0.1,0,0.1,0,0.2c-3.1,1.6-6.6,1.8-9.9,0.8c-2.5-0.9-4.6-2.5-6.1-4.6
				c-2.7,1.7-5.9,2.5-9,2c-4.3-0.8-9.5-4.2-9.2-8.3c0.2-2.4,2.4-4.1,3.5-4.8c-1.6,1.6-1.8,4.2-0.5,6.1c1.3,1.7,3.7,2.4,5.6,1.5
				c1.3-1.5,3-2.6,5-3c1.6-0.3,3.2-0.2,4.8,0.4c-1.3-1.3-1.6-3.3-0.6-4.8c1.1-1.7,3.4-2.3,5.2-1.3c-0.7-2.3,0.2-4.7,2.2-6
				c2.2-1.4,5-1,6.7,0.9c0.7-1.7,2.1-3,3.7-3.8c2-0.9,4.2-0.9,6.2-0.1c-0.1,0-0.1,0.1-0.2,0.2c-0.1,0.1-0.2,0.2-0.3,0.3
				c-0.4,0.3-0.8,0.7-1.1,1.2c-0.7,0.8-1.2,1.8-1.5,2.8c-0.8,2.3-0.3,4.7,1.1,6.6c0.8,1,1.8,1.7,3,2.1c2.2,0.6,4.5-0.2,5.9-2
				c1.2-1.7,1.2-4-0.1-5.6c-1.2-1.5-3.4-1.7-4.9-0.5c-0.1,0.1-0.3,0.3-0.4,0.4c-0.7,0.8-0.9,1.8-0.5,2.8c0.3,0.9,1.3,1.3,2.1,1
				c0.6-0.3,1-1,0.7-1.7c-0.1-0.2-0.2-0.3-0.3-0.5c-0.1-0.1-0.3-0.2-0.5-0.1s-0.3,0.3-0.3,0.4c0,0.2,0.3,0.3,0.3,0.4
				c0.1,0.2,0,0.5-0.2,0.6c-0.4,0.1-0.8,0-1-0.3c-0.3-0.4-0.4-1-0.3-1.5c0.3-1,1.1-1.7,2.1-1.8c1-0.1,2,0.3,2.6,1.1
				C74,67.9,74.2,69,74,70c-0.6,2.3-2.8,3.8-5.1,3.5c-2.3-0.4-4.1-2.2-4.6-4.5c-0.4-2.4,0.4-4.8,2.2-6.5c0.4-0.4,0.8-0.7,1.3-1
				c0.1,0,0.1-0.1,0.1-0.2l0,0c3.8-0.7,7.7,1.3,9.2,4.9c1.6,4.1-1.2,7.9-1.3,8.1c1.3-1.4,3-2.3,4.9-2.3c2.8,0,5.3,1.7,6.5,4.3l0,0
				c0.2,2.2-0.9,4.3-2.8,5.5c-1.7,1.1-4,1.1-5.7-0.1c-0.8-0.6-1.3-1.4-1.4-2.4c-0.2-1,0.1-2,0.8-2.7c0.7-0.8,1.8-1.1,2.9-0.8
				c1,0.3,1.7,1.2,1.7,2.3c0,0.5-0.2,1-0.6,1.2c-0.4,0.3-1.1,0.2-1.2-0.4c0-0.1,0-0.3,0.1-0.4c0-0.1,0.1-0.2,0.2-0.2
				c0.1-0.1,0.1-0.3-0.1-0.4l0,0c-0.4-0.4-0.8,0.2-0.9,0.5c-0.1,0.5,0,1,0.3,1.3c0.3,0.4,0.8,0.6,1.3,0.5c1-0.1,1.8-0.9,1.7-1.9
				c0.1-1.8-1.4-3.4-3.2-3.4c-0.2,0-0.4,0-0.5,0c-2,0.4-3.4,2.2-3.2,4.2c0.2,1.9,1.5,3.4,3.3,4c1.9,0.6,4,0.2,5.6-1.1
				c0.4-0.3,0.8-0.6,1.1-1c1.1-1.4,1.7-3.2,1.5-5c0,0,0,0,0-0.1c1.1-0.5,2.3-0.6,3.4-0.3c2,0.8,3.2,2.8,3,5c1.6-0.8,3.4-1.1,5.2-0.9
				C101.5,79.7,105.8,80.8,106.2,83.9L106.2,83.9z M61.1,70.9c-0.6-0.9-1.6-1.4-2.6-1.3c-0.2-0.3-0.5-0.5-0.8-0.8
				c-0.3-0.2-0.6-0.4-0.9-0.6c-0.7-0.3-1.5-0.4-2.2-0.3c-1.3,0.3-2.4,1.2-2.9,2.5c-1-0.8-2.4-0.6-3.2,0.4l-0.1,0.1
				c-0.2,0.3-0.7,1.3,0,1.4c0.3,0,0.4-0.2,0.4-0.4c0.1-0.3,0.3-0.6,0.6-0.8c0.7-0.5,1.6-0.4,2.1,0.3c0,0,0,0,0,0.1l0,0
				c0.2,0.1,0.4,0.1,0.6,0l0.1-0.1c0.1-0.2,0.1-0.3,0.1-0.5s0.1-0.3,0.2-0.4c0.3-0.6,0.8-1.1,1.4-1.4c1.3-0.6,2.7-0.3,3.7,0.8
				c-0.8,0.3-1.4,0.9-1.7,1.7c-0.1,0.1-0.1,0.3,0,0.5C56,72,56.2,72,56.4,72c0.2-0.1,0.2-0.3,0.3-0.4c0.1-0.2,0.3-0.4,0.4-0.6
				c0.7-0.7,1.8-0.9,2.6-0.3c0.2,0.1,0.4,0.3,0.5,0.4c0.1,0.2,0.2,0.4,0.5,0.4c0.1,0,0.3,0,0.4-0.1C61.2,71.2,61.2,71,61.1,70.9z
				 M192.8,72c0.6,4-4.4,7.8-8.7,8.8c-3.1,0.7-6.4,0.1-9.1-1.4c-1.4,2.2-3.4,4-5.8,5c-3.2,1.2-6.7,1.1-9.9-0.2c0-0.1,0-0.1,0-0.2
				c-2.1-2.8-1.7-6.7,0.9-9c1.4-1.2,3.3-1.5,5-0.7s2.4,2.8,1.7,4.5c-0.3,0.8-1,1.3-1.8,1.6c-0.7,0.2-1.5,0.1-2.1-0.4
				c-0.5-0.5-0.6-1.4-0.1-2c0.2-0.3,0.5-0.4,0.9-0.3c0.1,0,0.3,0.1,0.4,0.2c0.1,0.1,0,0.3,0.1,0.4c0.1,0.2,0.3,0.2,0.5,0.1l0.1-0.1
				c0.2-0.2,0-0.6-0.1-0.9c-0.5-0.6-1.3-0.7-2-0.3c-0.6,0.4-1,1.2-0.9,1.9c0,0.7,0.4,1.4,1,1.8c1.4,0.8,3.1,0.5,4.1-0.7
				c1.4-1.6,1.3-4.1-0.3-5.6c-1.7-1.7-4.4-1.9-6.4-0.6c-1.9,1.3-3.1,3.5-3.2,5.9v0.6c0,0.1,0,0.3,0,0.4c0.1,0.3,0.1,0.7,0.2,1
				c0.2,0.7,0.5,1.4,0.9,2l0,0c-1.2,1.7-3.1,2.9-5.2,3.3c-3.3,0.5-6.6-1.1-8.5-3.9c0.6,1.7,0.4,3.5-0.6,5c-1.6,1.9-4.4,2.4-6.6,1.3
				c0,0,0-0.1,0-0.2c-0.6-0.9-0.7-2-0.3-3c0.4-0.9,1.4-1.3,2.3-1.1c0.4,0.1,0.8,0.4,1,0.9s0.1,1-0.3,1.4c-0.1,0.1-0.2,0.1-0.3,0.1
				s-0.2,0-0.3,0s-0.3,0.2-0.3,0.3c-0.1,0.4,0.3,0.4,0.6,0.4c0.9-0.2,1.5-1,1.4-1.9c-0.2-1.3-1.4-2.2-2.7-2c0,0,0,0-0.1,0
				c-1.4,0.3-2.4,1.6-2.4,3.1c0,0.4,0.1,0.8,0.2,1.2c0,0.2,0.1,0.3,0.2,0.4c-1.8,0.7-3.7,0.8-5.6,0.4c-2.8-0.7-5.2-2.6-6.6-5.3
				c-3.7-2.1-7.6-1.2-8.8,0.9c-1,1.8,0.1,4,0.3,4.4c-2.1-1.2-3.6-3.1-3.4-5c0.2-3,4.5-4.4,6.5-4.7c1.8-0.3,3.6,0,5.2,0.6
				c-0.4-2.1,0.7-4.3,2.7-5.2c1.1-0.4,2.3-0.4,3.4,0c0,0,0,0,0,0.1c-0.1,1.9,0.6,3.7,1.9,5.1c1.2,1.2,2.8,1.9,4.5,2
				c1,0,1.9-0.2,2.7-0.6c1.4-0.8,2.3-2.2,2.5-3.8c0.1-1.7-0.9-3.3-2.5-3.9c-1.7-0.6-3.6,0.2-4.3,1.9c-0.3,0.7-0.3,1.5,0,2.2
				c0.3,0.8,1.2,1.2,2,1.1c0.7-0.1,1.2-0.8,1.1-1.6c0-0.1,0-0.2-0.1-0.3c-0.1-0.3-0.5-0.8-0.8-0.6c-0.1,0.1-0.2,0.2-0.2,0.4
				c0,0.2,0.2,0.3,0.3,0.4c0.1,0.3,0,0.7-0.3,0.9h-0.1c-0.4,0.1-0.9-0.2-1.1-0.6c-0.4-0.7-0.3-1.7,0.3-2.3c0.6-0.8,1.6-1.1,2.5-1
				c0.9,0.2,1.7,0.8,2.1,1.7c0.7,1.6,0.2,3.4-1.1,4.4c-1.5,1.1-3.4,1.3-5.1,0.6c-1.8-0.8-3.1-2.3-3.5-4.2c-0.1-0.4-0.1-0.9-0.1-1.3
				l0,0c1-2.6,3.4-4.4,6.2-4.7c1.9,0,3.7,0.7,5.1,2c-0.1-0.2-3.2-3.8-1.8-8c1.4-3.7,5.1-5.9,8.9-5.4c0,0.1,0,0.1,0.1,0.2
				c2.2,1.2,3.6,3.4,3.9,5.9c0.1,1.3-0.1,2.5-0.8,3.6c-0.6,1.1-1.6,1.9-2.7,2.4c-2.4,1-5.1-0.2-6-2.6c0,0,0,0,0-0.1
				c-0.4-1.1-0.3-2.2,0.4-3.2c0.6-0.9,1.6-1.4,2.6-1.3c1.1,0.1,1.9,0.9,2.2,1.9c0.1,0.5,0,1.1-0.5,1.5c-0.3,0.2-0.8,0.3-1-0.1
				c-0.1-0.1-0.1-0.3,0-0.4c0-0.1,0.1-0.2,0.2-0.3c0.1-0.2,0-0.4-0.1-0.5l0,0c-0.4-0.3-0.8,0.3-0.9,0.6c-0.1,0.5,0,1,0.4,1.3
				s0.8,0.4,1.3,0.2c1-0.4,1.5-1.4,1.2-2.4c-0.2-1.1-1-2-2.1-2.4c-1.1-0.3-2.2-0.1-3.1,0.5c-0.9,0.6-1.4,1.5-1.6,2.6
				c-0.3,2.2,0.9,4.3,2.9,5.2c2.2,1,4.9,0.5,6.5-1.4c0.4-0.4,0.7-0.8,1-1.3c1.7-3,0.6-6.8-1.8-9.1c-0.3-0.3-0.6-0.6-1-0.8
				c-0.1-0.1-0.2-0.2-0.4-0.3c1.9-1,4.2-1.1,6.2-0.3c1.7,0.7,3.1,1.9,3.9,3.6c1.8-2.3,5.1-2.6,7.4-0.8c1.6,1.3,2.3,3.3,1.8,5.3
				c1.7-1.1,4.1-0.7,5.3,1c1,1.5,0.9,3.5-0.3,4.9c1.5-0.7,3.1-0.9,4.7-0.7c2,0.3,3.8,1.2,5.2,2.7c2.1,0.8,4.4,0,5.6-1.8
				c1.2-2,0.9-4.5-0.9-6.1C190.2,68.1,192.5,69.6,192.8,72z M169.5,69c-0.1-0.3-0.3-0.5-0.5-0.7c-0.4-0.4-0.9-0.6-1.5-0.6
				s-1.2,0.2-1.6,0.6c-0.5-1.3-1.7-2.1-3.1-2.3c-0.8-0.1-1.6,0-2.2,0.4c-0.3,0.2-0.6,0.4-0.9,0.6c-0.2,0.2-0.5,0.5-0.6,0.8
				c-0.9,0-1.7,0.5-2.3,1.2c-0.2,0.2-0.6,0.7-0.1,0.9s0.6-0.4,0.9-0.6c0.7-0.8,1.8-0.9,2.7-0.4c0.2,0.1,0.4,0.3,0.5,0.5
				s0.3,0.4,0.4,0.6c0.1,0.2,0.3,0.2,0.5,0.1c0.1-0.1,0.2-0.2,0.2-0.3c0-0.2-0.1-0.4-0.3-0.6c-0.1-0.2-0.3-0.4-0.5-0.6
				c-0.3-0.3-0.7-0.5-1.1-0.6c0.8-1,2.2-1.4,3.4-1c0.6,0.2,1.2,0.6,1.6,1.2c0.2,0.3,0.3,0.5,0.5,0.8c0.1,0.2,0.1,0.5,0.5,0.6
				c0.1,0,0.2-0.1,0.3-0.2c0.1-0.2,0.3-0.3,0.4-0.4c0.3-0.2,0.7-0.3,1.1-0.3c0.6,0.1,1,0.5,1.2,1c0.1,0.2,0.1,0.4,0.4,0.4
				c0.2,0,0.4-0.1,0.4-0.3l0,0C169.8,69.4,169.7,69.2,169.5,69z"/>
		</g>
	</g>
</g>
<g id="图层_4">
	<path class="st1" d="M105.7,35.7c0.4,0.3,0.7,0.7,1,1.1s0.6,0.8,0.9,1.2s0.5,0.8,0.8,1.3s0.5,0.9,0.6,1.4s0.4,0.9,0.5,1.4
		s0.3,1,0.4,1.5s0.2,1,0.2,1.5s0.1,1,0.1,1.5s0,1-0.1,1.5s-0.1,1-0.2,1.5s-0.2,1-0.4,1.5s-0.3,1-0.5,1.4c-0.2,0.5-0.4,0.9-0.6,1.4
		c-0.2,0.4-0.5,0.9-0.8,1.3s-0.6,0.8-0.9,1.2s-0.6,0.8-1,1.1s-0.7,0.7-1.1,1s-0.8,0.6-1.2,0.9s-0.8,0.5-1.3,0.8s-0.9,0.4-1.4,0.6
		c-0.5,0.2-1,0.4-1.4,0.5c-0.5,0.1-1,0.3-1.5,0.4c-1,0.2-2,0.3-3,0.3c-0.5,0-1,0-1.5-0.1c-0.5,0-1-0.1-1.5-0.2
		c-0.5-0.1-1-0.2-1.5-0.4c-0.5-0.1-0.9-0.3-1.4-0.5s-0.9-0.4-1.4-0.6c-0.4-0.2-0.9-0.5-1.3-0.8s-0.8-0.6-1.2-0.9s-0.8-0.7-1.1-1
		s-0.7-0.7-1-1.1s-0.6-0.8-0.9-1.2s-0.5-0.8-0.8-1.3s-0.5-0.9-0.6-1.4c-0.2-0.5-0.4-0.9-0.5-1.4s-0.3-1-0.4-1.5s-0.2-1-0.2-1.5
		s-0.1-1-0.1-1.5s0-1,0.1-1.5s0.1-1,0.2-1.5s0.2-1,0.4-1.5c0.1-0.5,0.3-1,0.5-1.4c0.2-0.5,0.4-0.9,0.6-1.4s0.5-0.9,0.8-1.3
		s0.6-0.8,0.9-1.2s0.6-0.8,1-1.1s0.7-0.7,1.1-1s0.8-0.6,1.2-0.9c0.8-0.6,1.7-1,2.6-1.4c0.5-0.2,0.9-0.4,1.4-0.5s1-0.3,1.5-0.4
		s1-0.2,1.5-0.2s1-0.1,1.5-0.1s1,0,1.5,0.1s1,0.1,1.5,0.2s1,0.2,1.5,0.4c0.5,0.2,1,0.3,1.4,0.5s0.9,0.4,1.4,0.7
		c0.4,0.2,0.9,0.5,1.3,0.8s0.8,0.6,1.2,0.9S105.3,35.3,105.7,35.7z"/>
	<path class="st1" d="M140.7,37.3c-3.3-4.9-9.2-7.5-15-6.5c1.9,1.1,3.6,2.7,4.8,4.6c4.7,7,2.9,16.5-4.1,21.2c-1.9,1.3-4,2.1-6.2,2.4
		c7.3,4.3,16.6,1.9,21-5.3C144.2,48.6,144,42.3,140.7,37.3z"/>
</g>
<g id="图层_2_1_">
	<path class="st2" d="M87,55.5c0.2-0.3,0.5-0.6,0.8-0.9c-1.2-1.7-3.6-2.1-5.3-0.9c-0.3,0.2-0.5,0.4-0.7,0.7c0.1,0.2,0.2,0.3,0.3,0.5
		s0,0,0,0.1l0.3,0.5c0.5-0.8,1.3-1.2,2.3-1.2C85.6,54.1,86.5,54.6,87,55.5z"/>
	<path class="st2" d="M91.3,52.3c0.5-0.2,1-0.3,1.5-0.4c-2.7-4.5-8.6-6-13.1-3.3l0,0c0,0.3,0.1,0.5,0.1,0.8s0.1,0.5,0.2,0.8
		c3.6-2.5,8.6-1.7,11.1,2C91.2,52.2,91.3,52.3,91.3,52.3z"/>
	<path class="st2" d="M89,53.6c0.3-0.2,0.6-0.4,1-0.6c-1.2-1.7-3.2-2.7-5.3-2.7c-1.5,0-3,0.5-4.1,1.5c0,0.1,0.1,0.2,0.1,0.3l0.1,0.3
		c0.1,0.2,0.2,0.4,0.2,0.5c1-1,2.3-1.5,3.7-1.5C86.4,51.4,88,52.2,89,53.6z"/>
	<path class="st2" d="M85.5,35.8L85.5,35.8H86c0,0,0.2-0.3,0.3-0.4c-0.1-0.4-0.4-0.8-0.7-1c-0.2,0.2-0.5,0.4-0.7,0.6
		C85.3,35,85.5,35.4,85.5,35.8z"/>
	<path class="st2" d="M86,46.4c0,0,0.2-0.3,0.3-0.4c-0.2-0.9-1.1-1.5-1.9-1.3c-0.6,0.1-1.1,0.6-1.3,1.3c0.1,0.1,0.2,0.3,0.2,0.4
		c0.2,0,0.4,0,0.5-0.1l0,0c0.1-0.5,0.5-0.8,0.9-0.7c0.4,0,0.7,0.3,0.7,0.7l0,0C85.7,46.4,85.9,46.4,86,46.4z"/>
	<path class="st2" d="M102,33.6c0.3,0.3,0.5,0.5,0.8,0.8c0.2-0.2,0.3-0.5,0.6-0.7c-0.3-0.2-0.7-0.4-1-0.6
		C102.2,33.3,102.1,33.4,102,33.6z"/>
	<path class="st2" d="M100.8,32.6L100.8,32.6l-0.6-0.4C100.4,32.3,100.6,32.4,100.8,32.6z"/>
	<path class="st2" d="M94.8,31.4c-3.3,0.1-6.2,1.8-7.9,4.6c0.5,0.1,1,0.3,1.5,0.4c2.3-3.6,7.2-4.6,10.8-2.3c0.9,0.6,1.7,1.4,2.3,2.3
		c0.5-0.2,1-0.3,1.5-0.4c-1.7-2.8-4.7-4.5-7.9-4.6H95C94.9,31.4,94.8,31.4,94.8,31.4z"/>
	<path class="st2" d="M87.5,33.2c-0.3,0.2-0.7,0.4-1,0.6c0.2,0.2,0.4,0.4,0.6,0.7c0.2-0.3,0.5-0.6,0.8-0.9
		C87.7,33.4,87.6,33.3,87.5,33.2z"/>
	<path class="st2" d="M95,59.4c0.9,0.1,1.7,0.6,2.1,1.3c0.2-0.3,0.5-0.6,0.8-0.8c-0.7-0.9-1.7-1.5-2.9-1.6h-0.3l0,0
		c-1.2,0.1-2.2,0.7-2.9,1.6c0.3,0.3,0.5,0.6,0.8,0.8C93.1,59.9,94,59.4,95,59.4z"/>
	<path class="st2" d="M95,54c2.6,0.1,5,1.4,6.5,3.6c0.5-0.2,1-0.3,1.5-0.4c-1.7-2.8-4.7-4.5-7.9-4.6h-0.2l0,0
		c-3.3,0.1-6.2,1.8-7.9,4.6c0.5,0.1,1,0.3,1.5,0.4C89.8,55.4,92.3,54,95,54z"/>
	<path class="st2" d="M80,42.9c0.1,0.1,0.2,0.1,0.3,0.2c1.7-2.4,5.1-2.9,7.5-1.2c0.4,0.3,0.8,0.7,1.2,1.2c0.3-0.2,0.6-0.4,1-0.6
		c-1.2-1.7-3.2-2.7-5.3-2.7c-1.5,0-3,0.5-4.1,1.5C80.4,41.8,80.2,42.3,80,42.9z"/>
	<path class="st2" d="M84.7,57.8L84.7,57.8c0.7,0.7,1.5,1.3,2.4,1.9c0.8,0.2,1.6,0.6,2.3,1.1l0.7,0.3c0.2,0.1,0.5,0.2,0.7,0.2
		c0.2,0.1,0.5,0.1,0.8,0.2c0.2,0.1,0.5,0.1,0.8,0.2C90.5,59.2,87.7,57.8,84.7,57.8z"/>
	<path class="st2" d="M95,56.7c1.6,0.1,3.2,0.9,4.1,2.2c0.3-0.2,0.6-0.4,1-0.6c-1.2-1.6-3-2.6-5-2.7h-0.2l0,0c-2,0.1-3.8,1.1-5,2.7
		c0.3,0.2,0.7,0.4,1,0.6C91.8,57.5,93.3,56.7,95,56.7z"/>
	<path class="st2" d="M109.4,43.1c0.1-0.1,0.2-0.1,0.3-0.2c-0.1-0.6-0.3-1.1-0.5-1.6c-2.7-2.3-6.8-1.9-9.1,0.8
		c-0.1,0.1-0.2,0.3-0.3,0.4c0.3,0.2,0.7,0.4,1,0.6c1.7-2.4,5.1-2.9,7.4-1.2C108.7,42.2,109.1,42.6,109.4,43.1L109.4,43.1z"/>
	<path class="st2" d="M108.2,44.1c-1.2-1.7-3.6-2.1-5.3-1c-0.4,0.3-0.7,0.6-1,1c0.3,0.3,0.5,0.5,0.8,0.8c0.5-0.8,1.4-1.3,2.3-1.3
		c1,0,1.9,0.5,2.3,1.4C107.7,44.7,107.9,44.4,108.2,44.1z"/>
	<path class="st2" d="M95,45h-0.2l0,0c-2,0.1-3.8,1.1-5,2.7c0.3,0.2,0.7,0.4,1,0.6c1-1.3,2.5-2.1,4.2-2.1c1.6,0.1,3.1,0.8,4.1,2.2
		c0.3-0.2,0.6-0.4,1-0.6C98.9,46.1,97.1,45.1,95,45L95,45z"/>
	<path class="st2" d="M84.7,42.5c-1.2,0-2.4,0.6-3.1,1.6c0.3,0.3,0.5,0.6,0.8,0.8c0.7-1.3,2.4-1.7,3.7-1c0.4,0.2,0.8,0.6,1,1
		c0.2-0.3,0.5-0.6,0.8-0.9C87.1,43.1,85.9,42.5,84.7,42.5z"/>
	<path class="st2" d="M108,54.3c-0.7-0.9-1.8-1.3-2.9-1.4c-1.2,0-2.4,0.6-3.1,1.6c0.3,0.3,0.5,0.6,0.8,0.9c0.8-1.3,2.4-1.7,3.7-1
		c0.4,0.2,0.7,0.5,0.9,0.9l0.3-0.5c0,0,0,0,0-0.1C107.8,54.7,107.9,54.5,108,54.3z"/>
	<path class="st2" d="M86,56.9c0,0,0.2-0.3,0.3-0.4c-0.2-0.8-0.8-1.3-1.6-1.3c-0.7,0-1.3,0.5-1.5,1.1c0.1,0.2,0.3,0.4,0.5,0.6h0.2
		l0,0c0.1-0.5,0.5-0.8,0.9-0.7c0.4,0,0.7,0.3,0.7,0.7l0,0C85.7,56.9,85.9,56.9,86,56.9z"/>
	<path class="st2" d="M105.1,57.8c-3,0-5.9,1.4-7.7,3.9c0.3,0,0.5-0.1,0.8-0.2s0.5-0.1,0.8-0.2c0.2-0.1,0.5-0.1,0.7-0.2l0.7-0.3
		c0.7-0.5,1.5-0.9,2.3-1.1c0.9-0.5,1.8-1.2,2.5-1.9H105.1z"/>
	<path class="st2" d="M86.8,46.6c0.5,0.1,1,0.3,1.5,0.4c2.3-3.6,7.2-4.6,10.8-2.3c0.9,0.6,1.7,1.4,2.3,2.3c0.5-0.2,1-0.3,1.5-0.4
		c-1.7-2.8-4.7-4.5-7.9-4.6h-0.2l0,0C91.5,42,88.5,43.8,86.8,46.6z"/>
	<path class="st2" d="M95,38.3c0.9,0.1,1.7,0.6,2.1,1.3c0.2-0.3,0.5-0.6,0.8-0.8c-0.7-0.9-1.7-1.5-2.9-1.6h-0.3l0,0
		c-1.2,0.1-2.2,0.7-2.9,1.6c0.3,0.3,0.5,0.5,0.8,0.8C93.1,38.8,94,38.3,95,38.3z"/>
	<path class="st2" d="M95,34.5h-0.2l0,0c-2,0.1-3.8,1.1-5,2.7c0.3,0.2,0.7,0.4,1,0.6c1.6-2.3,4.8-2.9,7.1-1.3
		c0.5,0.3,0.9,0.8,1.3,1.3c0.3-0.2,0.6-0.4,1-0.6c-1.2-1.6-3-2.6-5-2.7H95z"/>
	<path class="st2" d="M96.1,41.1c0,0,0.2-0.3,0.3-0.4c-0.2-0.7-0.7-1.2-1.4-1.3h-0.2c-0.7,0.1-1.2,0.6-1.4,1.3
		c0.1,0.1,0.2,0.4,0.3,0.4c0.2,0,0.3,0,0.5,0l0,0c0-0.4,0.3-0.8,0.7-0.8c0.4,0.1,0.7,0.4,0.7,0.8l0,0C95.8,41.1,95.9,41.1,96.1,41.1
		z"/>
	<path class="st2" d="M96.4,61.7c-0.2-0.7-0.7-1.2-1.4-1.3l0,0h-0.2l0,0c-0.7,0.1-1.2,0.6-1.4,1.3c0,0,0,0,0,0.1c0.2,0,0.5,0,0.8,0
		c0.1-0.4,0.4-0.6,0.8-0.6c0.3,0,0.5,0.3,0.6,0.6C95.8,61.8,96,61.8,96.4,61.7C96.3,61.8,96.3,61.7,96.4,61.7z"/>
	<path class="st2" d="M89,32.6l0.6-0.4c-0.2,0.1-0.5,0.2-0.7,0.3C88.9,32.5,89,32.5,89,32.6z"/>
	<path class="st2" d="M84.7,38.3c2.7,0,5.2,1.3,6.6,3.5c0.5-0.2,1-0.3,1.5-0.4c-1.7-2.9-4.8-4.6-8.2-4.6c-0.6,0-1.1,0-1.6,0.2
		c-0.4,0.5-0.7,0.9-1,1.4l0,0c-0.1,0.2-0.2,0.3-0.3,0.5C82.7,38.5,83.7,38.3,84.7,38.3z"/>
	<path class="st2" d="M96.9,41.4c0.5,0.1,1,0.3,1.5,0.4c1.5-2.2,4-3.5,6.6-3.5c1,0,2,0.2,3,0.6c-0.1-0.2-0.2-0.3-0.3-0.5
		c0,0,0,0,0-0.1c-0.3-0.5-0.7-1-1-1.4c-0.5-0.1-1.1-0.1-1.6-0.2C101.8,36.7,98.7,38.5,96.9,41.4z"/>
	<path class="st2" d="M96.9,51.9c0.5,0.1,1,0.3,1.5,0.4c2.5-3.7,7.4-4.7,11.1-2.2c0.1,0,0.1,0.1,0.2,0.1c0.1-0.3,0.1-0.5,0.2-0.8
		c0-0.3,0.1-0.5,0.1-0.8c-1.5-0.9-3.2-1.4-4.9-1.4C101.8,47.2,98.6,49,96.9,51.9z"/>
	<path class="st2" d="M96.1,51.6c0,0,0.2-0.3,0.3-0.4c-0.2-0.7-0.7-1.2-1.4-1.3l0,0h-0.2l0,0c-0.7,0.1-1.2,0.6-1.4,1.3
		c0.1,0.1,0.2,0.4,0.3,0.4c0.2,0,0.3,0,0.5,0l0,0c0-0.4,0.3-0.8,0.7-0.8c0.4,0.1,0.7,0.4,0.7,0.8l0,0C95.8,51.6,95.9,51.6,96.1,51.6
		z"/>
	<path class="st2" d="M97.1,50.2c0.3-0.3,0.5-0.6,0.8-0.9c-0.7-0.9-1.7-1.5-2.9-1.6h-0.3l0,0c-1.1,0.1-2.2,0.7-2.9,1.6
		c0.3,0.3,0.5,0.6,0.8,0.9c0.5-0.8,1.3-1.3,2.3-1.3C95.8,48.9,96.7,49.4,97.1,50.2z"/>
	<path class="st2" d="M109.2,51.8c-1.2-1-2.6-1.5-4.1-1.5c-2.1,0-4,1-5.3,2.7c0.3,0.2,0.7,0.4,1,0.6c1-1.4,2.6-2.2,4.3-2.2
		c1.4,0,2.7,0.5,3.7,1.5c0.1-0.2,0.1-0.4,0.2-0.5s0.1-0.2,0.1-0.2C109.2,52,109.2,51.9,109.2,51.8z"/>
	<path class="st2" d="M134.1,37.3c0-0.4,0-0.8,0-1.2c-0.9,0.2-2,0-2.6-0.7c-0.7-0.7-1-1.7-0.7-2.7c-0.4,0-0.8,0-1.2,0.1
		c-0.1,0.5-0.1,1,0,1.5c0.1,0.2,0.3,0.3,0.4,0.5s0.3,0.4,0.4,0.6l0,0l0.1,0.1c0.1,0.2,0.2,0.3,0.3,0.5s0.3,0.4,0.4,0.6
		C132.1,37.2,133.1,37.5,134.1,37.3z"/>
	<path class="st2" d="M143,42.8L143,42.8c0-0.3-0.1-0.5-0.1-0.7c-0.8-0.3-1.5-0.7-2.2-1.3c-1.1-1.2-1.6-2.9-1.4-4.5
		c-0.4-0.1-0.8-0.1-1.1-0.2c-0.3,2,0.3,4.1,1.7,5.6l0,0l0.1,0.1l0,0c0.9,0.8,1.9,1.4,3.1,1.6C143,43.2,143,43,143,42.8z"/>
	<path class="st2" d="M135,41.5c-0.7,0.1-1.4,0.2-2.1,0.1c0,0.2,0.1,0.5,0.1,0.8s0,0.5,0,0.8c0.9,0,1.8,0,2.7-0.3
		C135.5,42.4,135.3,41.9,135,41.5z"/>
	<path class="st2" d="M134.5,40c-0.1-0.4-0.2-0.8-0.2-1.1c-0.7,0.1-1.3,0.1-2-0.1c0.1,0.2,0.1,0.3,0.2,0.5v0.1c0,0,0.1,0.4,0.2,0.6
		C133.3,40.1,133.9,40.1,134.5,40z"/>
	<path class="st2" d="M132.6,32.4c0,0-0.4,0.1-0.5,0.1c-0.4,0.7-0.3,1.5,0.2,2.1c0.6,0.6,1.4,0.6,2.1,0.2c0-0.2,0.1-0.3,0.1-0.5
		c-0.1-0.1-0.3-0.2-0.4-0.3l0,0c-0.3,0.4-0.8,0.4-1.2,0.1c-0.4-0.3-0.4-0.8-0.1-1.2l0.1-0.1l0,0l0,0
		C132.8,32.7,132.7,32.5,132.6,32.4z"/>
	<path class="st2" d="M139.1,35.4c-0.5-0.6-1.1-1.1-1.7-1.5l0,0l-0.4-0.3l0,0l-0.4-0.2c-0.5-0.3-1-0.6-1.5-0.9H135
		c-0.1-0.1-0.2-0.1-0.3-0.2s-0.1,0-0.1,0l-0.3-0.2h-0.1c-0.4-0.2-0.8-0.3-1.2-0.5c0.3,0.5,0.7,0.9,1.1,1.3
		C135.6,34.2,137.3,35.1,139.1,35.4z"/>
	<path class="st2" d="M136.7,35.6c-0.5-0.2-1-0.5-1.4-0.8c-0.8,3.2,0.1,6.6,2.4,9v0.1l0.1,0.1l0,0c1.5,1.5,3.4,2.4,5.5,2.6
		c0-0.3,0-0.5,0-0.8s0-0.5,0-0.8c-1.7-0.3-3.3-1.1-4.5-2.3C136.9,40.8,136.1,38.2,136.7,35.6z"/>
	<g>
		<g>
			<path class="st2" d="M200.6,53.7C200.6,53.7,200.5,53.7,200.6,53.7c-0.1-0.1-0.2-0.2-0.3-0.3s-0.1-0.1-0.1-0.1l-0.1-0.1
				c-0.7-0.5-1.4-1-2.2-1.3c1.7,0.3,3.3,1.2,4.3,2.7l-0.1,0.1l-0.2-0.1c0,0,0,0-0.1,0l-0.2-0.1c0,0,0,0-0.1,0
				c-0.2-0.1-0.4-0.3-0.5-0.3s0,0-0.1,0s-0.1,0-0.1-0.1s0,0-0.1,0c0.1,0,0.1-0.1,0.1-0.1S200.7,53.7,200.6,53.7z M62.8,1.8
				c-0.1,0-0.2,0-0.3,0l0,0c-0.1,0-0.2,0-0.3,0.1l0,0C62.1,1.9,62,2,61.9,2l0,0c-0.1,0-0.2,0.1-0.3,0.2c0.2,0.2,0.3,0.4,0.5,0.6
				C62.2,2.5,62.5,2.1,62.8,1.8z M67.4,73.8c-0.8-0.4-1.6-0.9-2.2-1.5c-1.4,1.2-2.6,2.6-3.6,4.1c0.9,0.2,1.7,0.4,2.6,0.8
				C65.1,75.9,66.2,74.7,67.4,73.8L67.4,73.8z M79,14.4c0.5,0.1,1.1,0.3,1.6,0.5c1.3-1.2,2-2.9,2.1-4.7C81.3,11.4,80,12.8,79,14.4
				L79,14.4z M59.1,69.5L59.1,69.5z M139.3,10.2c0.3,0.3,0.6,0.6,0.9,0.9c0-0.7,0.2-1.3,0.6-1.8c1.2-1.4,3.2-1.8,4.9-1
				c1,0.5,1.8,1.4,2.1,2.5c0.3,0.2,0.5,0.5,0.6,0.9c0.4-0.5,0.9-1,1.3-1.5c-1.2-1.7-3.1-2.7-5.2-2.7C142.4,7.5,140.5,8.5,139.3,10.2
				z M73.4,5.1c0.7-0.2,1.3-0.2,2-0.2c2.9,0,5.6,1.4,7.3,3.7l0,0c0-0.1-0.1-0.2-0.1-0.4c0,0,0,0,0-0.1s-0.1-0.2-0.1-0.4l0,0
				c-0.1-0.2-0.1-0.3-0.2-0.4l0,0C82.1,7.2,82.1,7,82,6.9s0-0.1-0.1-0.1c-0.1-0.1-0.2-0.2-0.2-0.4l0,0c-0.1-0.1-0.2-0.3-0.3-0.4
				s0-0.1-0.1-0.1c-0.1-0.1-0.2-0.2-0.3-0.3v0.1c-0.1-0.1-0.3-0.2-0.4-0.3c-1.5-1.2-3.5-1.7-5.4-1.4l0,0C74.5,4.2,73.9,4.6,73.4,5.1
				L73.4,5.1z M2.1,46.6c-0.3-0.7-0.5-1.4-0.6-2.1c-0.4,0.3-0.7,0.7-1,1.1C1,46,1.4,46.5,1.8,47C1.9,46.9,2,46.8,2.1,46.6z
				 M137.2,10.2c0,0.3,0,0.7,0.1,1c0.2,1.4,0.9,2.8,2,3.8c0.5-0.2,1.1-0.3,1.6-0.5C140,12.9,138.7,11.4,137.2,10.2z M55.7,5.2
				L55.7,5.2c0.3,0,0.6,0,0.9,0V5.1C56.3,5.1,56,5.1,55.7,5.2z M160.1,12c0.5,0.2,0.9,0.5,1.1,1c0.1,0.2,0.1,0.5,0.1,0.8
				c0.2,0,0.5,0,0.8,0s0.5,0,0.8,0c0.1-0.7,0.1-1.4-0.2-2H162C161.4,11.8,160.7,11.8,160.1,12L160.1,12z M217.8,49.9L217.8,49.9
				c0.1-0.1,0.2-0.1,0.3-0.2l0,0c0.1-0.1,0.1-0.1,0.2-0.2l0.1-0.1l0.2-0.2l0.1-0.1c0,0,0.1-0.1,0.1-0.2l0.1-0.1
				c0-0.1,0.1-0.1,0.1-0.2c0,0,0.1-0.1,0.1-0.2c0,0,0.1-0.1,0.1-0.2c0-0.1,0.1-0.2,0.1-0.2s0-0.1,0.1-0.2c0.1-0.1,0.1-0.2,0.1-0.4
				c0-0.1,0-0.2,0.1-0.2C219,48.2,218.4,49,217.8,49.9L217.8,49.9z M75.4,7.4c-2.1,0-4.1,1.1-5.2,2.8c0.4,0.5,0.9,0.9,1.3,1.4
				c0.2-0.3,0.4-0.6,0.6-0.9c0.2-0.6,0.5-1.1,0.9-1.6c1.4-1.5,3.8-1.8,5.5-0.6c0.8,0.6,1.2,1.5,1.3,2.5l0,0c0.3-0.3,0.6-0.6,0.9-0.9
				C79.4,8.4,77.5,7.4,75.4,7.4z M32.8,42.4c-0.2,0-0.4-0.1-0.6-0.2l-0.5,0.6c0.1,0.1,0.3,0.2,0.5,0.3c0.3,0.1,0.5,0.3,0.8,0.4
				C32.9,43.2,32.8,42.8,32.8,42.4L32.8,42.4z M158,9.1c-0.2,0.1-0.3,0.1-0.5,0.3c-0.1,0.1-0.2,0.3-0.3,0.5c0,0.1-0.1,0.2-0.2,0.3
				c1.1-0.4,2.3-0.7,3.5-0.8c-0.5-0.3-1-0.4-1.6-0.5C158.7,8.9,158.4,9,158,9.1L158,9.1z M155.3,8.8c0,0.3-0.3,0.6-0.6,0.6
				c-0.2,0-0.4-0.3-0.3-0.5c0,0,0,0,0-0.1s0.1-0.2,0.1-0.2V8.5c-0.5,0.3-1,0.6-1.5,0.9c-0.2,0.6,0.1,1.3,0.6,1.7
				c0.7,0.4,1.6,0.2,2.2-0.4c0.3-0.3,0.5-0.6,0.7-1c0-0.1,0.1-0.2,0.1-0.3s0-0.1,0-0.2c0,0,0.1-0.1,0.1-0.2c0-0.1,0-0.2,0.1-0.3
				c0.1-0.4,0.1-0.8,0-1.2c-0.6,0.2-1.1,0.4-1.6,0.7C155.3,8.4,155.4,8.6,155.3,8.8z M4.2,49.4c-0.4-0.3-0.7-0.6-1-1
				c0,0.1-0.1,0.3-0.1,0.4c0.2,0.2,0.3,0.4,0.4,0.7C3.7,49.4,4,49.4,4.2,49.4z M65,2.4L65,2.4c-0.2-0.1-0.4-0.2-0.6-0.3
				c-1.1,1-2,2.2-2.8,3.5c0.4,0.1,0.8,0.2,1.2,0.3c0.1-0.2,0.2-0.4,0.3-0.6c0.9-1.7,2.8-2.7,4.7-2.6c1.5-1,3.1-1.7,4.8-2.1
				c-0.1-0.1-0.2-0.1-0.4-0.2h-0.1c-0.1-0.1-0.3-0.1-0.4-0.2h-0.1c-0.2-0.1-0.3-0.1-0.5-0.1c-2.2-0.4-4.4,0.7-5.5,2.7
				c-0.1-0.1-0.2-0.2-0.3-0.2C65.2,2.6,65.1,2.5,65,2.4L65,2.4z M155.2,4.4c-0.6-0.4-1.2-0.7-1.9-0.9c1,0.8,1.8,1.8,2.5,2.8
				c0.2-0.1,0.5-0.2,0.7-0.3C156.2,5.4,155.7,4.8,155.2,4.4L155.2,4.4z M58,27c0.9,0,1.8,0.1,2.7,0.3c-0.1-0.2-0.3-0.4-0.4-0.6l0,0
				c-0.1-0.1-0.2-0.2-0.3-0.3l0,0c-0.5-0.6-1.1-1.1-1.7-1.5c-0.2-0.1-0.4-0.2-0.6-0.3c-5.5,0.1-10.6,3-13.5,7.7
				c0.9,0.2,1.7,0.4,2.6,0.8C49.3,29.2,53.5,27,58,27z M2.8,40.7C2.8,40.7,2.7,40.7,2.8,40.7l0.6-0.1c0-0.1,0.1-0.2,0.1-0.3L3,40.5
				C2.9,40.6,2.9,40.7,2.8,40.7z M19.9,53.3l0.1-0.1c0.7-0.5,1.4-0.9,2.2-1.3c-1.7,0.3-3.3,1.2-4.3,2.7c0,0,0,0.1,0.1,0.1
				s0.2-0.1,0.2-0.2c0,0,0,0,0.1,0s0.2-0.1,0.2-0.2l0,0c0.2-0.2,0.4-0.3,0.6-0.4l0,0c0,0,0.1,0,0.1-0.1s0,0,0.1,0s0,0,0.1,0
				s0.1,0,0.1-0.1c0.1-0.1,0.2-0.1,0.3-0.2C19.8,53.5,19.9,53.4,19.9,53.3z M53.1,63.1h-0.5c-0.1,0-0.2,0-0.4,0h-0.1
				c-0.1,0-0.2,0-0.3,0.1h-0.1c0,0-0.2,0-0.3,0.1c-0.1,0-0.1,0-0.1,0.1c-0.1,0-0.1,0.1-0.2,0.1l-0.2,0.1c-0.1,0-0.1,0-0.2,0.1
				c-0.1,0.1-0.3,0.1-0.4,0.2c-0.1,0.1-0.2,0.2-0.3,0.3l-0.1,0.1c-0.1,0.1-0.2,0.2-0.3,0.2l0,0c-0.1,0.1-0.2,0.2-0.3,0.3l0,0
				c0,0-0.2,0.2-0.3,0.3c-0.3,0.5-0.6,0.9-0.8,1.5c1.5-1.5,3.2-2.6,5.2-3.2C53.4,63.2,53.3,63.1,53.1,63.1z M51,70.1
				c1.7-2.1,4.3-3.3,7-3.3c2,0,3.9,0.7,5.5,1.9c-0.1-0.8-0.1-1.5,0-2.3c-4.8-2.9-11.1-1.6-14.4,3L50,70C50.4,70,50.7,70.1,51,70.1
				L51,70.1z M2.7,46c0.2-0.2,0.4-0.3,0.6-0.5c-0.1-0.1-0.2-0.3-0.3-0.4l0,0c-0.1-0.3-0.3-0.6-0.3-0.9l0,0c0-0.2-0.1-0.3-0.1-0.5
				c-0.1,0.1-0.3,0.2-0.5,0.3C2.3,44.7,2.4,45.4,2.7,46z M36.4,33.7c-0.2,0.4-0.3,0.8-0.5,1.3c-0.1,0.5-0.2,1.1-0.3,1.7
				c1.4-0.6,2.9-0.9,4.5-0.9c0.3-0.2,0.6-0.3,1-0.3c0.7-0.1,1.4,0.1,2,0.6c0.4,0.1,0.9,0.2,1.3,0.3c0.4-0.8,1-1.5,1.7-2.1
				c-1.8-0.7-3.6-1-5.5-1C39.2,33.2,37.8,33.4,36.4,33.7L36.4,33.7z M0.5,48l0.1,0.2c0,0.1,0.1,0.1,0.1,0.2c0,0,0.1,0.1,0.1,0.2
				c0,0.1,0.1,0.1,0.1,0.2L1,48.9C1,49,1.1,49,1.1,49.1c0,0,0,0.1,0.1,0.1s0.1,0.2,0.2,0.2l0.1,0.1l0.2,0.2l0,0
				c0.1,0.1,0.2,0.2,0.3,0.2c-0.6-0.9-1.2-1.8-2-2.6c0,0.1,0,0.2,0.1,0.2s0.1,0.3,0.1,0.4S0.5,48,0.5,48z M56,71.9
				c-0.1-0.2-0.1-0.3,0-0.5c0.3-0.8,0.9-1.4,1.7-1.7c-0.1-0.1-0.1-0.1-0.2-0.2c-1.9,0.2-3.6,1.1-4.7,2.7c0.5,0.4,0.9,0.9,1.3,1.4
				C54.5,72.9,55.2,72.3,56,71.9z M39.2,49.4L39.2,49.4c0-0.8,0.6-1.4,1.4-1.4c0.8,0,1.4,0.6,1.4,1.4l0,0v0.1c0.3,0,0.6,0,0.9,0.1
				c0,0,0.3-0.5,0.5-0.7c-0.3-1.3-1.4-2.2-2.7-2.2s-2.4,0.9-2.7,2.2c0,0.1,0.1,0.1,0.1,0.2C38.5,49.3,38.8,49.4,39.2,49.4
				C39.1,49.4,39.2,49.4,39.2,49.4z M131.7,90c0.2,0,0.4,0,0.6,0.1l0.1-0.2c-1.2-1.7-3.1-2.7-5.2-2.7c-0.3,0-0.6,0-0.9,0.1
				c0.1,0.1,0.3,0.3,0.4,0.4l0,0l0.4,0.3c0,0,0.1,0,0.1,0.1c0.1,0.1,0.3,0.2,0.4,0.3l0.1,0.1c0.1,0.1,0.3,0.2,0.4,0.3
				c0.1,0,0.2,0.1,0.2,0.1c0.1,0.1,0.2,0.2,0.4,0.2c0.1,0,0.2,0.1,0.3,0.2s0.2,0.1,0.3,0.2s0.3,0.1,0.5,0.2l0.3,0.1l0.8,0.2l0.6,0.1
				L131.7,90z M61.9,73.7c0.4-0.5,0.9-1,1.3-1.5c-0.9-1.3-2.3-2.2-3.9-2.6c0.7,0.2,1.3,0.6,1.8,1.2c0.1,0.2,0.1,0.4,0,0.5
				s-0.3,0.2-0.4,0.1c-0.2-0.1-0.3-0.3-0.5-0.4c-0.1-0.2-0.3-0.3-0.5-0.4c-0.9-0.5-2-0.4-2.6,0.3c-0.2,0.2-0.3,0.4-0.4,0.6l0,0
				c0.4-0.1,0.9-0.2,1.3-0.2C59.6,71.3,61.1,72.2,61.9,73.7z M52,9.2c-0.1,0-0.1-0.1-0.2-0.1c0,0-0.1,0-0.1-0.1s-0.1,0-0.1-0.1h-0.1
				h-0.1c0,0-0.3,0.1-0.4,0.1l0,0c-0.3,0-0.5-0.1-0.8-0.1c-1.5,0.8-2.9,1.9-4,3.2c0,0.1-0.1,0.3-0.1,0.4l0,0c0,0.2,0,0.3,0,0.4l0,0
				c0,0.6,0.1,1.1,0.4,1.6l0,0c0.1,0.1,0.1,0.2,0.2,0.3l0,0c0.1,0.1,0.2,0.2,0.3,0.3c1.6-2.3,3.8-4,6.5-5c0.2-0.3,0.4-0.5,0.7-0.6
				C54.9,9,55.8,9,56.5,9.4c0.5,0,1-0.1,1.5-0.1h0.1c0.4-0.4,0.9-0.7,1.4-0.9c0.9-0.3,1.9-0.3,2.8,0.1c0-0.4,0-0.8,0-1.2
				C61,6.9,59.5,6.7,58,6.7c-1.7,0-3.5,0.3-5.1,0.8c-0.2,0.5-0.4,1.1-0.4,1.7v0.2c-0.1-0.1-0.2-0.1-0.3-0.2
				C52.1,9.2,52.1,9.2,52,9.2z M144.4,88c0.1-0.1,0.1-0.2,0.2-0.3s0,0,0-0.1s0.1-0.2,0.1-0.3v-0.1c0,0,0.1-0.2,0.1-0.3s0-0.1,0-0.2
				s0-0.1,0-0.2s0-0.1,0-0.2h-0.4c-1.1,0-2.2,0.1-3.3,0.3v0.1c0.1,0.9-0.5,1.7-1.4,1.9c-0.3,0-0.7,0-0.6-0.4c0-0.1,0.1-0.3,0.3-0.3
				c0.1,0,0.2,0,0.3,0s0.2-0.1,0.3-0.2c0.3-0.2,0.4-0.6,0.4-0.9c-1.3,0.3-2.5,0.8-3.6,1.4c0.1,0.5,0.3,0.9,0.5,1.3
				c0,0.1,0,0.1,0,0.2l0,0c0.1,0.1,0.3,0.1,0.4,0.2c0,0,0,0,0.1,0s0.3,0.1,0.4,0.1l0,0c0.1,0,0.2,0,0.3,0.1c1.5-0.7,3.2-1.2,4.8-1.3
				l0.3-0.3c0.1-0.1,0.1-0.2,0.2-0.3l0.2-0.3C144.1,88,144.4,88,144.4,88L144.4,88z M60.7,4.5c-0.1-0.4-0.3-0.8-0.6-1.1
				C60,3.7,59.8,4,59.8,4.3c0,0.2-0.1,0.3-0.1,0.5l0,0c0,0.1,0,0.3,0,0.5c0.2,0,0.4,0,0.6,0.1C60.3,5.2,60.6,4.7,60.7,4.5z
				 M60.2,76.1c0,0,0.3-0.5,0.5-0.7c-0.3-1.5-1.8-2.4-3.2-2.1c-1,0.2-1.8,1-2.1,1.9c0.5,0,0.9,0.1,1.4,0.3c0.3-0.7,1.1-1,1.8-0.8
				c0.5,0.2,0.9,0.7,0.9,1.3v0C59.7,76,60,76.1,60.2,76.1z M36.7,27.6c-0.1,0-0.3,0-0.4,0.1l0,0l-0.4,0.1l0,0
				c-0.1,0-0.3,0.1-0.4,0.2c0.5,0.4,0.9,0.9,1.2,1.3c0.4-0.8,1.1-1.4,1.9-1.8H38c-0.2,0-0.4,0-0.6,0C37.1,27.6,37,27.6,36.7,27.6
				C36.8,27.6,36.8,27.6,36.7,27.6z M124.5,85c0.9-0.3,1.8-0.4,2.7-0.4c2.9,0,5.6,1.4,7.2,3.7c0.5-0.4,1-0.7,1.6-1
				c-2.1-2.8-5.4-4.5-8.9-4.5c-1.7,0-3.3,0.4-4.8,1.1c0.2,0,0.4,0.1,0.5,0.2l0.3,0.1l0.4,0.2l0.2,0.1c0.2,0.1,0.4,0.2,0.6,0.3
				C124.4,84.7,124.5,84.8,124.5,85z M89,89.5c0.1-0.1,0.3-0.1,0.5-0.2c0.1,0,0.2-0.1,0.3-0.2c0.1-0.1,0.2-0.1,0.4-0.2l0.3-0.2
				l0.3-0.2c0.1-0.1,0.2-0.1,0.2-0.2c0.1-0.1,0.2-0.2,0.3-0.2s0.1-0.1,0.2-0.2s0.2-0.2,0.3-0.2s0.1-0.1,0.2-0.2l0.2-0.2l0.1-0.1
				c-1.9,0.2-3.6,1.1-4.8,2.7l0.1,0.1l0.5-0.1c0.2-0.1,0.5-0.2,0.7-0.3C88.9,89.6,89,89.6,89,89.5L89,89.5z M103.8,88.6l0.6-0.3l0,0
				c0.3-0.3,0.6-0.6,0.9-1c-0.6,0.2-1.1,0.4-1.7,0.7c0,0.1,0,0.2,0,0.2c-0.1,0.3-0.1,0.5-0.2,0.7l0,0V89l0,0c0,0,0,0,0,0.1v0.1
				l0.6-0.4C103.7,88.6,103.7,88.6,103.8,88.6L103.8,88.6z M55.8,76.1c0.1,0,0.3,0,0.4,0h-0.1H55.8C55.6,75.9,55.7,76,55.8,76.1
				L55.8,76.1z M63.1,14.5c0,0.2-0.1,0.5-0.2,0.7c0.9,0.6,1.7,1.3,2.3,2.2c0.4-0.3,0.9-0.6,1.3-0.9c0.1-0.1,0.1-0.2,0.2-0.3
				c-1.1-1.5-2.6-2.7-4.4-3.5C62.9,13.2,63.1,13.8,63.1,14.5L63.1,14.5z M37.1,40.9c1.1-0.5,2.3-0.7,3.5-0.7c0.8,0,1.6,0.1,2.4,0.3
				c0.3-0.3,0.5-0.7,0.6-1.1c0.1-0.2,0.1-0.4,0.1-0.7c-1-0.3-2-0.5-3.1-0.4c-0.3,0-0.6,0-0.9,0c0.1,0.5,0.5,0.9,1,1
				c0.2,0,0.3,0.2,0.3,0.4s-0.1,0.3-0.3,0.4c-0.2,0-0.4,0-0.6-0.2c-0.2-0.1-0.4-0.2-0.6-0.4c-0.3-0.3-0.5-0.7-0.6-1.1
				c-1,0.1-2,0.4-3,0.9C36.2,39.9,36.6,40.5,37.1,40.9L37.1,40.9z M46.9,41.7c0.6,0.3,1.3,0.4,2,0.3c-1.1-1.2-2.5-2.2-4-2.8
				C45.1,40.3,45.8,41.2,46.9,41.7L46.9,41.7z M215.9,49.4c0.2,0,0.5,0,0.7,0.1c0,0,0.3-0.5,0.5-0.7c0-0.1-0.1-0.3-0.1-0.4
				C216.5,48.7,216.2,49.1,215.9,49.4L215.9,49.4z M165.7,76.4c0.5,0.1,1,0.3,1.5,0.4c-0.1-0.6-0.4-1.1-0.8-1.5
				C166.1,75.6,165.9,76,165.7,76.4L165.7,76.4z M49.9,15.6l0.3-0.1h0.1c0,0,0.3-0.1,0.5-0.2h-0.4c-0.1,0-0.2,0-0.3,0
				c-0.2,0.1-0.3,0.3-0.4,0.5C49.7,15.7,49.8,15.6,49.9,15.6z M69.2,86.1c0.8-0.3,1.7-0.6,2.6-0.8c-2.6-4.3-7-7.1-12-7.7
				c0.5,0.6,0.9,1.3,1.2,2.1l0.2,0.8C64.4,81.3,67.3,83.3,69.2,86.1z M29,38.1c0.2,0.9,0.7,1.7,1.4,2.3c1.2-1.4,2.8-2.6,4.5-3.4
				c0-1,0.2-2,0.6-3C33,34.9,30.8,36.3,29,38.1L29,38.1z M50.8,35.1c0.4-0.5,0.9-1,1.3-1.5H52c-0.8-0.2-1.6-0.3-2.4-0.2L49.1,34
				C49.7,34.4,50.2,34.7,50.8,35.1L50.8,35.1z M189.6,32.2c-0.6,0.5-1.2,1.1-1.6,1.8c0.6,0.3,1.1,0.6,1.6,1c0.2-0.3,0.5-0.6,0.8-0.8
				l0,0c0-0.3,0-0.6,0-0.8c0-0.3-0.1-0.6-0.2-0.9c-0.1,0.1-0.2,0.1-0.3,0.2C189.8,32.6,189.7,32.5,189.6,32.2z M219.5,45.5
				c-0.3-0.4-0.6-0.8-1-1.1c-0.1,0.7-0.3,1.4-0.5,2v0.1c0,0,0,0.1-0.1,0.2c0.1,0.1,0.2,0.3,0.3,0.4C218.5,46.6,219,46,219.5,45.5
				L219.5,45.5z M45.8,35.5c-0.3,0.3-0.5,0.6-0.6,1c0.6,0.2,1.3,0.5,1.8,0.8v-0.1c0.7-1.1,2.1-1.5,3.2-0.8c0.1,0,0.2,0.1,0.2,0.2
				c-1.1-0.9-2.3-1.6-3.6-2.1C46.5,34.8,46.1,35.2,45.8,35.5L45.8,35.5z M77.5,75.9c0.6-0.6,1.3-1,2.2-1.2c0.1,0,0.2,0,0.3,0
				c-1.2-0.5-2.4-0.9-3.7-0.9c-0.2,0.1-0.3,0.3-0.5,0.4l0,0c0,0,0.1-0.1,0.1-0.2l0,0c0,0,0.1-0.1,0.1-0.2c-0.2,0-0.4,0-0.6,0
				c-3.5,0-6.8,1.7-8.9,4.5c0.6,0.3,1.1,0.7,1.6,1.1c1.7-2.3,4.4-3.7,7.3-3.7C76.1,75.7,76.8,75.8,77.5,75.9L77.5,75.9z M132.5,81.2
				c-0.1-0.1-0.3-0.2-0.4-0.3c-0.8-0.8-1.4-1.9-1.7-3c-1.1-0.2-2.2-0.3-3.2-0.3c-0.8,0-1.7,0.1-2.5,0.2c0,0.1-0.1,0.2-0.1,0.3
				c0,0,0,0.1,0,0.2s-0.1,0.2-0.1,0.2s0,0.1,0,0.2s0,0.2-0.1,0.2s0,0.1,0,0.2s0,0.1,0,0.2s0,0.1,0,0.2s0,0.2,0,0.2v1
				c1-0.2,2-0.3,3.1-0.3C129.2,80.1,130.9,80.5,132.5,81.2L132.5,81.2z M139.2,75.2c-1.3,0.7-2.5,1.8-3.4,3c0,0,0,0.1,0.1,0.2l0,0
				c0.3,0.2,0.6,0.3,0.9,0.5h0.2c0.3,0,0.6-0.4,0.5-0.7c0-0.1,0-0.1-0.1-0.2c-0.1-0.2-0.3-0.2-0.3-0.4c0-0.1,0.1-0.2,0.2-0.3
				c0.4-0.2,0.7,0.3,0.8,0.6c0.1,0.2,0.1,0.3,0.1,0.5c0.7-0.7,1.6-1.3,2.5-1.8C140.4,75.9,139.8,75.5,139.2,75.2L139.2,75.2z
				 M54.1,12.9l0.5,0.2v0.1v0.1c0,0.2,0.1,0.5,0.2,0.9c0.5-0.2,1.1-0.3,1.6-0.5c-0.1-0.7,0-1.3,0.1-2c-1,0.2-2,0.4-3,0.8
				c0.1,0.1,0.3,0.1,0.5,0.2S54.1,12.9,54.1,12.9z M155.8,77.2c0.7-0.3,1.5-0.5,2.3-0.7c0-0.1,0.1-0.2,0.1-0.3
				c-1.4-2.2-3.3-4.1-5.5-5.4c-0.1,0.1-0.2,0.3-0.3,0.4c-0.5,0.6-1.1,1-1.8,1.3C152.7,73.7,154.5,75.3,155.8,77.2z M179.4,75.7
				c2.9,0,5.6,1.4,7.2,3.7c0.5-0.4,1-0.7,1.6-1.1c-0.8-1.1-1.7-2-2.8-2.7c-0.1,0-0.3,0-0.5-0.1s-0.1,0-0.1,0c-0.2,0-0.4-0.1-0.5-0.2
				c0-0.1-0.1-0.1-0.1-0.2l0,0l-0.1-0.2l0,0c-0.1,0-0.1-0.1-0.2-0.2l0,0c-0.1-0.1-0.2-0.2-0.3-0.2c-4.7-1.9-10-0.4-13,3.7
				c0.6,0.3,1.1,0.6,1.6,1C173.9,77.1,176.6,75.7,179.4,75.7L179.4,75.7z M217.3,40.8c0,0-0.1,0-0.1-0.1c-0.1-0.1-0.2-0.1-0.3-0.2
				l-0.4-0.2c0,0.1,0.1,0.2,0.1,0.2L217.3,40.8z M40.6,75.7c2.9,0,5.6,1.4,7.2,3.7c0.5-0.4,1-0.7,1.6-1c-1.7-2.3-4.2-3.9-7-4.4
				c0,0.1,0,0.2,0.1,0.3c0,0.1,0,0.2,0.1,0.3l0,0c0,0.1,0.1,0.2,0.1,0.3c0,0,0,0,0,0.1s0.1,0.2,0.1,0.2s0,0,0,0.1s0.1,0.1,0.1,0.2
				c0,0,0,0.1,0.1,0.1s0.1,0.1,0.1,0.2s0.1,0.1,0.1,0.2s0,0.1,0.1,0.1c0.1,0.1,0.2,0.2,0.2,0.3c-1.5-0.6-3.2-0.7-4.8-0.4
				c-1.1,0.2-2.1,0.7-3.1,1.3c-0.6,0.4-1.2,0.9-1.7,1.5c-0.1,0.1-0.2,0.2-0.2,0.3c-0.1,0.1-0.3,0.1-0.5,0.2l0,0l-0.5,0.1
				c0.1,0.1,0.3,0.2,0.5,0.3C35,77,37.7,75.7,40.6,75.7z M144.6,80.2c1.6,0,3.1,0.9,3.9,2.2c0.4-0.5,0.9-1,1.3-1.5
				c-1.8-2.6-5.2-3.5-8-2.1c-0.2,1.1-0.8,2.1-1.8,2.8c0.2,0.2,0.4,0.5,0.6,0.7C141.6,81,143,80.2,144.6,80.2L144.6,80.2z M61,8.9
				c-0.6,0-1.2,0.2-1.7,0.5c1.2,0.1,2.4,0.4,3.6,0.8c0-0.1-0.1-0.2-0.1-0.3c-0.1-0.2-0.1-0.4-0.3-0.5c-0.1-0.1-0.3-0.2-0.5-0.3
				C61.6,9,61.3,8.9,61,8.9z M33.3,49.3c0.9,0,1.8,0.1,2.7,0.3l0,0c0.3,0,0.6,0.1,0.8,0.2c-0.3-0.4-0.5-0.8-0.8-1.2
				c-0.8-0.6-1.5-1.4-2-2.2c-1.5-1.4-3.2-2.5-5.1-3.2c-1.2,0-2.3,0.1-3.4,0.5c-0.8,0.3-1.6,0.6-2.4,1C27.1,44.7,30.8,46.4,33.3,49.3
				z M160.6,76L160.6,76c0-0.8,0.6-1.4,1.4-1.4c0.8,0,1.4,0.6,1.4,1.4l0,0v0.1c0.3,0,0.6,0,0.9,0.1c0,0,0.3-0.5,0.4-0.7
				c-0.1-0.6-0.4-1.1-0.9-1.5c-1.3-0.1-2.6,0.3-3.6,1.1c-0.3,0.2-0.5,0.5-0.7,0.7c0.1,0.1,0.1,0.3,0.2,0.4
				C160,76.1,160.3,76,160.6,76z M29.4,41.8c0.2-0.3,0.4-0.5,0.6-0.8c-0.7-0.6-1.2-1.4-1.5-2.3c-0.6,0.7-1.2,1.5-1.6,2.3
				C27.7,41.2,28.6,41.4,29.4,41.8z M157.2,81L157.2,81c0-0.1,0-0.3,0-0.4V80c0-0.6,0.1-1.1,0.3-1.7c-3.8,1.1-7.1,3.7-9.2,7.1
				c0.9,0.2,1.7,0.4,2.6,0.8C152.4,83.8,154.6,82,157.2,81z M57.2,13.5c0,0.1,0,0.1,0,0.2c0.3,0,0.5,0,0.8,0c0.2,0,0.5,0,0.7,0
				c0-0.2,0-0.5,0-0.7c0.2-0.5,0.6-0.9,1.1-1.1c-0.6-0.1-1.3-0.2-1.9-0.2h-0.6C57.2,12.3,57.1,12.9,57.2,13.5z M158.1,2.8
				c0.1-0.2,0.3-0.5,0.5-0.6c-0.1,0-0.2-0.1-0.3-0.2l0,0c-0.1,0-0.2-0.1-0.3-0.1l0,0c-0.1,0-0.2,0-0.3-0.1l0,0c-0.1,0-0.2,0-0.3,0
				C157.5,2.1,157.8,2.5,158.1,2.8z M63.1,8.6c0,0.1,0,0.2,0.1,0.4c0,0,0,0.1,0.1,0.1c0,0.1,0,0.1,0,0.2c0,0.1,0,0.1,0.1,0.2
				c0.2,0.4,0.4,0.7,0.7,1c0.5,0.6,1.4,0.8,2.2,0.5c0.6-0.4,0.8-1,0.7-1.7c-0.5-0.3-1-0.6-1.5-0.9c0,0,0,0,0,0.1s0,0.2,0.1,0.2
				c0.1,0.2,0.1,0.4-0.1,0.5h-0.1c-0.3,0.1-0.5-0.2-0.6-0.5c-0.1-0.2,0-0.5,0.1-0.7c-0.5-0.3-1.1-0.5-1.6-0.7
				C63,7.8,63,8.2,63.1,8.6L63.1,8.6z M169.9,15.2c-0.1,0-0.2,0-0.3,0h-0.4c0.1,0.1,0.3,0.1,0.5,0.2h0.1l0.3,0.1
				c0.1,0,0.1,0,0.2,0.1C170.2,15.5,170.1,15.3,169.9,15.2z M162.4,24.4c-0.2,0.1-0.4,0.2-0.6,0.3l0,0c-0.7,0.4-1.2,0.9-1.8,1.5l0,0
				c-0.1,0.1-0.2,0.2-0.3,0.3l0,0c-0.2,0.2-0.3,0.4-0.5,0.7c0.9-0.2,1.8-0.3,2.7-0.3c4.5,0,8.7,2.3,11.2,6c0.8-0.3,1.7-0.6,2.6-0.8
				C172.9,27.5,167.9,24.5,162.4,24.4L162.4,24.4z M163.4,5.1L163.4,5.1c0.3,0.1,0.6,0.1,0.9,0.2V5.2c-0.1,0-0.3-0.1-0.5-0.1
				C163.6,5.1,163.5,5.1,163.4,5.1L163.4,5.1z M63.5,6.1c0.2,0.1,0.5,0.2,0.7,0.3c0.7-1.1,1.6-2,2.5-2.8C65.3,3.8,64.1,4.8,63.5,6.1
				L63.5,6.1z M139,5.6c-0.1,0.1-0.2,0.2-0.3,0.3L138.6,6c-0.1,0.1-0.2,0.2-0.3,0.4l0,0c-0.1,0.1-0.2,0.2-0.3,0.4s0,0.1-0.1,0.1
				c-0.1,0.1-0.1,0.2-0.2,0.3l0,0c-0.1,0.1-0.1,0.3-0.2,0.4l0,0c0,0.1-0.1,0.3-0.2,0.4s0,0,0,0.1s-0.1,0.2-0.1,0.4l0,0
				c1.7-2.3,4.4-3.7,7.2-3.7c0.7,0,1.3,0.1,2,0.2c-0.5-0.5-1-1-1.6-1.3l0,0c-1.9-0.3-3.9,0.2-5.4,1.4L139,5.4
				C139.1,5.5,139,5.6,139,5.6L139,5.6z M92.8,80.1c0.5,0,1,0,1.5,0.1v-0.3c0-0.7-0.2-1.4-0.5-2c0-0.1-0.1-0.2-0.1-0.3
				c-0.3,0-0.6,0-0.9,0c-1.7,0-3.5,0.3-5.1,0.8c-0.2,0.9-0.7,1.7-1.3,2.4c-0.3,0.4-0.7,0.7-1.1,1c-1.4,1-3.1,1.5-4.8,1.3
				c-0.6,0.7-1.1,1.4-1.6,2.2H79c0.7-0.2,1.4-0.1,2.1,0.2c0.2,0.1,0.4,0.2,0.5,0.4C84.2,82.3,88.3,80.1,92.8,80.1L92.8,80.1z
				 M148.3,0.3c-0.1,0-0.3,0.1-0.4,0.2c-0.1,0-0.1,0-0.2,0c-0.1,0.1-0.3,0.1-0.4,0.2c1.7,0.4,3.4,1.1,4.8,2.1c1-0.1,2.1,0.2,3,0.8
				s1.6,1.4,2,2.4c0.4-0.1,0.8-0.2,1.1-0.3c-0.8-1.3-1.7-2.4-2.8-3.5c-0.2,0.1-0.4,0.2-0.6,0.3l0,0c-0.1,0-0.1,0.1-0.2,0.2
				s-0.2,0.1-0.3,0.2c-1.1-2-3.2-3.1-5.5-2.7L148.3,0.3C148.4,0.2,148.3,0.2,148.3,0.3z M163.5,12.7c0.1,0.4,0.1,0.8,0,1.2
				c0.6,0.1,1.1,0.2,1.6,0.5c0.1-0.3,0.2-0.6,0.2-0.9v-0.1v-0.1l0.5-0.2h0.1c0.1-0.1,0.3-0.1,0.5-0.2c-0.9-0.4-2-0.7-3-0.8
				C163.5,12.2,163.5,12.4,163.5,12.7L163.5,12.7z M66.5,7.4c0.6,0.3,1.1,0.7,1.6,1.1c0.9-1.2,2-2.1,3.3-2.7
				c-0.1-0.2-0.2-0.3-0.3-0.5c-0.3-0.4-0.7-0.7-1.1-1C68.7,5.1,67.5,6.1,66.5,7.4L66.5,7.4z M47.9,26.2c0.1-0.1,0.3-0.2,0.5-0.3
				C48.2,25.9,48,26,47.9,26.2C47.8,26.1,47.8,26.1,47.9,26.2z M167.6,9.3L167.6,9.3c0-0.5-0.1-1-0.3-1.4c0-0.1-0.1-0.2-0.1-0.3
				c-1.7-0.5-3.4-0.8-5.1-0.8c-1.5,0-3,0.2-4.4,0.6c0.1,0.4,0.1,0.8,0,1.2c0.9-0.4,1.9-0.4,2.8-0.1c0.5,0.2,1,0.5,1.4,0.9h0.1
				c0.5,0,1,0,1.5,0.1c0.3-0.1,0.5-0.2,0.8-0.3c0.7-0.1,1.4,0.1,2,0.6c0.1,0.1,0.3,0.2,0.4,0.4c2.6,1,4.9,2.7,6.5,5
				c0.1-0.1,0.2-0.2,0.3-0.3l0,0c0.1-0.1,0.1-0.2,0.2-0.3c0.3-0.5,0.4-1.1,0.4-1.6l0,0c0-0.1,0-0.3,0-0.4l0,0c0-0.2,0-0.3-0.1-0.4
				c-1.2-1.3-2.5-2.3-4-3.2c-0.3,0-0.6,0-0.8,0.1h-0.1c-0.1,0-0.1,0-0.2,0s-0.1,0-0.1,0h-0.1c0,0-0.1,0-0.1,0.1
				c-0.1,0-0.1,0-0.1,0.1c-0.1,0-0.1,0.1-0.2,0.1h-0.1c-0.1,0.1-0.2,0.1-0.3,0.2C167.5,9.3,167.5,9.3,167.6,9.3L167.6,9.3z
				 M51.5,76.7c0.6-0.7,1.4-1.1,2.2-1.4c-1.2-1.7-2.7-3.1-4.4-4.2c-0.2,0.2-0.4,0.5-0.5,0.8c-0.1,0.2-0.1,0.4-0.4,0.4
				c-0.7,0-0.2-1,0-1.3c0.1-0.1,0.1-0.2,0.2-0.2c-0.9-0.5-1.9-1-2.9-1.3c-0.6,0.1-1.1,0.3-1.6,0.5l0,0c-0.1,0.1-0.2,0.1-0.3,0.2
				c0,0-0.1,0-0.1,0.1s-0.1,0.1-0.2,0.2l-0.1,0.1c-0.1,0.1-0.1,0.2-0.2,0.2s0,0.1-0.1,0.1s-0.1,0.2-0.2,0.3l-0.1,0.2
				C46.4,72,49.4,73.9,51.5,76.7L51.5,76.7z M74.8,3L74.8,3L74.8,3c-1.4,0-2.7,0.3-4,0.9c0.5,0.4,1,0.9,1.3,1.5l0.2-0.1
				C72.9,4.4,73.8,3.6,74.8,3L74.8,3z M50.3,32.7c0.8,0,1.7,0.1,2.4,0.4c1.5-1.1,3.4-1.7,5.2-1.7c0.2,0,0.4,0,0.7,0l0,0
				c1-0.8,2.3-1.1,3.5-1l0,0C58.1,28.7,53.5,29.6,50.3,32.7z M182.1,27.5h-0.6c0.8,0.4,1.4,1,1.8,1.8c0.4-0.5,0.8-0.9,1.2-1.4
				c-0.1,0-0.3-0.1-0.4-0.2l0,0c-0.1,0-0.3-0.1-0.4-0.1h-0.1c-0.1,0-0.3,0-0.4-0.1h-0.1c-0.1,0-0.3,0-0.5-0.1
				C182.5,27.5,182.3,27.5,182.1,27.5z M82.3,78.9c0.2-0.3,0.3-0.6,0.3-1c0-1-0.7-2-1.7-2.3c-0.9-0.3-1.9-0.1-2.6,0.5
				C79.9,76.7,81.2,77.6,82.3,78.9z M175.5,36.3L175.5,36.3l1.3-0.3l0,0c0.9-0.7,2.1-0.7,3-0.2c1.5,0,3,0.3,4.5,0.9
				c-0.1-0.9-0.3-1.8-0.6-2.7l-0.1-0.3c-1.4-0.4-2.8-0.6-4.2-0.6c-1.9,0-3.8,0.3-5.5,1C174.5,34.8,175.1,35.5,175.5,36.3L175.5,36.3
				z M159.3,4.5c0.1,0.2,0.3,0.5,0.4,0.7c0.2,0,0.4,0,0.6-0.1c0-0.1,0-0.3,0-0.5l0,0c0-0.2,0-0.3-0.1-0.5l0,0
				c-0.1-0.3-0.2-0.6-0.4-0.8C159.6,3.8,159.4,4.1,159.3,4.5z M76.8,80.4c-0.2-0.5-0.4-1-0.5-1.5c0-0.2,0-0.4,0-0.6
				c-0.3,0-0.7-0.1-1-0.1c-2.1,0-4,1-5.2,2.7c0.4,0.5,0.9,0.9,1.3,1.4c0.8-1.4,2.3-2.3,3.9-2.2C75.9,80.2,76.4,80.3,76.8,80.4
				L76.8,80.4z M58.5,69.5c0.1,0,0.3,0,0.4,0C58.8,69.5,58.6,69.5,58.5,69.5L58.5,69.5z M162.2,80.1c-0.2-0.3-0.3-0.7-0.4-1.1
				c0-0.5,0.1-1.1,0.5-1.5H162c-1.3,0-2.5,0.1-3.7,0.4c-0.3,0.9-0.4,1.8-0.3,2.8C159.3,80.3,160.7,80.1,162.2,80.1L162.2,80.1z
				 M138.1,81.9c-1.9-1.8-4.3-3.2-6.9-3.8c0.5,1.6,1.8,2.9,3.3,3.6C135.7,82.1,137,82.2,138.1,81.9L138.1,81.9z M25.5,40.7
				c0,0,0.3-0.5,0.4-0.7c-0.3-1.3-1.4-2.2-2.7-2.2c-1.3,0-2.4,0.9-2.7,2.2c0.1,0.2,0.3,0.4,0.4,0.7c0.3,0,0.6-0.1,0.9-0.1l0,0
				c-0.1-0.8,0.5-1.4,1.3-1.5s1.4,0.5,1.5,1.3c0,0.1,0,0.2,0,0.2v0.1C24.9,40.6,25.2,40.7,25.5,40.7z M139.3,81l0.2,0.2
				c0.1,0,0.1-0.1,0.1-0.1c0.5-0.4,0.9-0.9,1.1-1.5C140.2,80,139.7,80.4,139.3,81z M151.8,79.3c0.5-0.4,1-0.7,1.6-1.1
				c-3.1-4.3-8.7-5.7-13.5-3.5c0.6,0.4,1.1,0.9,1.4,1.5C145.1,74.8,149.4,76,151.8,79.3z M27.4,75.5c-0.2,0.3-0.4,0.6-0.6,0.9
				c0.3,0.1,0.7,0.2,1,0.3C27.6,76.3,27.5,75.9,27.4,75.5L27.4,75.5z M178,31.7L178,31.7c0-0.8,0.6-1.4,1.4-1.5l0,0
				c0.8,0,1.4,0.6,1.4,1.4l0,0v0.1c0.3,0,0.6,0,0.9,0.1c0,0,0.2-0.4,0.3-0.6c-0.8-0.9-1.8-1.7-2.9-2.3c-1.2,0.1-2.1,1-2.4,2.2
				c0.1,0.2,0.3,0.4,0.4,0.7C177.4,31.7,177.7,31.7,178,31.7z M60.3,80.3c-0.3-1-0.8-2-1.6-2.8c-0.2,0-0.5,0-0.7,0
				c-2.4,0-4.7,0.5-6.9,1.6c-0.1,0.7,0,1.5,0.5,2.1c0.1,0.1,0.2,0.3,0.3,0.4c1.2-0.6,2.5-1.1,3.9-1.3c-0.1-0.3-0.4-0.6-0.8-0.6
				c-0.3,0-0.7,0.1-0.7,0.4c0,0.2-0.1,0.3-0.2,0.4c-0.1,0.1-0.2,0.1-0.3,0c-0.3-0.1-0.2-0.6-0.1-0.9c0.2-0.3,0.5-0.6,0.9-0.7
				c0.8-0.2,1.6,0.2,2,1c0,0.1,0.1,0.1,0.1,0.2c0.3,0,0.8-0.1,1.3-0.1C58.8,80.1,59.6,80.2,60.3,80.3z M78.6,81.5
				c0.3,0.3,0.6,0.5,1,0.6c0.3-0.4,0.7-0.8,1-1.1c-0.8-1.2-2.1-2.1-3.5-2.5c0,0.2,0,0.4,0,0.6C77.4,80.1,77.9,80.9,78.6,81.5
				L78.6,81.5z M27.4,73.3c0.1-0.3,0.2-0.5,0.3-0.8c0.1-0.1,0.1-0.3,0.2-0.4l0.2-0.3c0-0.1-0.1-0.1-0.1-0.2
				c-0.1,0.1-0.2,0.2-0.3,0.3L27.6,72c-0.1,0.1-0.2,0.2-0.3,0.2l-0.1,0.1c-0.1,0.1-0.2,0.2-0.3,0.3l0,0c-0.1,0.1-0.2,0.2-0.3,0.4
				c0.2,0.2,0.4,0.5,0.5,0.8C27.2,73.5,27.3,73.4,27.4,73.3L27.4,73.3z M129.5,76.1c0.1-0.2,0.2-0.3,0.3-0.5c0,0,0,0-0.1,0
				s-0.1,0-0.2,0h-0.2c-0.3,0-0.5-0.1-0.8-0.1h-0.1c0.1,0.2,0.1,0.4,0.1,0.6v0.1C128.9,76.1,129.2,76.1,129.5,76.1L129.5,76.1z
				 M203.1,37.7c-1,1-1.9,2.1-2.6,3.3c0.9,0.2,1.7,0.4,2.6,0.8c0.9-1.3,1.9-2.4,3.2-3.3c-0.1-0.1-0.2-0.1-0.4-0.2h-0.1l-0.3-0.2
				c0,0,0,0-0.1,0c-0.3-0.1-0.7-0.2-1-0.3h-0.1c0,0-0.1,0-0.3,0L203.1,37.7L203.1,37.7z M191.9,36.4c0,0.2,0,0.4,0,0.7
				c0.4,0.4,0.7,0.8,1,1.2c0.8-1.4,2.3-2.3,3.9-2.2c1.6,0,3.1,0.9,3.9,2.3c0.1-0.1,0.2-0.2,0.3-0.3c0-0.3,0-0.5-0.1-0.8
				c0-0.3-0.1-0.5-0.1-0.8c-0.1-0.5-0.3-0.9-0.6-1.4c-1-0.6-2.2-1-3.4-1C194.9,34,193,34.9,191.9,36.4L191.9,36.4z M209,45.6
				c0.5,0.4,0.9,0.9,1.3,1.4c0.2-0.4,0.5-0.8,0.9-1.1c-0.2-0.2-0.5-0.3-0.7-0.5c0,0,0,0-0.1,0c-0.1-0.1-0.2-0.2-0.3-0.3l0,0
				l-0.3-0.3C209.4,45,209.2,45.3,209,45.6L209,45.6z M205.3,42.9c0.6,0.3,1.1,0.6,1.6,1c0.6-0.8,1.3-1.5,2.1-2
				c0-0.2-0.1-0.3-0.1-0.4c-0.2-0.5-0.4-0.9-0.7-1.3C207,40.9,206.1,41.8,205.3,42.9z M183.8,32.3c0.6,0.2,1.3,0.4,1.9,0.6
				c0.7-1,1.5-1.9,2.4-2.7c-0.1-0.1-0.3-0.3-0.5-0.4s-0.3-0.3-0.5-0.4c-0.4-0.3-0.7-0.5-1.1-0.8c-1,0.9-1.9,2-2.6,3.1
				C183.5,31.9,183.6,32.1,183.8,32.3z M191.1,33.5c1.3-1.1,3-1.8,4.7-2c-0.7-0.2-1.5-0.3-2.3-0.2l0,0c-0.1,0-0.2,0-0.2,0
				c-0.1,0-0.1,0-0.2,0H193c-0.1,0-0.2,0-0.3,0l0,0c-0.1,0-0.2,0-0.3,0.1c-0.5,0.1-1,0.3-1.5,0.6C191,32.5,191.1,33,191.1,33.5z
				 M189.4,67.8c0.1,0.1,0.2,0.2,0.3,0.4l0,0l0.2,0.3c0,0,0,0,0,0.1s0.1,0.2,0.2,0.3s0,0.1,0,0.1c0.1,0.2,0.1,0.3,0.1,0.4
				c0.2-0.2,0.4-0.4,0.6-0.6c-0.2-0.2-0.4-0.4-0.6-0.6c-0.1-0.1-0.2-0.2-0.3-0.3l0,0l-0.3-0.2C189.6,67.8,189.5,67.8,189.4,67.8z
				 M213.5,46.7c-1,0.3-1.7,1.1-1.9,2.1c0.1,0.2,0.3,0.4,0.4,0.7c0.3,0,0.6-0.1,0.9-0.1l0,0c0-0.8,0.6-1.4,1.4-1.4l0,0
				c0.5,0,1,0.3,1.2,0.8c0.1-0.1,0.3-0.2,0.4-0.3s0.4-0.4,0.6-0.7c-0.4-0.5-1-0.9-1.7-1C214.3,46.8,213.9,46.7,213.5,46.7z
				 M191,43.2c-1.9,0.7-3.6,1.8-5.1,3.2c-0.5,0.9-1.2,1.7-2.1,2.3c-0.3,0.4-0.5,0.8-0.8,1.1c0.3-0.1,0.6-0.1,0.8-0.2l0,0
				c0.9-0.2,1.8-0.3,2.7-0.3c2.5-2.9,6.2-4.6,10.1-4.6C195,43.8,193,43.2,191,43.2z M175.3,71.8c0-0.1,0.1-0.2,0.1-0.3v-0.1
				c0-0.1,0-0.2,0-0.3V71c0-0.1,0-0.2,0-0.3v-0.4c0-0.1,0-0.2,0-0.3c0-0.1,0-0.2,0-0.3c0-0.2-0.1-0.4-0.2-0.6
				c-3.3,0.9-6.2,2.8-8.4,5.5c0.2,0.3,0.5,0.6,0.6,0.9c0.3,0.5,0.4,1,0.5,1.5c0.1,0,0.2,0.1,0.3,0.1
				C169.9,74.7,172.4,72.8,175.3,71.8z M166.9,78.8c0.1-0.2,0.1-0.3,0.2-0.4c-0.7-0.2-1.5-0.4-2.2-0.6c0.1,0.2,0.1,0.3,0,0.5
				s-0.5,0.2-0.6,0s0-0.3-0.1-0.4s-0.2-0.2-0.4-0.2c-0.3-0.1-0.7,0-0.9,0.3c-0.4,0.6-0.4,1.5,0.1,2c0.1,0.1,0.2,0.1,0.3,0.2
				c0.6,0.1,1.2,0.2,1.7,0.3h0.1C165.9,80.2,166.6,79.6,166.9,78.8L166.9,78.8z M217.7,44c-0.1-0.1-0.3-0.2-0.5-0.3
				c0,0.2,0,0.3-0.1,0.5l0,0c-0.1,0.3-0.2,0.6-0.3,0.9l0,0c-0.1,0.1-0.2,0.3-0.3,0.4c0.2,0.2,0.4,0.3,0.6,0.5
				c0.1-0.2,0.2-0.5,0.3-0.8C217.7,44.8,217.7,44.4,217.7,44L217.7,44z M12.4,50.2c2.2-3,5.6-4.9,9.2-5.4c1.5-1,3.1-1.7,4.8-2.1
				l0.6-0.1c-6.8-1.7-14,1.3-17.6,7.4c0.7,0.2,1.3,0.3,1.9,0.5c0.2,0,0.5-0.1,0.7-0.1C12.1,50.3,12.2,50.2,12.4,50.2z M142,13.5
				c0.1,0.2,0.2,0.3,0.3,0.5c0.3,0,0.6-0.1,0.9-0.1l0,0c0-0.2,0-0.3,0.1-0.5C142.9,13.6,142.5,13.6,142,13.5z M145.3,15.6
				c0.1,0,0.2-0.1,0.2-0.2c-0.3,0-0.6,0-0.9,0c-1.2,0-2.5,0.1-3.7,0.5C142.3,16.6,144,16.4,145.3,15.6L145.3,15.6z M144.7,8.6
				c-1.3-0.3-2.6,0.2-3.4,1.3c-0.2,0.4-0.3,0.8-0.3,1.2c0.9-1.1,2.2-1.8,3.6-1.8c0.7,0,1.4,0.1,2,0.5C146.1,9.2,145.5,8.8,144.7,8.6
				L144.7,8.6z M143.2,12.6c0.3-0.2,0.6-0.9,0.2-1.2l0,0c-0.6,0.3-1,0.7-1.2,1.3C142.5,12.9,142.9,12.9,143.2,12.6L143.2,12.6z
				 M144.6,11.1c-0.2,0-0.3,0-0.5,0c0,0,0,0,0,0.1c0.2,0.4,0.2,0.9,0,1.3c0.1,0,0.3-0.1,0.4-0.1c0.8,0,1.4,0.6,1.4,1.4l0,0v0.1
				c0.3,0,0.6,0,0.9,0.1c0,0,0-0.1,0.1-0.1c0.1-0.3,0.2-0.5,0.3-0.8C146.8,11.9,145.8,11.2,144.6,11.1L144.6,11.1z M62.1,20.2
				L62.1,20.2c0.3-0.4,0.6-0.8,1-1.1c-0.6-0.8-1.4-1.5-2.3-2c-0.3,0.1-0.6,0.1-0.9,0.2c-0.8,0-1.6-0.3-2.3-0.9
				c-0.6,0-1.2,0.1-1.8,0.3c0.1,0.1,0.2,0.3,0.3,0.4l0,0c0.3,0.4,0.7,0.9,1.1,1.2c0.2,0,0.4,0,0.6,0c1.5,0,2.9,0.7,3.7,1.9h0.1
				C61.8,20.1,62,20.1,62.1,20.2z M172.7,36.9c0.1,0.1,0.2,0.3,0.3,0.5c0.6-0.3,1.2-0.6,1.8-0.8c-0.4-0.8-1-1.6-1.8-2.1
				c-1.3,0.6-2.5,1.3-3.6,2.2C170.5,35.9,171.8,36,172.7,36.9L172.7,36.9z M162.1,16.4c-0.6,0.5-1.4,0.8-2.1,0.8
				c-0.3,0-0.6,0-0.9-0.2c-0.9,0.5-1.7,1.2-2.2,2c0.4,0.4,0.7,0.8,1,1.1l0,0c0.1,0,0.2,0,0.3,0h0.2c0.8-1.2,2.2-2,3.7-2
				c0.2,0,0.4,0,0.6,0c0.4-0.4,0.8-0.8,1.1-1.2l0.3-0.4c-0.6-0.2-1.2-0.3-1.8-0.3C162.1,16.4,162.1,16.4,162.1,16.4z M148.6,5.7
				c1.3,0.6,2.4,1.6,3.2,2.7c0.5-0.4,1-0.7,1.6-1.1c-0.9-1.3-2.1-2.4-3.5-3.2c-0.4,0.3-0.7,0.6-1,0.9C148.8,5.4,148.7,5.6,148.6,5.7
				z M172.3,26c-0.2-0.1-0.3-0.1-0.5-0.2C171.9,25.9,172.1,26,172.3,26C172.2,26.1,172.3,26.1,172.3,26z M150.8,15.2
				c0.9-1.3,1.9-2.4,3.1-3.3h-0.1c-0.6-0.2-1.1-0.7-1.4-1.3c-0.1-0.2-0.1-0.4-0.1-0.6c-1.6,1.2-3,2.8-4,4.5
				C149.1,14.7,150,14.9,150.8,15.2z M136.5,19.1l0.4,0.1c0.1,0,0.1,0,0.2,0l0.6,0.1c0.1,0,0.1,0,0.2,0c0.2,0,0.4,0,0.5,0h0.1
				c4.2-2.1,9.2-1.9,13.1,0.6c0.4-0.2,0.7-0.5,1-0.8l0.1-0.1c0-0.1,0-0.1,0-0.2c0.2-0.4,0.3-0.8,0.3-1.2c-0.8-0.5-1.6-0.9-2.5-1.3
				c-0.2,0.3-0.2,0.6,0,0.9c0,0.1,0.1,0.2,0.2,0.3c0.1,0.1,0.2,0.1,0.3,0.2s0.2,0.3,0.1,0.5c-0.2,0.5-0.7,0.1-1-0.2
				c-0.5-0.5-0.6-1.3-0.3-1.9c-1.1-0.4-2.2-0.6-3.3-0.8c-1.1,1.1-2.6,1.6-4.1,1.5c-0.9-0.1-1.8-0.4-2.6-0.9
				c-1.7,0.5-3.3,1.3-4.7,2.3c0.1,0,0.1,0.1,0.2,0.1s0.2,0.1,0.3,0.2c0.1,0,0.1,0.1,0.2,0.1c0.1,0.1,0.3,0.1,0.5,0.2
				S136.5,19.1,136.5,19.1L136.5,19.1z M74,13.9L74,13.9c0-0.7,0.5-1.4,1.2-1.4c0.2,0,0.4,0,0.5,0.1c-0.2-0.4-0.2-1,0-1.4
				c-0.1,0-0.3,0-0.5,0c-1.2,0-2.3,0.8-2.6,2c0.1,0.3,0.2,0.6,0.3,0.9l0,0C73.4,14,73.7,14,74,13.9L74,13.9z M76.6,11.4L76.6,11.4
				c-0.6,0.4-0.1,1.2,0.4,1.3c0.3,0.1,0.6,0.1,0.9,0C77.6,12.2,77.2,11.7,76.6,11.4L76.6,11.4z M77.6,14c0.1-0.2,0.2-0.3,0.3-0.5
				c-0.4,0.1-0.8,0.1-1.2-0.1c0,0.1,0.1,0.3,0.1,0.5V14C77.1,14,77.4,14,77.6,14L77.6,14z M60.5,13.5c0.2-0.1,0.4,0,0.4,0.2
				c0,0.1,0,0.1,0,0.2c0,0.1,0,0.2-0.1,0.3c0.5,0.2,0.9,0.4,1.4,0.6c0.1-0.4,0-0.9-0.2-1.3c-0.4-0.6-1.1-1-1.8-0.8
				c-0.4,0.1-0.6,0.3-0.8,0.7c0,0.2,0,0.4,0.1,0.5L60,14C60.2,13.8,60.3,13.6,60.5,13.5L60.5,13.5z M66,11.9c1.2,0.9,2.3,2,3.1,3.3
				c0.8-0.3,1.7-0.6,2.6-0.8c-1.1-1.8-2.4-3.3-4.1-4.5C67.5,10.8,67,11.6,66,11.9C66.1,11.9,66.1,11.9,66,11.9L66,11.9z M77.1,8.7
				c-1.3-0.4-2.8,0-3.7,1c0.6-0.3,1.3-0.5,1.9-0.5c1.4,0,2.8,0.7,3.6,1.8c0-0.3-0.1-0.7-0.2-1C78.4,9.4,77.8,8.9,77.1,8.7L77.1,8.7z
				 M79.1,15.9c-1.2-0.3-2.5-0.4-3.7-0.5c-0.3,0-0.6,0-0.9,0c0.8,0.6,1.8,0.8,2.8,0.8C77.9,16.3,78.5,16.2,79.1,15.9L79.1,15.9z
				 M70.2,17.6c-0.1,0.2-0.2,0.4-0.4,0.6c-0.2,0.2-0.4,0.3-0.6,0.4c-0.2,0-0.3-0.1-0.4-0.3c0-0.3,0.1-0.3,0.3-0.5
				c0.4-0.3,0.5-0.8,0.3-1.2c-0.9,0.3-1.7,0.8-2.5,1.3c0,0.4,0.1,0.8,0.3,1.1c0,0.1,0,0.1,0,0.2l0.1,0.1c0.3,0.3,0.7,0.5,1,0.8
				c4-2.5,8.9-2.7,13.1-0.6h0.2c0.1,0,0.3,0,0.5,0s0.1,0,0.2,0l0.6-0.1c0.1,0,0.1,0,0.2,0l0.4-0.1c0.1,0,0.1,0,0.2-0.1
				c0.2-0.1,0.3-0.1,0.5-0.2c0.1,0,0.1-0.1,0.2-0.1s0.2-0.1,0.3-0.2s0.1-0.1,0.2-0.1c-1.4-1.1-3-1.9-4.7-2.4
				c-0.6,0.4-1.3,0.7-2.1,0.8c-1.7,0.3-3.4-0.2-4.6-1.4c-1.1,0.1-2.2,0.4-3.3,0.8C70.3,16.8,70.3,17.2,70.2,17.6L70.2,17.6z
				 M149.2,3.9c-1.3-0.6-2.6-0.9-4-1l0,0c0,0,0,0,0,0.1c1,0.5,1.9,1.3,2.5,2.3c0.1,0,0.1,0,0.2,0.1C148.3,4.8,148.7,4.3,149.2,3.9
				L149.2,3.9z M122.6,80.4L122.6,80.4c-0.2,0-0.4-0.1-0.5-0.1l0,0c-0.1,0-0.3,0-0.5-0.1h-0.1c-0.2,0-0.3,0-0.5,0h-0.7
				c-0.2,0-0.4,0-0.6,0h-0.1c-0.2,0-0.4,0-0.6,0.1c-0.1,0-0.3,0-0.5,0.1l-0.5,0.1c-1.8,1.3-3.4,2.9-4.5,4.9c0.7,0.2,1.3,0.3,2,0.6
				c0-0.1,0.1-0.2,0.2-0.3l0.2-0.3l0.1-0.1c0.1-0.1,0.1-0.2,0.2-0.2l0.1-0.1c0.1,0,0.1-0.1,0.2-0.2s0.1-0.1,0.1-0.2s0.1,0,0.1-0.1
				c0.1-0.1,0.3-0.2,0.5-0.3h0.1c0,0,0.2-0.1,0.3-0.2s0.1,0,0.1,0l0.3-0.1c1.5-1.5,3.4-2.5,5.5-3.1c-0.1,0-0.3-0.1-0.4-0.1
				s0,0-0.1,0C122.9,80.6,122.8,80.4,122.6,80.4z M83.9,87.2c0.6,0.3,1.1,0.7,1.6,1.1c1.7-2.3,4.4-3.7,7.3-3.7c0.4,0,0.9,0,1.3,0.1
				c0.1-0.2,0.1-0.3,0.1-0.3v-0.1c0.2-0.1,0.4-0.3,0.6-0.4c0.1,0,0.1-0.1,0.2-0.1c0.1-0.1,0.3-0.2,0.4-0.2l0.2-0.1l0.6-0.2
				c-1.1-0.4-2.3-0.6-3.5-0.6C89.3,82.6,86,84.3,83.9,87.2z M82.7,88.1c0,0.3,0,0.7-0.1,1c0,0.2-0.1,0.5-0.2,0.7c0,0,0,0,0.1,0
				s0,0,0.1,0s0.4,0.1,0.7,0.2l0,0c0.8,0.2,1.7,0.3,2.6,0.2C84.9,89.4,83.8,88.7,82.7,88.1L82.7,88.1z M101,79.8
				c-0.3-0.1-0.6-0.1-0.8-0.2l0,0c-0.1,0-0.2,0-0.3,0l0,0c-0.1,0-0.2,0-0.3,0c-0.3,0-0.5,0-0.8,0h-0.3c-0.2,0-0.3,0-0.5,0
				c-0.1,0-0.2,0-0.3,0c-0.1,0-0.3,0-0.4,0s-0.2,0-0.3,0s-0.3,0-0.4,0.1c-0.1,0-0.2,0.1-0.3,0.1c-0.1,0-0.2,0.1-0.3,0.1
				c-0.1,0-0.2,0-0.3,0.1s-0.1,0-0.2,0l-0.6,0.2c2.4,0.4,4.7,1.4,6.6,2.9l0.5,0.2l0.1,0.1c0.1,0,0.2,0.1,0.3,0.2
				c0.1,0,0.1,0.1,0.2,0.2l0.1,0.1l0.3,0.3l0.1,0.1c0.1,0.1,0.2,0.2,0.2,0.3c0.1,0.1,0.1,0.2,0.2,0.4l0,0c0.1,0.1,0.1,0.3,0.1,0.4
				c0.2,0.2,0.4,0.5,0.5,0.7c0.7-0.3,1.4-0.5,2.1-0.6c0-0.1,0.1-0.2,0.1-0.3c0-0.1,0-0.2,0.1-0.3C105,82.8,103.1,81,101,79.8
				L101,79.8z M115.4,88.6c0-0.1-0.1-0.3-0.1-0.4v-0.1c0-0.1,0-0.2,0-0.3v-0.1c0-0.2,0-0.3,0-0.4c-0.8-0.3-1.6-0.5-2.5-0.7
				c0.1,0.3,0.3,0.6,0.5,0.9s0.4,0.6,0.7,0.9l0,0l0.4,0.4c0,0,0,0,0.1,0s0.3,0.3,0.5,0.4s0,0,0.1,0s0.3,0.2,0.4,0.3s0.1,0,0.1,0.1
				s0.3,0.2,0.5,0.3c0,0,0-0.1-0.1-0.1l0,0c0,0,0-0.1-0.1-0.2s0,0,0,0c0-0.1-0.1-0.2-0.1-0.3l0,0c0-0.1-0.1-0.2-0.1-0.3
				c0,0,0,0,0-0.1C115.5,88.8,115.5,88.7,115.4,88.6L115.4,88.6z M78.4,87.8c0.1,0.4,0.4,0.6,0.7,0.7c0.2,0,0.5,0,0.6,0.3
				c0.1,0.2,0,0.4-0.2,0.4l0,0h-0.1c-0.9,0-1.7-0.7-1.8-1.7c0-0.3,0.1-0.7,0.2-1c-0.8-0.1-1.5-0.2-2.3-0.2c-0.6,0-1.1,0-1.7,0.1
				c0,0.1,0,0.1,0,0.2v0.1c0,0.1,0,0.2,0,0.2V87c0,0.1,0,0.2,0,0.2v0.1c0,0.2,0.1,0.4,0.2,0.6c0,0.1,0.1,0.2,0.1,0.3v0.1
				c0,0.1,0.1,0.2,0.1,0.3c0,0,0,0,0,0.1s0.1,0.2,0.2,0.3h0.8c2.1,0,4.1,0.5,5.9,1.4c0.1,0,0.1,0,0.2-0.1s0-0.1,0-0.2
				c0.4-0.7,0.6-1.5,0.4-2.3c-1.1-0.5-2.2-0.8-3.4-1.1C78.2,87.1,78.2,87.4,78.4,87.8L78.4,87.8z M51.2,82c-0.5-0.7-0.8-1.6-0.8-2.5
				c-2.1,1.1-3.9,2.7-5.3,4.6c0.1,0.1,0.3,0.3,0.4,0.4l0.1,0.1c0.1,0.1,0.2,0.2,0.4,0.3c0,0,0.1,0,0.1,0.1l0.5,0.3c0,0,0,0,0.1,0
				c0.2,0.1,0.4,0.2,0.5,0.4C48.2,84.1,49.6,82.9,51.2,82L51.2,82z M60.1,84.6c0.2-0.5,0.4-1.1,0.5-1.7c-0.8-0.2-1.7-0.3-2.5-0.3
				c-0.9,0-1.7,0.1-2.5,0.3c-0.4,0.3-0.9,0.4-1.4,0.4c-1.8,0.7-3.4,1.9-4.6,3.4c0,0,0,0,0.1,0l0.7,0.2c0.1,0,0.1,0,0.2,0
				c0.2,0.1,0.4,0.1,0.7,0.2c0.1,0,0.1,0,0.2,0s0.2,0,0.3,0c1.7-1.7,4-2.7,6.4-2.7C58.7,84.4,59.4,84.5,60.1,84.6
				C60,84.6,60.1,84.7,60.1,84.6L60.1,84.6z M61.3,83.1c-0.1,0.6-0.3,1.3-0.5,1.9c1.8,0.6,3.4,1.7,4.5,3.2c0.5-0.4,1-0.7,1.6-1.1
				C65.5,85.2,63.6,83.8,61.3,83.1L61.3,83.1z M74.1,84.8c-0.1-0.8,0.5-1.4,1.3-1.5s1.4,0.5,1.5,1.3c0,0.1,0,0.2,0,0.2v0.1
				c0.3,0,0.6,0,0.9,0.1c0,0,0.3-0.5,0.5-0.7c-0.3-1.5-1.8-2.4-3.3-2.1c-1,0.2-1.9,1.1-2.1,2.1c0.1,0.2,0.3,0.4,0.4,0.7h0.4
				c0.1-0.2,0.2-0.4,0.3-0.6c0,0-0.1,0.3-0.1,0.5C73.9,84.8,74,84.8,74.1,84.8L74.1,84.8z M66.9,88.8c0.2,0,0.4,0,0.6-0.1
				c0.1,0,0.1,0,0.2,0s0.3,0,0.5-0.1s0.1,0,0.2,0l0.4-0.1c0.1,0,0.1,0,0.2-0.1c0.1,0,0.3-0.1,0.4-0.2c0.1,0,0.1-0.1,0.2-0.1
				s0.3-0.1,0.4-0.2l0.2-0.1c0.1-0.1,0.3-0.1,0.4-0.2l0.2-0.1c0.1-0.1,0.3-0.2,0.5-0.3s0.1,0,0.1-0.1c0.2-0.1,0.4-0.3,0.5-0.4
				C70.1,87.2,68.4,87.8,66.9,88.8L66.9,88.8z M184.5,80.8c-2.1-2.8-6.1-3.3-8.9-1.2c0,0,0,0-0.1,0.1c0.7,0.3,1.4,0.6,2.2,0.9
				c0.6-0.2,1.2-0.3,1.8-0.3c1,0,2,0.3,2.8,0.9c0.2,0,0.5,0,0.7-0.1c0.1,0,0.2,0,0.3,0h0.3c0.2,0,0.5-0.1,0.7-0.2
				C184.3,80.8,184.4,80.8,184.5,80.8L184.5,80.8z M167.9,78.6c-0.1,0.6-0.4,1.1-0.8,1.5c-0.2,0.3-0.5,0.5-0.8,0.7
				c1.8,0.6,3.4,1.5,4.8,2.7c0.2-0.1,0.4-0.3,0.6-0.4l0,0c0.1-0.1,0.3-0.2,0.5-0.3l0.1-0.1c0.1-0.1,0.3-0.2,0.4-0.3l0,0
				c0.1-0.1,0.3-0.2,0.4-0.4C171.5,80.5,169.7,79.4,167.9,78.6L167.9,78.6z M40.7,78.3c-2.1,0-4,1-5.2,2.7c0.5,0.5,0.9,0.9,1.3,1.4
				c1.3-2.2,4.1-2.9,6.2-1.6c0.7,0.4,1.2,0.9,1.6,1.6c0.4-0.5,0.9-1,1.3-1.5C44.7,79.3,42.7,78.3,40.7,78.3L40.7,78.3z M192.8,71.5
				c0-0.2-0.1-0.3-0.1-0.4c-0.4,0.3-0.7,0.7-1,1.1c0.4,0.4,0.8,0.9,1.2,1.3c0-0.2,0.1-0.5,0.1-0.7v-0.4c0-0.1,0-0.3,0-0.4
				S192.8,71.7,192.8,71.5L192.8,71.5z M190.3,72.9c0,0.1-0.1,0.2-0.1,0.3c0,0.1-0.1,0.2-0.2,0.3c-0.1,0.1-0.2,0.3-0.3,0.4
				s0,0.1-0.1,0.1s-0.2,0.2-0.2,0.3l-0.1,0.1c-0.1,0.1-0.2,0.2-0.3,0.2l-0.1,0.1c-0.1,0.1-0.2,0.2-0.4,0.3c0.7,0.7,1.4,1.5,2,2.3
				h0.1c0.3-0.3,0.6-0.6,0.9-1c0.3-0.3,0.5-0.6,0.7-1C191.7,74.3,191,73.6,190.3,72.9z M204.1,52.8c0.5-0.4,1-0.7,1.6-1
				c-3.5-4.9-10.3-6-15.2-2.5c-0.1,0.1-0.1,0.1-0.2,0.2c0.5,0,0.9,0.1,1.3,0.2c0.1,0,0.2,0,0.3,0l0.5,0.1c0.3,0.1,0.6,0.1,0.8,0.2
				c1.2-0.5,2.5-0.8,3.8-0.8C199.7,49.2,202.4,50.5,204.1,52.8L204.1,52.8z M138.1,85.7c0.1,0.1,0.2,0.3,0.3,0.4l1.4-0.4l-0.3-0.1
				C139,85.4,138.5,85.5,138.1,85.7z M213.8,51.7c0,0,0.1-0.1,0.1-0.2c0,0,0-0.1,0.1-0.1c0-0.1,0.1-0.1,0.1-0.2c0,0,0,0,0-0.1
				c0,0,0.1-0.1,0.1-0.2l0,0v-0.1c0.2,0,0.4,0,0.6,0h0.1c0.2,0,0.4,0,0.5-0.1c-0.4,0.1-0.7,0-1.2,0c-0.3,0-0.7,0-1,0
				c-0.9,0.3-1.9,0.4-2.8,0.4c-2.6,0.7-5,2-7,3.8c0.2,0.1,0.4,0.1,0.6,0.2c0.1,0,0.1,0,0.2,0.1c0.1,0,0.2,0.1,0.3,0.1s0.1,0,0.2,0
				c0.2,0,0.3,0.1,0.5,0.1c0.1,0,0.1,0,0.2,0s0.2,0,0.3,0h1c1.6-1,3.3-1.7,5.2-2c0.1,0,0.1-0.1,0.1-0.1c0.1-0.1,0.1-0.1,0.2-0.2
				c0.1-0.1,0.1-0.1,0.2-0.2l0.2-0.2l0.1-0.2l0.2-0.2l0.1-0.1c0.1-0.1,0.1-0.2,0.2-0.2s0.1-0.1,0.1-0.2 M135.4,89.8
				c0.1,0,0.2,0,0.3-0.1l0,0c0.1,0,0.1,0,0.3-0.1l0,0c0.1,0,0.1,0,0.2-0.1s0,0,0.1,0s0.1,0,0.1,0h0.1c-0.1-0.1-0.1-0.3-0.2-0.4
				c0-0.1-0.1-0.2-0.1-0.3c-0.6,0.4-1.3,0.9-1.9,1.3C134.7,90,135.1,89.9,135.4,89.8L135.4,89.8z M136.6,82.8
				c-0.6,0-1.2-0.1-1.7-0.3c1,0.7,2,1.6,2.7,2.6c0.3-0.2,0.6-0.3,0.9-0.3c0.8-0.1,1.6,0.1,2.1,0.6c0.1,0,0.2,0,0.3-0.1
				c-0.6-1-1.4-2-2.2-2.8C138.1,82.7,137.4,82.9,136.6,82.8z M153.1,87.2c0.1,0,0.1,0.1,0.2,0.2c1.8-0.4,3.4-1.4,4.6-2.8l0,0
				c0-0.1,0.1-0.1,0.2-0.1l0.1-0.1c0,0,0-0.1,0.1-0.1s0.1-0.1,0.1-0.1l0,0c-0.1-0.2-0.3-0.4-0.4-0.6C156,84.3,154.4,85.5,153.1,87.2
				z M146.9,84.9c0,0,0.3-0.5,0.5-0.7c-0.3-1.3-1.4-2.2-2.7-2.2s-2.4,0.9-2.7,2.2c0.1,0.2,0.3,0.4,0.4,0.7c0.3,0,0.6-0.1,0.9-0.1
				l0,0c-0.1-0.8,0.5-1.4,1.3-1.5s1.4,0.5,1.5,1.3c0,0.1,0,0.2,0,0.2v0.1C146.3,84.9,146.6,84.9,146.9,84.9L146.9,84.9z M162,82.6
				c-1.1,0-2.3,0.2-3.3,0.5c0.2,0.3,0.4,0.6,0.6,0.9c0.1,0.1,0.1,0.2,0,0.2s0,0,0.1,0s0.1,0.1,0.2,0.1h0.1c0.1,0,0.2,0.1,0.2,0.1
				s0.1,0,0.2,0.1s0.1,0,0.2,0.1l0.2,0.1h0.1c0.5-0.1,0.9-0.1,1.4-0.1c1.2,0,2.3,0.2,3.4,0.7c0.1,0,0.2,0,0.4,0c0.1,0,0.2,0,0.3,0
				s0.2,0,0.3,0c0.6-0.1,1.3-0.2,1.9-0.4l0,0C166.5,83.4,164.3,82.7,162,82.6L162,82.6z M124.5,22.2c0.1,0.2,0.3,0.4,0.4,0.7
				c0.3,0,0.6-0.1,0.9-0.1l0,0c0-0.7,0.4-1.2,1.1-1.3c-0.4-0.3-0.8-0.6-1.2-1C125.1,20.9,124.7,21.5,124.5,22.2z M82.6,13.6
				c-0.3,0.6-0.7,1.1-1.1,1.6c0,0,0.1,0,0.1,0.1c0.9-1.3,2-2.5,3.3-3.4c-0.1-0.1-0.3-0.2-0.4-0.3s0,0-0.1,0
				c-0.1-0.1-0.2-0.2-0.4-0.3c0,0-0.1,0-0.1-0.1L83.7,11l-0.1-0.1l0,0C83.4,11.9,83,12.8,82.6,13.6L82.6,13.6z M83.9,16.3
				c0.6,0.3,1.1,0.6,1.6,1c0.4-0.6,0.9-1.1,1.5-1.6c0-0.2,0-0.5,0-0.7l0,0c0-0.1,0-0.2,0-0.2s0,0,0-0.1s0-0.1-0.1-0.2
				c0-0.2-0.1-0.3-0.1-0.4s0-0.1-0.1-0.2s0-0.1-0.1-0.2s0,0,0-0.1C85.6,14.4,84.7,15.3,83.9,16.3L83.9,16.3z M31.9,30.2
				c0.9,0.8,1.7,1.7,2.4,2.7c0.6-0.2,1.2-0.4,1.8-0.6c0.1-0.2,0.3-0.4,0.4-0.6c-0.8-1.1-1.6-2.2-2.6-3.1c-0.4,0.2-0.8,0.5-1.1,0.8
				c-0.2,0.1-0.3,0.3-0.5,0.4C32.2,29.9,32.1,30.1,31.9,30.2z M40.2,29.3c-0.8,0.5-1.6,1.1-2.2,1.9l0.3,0.6c0.3,0,0.6-0.1,0.9-0.1
				l0,0c-0.1-0.8,0.5-1.4,1.3-1.5s1.4,0.5,1.5,1.3c0,0.1,0,0.2,0,0.2v0.1c0.3,0,0.6,0,0.9,0.1c0,0,0.3-0.5,0.5-0.7
				c-0.3-1.2-1.2-2-2.4-2.1C40.6,29.1,40.4,29.2,40.2,29.3z M44.5,29.3c0.4-0.5,0.8-1,1.3-1.4c-0.1-0.1-0.2-0.3-0.3-0.4
				c-0.1,0.1-0.3,0.3-0.4,0.4l0,0C44.8,28.4,44.6,28.8,44.5,29.3L44.5,29.3z M177.1,40.5c0.8-0.2,1.6-0.3,2.4-0.3
				c1.2,0,2.4,0.2,3.5,0.7c0.5-0.4,0.9-1,1.1-1.6c-0.9-0.4-2-0.8-3-0.9c-0.1,0.5-0.4,0.9-0.7,1.2c-0.3,0.2-0.9,0.7-1.2,0.3
				c-0.1-0.1-0.1-0.4,0-0.5s0.2-0.1,0.3-0.2c0.2,0,0.3-0.1,0.4-0.2c0.2-0.2,0.4-0.5,0.5-0.8c-0.3,0-0.6,0-0.9,0
				c-1,0-2.1,0.1-3.1,0.4c0,0.1,0,0.3,0,0.4C176.5,39.7,176.7,40.2,177.1,40.5z M175.5,29.3L175.5,29.3c-0.2-0.5-0.4-1-0.7-1.3l0,0
				c-0.1-0.2-0.2-0.3-0.4-0.4c-0.1,0.1-0.2,0.2-0.3,0.4C174.6,28.3,175.1,28.8,175.5,29.3z M138.4,15.2h0.1l-0.3-0.3
				c-0.9-1.1-1.5-2.5-1.7-4l0,0c0,0.1-0.1,0.1-0.1,0.1l-0.3,0.2c0,0-0.1,0-0.1,0.1l-0.4,0.3c0,0,0,0-0.1,0c-0.1,0.1-0.3,0.2-0.4,0.3
				C136.4,12.7,137.5,13.9,138.4,15.2z M134.4,17.3c0.5-0.4,1-0.7,1.6-1c-0.7-1-1.6-1.9-2.6-2.6c0,0,0,0,0,0.1c0,0-0.1,0.1-0.1,0.2
				c0,0,0,0.1-0.1,0.2c-0.1,0.1-0.1,0.3-0.1,0.4c0,0.1,0,0.2-0.1,0.2v0.1c0,0.1,0,0.2,0,0.2l0,0c0,0.2,0,0.5,0,0.7
				C133.6,16.3,134,16.8,134.4,17.3L134.4,17.3z M9.7,47c0.4-0.5,0.9-1,1.3-1.5c-0.2-0.3-0.5-0.6-0.7-0.9c-0.1,0.1-0.2,0.2-0.3,0.3
				l0,0c-0.1,0.1-0.2,0.2-0.3,0.3l-0.1,0.1c-0.2,0.2-0.5,0.3-0.7,0.5C9.2,46.2,9.5,46.6,9.7,47z M9.7,51.4c-0.4,0-0.8,0-1.2-0.1
				c-0.5-0.1-1.1-0.2-1.6-0.4c-0.4,0-0.7,0-1.1,0s-0.8,0-1.2,0c0.2,0,0.3,0,0.5,0.1l0,0c0.2,0,0.4,0,0.6,0v0.1l0,0
				c0,0,0,0.1,0.1,0.2s0,0,0,0.1s0.1,0.1,0.1,0.2s0,0.1,0.1,0.1s0.1,0.1,0.1,0.1c0,0.1,0.1,0.1,0.1,0.2l0.2,0c0,0.1,0.1,0.1,0.1,0.2
				c0,0.1,0.1,0.1,0.1,0.2c0,0.1,0.1,0.1,0.2,0.2c0,0.1,0.1,0.1,0.2,0.2L7.2,53c0,0,0.1,0.1,0.1,0.2l0.2,0.2
				c0.1,0.1,0.1,0.1,0.2,0.2l0.1,0.1c1.8,0.3,3.6,1,5.2,2h1c0.1,0,0.2,0,0.3,0s0.2,0,0.3,0s0.3,0,0.5-0.1s0.1,0,0.2,0
				c0.1,0,0.2,0,0.3-0.1c0.1,0,0.1,0,0.2,0c0.2-0.1,0.5-0.1,0.6-0.2C14.6,53.4,12.2,52.1,9.7,51.4L9.7,51.4z M27.8,49.8l0.5-0.1
				c0.1,0,0.2,0,0.3,0c0.4-0.1,0.8-0.2,1.3-0.2c-4.8-3.7-11.7-2.7-15.3,2.1c-0.1,0.1-0.1,0.1-0.2,0.2c0.6,0.3,1.1,0.6,1.6,1
				c1.7-2.3,4.4-3.7,7.3-3.7c1.3,0,2.6,0.3,3.7,0.8C27.2,49.9,27.5,49.8,27.8,49.8L27.8,49.8z M3.6,47.7c0.3,0.4,0.6,0.7,0.9,1.1
				C4.7,48.3,5.2,48,5.7,48c0.8,0,1.4,0.6,1.4,1.4l0,0v0.1c0.3,0,0.6,0,0.9,0.1c0,0,0.3-0.5,0.5-0.7c-0.2-1-1-1.8-2-2.1H5.9
				c-0.2,0-0.4,0-0.6-0.1C4.6,46.8,4,47.1,3.6,47.7L3.6,47.7z M25.9,75.4c-0.1-0.3-0.2-0.6-0.3-0.8c0,0.1-0.1,0.2-0.1,0.3
				s0,0.1,0,0.1s0,0.2-0.1,0.2s0,0.1,0,0.2s0,0.1,0,0.2s0,0.3,0,0.4v0.1c0.1,0,0.2,0,0.3,0C25.6,76.1,25.8,75.6,25.9,75.4L25.9,75.4
				z M29.7,33.4c0,0.2,0,0.5,0,0.7l0.8,0.9c0.5-0.4,1-0.7,1.6-1.1c-0.5-0.7-1-1.3-1.6-1.8c-0.1,0.1-0.2,0.3-0.2,0.4
				c-0.1-0.1-0.2-0.1-0.3-0.2C29.8,32.8,29.7,33.1,29.7,33.4L29.7,33.4z M36.3,84.3c-2.5-3.7-6.5-6.1-10.9-6.7
				c0.1,0.4,0.3,0.8,0.6,1.2c0.1,0.1,0.2,0.3,0.3,0.4c0.4,0.5,0.8,1,1.3,1.5c1.7,0.6,3.4,1.5,4.7,2.8l1,0.3h0.1l0.4,0.1h0.1l0.5,0.1
				c0.2,0,0.4,0.1,0.7,0.1c0.1,0,0.2,0,0.3,0s0.2,0,0.3,0L36.3,84.3z M28.9,33.5L28.9,33.5c0-0.6,0.2-1,0.3-1.4
				c-0.5-0.3-1-0.4-1.5-0.6l0,0c-0.1,0-0.2,0-0.3-0.1h-0.1c-0.1,0-0.2,0-0.3,0h-0.1c-0.1,0-0.1,0-0.2,0s-0.1,0-0.2,0h-0.1
				c-0.8-0.1-1.5,0-2.3,0.2C25.9,31.8,27.6,32.4,28.9,33.5L28.9,33.5z M19.2,38.2c1.3-2.2,4-2.9,6.2-1.7c0.7,0.4,1.3,1,1.7,1.7
				c0.3-0.4,0.6-0.8,1-1.2c0-0.2,0-0.4,0-0.6c-1.2-1.5-3.1-2.4-5-2.4c-1.2,0-2.4,0.4-3.4,1c-0.2,0.4-0.4,0.9-0.5,1.4
				c-0.1,0.2-0.1,0.5-0.1,0.7c0,0.3-0.1,0.5-0.1,0.8C19,38,19.1,38.1,19.2,38.2z M17,41.7c0.8-0.3,1.7-0.6,2.6-0.8
				c-0.7-1.2-1.6-2.3-2.7-3.3h-0.6c-0.1,0-0.2,0-0.2,0c-0.1,0-0.2,0-0.3,0h-0.1c-0.3,0.1-0.7,0.2-1,0.3c0,0,0,0-0.1,0
				S14.4,38,14.3,38c0,0,0,0-0.1,0s-0.2,0.1-0.4,0.2C15.1,39.2,16.2,40.4,17,41.7L17,41.7z M40.6,82c-1.3,0-2.4,0.9-2.7,2.2l0,0
				c0.5-0.1,1.1-0.2,1.6-0.3c0.3-0.3,0.7-0.6,1.1-0.6c0.1,0,0.3,0,0.4,0c0.6-0.2,1-0.4,1.5-0.7C41.9,82.2,41.3,82,40.6,82L40.6,82z
				 M13,43.9c0.5-0.4,1-0.7,1.6-1c-0.8-1.1-1.7-2-2.8-2.7c-0.3,0.4-0.5,0.8-0.7,1.3C11,41.6,11,41.8,11,41.9
				C11.7,42.4,12.4,43.1,13,43.9z M156.7,36.8c0.3,0.3,0.6,0.6,0.9,0.9c0.1-0.8,0.5-1.5,1.1-2c0.9-0.9,2.2-1.3,3.5-1
				c0-0.2-0.1-0.4-0.1-0.6H162C159.9,34,157.9,35.1,156.7,36.8z M64.5,20L64.5,20c0.1,0,0.3,0,0.4-0.1H65c0.1,0,0.2-0.1,0.3-0.1h0.1
				c0.1,0,0.2-0.1,0.3-0.1c0,0,0,0,0.1,0s0.2-0.1,0.3-0.1c0,0,0,0,0.1,0s0.1,0,0.2-0.1s0,0,0,0c0.1,0,0.1-0.1,0.2-0.1
				c-0.1-0.3-0.2-0.7-0.3-1c-0.7,0.5-1.4,1.1-2.1,1.7C64.2,20.1,64.4,20,64.5,20z M32.8,41.6c0.1,0,0.2,0,0.3,0
				c0.2,0,0.3,0.1,0.4,0.3c0,0.1,0,0.3,0,0.4c0,0.2,0,0.3,0,0.4s0.1,0.5,0.1,0.7c0.8-0.9,1.7-1.6,2.7-2.1c-0.4-0.5-0.8-1-1-1.7
				C34.4,40.2,33.5,40.8,32.8,41.6z M50.9,40.5c0.4-0.8,0.4-1.7,0-2.4c-0.5-1-1.7-1.4-2.7-0.9c-0.2,0.1-0.4,0.4-0.5,0.6
				C48.9,38.5,49.9,39.5,50.9,40.5z M50.5,57.9c0.1,0,0.2,0,0.3,0c0.2,0,0.3,0,0.5,0h0.6c0.1,0,0.3,0,0.5,0h0.1
				c0.4,0,0.8-0.1,1.2-0.2c-3-4.2-7.9-6.7-13.1-6.7h-0.2h0.1c0.1,0.1,0.3,0.1,0.4,0.2c0.1,0,0.1,0.1,0.2,0.1c0.1,0,0.2,0.1,0.3,0.2
				l0.2,0.1c0.1,0.1,0.3,0.1,0.4,0.2s0.1,0,0.1,0.1c0.1,0.1,0.2,0.1,0.3,0.2c0,0,0.1,0,0.1,0.1c0.1,0,0.2,0.1,0.2,0.2
				c0,0,0.1,0,0.1,0.1s0.2,0.1,0.3,0.2s0.1,0.3,0.2,0.5c0,0.1,0.1,0.2,0.1,0.2c0,0.1,0.1,0.2,0.1,0.3c0.1,0.2,0.3,0.4,0.4,0.6
				C46.6,54.6,48.8,55.9,50.5,57.9z M44.3,46.3c-0.1,0-0.2,0-0.3,0.1c0.2,0.2,0.3,0.4,0.5,0.6c0.4-0.5,0.9-1,1.3-1.5
				c-0.6-0.8-1.4-1.5-2.3-2c-0.4,0.3-0.7,0.7-0.7,1.2s0.5,0.9,1,0.9c0.2,0,0.5-0.2,0.5-0.4c0.1-0.2,0.3-0.2,0.5-0.1
				c0,0,0.1,0,0.1,0.1C45.4,45.6,44.6,46.2,44.3,46.3z M52.2,77c0.7-0.3,1.4-0.5,2.2-0.6c-0.1-0.1-0.2-0.3-0.3-0.4
				c-0.4,0.1-0.7,0.2-1.1,0.4C52.7,76.6,52.4,76.8,52.2,77z M75.4,68.6c-0.2,0-0.4,0-0.7,0c0.1,0.9,0,1.8-0.4,2.6c0.4,0,0.7,0,1.1,0
				c0.6,0,1.2,0,1.7,0.1c0.3-0.8,0.4-1.7,0.4-2.6C76.9,68.7,76.1,68.6,75.4,68.6L75.4,68.6z M57.4,55.6c-0.8,0.1-1.4,0.6-1.8,1.3
				c0.1-0.1,0.2-0.1,0.3-0.2s0.1-0.1,0.2-0.1s0.1-0.1,0.2-0.2l0.3-0.2c0.1,0,0.1-0.1,0.2-0.2c0.1-0.1,0.2-0.2,0.3-0.3l0.1-0.1
				C57.3,55.7,57.4,55.6,57.4,55.6L57.4,55.6z M66.8,69.5c-0.7-1-1.6-1.9-2.6-2.6c-0.1,0.7-0.1,1.3,0.1,2c0,0.2,0.1,0.5,0.2,0.7
				c0.3,0.3,0.6,0.7,0.8,1C65.8,70.1,66.3,69.8,66.8,69.5L66.8,69.5z M189.6,40.4c0.6-0.6,1.1-1.3,1.3-2.1v-0.1
				c-1.8-1.9-4-3.3-6.4-4.1c0.1,0.3,0.2,0.6,0.3,0.9c0.2,0.7,0.3,1.3,0.3,2C186.8,37.8,188.3,39,189.6,40.4z M72.2,21.4h0.5
				c0.2,0,0.3,0,0.5,0s0.5,0,0.7-0.1H74c0.2,0,0.5-0.1,0.6-0.2s0,0,0.1,0c0.4-0.1,0.8-0.3,1.2-0.5h-0.6c-1.3,0-2.7,0.2-3.9,0.8
				c0.1,0,0.2,0,0.3,0h0.1C72,21.4,72.1,21.4,72.2,21.4L72.2,21.4z M70.1,70.2c-0.4,0.2-0.9,0.1-1.4-0.1c-1,0.5-2,1.1-3,1.8
				c0.7,0.7,1.5,1.2,2.4,1.5c1.6-1,3.4-1.7,5.2-1.9c0.3-0.4,0.5-0.9,0.6-1.4c0.1-0.4,0.1-0.9,0-1.3c-1.1,0.1-2.1,0.3-3.2,0.6
				C70.7,69.7,70.4,70,70.1,70.2z M87.2,76.1L87.2,76.1c-1.1-2.6-3.7-4.2-6.5-4.3c-0.1,0-0.3,0-0.5,0c-0.1,0-0.3,0-0.4,0
				c2.8,1,5.2,2.8,6.8,5.2l0.6-0.2V76.1z M159.8,12.6c-0.7-0.2-1.4,0.1-1.8,0.8c-0.3,0.4-0.4,0.9-0.3,1.4c0.4-0.2,0.9-0.4,1.4-0.6
				c0-0.1-0.1-0.1-0.1-0.2c0-0.2,0.1-0.4,0.3-0.4h0.1c0.3,0,0.3,0.3,0.5,0.4l0.5-0.1c0.1-0.1,0.1-0.3,0.1-0.5
				C160.4,13,160.1,12.7,159.8,12.6z M153.2,16.2l0.2,0.3c0.5,0.3,0.9,0.6,1.3,0.9c0.6-0.9,1.4-1.6,2.3-2.2
				c-0.1-0.2-0.1-0.4-0.1-0.6c-0.1-0.7,0.2-1.4,0.7-1.9C155.9,13.5,154.3,14.7,153.2,16.2z M162,29.5c-1.5,0-2.9,0.3-4.3,0.9
				c0.2,0,0.4,0,0.6,0c1.1,0,2.2,0.4,3,1.1c0.2,0,0.4,0,0.7,0c1.9,0,3.8,0.5,5.3,1.6c0.8-0.3,1.6-0.5,2.4-0.4
				C167.7,30.6,164.9,29.5,162,29.5z M191,39.8c-0.3,0.4-0.6,0.8-1,1.2l0.6,0.8c0.8-0.3,1.7-0.6,2.6-0.8c-0.5-0.8-1-1.6-1.6-2.3
				C191.4,39.1,191.2,39.5,191,39.8L191,39.8z M171.2,42c1.1,0.1,2.2-0.2,3-0.9c0.5-0.5,0.9-1.2,1-1.9
				C173.6,39.8,172.3,40.8,171.2,42L171.2,42z M83,79c0.4-0.3,0.8-0.5,1.2-0.8c-0.3-0.4-0.6-0.8-1-1.2c0.1,0.4,0.2,0.7,0.1,1.1
				C83.3,78.5,83.2,78.8,83,79L83,79z M187.8,42.2c-0.2,0-0.4,0.1-0.6,0.2c0,0.4-0.1,0.8-0.1,1.2c0.1-0.1,0.2-0.1,0.3-0.2
				c0.1,0,0.2-0.1,0.3-0.2l0.6-0.4C188.1,42.6,188,42.4,187.8,42.2z M87.9,75.8c0,0.3,0,0.6,0,0.9c0.4-0.1,0.8-0.2,1.2-0.3
				c-0.2-0.3-0.4-0.6-0.6-1l0,0c-0.1,0-0.2,0.1-0.3,0.1s-0.1,0-0.1,0c-0.1,0-0.1,0.1-0.2,0.1l0,0C87.9,75.8,87.9,75.8,87.9,75.8
				L87.9,75.8z M84.4,81.6c1.1-0.7,2-1.7,2.4-2.9c-2.1,0.9-4,2.1-5.5,3.8C82.4,82.5,83.4,82.2,84.4,81.6L84.4,81.6z M90.1,75.4
				c0.1,0.2,0.3,0.4,0.4,0.7c0.3,0,0.6-0.1,0.9-0.1l0,0c0-0.1,0-0.3,0.1-0.4l-0.2-0.1l-0.5-0.1h-0.1c-0.1,0-0.3,0-0.4,0H90.1
				C90.1,75.3,90.1,75.3,90.1,75.4L90.1,75.4z M65.3,62.6l0.6-0.7c-1.1-0.6-2.2-1.1-3.4-1.4h-0.1c-0.1,0-0.2,0-0.3,0.1H62
				c-0.1,0-0.2,0-0.3,0.1s-0.1,0-0.2,0.1s-0.1,0-0.2,0.1S61,61,60.8,61.1s-0.4,0.2-0.5,0.3s-0.1,0-0.1,0.1s-0.3,0.2-0.4,0.3
				s0,0-0.1,0c-0.3,0.2-0.6,0.5-0.9,0.7c2,0.1,3.9,0.6,5.6,1.6C64.6,63.4,65,63,65.3,62.6z M70.6,65.9c-0.9,0.1-1.7,0.8-2,1.7
				c0.2,0.3,0.4,0.5,0.6,0.8c0.2-0.1,0.4-0.1,0.6-0.2c0-0.1,0.1-0.1,0.2-0.2c0.1,0,0.2,0,0.3,0c0.5-0.2,1-0.3,1.5-0.4
				C71.4,67,71,66.5,70.6,65.9L70.6,65.9z M52.5,51c0.8-1,2.1-1.6,3.4-1.7c0.7-0.2,1.4-0.3,2.1-0.3c2.7,0,5.2,1.2,6.9,3.2H65h0.1
				c0,0,0.3-0.1,0.5-0.2s0.1,0,0.1,0s0.4-0.2,0.6-0.3l0.4-0.2c-2-2.8-5.3-4.5-8.8-4.5c-0.2,0-0.4,0-0.6,0c-0.6,0.5-1.4,0.6-2.1,0.3
				c-2.5,0.6-4.7,2.1-6.2,4.2c0.6,0.3,1.1,0.6,1.6,1C51.2,52.1,51.8,51.5,52.5,51L52.5,51z M59.8,31.6c2.2,0.4,4.2,1.7,5.5,3.5
				c0.5-0.4,1-0.7,1.6-1c-0.8-1.1-1.8-2-2.9-2.8c0,0.1-0.1,0.1-0.1,0.2c-0.2,0.2-0.5,0-0.7-0.2C62,31,60.8,31,59.8,31.6L59.8,31.6z
				 M59.7,35.5c-1.3-0.4-2.7-0.1-3.6,0.8c0.6-0.3,1.3-0.4,2-0.4c1.4,0,2.8,0.7,3.7,1.8C61.4,36.7,60.7,35.9,59.7,35.5L59.7,35.5z
				 M56.7,40.5c0-0.8,0.6-1.4,1.4-1.4c0.8,0,1.4,0.6,1.4,1.4l0,0v0.1c0.3,0,0.6,0,0.9,0.1c0,0,0.3-0.5,0.5-0.7
				c-0.3-1.5-1.8-2.4-3.3-2.1c-1,0.2-1.9,1.1-2.1,2.1c0.1,0.2,0.3,0.4,0.4,0.7C56,40.6,56.3,40.6,56.7,40.5L56.7,40.5z M73.3,67
				c-0.1-0.2-0.3-0.3-0.5-0.5C72.9,66.7,73.1,66.9,73.3,67C73.3,67.1,73.3,67.1,73.3,67C73.3,67.1,73.3,67.1,73.3,67z M60,34.9
				c1.2,0.5,2.1,1.6,2.3,2.8c0.3-0.3,0.5-0.6,0.9-0.9C62,35.1,60,34,57.9,34h-0.1c-0.1,0.2-0.1,0.4-0.1,0.6
				C58.5,34.5,59.3,34.6,60,34.9z M40.6,42.9c-2.1,0-4,1-5.2,2.7c0.5,0.4,0.9,0.9,1.3,1.4c0.8-1.4,2.3-2.3,3.9-2.2
				c0.5,0,1.1,0.1,1.6,0.3c-0.1-0.7,0.2-1.3,0.6-1.8C42.1,43,41.3,42.9,40.6,42.9z M46.4,42.4c0.5,0.4,1,1,1.4,1.5
				c0.5-0.4,1-0.7,1.6-1l-0.1-0.2C48.4,43,47.3,42.9,46.4,42.4L46.4,42.4z M55.5,35.9c0.4-0.5,0.9-0.8,1.5-1c0-0.3,0-0.5,0.1-0.8
				c-0.8,0.1-1.5,0.3-2.2,0.7C55.2,35.2,55.4,35.5,55.5,35.9L55.5,35.9z M55.1,37C55,36.9,55,36.8,55,36.7c0-0.3-0.1-0.5-0.2-0.8
				c-0.1-0.2-0.2-0.5-0.4-0.7c-0.6,0.4-1.2,0.9-1.6,1.6c0.5,0.4,0.9,0.9,1.3,1.4C54.4,37.8,54.7,37.3,55.1,37L55.1,37z M51.1,37.1
				c0.9,1.2,1,2.7,0.3,4c0.1,0.2,0.3,0.4,0.4,0.6c0.8-0.3,1.7-0.6,2.6-0.8C53.5,39.5,52.4,38.2,51.1,37.1L51.1,37.1z M62.6,41.2
				c0.5,0.1,1.1,0.3,1.6,0.5c1.1-1.6,2.5-3,4.2-4.1c-0.2-0.2-0.3-0.3-0.5-0.5c-0.2-0.1-0.4-0.3-0.6-0.5v-0.1l0,0v-0.1v-0.1v-0.1
				v-0.1V36v-0.1v-0.1v-0.1c0,0,0-0.1,0-0.2v-0.1c0-0.1,0-0.2,0-0.2v-0.1c-2,1.2-3.7,2.9-5,4.9c-0.1,0.3-0.2,0.6-0.4,0.9
				C62.2,41,62.4,41.1,62.6,41.2z M70.2,63.2c0.5,0.5,0.9,1,1.3,1.5c0.6-1,1.6-1.8,2.7-2.1l0,0c-0.1-0.1-0.3-0.2-0.4-0.3
				s-0.1-0.1-0.2-0.1s-0.2-0.1-0.3-0.2s-0.3-0.1-0.4-0.2l-0.2-0.1c-0.2-0.1-0.5-0.2-0.7-0.3C71.3,62,70.7,62.6,70.2,63.2L70.2,63.2z
				 M66.5,42.8c0.6,0.3,1.1,0.6,1.6,1c0.7-0.9,1.6-1.8,2.6-2.4c0-0.2-0.1-0.4-0.2-0.5c0-0.1-0.1-0.2-0.1-0.3v-0.1
				c-0.1-0.3-0.3-0.5-0.4-0.8C68.6,40.4,67.4,41.5,66.5,42.8L66.5,42.8z M68.1,66.9c0.1-0.2,0.2-0.4,0.4-0.6c0.4-0.5,1-0.8,1.6-1
				c-1-1.2-2.2-2.2-3.5-3c0,0-0.1,0.1-0.1,0.2c-0.6,0.6-1,1.2-1.4,1.9C66.2,65.1,67.2,65.9,68.1,66.9L68.1,66.9z M46.4,47.8
				c0.2-0.3,0.4-0.7,0.5-1.1c-0.8,0.8-1.5,1.6-2.1,2.6C45.4,48.9,45.9,48.4,46.4,47.8z M57.6,44.7H58c1.3,0,2.7,0.2,3.9,0.6
				c0,0,0.1,0,0.1-0.1c0.8-0.5,1.2-1.4,1-2.3c-1.6-0.5-3.3-0.8-5-0.8c-3.8,0-7.4,1.3-10.3,3.8c0,0.4-0.1,0.9-0.2,1.3
				c-0.5,1.3-1.5,2.4-2.9,2.9c0.7,0.2,1.5,0.4,2.2,0.7C49.2,47.1,53.2,44.8,57.6,44.7z M63.9,43.2c0,0.9-0.4,1.8-1.1,2.4
				c2.4,0.9,4.5,2.5,6,4.6c0.2-0.2,0.4-0.4,0.6-0.6c0,0,0,0,0-0.1c0.2-0.2,0.3-0.4,0.5-0.7c0.1-0.2,0.2-0.4,0.3-0.6s0.1-0.2,0.1-0.3
				C68.6,45.8,66.4,44.2,63.9,43.2z M68.5,61.1c-0.3,0-0.5,0-0.8,0.1v0.1c0.1,0.1,0.3,0.2,0.4,0.3L68.5,61.1z M70.2,45.6
				c0.3,0.3,0.5,0.5,0.7,0.8c0-0.2,0.1-0.3,0.1-0.5s0-0.3,0.1-0.4v-0.1c0-0.3,0.1-0.6,0.1-0.9C70.8,44.8,70.4,45.2,70.2,45.6
				L70.2,45.6z M60.2,52.3c0,0,0,0.1,0,0.2c0.2,0,0.5,0.1,0.7,0.1H61c0.1,0,0.1,0,0.3,0c-0.3-0.2-0.7-0.4-1.1-0.5
				C60.1,52.1,60.2,52.2,60.2,52.3L60.2,52.3z M59.5,52.6c-0.1-0.3-0.2-0.5-0.4-0.7c-0.3-0.1-0.7-0.1-1-0.1c-2.1,0-4,1-5.2,2.7
				c0.3,0.3,0.6,0.6,0.9,1c0,0,0,0,0.1,0c0.2,0,0.4,0.1,0.6,0.1c0.3-0.4,0.7-0.8,1.1-1.1c0-0.3,0-0.6-0.2-0.8l0,0l0,0
				c-0.1-0.2-0.1-0.4,0.1-0.5c0.1-0.1,0.2-0.1,0.3-0.1c0.3,0.1,0.5,0.6,0.6,0.9v0.1c0.6-0.3,1.2-0.4,1.8-0.4c0.3,0,0.6,0,0.9,0.1
				c0,0,0.1-0.1,0.1-0.2c0.1-0.1,0.2-0.3,0.3-0.4c0.1-0.1,0.1-0.3,0.2-0.4c0,0,0-0.1,0.1-0.2L59.5,52.6z M77.1,66.1
				c-0.1-0.2-0.2-0.4-0.3-0.6c0-0.1-0.1-0.1-0.1-0.2c-0.1-0.1-0.1-0.2-0.2-0.3c0-0.1-0.1-0.2-0.1-0.2s-0.1-0.2-0.2-0.3
				c0,0-0.1-0.1-0.1-0.2c-0.2,0-0.4-0.1-0.6-0.1c-1,0-1.9,0.6-2.4,1.5c0.3,0.2,0.6,0.4,0.8,0.7c0.1,0.1,0.2,0.3,0.3,0.4
				c0.1-0.8,0.8-1.3,1.5-1.2c0.7,0.1,1.3,0.7,1.2,1.4v0.1c0.2,0,0.4,0,0.6,0.1c0-0.2-0.1-0.3-0.1-0.5c0,0,0,0,0-0.1
				C77.2,66.4,77.1,66.3,77.1,66.1L77.1,66.1z M171.8,37.2c-0.4-0.3-0.9-0.3-1.4-0.2c-1.1,0.4-1.7,1.4-1.6,2.5c0,0.3,0.1,0.7,0.3,1
				c0.9-1.1,2-2,3.2-2.8C172.2,37.5,172,37.3,171.8,37.2z M172.2,43.9c0.4-0.6,0.9-1.1,1.4-1.5c-0.8,0.4-1.8,0.6-2.7,0.4
				c-0.1,0-0.2,0-0.2-0.1c0,0.1-0.1,0.1-0.1,0.2C171.1,43.2,171.6,43.5,172.2,43.9L172.2,43.9z M179.4,46.6c-1.3,0-2.4,0.9-2.7,2.2
				c0.1,0.2,0.3,0.4,0.4,0.7c0.3,0,0.6-0.1,0.9-0.1l0,0c-0.1-0.8,0.5-1.4,1.3-1.5s1.4,0.5,1.5,1.3c0,0.1,0,0.2,0,0.2v0.1h0.1
				c0.3-0.1,0.7-0.3,1-0.4c0-0.1,0.1-0.1,0.1-0.2C181.8,47.6,180.7,46.6,179.4,46.6L179.4,46.6z M186.3,43.5L186.3,43.5
				c0.1-0.4,0.1-0.7,0.1-1.1s0-0.5,0.2-0.7c0.2-0.1,0.4-0.1,0.6-0.1c-0.8-0.8-1.6-1.5-2.6-2c-0.2,0.6-0.6,1.2-1,1.7
				C184.7,41.8,185.6,42.6,186.3,43.5z M153.1,34c0.6,0.3,1.1,0.6,1.6,1c1.3-1.8,3.3-3,5.5-3.5c0,0-0.1,0-0.1-0.1
				c-0.6-0.3-1.2-0.4-1.8-0.4c-0.3,0-0.7,0-1,0.1c-0.2,0-0.3,0.1-0.4,0.2c-0.1,0-0.3,0.2-0.4,0.2c-0.2,0-0.4-0.1-0.5-0.2
				C154.9,32,153.9,33,153.1,34z M151.8,43.9c0.5-0.4,1-0.7,1.6-1c-0.9-1.3-2.1-2.3-3.4-3.1c-0.1,0.3-0.3,0.5-0.4,0.8v0.1
				c0,0-0.1,0.2-0.1,0.4s-0.1,0.3-0.2,0.5C150.3,42.2,151.1,43,151.8,43.9z M140.2,66.5c0,0.2-0.1,0.4-0.1,0.6l0,0
				c0,0.2,0,0.4,0,0.6c0.3-0.1,0.5-0.1,0.8-0.2C140.7,67.2,140.5,66.8,140.2,66.5z M166.6,61.5h-0.1c0,0-0.2-0.1-0.3-0.1
				s-0.1,0-0.2,0c-0.1,0-0.1,0-0.2-0.1s-0.1,0-0.2,0s-0.1,0-0.2,0s-0.1,0-0.2,0c-0.1,0-0.1,0-0.2,0h-0.8c-0.1,0-0.2,0-0.3,0h-0.1
				c-0.1,0-0.2,0-0.3,0.1c-1,0.2-1.9,0.7-2.6,1.3c0.4,0,0.8-0.1,1.2-0.1c2.6,0,5.2,0.8,7.4,2.2c-0.2-0.5-0.4-0.9-0.6-1.3
				c-0.1-0.1-0.2-0.2-0.3-0.4l-0.1-0.1c-0.1-0.1-0.1-0.2-0.2-0.3l-0.1-0.1l-0.2-0.2l-0.1-0.1c-0.1-0.1-0.2-0.1-0.3-0.2l-0.1-0.1
				l-0.4-0.2C166.9,61.7,166.7,61.6,166.6,61.5L166.6,61.5z M153.5,19.4c0.1,0,0.1,0.1,0.2,0.1h0.1c0.1,0,0.1,0,0.2,0.1
				c0,0,0,0,0.1,0s0.2,0.1,0.3,0.1c0,0,0,0,0.1,0s0.2,0,0.2,0.1s0.1,0,0.1,0c0.1,0,0.2,0.1,0.3,0.1h0.1c0.1,0,0.2,0,0.3,0.1h0.1
				c0.1,0,0.2,0.1,0.3,0.1c-0.6-0.6-1.3-1.2-2.1-1.7C153.8,18.6,153.7,19,153.5,19.4L153.5,19.4z M144.6,62.5c1.6,0,3.1,0.9,3.9,2.2
				c0.4-0.5,0.8-1,1.3-1.4c-1.1-1.5-2.8-2.5-4.6-2.7h-0.1c-0.2,0.1-0.4,0.2-0.6,0.3l0,0l-0.6,0.3c0,0,0,0-0.1,0
				c-0.2,0.1-0.3,0.2-0.5,0.3l-0.1,0.1c-0.1,0.1-0.3,0.2-0.4,0.3l-0.2,0.2c-0.1,0.1-0.2,0.2-0.3,0.3c-0.1,0.2-0.3,0.3-0.4,0.4l0,0
				c-0.3,0.4-0.6,0.8-0.8,1.2C141.9,63.1,143.2,62.5,144.6,62.5L144.6,62.5z M159.4,61.5L159.4,61.5c-0.1-0.1-0.1-0.2-0.2-0.3
				l-0.1-0.1l-0.2-0.2l-0.1-0.1c-0.1-0.1-0.2-0.2-0.3-0.2l0,0c-0.1-0.1-0.2-0.2-0.4-0.3c-1.8,0.5-3.5,1.2-5,2.3
				c0.5,0.8,0.8,1.6,1,2.4c1.8-1.3,3.9-2.2,6.1-2.5c-0.2-0.3-0.3-0.5-0.5-0.8l0,0C159.6,61.7,159.5,61.6,159.4,61.5L159.4,61.5z
				 M146.9,67.2c0,0,0.3-0.5,0.5-0.7c0.1-0.7-0.4-1.4-1.1-1.6c-0.6-0.1-1.2,0.2-1.5,0.8c0.7,0.1,1.2,0.6,1.3,1.3v0.1
				C146.3,67.1,146.6,67.2,146.9,67.2z M169.3,35.1c0.5-0.4,1-0.7,1.6-1c-0.1-0.2-0.3-0.4-0.5-0.6c-0.8-0.1-1.7-0.1-2.5,0.2
				C168.4,34.1,168.9,34.6,169.3,35.1z M159.7,74.5c0.2-0.2,0.4-0.3,0.7-0.5c0.6-0.4,1.3-0.6,2-0.8c-0.1,0-0.2,0-0.3,0
				C161.1,73.2,160.2,73.7,159.7,74.5L159.7,74.5z M166.4,57.7c0.4,0.1,0.8,0.2,1.2,0.2h0.1c0.1,0,0.3,0,0.5,0h0.6
				c0.2,0,0.3,0,0.5,0c0.1,0,0.2,0,0.3,0c1.7-1.9,4-3.3,6.5-3.9c0.1-0.2,0.3-0.4,0.4-0.6c0-0.1,0.1-0.2,0.1-0.3l0.1-0.2
				c0.1-0.2,0.1-0.3,0.2-0.5c0.1-0.1,0.2-0.1,0.3-0.2c0,0,0.1,0,0.1-0.1l0.2-0.1c0,0,0.1,0,0.2-0.1l0.3-0.2c0.1,0,0.1-0.1,0.2-0.1
				l0.3-0.2c0.1,0,0.1-0.1,0.2-0.1c0.1,0,0.2-0.1,0.3-0.1l0.2-0.1c0.1,0,0.2-0.1,0.3-0.2c0.1,0,0.1-0.1,0.2-0.1h-0.2
				C174.3,50.9,169.4,53.4,166.4,57.7L166.4,57.7z M162.1,69.5H162c0,0.1,0,0.2,0,0.2c0,0.2-0.2,0.4-0.4,0.3c-0.1,0-0.2-0.1-0.3-0.2
				s-0.1-0.2-0.2-0.3c-1.7,0.3-3.3,1.2-4.3,2.7c0.5,0.4,0.9,0.9,1.3,1.4c1.2-2.2,4-2.9,6.2-1.7c0.7,0.4,1.3,1,1.7,1.7
				c0.4-0.5,0.9-1,1.3-1.5C166.1,70.5,164.1,69.5,162.1,69.5L162.1,69.5z M194.6,42.9c1.4,0.4,2.7,1.1,3.9,1.8
				c3.7,0.5,7,2.4,9.2,5.4c0.3,0.1,0.7,0.2,1,0.3c0.6-0.2,1.3-0.4,1.9-0.5c-2.9-4.9-8.1-7.8-13.8-7.8c-1.3,0-2.6,0.2-3.8,0.5
				C193.5,42.7,194.1,42.8,194.6,42.9L194.6,42.9z M199.1,40.6c0,0,0.3-0.5,0.5-0.7c-0.3-1.3-1.4-2.2-2.7-2.2s-2.4,0.9-2.7,2.2
				c0.1,0.2,0.3,0.4,0.4,0.7c0.3,0,0.6-0.1,0.9-0.1l0,0c-0.1-0.8,0.5-1.4,1.3-1.5s1.4,0.5,1.5,1.3c0,0.1,0,0.2,0,0.2v0.1
				C198.5,40.6,198.8,40.6,199.1,40.6L199.1,40.6z M164,67.1c-0.2-0.1-0.4-0.2-0.6-0.3c-0.7-0.2-1.4-0.2-2.1,0c0.2,0,0.4,0,0.6,0
				C162.7,66.8,163.3,66.9,164,67.1L164,67.1z M140.1,72l-0.3-0.1c0,0,0,0-0.1,0s-0.2-0.1-0.3-0.1h-0.1c0,0-0.3-0.1-0.4-0.1
				s-0.1,0-0.2,0s-0.1,0-0.2,0s-0.2,0-0.3,0s-0.1,0-0.2,0c-0.1,0-0.2,0-0.3,0h-0.6c-0.2,0-0.4,0-0.6,0.1h-0.1l-0.6,0.1l0,0
				c-0.4,0.1-0.9,0.3-1.3,0.5c-1.4,1.1-2.6,2.4-3.5,3.9l0,0c0,0,0,0,0,0.1v0.3c0.8,0.2,1.6,0.4,2.4,0.7
				C135.1,74.9,137.4,73,140.1,72L140.1,72z M145.2,21c0.1,0,0.1,0,0.2,0s0.1,0,0.2,0c0.1,0,0.1,0.1,0.2,0.1c0.1,0,0.1,0,0.2,0
				c0.1,0,0.2,0,0.3,0h0.1c0.1,0,0.3,0,0.5,0s0.3,0,0.5,0h0.5c0.1,0,0.2,0,0.3,0h0.1c0.1,0,0.2,0,0.3,0c-1.3-0.5-2.6-0.8-4-0.8H144
				c0.1,0,0.2,0.1,0.3,0.1C144.5,20.7,144.8,20.9,145.2,21L145.2,21z M169.3,70.5c0.5-0.4,1-0.7,1.6-1.1c-3.5-4.9-10.3-6-15.2-2.5
				c-0.6,0.4-1.2,1-1.7,1.5c-0.1,0.4-0.3,0.8-0.5,1.2c0.4,0.3,0.9,0.5,1.3,0.8c1.2-1.6,2.9-2.8,4.9-3.3c0.1-0.1,0.1-0.2,0.2-0.2
				c0.9-0.8,2-1.1,3.1-1c1.1,0.2,2.1,0.8,2.7,1.7c0.3,0.1,0.5,0.3,0.8,0.4c0.4-0.2,0.8-0.3,1.2-0.3c0.5,0,1.1,0.3,1.5,0.6
				c0.2,0.2,0.4,0.4,0.5,0.7c0.1,0.2,0.3,0.5,0.2,0.7s-0.2,0.3-0.4,0.3s-0.3-0.2-0.4-0.4c-0.2-0.5-0.7-0.9-1.2-1c-0.2,0-0.4,0-0.6,0
				C168,69.1,168.7,69.8,169.3,70.5z M152.1,70.5c-1.1-0.6-2.3-1-3.5-1.4c-0.4,0.1-0.9,0.1-1.3-0.2c0,0,0,0-0.1,0
				c-0.9-0.1-1.7-0.2-2.6-0.2c-0.3,0-0.6,0-0.9,0c0,0.3,0.1,0.5,0.2,0.8c0.2,0.7,0.7,1.3,1.2,1.8c1.5,0.1,3,0.4,4.5,0.9l0.3-0.1
				C150.8,71.7,151.5,71.2,152.1,70.5L152.1,70.5z M162.9,34.3c0,0.2,0.1,0.4,0.1,0.7c0.6,0.2,1.1,0.6,1.5,1
				c0.1-0.3,0.2-0.5,0.3-0.8c0.1-0.1,0.1-0.2,0.2-0.3C164.3,34.5,163.6,34.3,162.9,34.3C162.9,34.2,162.9,34.2,162.9,34.3
				L162.9,34.3z M183.3,47c0.4-0.5,0.9-1,1.3-1.5c-1.2-1.7-3.1-2.7-5.2-2.7c-0.7,0-1.5,0.1-2.2,0.4c0.1,0.1,0.2,0.3,0.3,0.4
				c0.3,0.4,0.4,0.9,0.3,1.4c0.5-0.2,1-0.3,1.5-0.3C181,44.7,182.5,45.6,183.3,47z M175.3,49.1c-0.6-0.9-1.3-1.8-2.2-2.6
				c0.2,0.6,0.5,1.2,0.9,1.7C174.4,48.6,174.8,48.9,175.3,49.1z M173.2,50.7c0.7-0.3,1.4-0.5,2.1-0.7c-0.6-0.2-1.1-0.6-1.6-1
				c-0.9-0.8-1.5-2-1.5-3.2c-2.9-2.4-6.5-3.7-10.2-3.7c-1.7,0-3.4,0.3-5,0.8c-0.2,0.6,0,1.3,0.5,1.8c0.2,0.2,0.4,0.4,0.7,0.6
				C163.7,43.5,169.9,45.7,173.2,50.7L173.2,50.7z M174.2,45.6c0.5,0.4,0.9,0.9,1.3,1.4c0.1-0.2,0.3-0.5,0.4-0.7
				c-0.2,0-0.4-0.1-0.5-0.2c-0.3-0.2-0.4-0.4-0.5-0.7c0-0.2,0.1-0.4,0.4-0.4h0.1c0.1,0,0.2,0.2,0.3,0.3s0.2,0.2,0.3,0.2
				c0.5,0.1,1.1-0.2,1.2-0.8l0,0c0-0.5-0.2-1-0.7-1.3C175.6,44,174.8,44.7,174.2,45.6L174.2,45.6z M170.9,51.8
				c-1.5-2.1-3.7-3.6-6.2-4.2c-0.4,0.2-0.8,0.2-1.2,0.2c-0.3-0.1-0.6-0.2-0.9-0.4c-0.2,0-0.4,0-0.6,0c-3.5,0-6.7,1.6-8.8,4.4
				c0.3,0.2,0.7,0.3,1,0.4h0.1c0.2,0.1,0.3,0.1,0.5,0.2c0.1,0,0.1,0,0.2,0h0.1c1.7-2.1,4.2-3.2,6.9-3.2c0.7,0,1.5,0.1,2.2,0.3
				c1.3,0.1,2.5,0.6,3.3,1.6c0.7,0.5,1.3,1.2,1.8,1.9C169.8,52.4,170.3,52.1,170.9,51.8L170.9,51.8z M162.6,55.6
				c0.1,0,0.1,0.1,0.1,0.2l0.1,0.2l0.3,0.2c0.1,0,0.1,0.1,0.2,0.2s0.1,0.1,0.2,0.2c0.1,0.1,0.2,0.1,0.3,0.2c0,0,0.1,0,0.1,0.1
				l0.4,0.2C164,56.2,163.3,55.7,162.6,55.6L162.6,55.6z M143,68.7c-0.9,0.1-1.8,0.3-2.7,0.5c0,0.2,0.1,0.4,0.1,0.7s0.1,0.4,0.2,0.7
				l0,0l0.2,0.6c0.1,0.2,0.2,0.4,0.3,0.5c1-0.3,2-0.4,3-0.4C143.5,70.5,143.1,69.6,143,68.7L143,68.7z M175.2,41l-0.5,0.6
				c0.5-0.3,1.1-0.6,1.6-0.8c-0.2-0.4-0.4-0.7-0.6-1.1C175.6,40.2,175.4,40.6,175.2,41L175.2,41z M150.8,68.4c0.7-1.1,1.6-2,2.5-2.8
				c-0.2-0.9-0.5-1.8-0.9-2.6c-1.1,0.8-2.1,1.8-2.9,2.8c0.2,0.3,0.2,0.6,0.3,0.9c0.1,0.4,0,0.9-0.1,1.3
				C150.1,68.1,150.4,68.2,150.8,68.4L150.8,68.4z M43.7,40.8c0.6,0.2,1.1,0.5,1.6,0.8c-0.5-0.5-0.9-1.2-1-1.9
				C44.2,40.1,44,40.4,43.7,40.8z M165.6,41c0.9,0.2,1.7,0.4,2.6,0.8c0.1-0.2,0.3-0.4,0.5-0.6c-0.2-0.3-0.3-0.6-0.4-1
				c-0.3-1.1,0-2.3,0.7-3.1C167.7,38.1,166.5,39.5,165.6,41z M174.4,68l-0.2-0.2c-0.1-0.1-0.1-0.1-0.2-0.2s0,0,0,0
				c-0.1-0.1-0.2-0.1-0.3-0.2l0,0l-0.3-0.1c0,0,0,0-0.1,0s-0.2-0.1-0.3-0.1c0,0,0,0-0.1,0s-0.2-0.1-0.3-0.1h-0.1
				c-0.1,0-0.2,0-0.3-0.1l0,0c-0.1,0-0.2,0-0.3,0c0.4,0.5,0.8,1,1.2,1.5C173.7,68.4,174,68.2,174.4,68L174.4,68z M163.4,36
				c-0.9-0.6-2-0.7-3-0.4s-1.8,1.1-2.1,2.1c0,0,0,0.1,0,0.2c0.8-1.2,2.2-1.8,3.6-1.8c0.7,0,1.3,0.1,1.9,0.4
				C163.8,36.2,163.6,36.1,163.4,36L163.4,36z M162,51.8c-0.3,0-0.7,0-1,0.1c-0.1,0.2-0.3,0.5-0.5,0.7c0,0,0,0-0.1,0.1
				s0,0.1,0.1,0.1c0.1,0.1,0.1,0.3,0.2,0.4c0.1,0.2,0.1,0.3,0.2,0.4c0,0,0.1,0.1,0.1,0.2c0.3-0.1,0.6-0.1,0.9-0.1
				c0.6,0,1.3,0.1,1.8,0.4c0-0.3,0.2-0.6,0.3-0.8c0,0,0,0,0-0.1s0.1,0,0.1-0.1c0.2-0.1,0.4,0,0.5,0.2c0.1,0.3-0.1,0.4-0.2,0.7
				c-0.1,0.2-0.1,0.3-0.1,0.5c0.4,0.3,0.8,0.7,1.1,1.1c0.2,0,0.4,0,0.6-0.1c0.3-0.4,0.6-0.7,0.9-1C166,52.8,164.1,51.8,162,51.8
				L162,51.8z M143,67.2c0.2-0.9,0.8-1.8,1.6-2.3c0.2-0.2,0.5-0.3,0.8-0.4c-0.2-0.1-0.5-0.1-0.8-0.1c-1.3,0-2.4,0.9-2.7,2.2
				c0.1,0.2,0.3,0.4,0.4,0.7L143,67.2z M164.3,40.7c0,0,0.3-0.5,0.4-0.7c-0.3-1.3-1.4-2.2-2.7-2.2s-2.4,0.9-2.7,2.2
				c0.1,0.2,0.3,0.4,0.4,0.7c0.3,0,0.6-0.1,0.9-0.1l0,0c0-0.8,0.6-1.4,1.4-1.4s1.4,0.6,1.4,1.4v0.1C163.7,40.6,164,40.6,164.3,40.7z
				 M159.1,52.6h0.1l0.6-0.1l0,0v-0.2c0-0.1,0.1-0.1,0.1-0.2c-0.4,0.1-0.8,0.3-1.1,0.5C158.8,52.7,159,52.6,159.1,52.6L159.1,52.6z
				 M164.9,37c0.4,0.3,0.7,0.7,1,1.2c0.4-0.5,0.9-1,1.3-1.5c-0.5-0.6-1-1.1-1.6-1.5c-0.2,0.3-0.4,0.6-0.5,0.9
				c-0.1,0.1-0.1,0.3-0.1,0.4c0,0.1,0,0.2-0.1,0.3S164.9,37,164.9,37L164.9,37z M149.7,47.9c0,0.1,0.1,0.2,0.1,0.3
				c0.1,0.2,0.2,0.4,0.3,0.6c0.1,0.2,0.3,0.4,0.5,0.7c0,0,0,0,0,0.1c0.2,0.2,0.4,0.4,0.6,0.6c1.5-2,3.6-3.6,6-4.5
				c-0.5-0.4-0.8-1-1-1.6c0-0.3,0-0.5,0-0.8C153.7,44.2,151.4,45.8,149.7,47.9z M155.8,41.7c0.5-0.2,1-0.4,1.6-0.5
				c0.3-0.2,0.5-0.3,0.8-0.3c-0.2-0.3-0.3-0.6-0.4-0.9c-1.4-2-3.3-3.7-5.4-4.8v0.6v0.1V36v0.1v0.1v0.1v0.1c0,0,0,0,0,0.1v0.1l0,0
				v0.1c-0.2,0.1-0.4,0.3-0.6,0.5c-0.2,0.2-0.3,0.3-0.5,0.5C153.1,38.7,154.6,40.1,155.8,41.7z M149,67.8c0.1-0.3,0.1-0.7,0.1-1
				c0-0.1,0-0.2-0.1-0.3c-0.3,0.4-0.5,0.7-0.8,1.1C148.5,67.6,148.7,67.7,149,67.8z M148.9,44.5c0,0.3,0,0.6,0.1,0.9v0.1
				c0,0.1,0,0.3,0.1,0.4s0.1,0.3,0.1,0.5c0.2-0.3,0.5-0.5,0.8-0.8C149.6,45.2,149.2,44.8,148.9,44.5z M156.2,59.3
				c-0.2-0.1-0.4-0.1-0.6-0.2c0.1,0.1,0.2,0.2,0.3,0.3C155.9,59.4,156.1,59.4,156.2,59.3z M150.4,59.6c-0.1,0-0.1,0.1-0.2,0.1
				c0.1,0.1,0.3,0.2,0.4,0.3c0.3,0.3,0.7,0.5,1,0.8c0.2,0.2,0.4,0.4,0.6,0.6c0.4-0.3,0.9-0.6,1.4-0.8c-0.4-0.5-0.8-1-1.3-1.5
				c-0.6,0.1-1.1,0.3-1.6,0.5C150.5,59.6,150.5,59.6,150.4,59.6L150.4,59.6z"/>
		</g>
	</g>
	<path class="st2" d="M141.8,39.7L141.8,39.7l0.2,0.2l0,0c0.1,0,0.1,0.1,0.2,0.1c-0.4-0.9-0.8-1.7-1.3-2.4
		C140.9,38.4,141.2,39.1,141.8,39.7z"/>
</g>
</svg>
