<?xml version="1.0" encoding="utf-8"?>
<!-- Generator: Adobe Illustrator 25.3.1, SVG Export Plug-In . SVG Version: 6.00 Build 0)  -->
<svg version="1.1" xmlns="http://www.w3.org/2000/svg" xmlns:xlink="http://www.w3.org/1999/xlink" x="0px" y="0px"
	 viewBox="0 0 220.1 141.2" style="enable-background:new 0 0 220.1 141.2;" xml:space="preserve">
<style type="text/css">
	.st0{fill:#8795A2;}
	.st1{fill:#B8BFC9;}
	.st2{clip-path:url(#SVGID_4_);}
	.st3{fill:#DEE4E0;fill-opacity:0.2;}
</style>
<g id="图层_3">
	<path class="st0" d="M115,69.3c11.4,2.2,23-2.4,29.8-11.7c-4.3,1.1-8.7,1.2-13,0.4c-16.2-3.2-26.8-18.9-23.7-35.1
		c0.8-4.3,2.6-8.4,5.2-12c-16,4.2-25.7,20.5-21.5,36.6C94.8,58.5,103.8,67,115,69.3L115,69.3z"/>
</g>
<g id="图层_2">
	<g>
		<path class="st1" d="M49.2,55c-0.7,0.3-1.6,0.4-2.4,0.3c-1.6-0.4-1.8-1.7-3.5-2.7c-2-1.2-5.1-1.1-5.9,0c0,0-0.1,0.1-0.1,0.2
			c-0.2-0.2-0.4-0.3-0.6-0.4c-0.5-0.3-1-0.6-1.5-0.8c-1-0.4-2.1-0.4-3.1-0.1c-1,0.3-1.9,1-2.4,1.9c-0.5,0.9-0.5,1.9,0,2.8
			c0.4,0.9,1.2,1.5,2.2,1.6c0.9,0.1,1.8-0.3,2.4-1c0.2-0.3,0.5-0.8,0.3-1.1c-0.1-0.2-0.4-0.2-0.6-0.1c-0.1,0.1-0.1,0.1-0.2,0.2
			c-0.2,0.5-0.5,0.8-1,1c-0.4,0.2-1,0.2-1.4,0c-1-0.7-1.3-2-0.7-3c0.7-1.1,2-1.7,3.3-1.5c0.7,0.1,1.3,0.3,1.9,0.6l0.8,0.5
			c0.3,0.2,0.5,0.4,0.8,0.6c0.1,0,0.1,0,0.2,0c0.4,1,1.4,2.3,1.1,4c-0.5,2.8-3.9,4.2-4,4.3c-4.1,1.6-8.1-1.4-8.3-1.6
			c-3.9-3.1-3.3-8-3.2-8.3c-1.8-1.5-4.1-2.4-6.4-2.6c-3.7-0.1-5.4,2-8.6,2c-1.9,0-4.7-0.9-8-5c2,0.9,4.2,1.2,6.3,0.8
			c4.1-0.8,5.4-3.9,8.9-4.4c1.7-0.2,4.3,0.1,7.9,3.2c0.5-2.3,2.5-4,4.8-4.1c1.5,0,2.9,0.5,4,1.6c0.6-2.8,2.7-5.1,5.5-5.8
			c1.7-0.4,3.4-0.2,4.9,0.5c-1.9-2.8-1.7-4.7-1.5-5.5c1.3-5.3,11.6-8.6,17.8-4.9c1.8,1.1,3.2,2.7,4.1,4.6c0,0,0,0,0,0
			c-1.1,1.2-1.7,2.8-1.6,4.4c0.1,1.5,0.8,2.9,2,3.9c1.1,1,2.5,1.5,4,1.4c1.5-0.1,2.9-0.9,3.6-2.2c0.7-1.4,0.4-3-0.7-4.1
			c-1.1-0.9-2.7-0.8-3.7,0.2c-0.5,0.5-0.7,1.1-0.7,1.8c0,0.3,0.1,0.5,0.4,0.5c0.3,0,0.5-0.2,0.5-0.5c0,0,0,0,0,0
			c0-0.4,0.1-0.7,0.3-1c0.2-0.3,0.5-0.5,0.9-0.7c0.8-0.3,1.6,0,2.1,0.7c0.4,0.7,0.5,1.5,0.3,2.3c-0.3,0.7-0.8,1.3-1.4,1.6
			c-1.1,0.6-2.5,0.7-3.7,0.1c-1.2-0.5-2.1-1.5-2.7-2.6c-0.6-1.3-0.5-2.8,0.1-4c0.2-0.4,0.4-0.7,0.7-1.1c0,0,0-0.1,0-0.2
			c3.3-0.8,6.8,0.2,9.2,2.7c1.5,1.7,2.3,4,2.2,6.3c2.5,0.9,4,3.4,3.9,6c-0.2,2.7-2.3,4.9-5,5.3c1.8-0.2,3.5,0.8,4.2,2.5
			c0.5,1.5-0.1,3.2-1.4,4c-1.7,1.1-4.8,0.4-6.7-2.3c-1.7,1.9-3.8,3.3-6.2,4c-1.2,0.4-8,2.4-11.5-1.4c-1.2-1.4-1.9-3.3-1.9-5.2
			c0.1,0,0.1,0,0.2-0.1c1.1-1.5,2.8-2.5,4.7-2.6c0.9,0,1.8,0.1,2.7,0.5c0.4,0.2,0.8,0.4,1.2,0.7c0.2,0.1,0.5,0.1,0.6-0.1
			c0-0.1,0.1-0.1,0.1-0.2c0-0.2,0-0.4,0-0.6c0.1-0.2,0.1-0.4,0.2-0.6c0.2-0.3,0.5-0.6,0.8-0.8c0.7-0.4,1.6-0.3,2.3,0.2
			c0.3,0.2,0.4,0.6,0.8,0.6c0.2,0,0.5-0.2,0.5-0.4c0,0,0-0.1,0-0.1c-0.2-0.3-0.4-0.6-0.8-0.8c-0.3-0.2-0.6-0.4-1-0.5
			c-1.6-0.4-3.2,0.6-3.7,2.2c0,0,0,0.1,0,0.1c-0.8-0.4-1.6-0.7-2.5-0.9c0.2-0.4,0.3-0.8,0.4-1.3c0.1-0.5,0.1-1,0.1-1.5
			c0-1-0.2-2-0.6-2.9c-0.8-1.7-2.2-3.1-4-3.7c-2.1-0.7-4.5-0.4-6.3,0.8c-1.2-1.5-3.2-2.1-5-1.5c-0.2,0.1-0.6,0.2-0.7,0.4
			c0,0.2,0.1,0.5,0.3,0.5c0.3,0,0.6,0,0.8-0.2c0.3-0.1,0.6-0.1,0.9-0.1c0.7,0,1.3,0.2,1.9,0.5c0.3,0.2,0.5,0.4,0.8,0.6
			c0.1,0.1,0.2,0.2,0.3,0.4c0.1,0.1,0.2,0.2,0.3,0.4c0.3,0.2,0.5,0,0.8-0.2c0.3-0.2,0.7-0.4,1-0.5c1.6-0.7,3.3-0.7,4.9-0.1
			c1.7,0.7,3.1,2.2,3.5,4c0.3,1.1,0.3,2.2,0.1,3.3c-0.1,0.3-0.1,0.5-0.2,0.8c0,0.1-0.1,0.2-0.1,0.4c-0.6,0-1.3,0-1.9,0.2
			c-1.7,0.4-3.2,1.5-4.2,3C49.1,54.8,49.1,54.9,49.2,55z M212.7,52.3c-4.2-3.1-4-7.9-7.6-10.3c-1.7-1.1-4.8-2-10.2,0.4
			c0.5-3.5-0.8-6.7-3.2-8c-1.4-0.7-3.1-0.7-4.6-0.1v0c0,0,0,0.1-0.1,0.2c-1.3,1.1-1.9,2.9-1.5,4.6c0.2,0.8,0.7,1.5,1.4,2
			c0.7,0.4,1.5,0.5,2.2,0.2c0.7-0.2,1.2-0.7,1.5-1.3c0.3-0.7,0.1-1.4-0.5-1.9c-0.3-0.2-0.7-0.2-1,0c-0.3,0.2-0.4,0.5-0.3,0.8
			c0,0.1,0.2,0.2,0.2,0.4c0,0.1,0,0.2-0.1,0.3c-0.1,0.2-0.4,0.2-0.6,0.1c-0.5-0.4-0.6-1-0.4-1.6c0.2-0.6,0.7-1,1.3-1.2
			c1.2-0.1,2.2,0.8,2.2,2c0,0.1,0,0.2,0,0.4c-0.1,1.2-1,2.3-2.2,2.7c-1.2,0.4-2.6,0.1-3.6-0.8c-1-1-1.5-2.4-1.3-3.8
			c0.2-1.5,0.9-2.8,2-3.8c0.1,0,0.1,0,0.2,0c0.4-4-0.8-7.7-3.3-9.8c-1.6-1.3-3.6-1.9-5.7-1.7c3.4-2.8,4.1-5.5,4.3-6.8
			c1.2-7.7-8.5-17.2-17.1-15.3c-2.9,0.8-5.5,2.5-7.4,4.8c0.1,0.1,0.1,0.2,0,0.3v1.1c0.1,2.4,1.3,4.7,3.2,6.2c1.9,1.5,4.4,2,6.7,1.2
			c1.2-0.4,2.2-1.2,2.8-2.3c0.6-1.1,0.6-2.3,0-3.4c-0.6-1-1.7-1.5-2.8-1.2c-1.1,0.2-1.8,1.2-1.6,2.3c0,0,0,0,0,0
			c0,0.3,0.1,0.5,0.2,0.8c0.1,0.2,0.3,0.4,0.5,0.5c0.3,0.3,0.1,0.9-0.4,0.8c-0.3-0.1-0.5-0.3-0.7-0.5c-0.2-0.2-0.3-0.4-0.4-0.7
			c-0.2-0.5-0.3-1.1-0.1-1.6c0.2-1.1,0.9-2,2-2.3c1-0.3,2.2-0.1,3.1,0.5c1.8,1.5,2.1,4.1,0.7,5.9c-1.4,1.9-3.8,2.9-6.2,2.5
			c-2.3-0.3-4.3-1.5-5.8-3.3c-1.5-2-2.2-4.4-1.9-6.9c0,0,0-0.1,0-0.1c-3.2-2.5-7.6-2.7-11-0.6c-3.8,2.3-5.1,6.4-5.5,7.4
			c-3.2,0.1-6.2,2.6-7.2,6.2c-1.1,3.5,0,7.3,2.9,9.6c-1.9-1.2-4.5-0.6-5.8,1.2c-1.2,1.8-1.4,4.1-0.4,6c1.3,2.2,4.8,2.9,8.1,0.5
			c0-0.1,0-0.1,0-0.2c1.1-3.4,3.2-6.7,6.6-8.1h0.1c1.9-0.8,3.9-0.8,5.8-0.1c0.6,0.2,1.2,0.6,1.8,1c0-0.1,0-0.3,0-0.4
			c-0.1-0.4-0.1-0.7-0.1-1.1c0-1.3,0.3-2.6,1.1-3.7c1.1-1.8,3.4-2.5,5.4-1.7c0.9,0.4,1.6,1.3,1.9,2.2c0.1,0.2,0.1,0.5,0.1,0.8
			c0,0.2,0,0.5-0.1,0.7c-0.2,0.3-0.7,0.3-0.8,0c0-0.1,0-0.3,0-0.4c0-0.1,0-0.3,0-0.4c0-0.3-0.1-0.5-0.3-0.8
			c-0.3-0.5-0.7-0.9-1.2-1.2c-1-0.4-2.2-0.3-3.1,0.3c-2.1,1.3-2.4,4-1.9,6.1l0,0c0,0.2-0.1,0.4-0.2,0.4c0.1,0.2,0.2,0.3,0,0.5
			c-0.1,0.1-0.2,0.2-0.4,0.2c-0.2,0-0.3-0.1-0.4-0.3c-1.4-1.4-3.4-2-5.4-1.7c-1.9,0.3-3.6,1.2-4.9,2.6c-1.5,1.6-2.5,3.5-3.1,5.6
			c0,0.1-0.1,0.1-0.1,0.1c0.9,3,2.5,5.7,4.7,7.9c1.1,1.1,7.6,7.2,13.4,3.8c2-1.4,3.6-3.3,4.4-5.6c-0.1,0-0.1-0.1-0.1-0.2
			c0-0.6-0.1-1.2-0.1-1.8c-0.1-2.3,0.5-4.5,1.8-6.4c1.1-1.6,2.8-2.7,4.7-3c1.9-0.4,3.9,0.3,5.1,1.8c0.6,0.8,1,1.9,0.9,2.9
			c-0.1,1-0.7,1.8-1.5,2.4c-0.8,0.6-1.9,0.7-2.8,0.2c-0.9-0.5-1.4-1.3-1.5-2.3c0-0.4,0-1,0.4-1.1c0.2-0.1,0.5,0,0.6,0.2
			c0,0.1,0.1,0.2,0,0.2c-0.1,0.2-0.1,0.4-0.1,0.7c0,0.2,0.1,0.5,0.2,0.7c0.2,0.4,0.6,0.7,1,0.9c1,0.2,2-0.3,2.5-1.2
			c0.4-0.8,0.4-1.8-0.1-2.6c-0.5-0.8-1.2-1.5-2.1-1.8c-1.1-0.4-2.2-0.3-3.3,0c-1.9,0.6-3.4,2.1-4.1,3.9c-0.6,1.7-0.9,3.6-0.8,5.5V41
			c0,0,0,0.1-0.1,0.1c0.6,1,1.7,1.8,2.8,2c1.9,0.3,2.8-1.4,5.1-1.9c2.8-0.6,6.2,1,6.4,3s-3.1,2.9-3.9,6.6c-0.8,4,2.2,7.5,2.4,7.7
			c3.7,4.2,9.6,2,9.9,1.9c5.8-2.3,7.5-9.1,7.6-9.6c2-0.8,5.2-1.6,8.3-0.3c4.1,1.6,4.8,5.4,8.4,6.8c2.1,0.9,5.5,1.1,11.2-2.8
			C217.5,54.6,214.9,53.8,212.7,52.3z M197.3,75.5c-5.2,2.1-9.2-0.7-13.5,1.2c-2.1,0.9-4.7,3.2-6.2,9.5c-2.6-2.4-6.2-2.8-8.7-1.4
			c-1.7,1-2.8,2.7-3.1,4.7c-3.1-2.9-7.4-4-10.9-2.8c-2.1,0.8-3.9,2.3-5,4.3c-0.2-4.6-2-6.8-2.9-7.6c-5.7-5.2-19.9-1.7-23.8,7.2
			c-1.2,3-1.4,6.4-0.6,9.5c-3.4,1.1-6.1,3.6-7.5,6.8c-1.2-0.1-2.5,0.1-3.6,0.6c0.7-4.3-0.8-8.4-3.8-10.6c-1.8-1.3-4.1-2-6.3-1.8
			c3.7-2.8,4.4-5.4,4.7-6.7c1.1-7.7-9.7-17.5-19.2-15.7c-3.2,0.7-6,2.4-8.2,4.8c-3.6-2.9-8.6-3.4-12.8-1.3c-2.8,1.6-4.9,4.2-5.9,7.3
			c-3.7,0.1-6.8,2.6-7.9,6.1c-1.1,3.6,0.3,7.6,3.4,9.7c-2.1-1.2-4.8-0.8-6.3,1.1c-1.4,1.8-1.5,4.2-0.4,6.1c1.4,2.2,5.1,2.9,8.5,0.9
			c0,0,0-0.1,0-0.2c0.8-2.1,1.9-4.1,3.4-5.9c2.3-2.7,5.5-4.4,9-4.8c-0.1-0.2,0-0.6,0.1-0.8s0.1-0.6,0.1-0.9c0.1-0.7,0.3-1.3,0.4-2
			c0.5-2.4,1.6-4.6,3-6.6c1.3-1.7,3.1-3.1,5.1-3.9c2-0.7,4.1-0.7,6.1,0c1.8,0.7,3.2,2,4,3.7c0.9-1,2.2-1.6,3.5-1.8
			c1.3-0.2,2.6,0.1,3.7,0.8c1.1,0.7,1.9,1.6,2.4,2.8c0.2,0.6,0.4,1.2,0.4,1.8c0,0.3,0,0.7,0,1c0,0.2-0.1,0.4-0.3,0.4
			c-0.2,0.1-0.4,0-0.5-0.1c-0.1-0.2,0-0.5,0-0.8c0-1.3-0.5-2.6-1.4-3.6c-0.8-0.8-1.8-1.3-2.9-1.4c-1.1-0.1-2.3,0.2-3.2,0.8
			c-0.2,0.1-0.5,0.3-0.7,0.5c-0.2,0.2-0.4,0.4-0.6,0.6c-0.1,0.2-0.4,0.2-0.6,0.1c-0.2-0.1-0.3-0.3-0.4-0.5c-0.4-1.1-1.2-2-2.1-2.6
			c-2.2-1.5-5-1.7-7.4-0.7c-2.2,1-4.1,2.7-5.3,4.9c-1.1,2.1-1.9,4.4-2.3,6.7c0,0.3-0.1,0.6-0.1,1s0,0.5-0.1,0.7
			c3.2,0,6.3,1.5,8.2,4.1c0.1-1,0.5-2,1.2-2.8c1.2-1.5,3.3-2.1,5.2-1.5c1.8,0.6,3.2,2.3,3.4,4.2v0.1c0,0.2-0.2,0.3-0.4,0.3
			c-0.2,0-0.4-0.1-0.5-0.4c-0.1-0.4-0.2-0.8-0.3-1.1c-0.3-0.7-0.8-1.3-1.4-1.7c-1.2-0.9-2.8-1-4.1-0.4c-1.3,0.7-2.1,2-2.3,3.5
			c0,0.3,0,0.7,0,1c0,0.3,0.3,0.6,0.1,0.9c-0.1,0.2-0.4,0.3-0.6,0.2c-0.3-0.1-0.4-0.5-0.5-0.8c-1.4-2.7-4.1-4.5-7.1-4.8
			c-3.1-0.2-6.1,0.7-8.5,2.7c-1.2,1-2.2,2.1-3.1,3.4c-0.4,0.7-0.8,1.3-1.1,2c-0.2,0.4-0.3,0.7-0.5,1.1c0,0.1-0.1,0.2-0.1,0.2
			c1.1,3.3,3,6.2,5.5,8.5c1.2,1.1,8.5,7.3,14.8,4c3-1.6,4.5-4.7,5.2-6.6c0.8,1.2,2,2.1,3.4,2.4c2.1,0.4,3.1-1.4,5.6-1.8
			c3.1-0.5,6.8,1.2,7.2,3.1s-3.3,2.9-4.1,6.6c-0.9,4,2.6,7.6,2.8,7.8c4.2,4.3,10.6,2.3,11,2.1c2.9-1.1,5.3-3.2,6.7-5.9
			c0,0-0.1-0.1-0.1-0.2c-0.1-1.3-0.1-2.6,0.2-3.9c0.4-2.2,1.6-4.2,3.3-5.6c1.7-1.3,3.8-1.8,5.9-1.4c0.5,0.1,0.9,0.3,1.4,0.5
			c1.8,0.9,3,2.6,3.2,4.6c0.1,1.9-0.9,3.7-2.6,4.6c-1.6,1-3.8,0.7-5-0.8c-0.6-0.8-0.6-1.8-0.2-2.6c0.4-0.7,1.3-1.1,2.1-1
			c0.4,0,0.8,0.2,1.1,0.5c0.2,0.3,0.5,0.7,0,0.9s-0.7-0.4-1-0.5c-0.5-0.2-1,0-1.3,0.4c-0.5,0.8-0.2,1.9,0.6,2.4
			c0.8,0.5,1.7,0.6,2.6,0.3c1.1-0.4,2-1.2,2.4-2.2c0.5-1.1,0.4-2.4-0.1-3.5c-0.5-1-1.3-1.8-2.3-2.4c-1.1-0.5-2.4-0.6-3.5-0.4
			c-2,0.4-3.7,1.8-4.7,3.6c-1.2,2.3-1.5,4.8-1,7.3c0,0.1,0,0.2-0.1,0.2c0.1,0.2,0.3,0.4,0.5,0.7c2.4,3,6.4,4,9.9,2.6
			c-2.2,1.1-3.3,3.6-2.7,5.9c0.7,2.1,2.6,3.6,4.8,3.7c2.8,0,5.7-3.1,5.6-7.6c3.3,1,6.9,1,10.3,0.2c1.6-0.4,10.9-3,11.7-10
			c0.2-2.5-0.5-4.9-1.9-7c-0.1,0-0.2,0-0.2,0c-1.2-0.7-2.1-1.7-2.8-2.8c-1.2-1.9-1.3-4.3-0.4-6.3c0.8-1.8,2.5-3.1,4.5-3.4
			c-0.7-1.9-0.9-3.9-0.6-6c0.4-3,2.6-5.5,5.5-6.4c2.8-0.7,5.6,0.8,6.7,3.4v0.1c0,0.2-0.2,0.4-0.4,0.4c-0.2,0-0.3-0.1-0.4-0.2
			c-0.2-0.3-0.2-0.6-0.4-0.9c-0.2-0.3-0.4-0.5-0.6-0.8c-1-1-2.3-1.6-3.7-1.5c-2.7,0.2-4.7,2.4-5.4,4.8c-0.3,1.2-0.4,2.5-0.3,3.7
			c0.1,0.6,0.2,1.3,0.4,1.9c0.1,0.3,0.2,0.6,0.3,0.9s0.2,0.5,0.1,0.7c-0.1,0.2-0.3,0.3-0.6,0.3c-0.3,0-0.6,0-0.9,0.1
			c-0.6,0.2-1.1,0.4-1.6,0.8c-0.9,0.7-1.6,1.8-2,2.9c-0.6,2.5,0.5,5.1,2.6,6.5c0,0,0.1,0.1,0.1,0.2c1.3,0,2.6-0.6,3.6-1.5
			c1.5-1.6,0.6-3.4,1.6-5.7c1.3-2.9,4.8-5.1,6.6-4.2s0.5,4.4,3.1,7.1c2.8,3,7.8,2.1,8,2.1c6-1.1,7.9-7.6,7.9-8
			c1.8-6.5-2.9-11.8-3.2-12.2c0-0.1,0-0.1,0-0.2c-0.4-0.1-0.9-0.2-1.3-0.2c-1.6-0.2-3.3,0.2-4.7,1c-1.2,0.8-2.2,1.9-2.7,3.3
			c-0.5,1.3-0.4,2.8,0.3,4c0.7,1.2,1.9,2,3.2,2.2c1.6,0.3,3.2-0.5,3.8-2c0.2-0.7,0.2-1.4-0.1-2c-0.3-0.6-0.9-1-1.6-1
			c-0.7-0.1-1.3,0.2-1.7,0.8c-0.1,0.2-0.3,0.4-0.6,0.4c-0.2-0.1-0.4-0.3-0.3-0.6c0.2-0.6,0.7-1,1.2-1.2c0.6-0.2,1.2-0.3,1.8-0.2
			c1.2,0.3,2.1,1.3,2.2,2.6c0,1.4-0.7,2.8-1.9,3.6c-1.6,0.9-3.7,0.8-5.2-0.3c-1.2-0.8-2.1-2.1-2.4-3.5c-0.2-1.5,0.1-3.1,1-4.4
			c0.8-1.3,2.1-2.4,3.5-2.9c1.8-0.7,3.7-0.8,5.6-0.3c0.8-2.7,2.5-5,4.8-6.7c4-2.9,7.6-1.5,11.1-3.9c2-1.4,4.4-4.5,4.8-11.7
			C202.3,72.3,200,74.4,197.3,75.5z"/>
	</g>
</g>
<g id="图层_1">
	<g>
		<defs>
			<rect id="SVGID_1_" x="-0.3" y="-0.7" width="220.4" height="141.6"/>
		</defs>
		<clipPath id="SVGID_2_">
			<use xlink:href="#SVGID_1_"  style="overflow:visible;"/>
		</clipPath>
	</g>
	<g>
		<defs>
			<rect id="SVGID_3_" x="0.1" y="-0.7" width="220.1" height="141.6"/>
		</defs>
		<clipPath id="SVGID_4_">
			<use xlink:href="#SVGID_3_"  style="overflow:visible;"/>
		</clipPath>
		<g class="st2">
			<path class="st3" d="M145.2,45.1c-0.5-0.4-1-0.8-1.5-1.2c-0.1-0.1-0.2-0.2-0.3-0.3c2.2-1.6,4.9-2.5,7.6-2.4
				c3.1,0,6.2,1.1,8.5,3.2c0,0,0,0.1-0.1,0.1s-0.1,0.1-0.1,0.2c-0.1,0.2-0.3,0.4-0.5,0.6l-0.1,0.1c-0.1,0.2-0.3,0.3-0.4,0.5
				l-0.2,0.2h0c-2-1.7-4.5-2.6-7-2.6C149,43.4,147,44,145.2,45.1z M134.7,86.3c1,0.2,2.1,0.5,3.1,0.9c1.6-2.3,3.7-4.2,6.2-5.5
				c-0.7-0.3-1.4-0.5-2.2-0.6l0,0l-1-0.1h-0.2c-0.4,0-0.7,0-1.1,0C137.7,82.5,136,84.2,134.7,86.3L134.7,86.3z M135,83
				c0.5-0.6,1-1.1,1.5-1.7c0,0,0-0.1-0.1-0.1c-0.8,0.1-1.7,0.3-2.5,0.6C134.4,82.1,134.8,82.6,135,83L135,83z M127.7,85.9
				c0.4,0,0.7-0.1,1.1-0.1l0,0c0-0.9,0.7-1.6,1.6-1.6c0.9,0,1.6,0.7,1.6,1.6c0,0,0,0,0,0v0.1c0.4,0,0.7,0,1,0.1c0,0,0.4-0.6,0.5-0.9
				c-0.2-1.1-1-2-2.1-2.4c-0.3,0.1-0.7,0.3-1,0.5c0,0-0.1,0-0.2,0.1c-0.3,0.2-0.6,0.3-0.9,0.5c0,0,0,0-0.1,0c-0.7,0.4-1.4,0.9-2,1.4
				C127.5,85.5,127.6,85.7,127.7,85.9L127.7,85.9z M140.5,88.5c0.7,0.4,1.3,0.8,1.9,1.2c1.5-2,3.6-3.4,6-4c-0.2-0.3-0.4-0.6-0.5-0.9
				l0,0c0-0.1-0.1-0.2-0.2-0.2l-0.5-0.6v0c0,0-0.1-0.1-0.1-0.2C144.4,84.6,142.1,86.3,140.5,88.5z M155.2,47.9
				c-1.2-0.8-2.7-1.3-4.2-1.2c-0.9,0-1.8,0.2-2.7,0.5c0.4,0.2,0.8,0.4,1.1,0.5l0,0l0.4,0.1c0,0,0,0,0.1,0s0.3,0.1,0.4,0.1h0
				C151.9,48.3,153.6,48.3,155.2,47.9L155.2,47.9z M110.3,67.5h-0.5v0c-0.1,0-0.3,0-0.5,0c1.7,0.7,3.4,1.2,5.2,1.6
				C113.3,68.2,111.8,67.6,110.3,67.5z M118.4,110.7c0.6-0.5,1.2-0.9,1.9-1.2c-1.2-1.7-2.8-3.1-4.7-4c-0.1,0.2-0.2,0.4-0.4,0.7
				c0,0,0,0,0,0.1c-0.1,0.2-0.2,0.5-0.3,0.7c-0.1,0-0.3,0-0.4,0h-0.8c-0.1,0-0.3,0-0.4,0C115.4,107.7,117.1,109,118.4,110.7
				L118.4,110.7z M123,108.2c1-0.4,2-0.7,3.1-0.9c-1.5-2.5-3.5-4.6-6-6.1c-0.7,0.4-1.4,0.9-2,1.4c-0.2,0.2-0.4,0.3-0.6,0.5
				C119.8,104.4,121.6,106.1,123,108.2L123,108.2z M149.7,90.9L149.7,90.9c0-0.2,0-0.4,0-0.6c0-0.1,0-0.2,0-0.3c0-0.1,0-0.3,0-0.4
				s0-0.2,0-0.3s0-0.4-0.1-0.6c-1.9,0.4-3.5,1.5-4.6,3.1c0.6,0.5,1.1,1.1,1.5,1.7C147.2,92.3,148.4,91.3,149.7,90.9L149.7,90.9z
				 M143.7,97.8c1-0.4,2-0.7,3.1-0.9c-4.7-7.8-14.2-11.2-22.7-8.1c-0.2,0.3-0.4,0.6-0.5,0.9c0,0,0,0,0,0.1c-0.2,0.3-0.3,0.6-0.5,0.9
				s-0.2,0.4-0.3,0.6s-0.1,0.2-0.1,0.4s0,0.2-0.1,0.3l-0.1,0.5c0,0,0,0,0,0.1s-0.1,0.4-0.1,0.5c2.5-1.5,5.3-2.3,8.2-2.3
				C135.7,90.7,140.7,93.3,143.7,97.8L143.7,97.8z M126.1,86.3L126.1,86.3C126.1,86.3,126.1,86.3,126.1,86.3z M139,100.3
				c0.6-0.5,1.2-0.9,1.9-1.2c-4.2-5.8-12.2-7.1-18-3c-0.3,0.2-0.7,0.5-1,0.8c0,0.8,0.1,1.5,0.2,2.1V99c0,0.2,0.1,0.4,0.1,0.6
				c3.8-4.5,10.6-5,15.1-1.2C137.9,99,138.5,99.6,139,100.3L139,100.3z M151,22.4c0.6,0,1.3,0,1.9,0.2c0,0,0-0.1,0.1-0.1
				c0.5-0.7,1.2-1.3,2-1.7c-1.3-0.4-2.6-0.6-4-0.6c-4.2,0-8.1,2-10.5,5.4c0.7,0.4,1.3,0.8,1.9,1.2C144.5,24.1,147.6,22.5,151,22.4
				L151,22.4z M151,25.5c-1.1,0-2.2,0.2-3.1,0.7c0.8,0,1.7,0.2,2.4,0.5c0.6,0.3,1.2,0.6,1.8,1c0-0.1,0-0.3,0-0.4
				c0-0.4-0.1-0.7-0.1-1.1v-0.6C151.6,25.5,151.3,25.5,151,25.5L151,25.5z M151,35c-4,0-7.9,1.2-11.1,3.6c0.1,0.2,0.2,0.4,0.3,0.6v0
				c0.1,0.2,0.2,0.4,0.4,0.6c0.3,0.5,0.6,0.9,0.9,1.3c5.8-4.3,13.8-4.2,19.5,0.3c0,0,0,0,0-0.1v0.1c-0.1,0-0.1-0.1-0.1-0.2
				c0-0.6-0.1-1.2-0.1-1.8s0-1.1,0.1-1.7C157.9,36.1,154.5,35.1,151,35L151,35z M147.9,32.5c0.2,0.3,0.3,0.5,0.5,0.8
				c0.4,0,0.7-0.1,1.1-0.1l0,0c0-0.9,0.7-1.6,1.6-1.6c0.9,0,1.6,0.7,1.6,1.6c0,0,0,0,0,0v0.1c0.4,0,0.7,0,1,0.1c0,0,0.4-0.6,0.5-0.9
				c-0.4-1.8-2.1-2.9-3.9-2.5C149.1,30.3,148.1,31.3,147.9,32.5L147.9,32.5z M159.6,26.8c0.6-0.4,1.2-0.8,1.9-1.2
				c-0.4-0.4-0.7-0.9-1.1-1.3c0,0,0,0.1,0,0.2c-0.2,0.3-0.7,0.3-0.8,0c0-0.1,0-0.3,0-0.4c0-0.1,0-0.3,0-0.4c0-0.1,0-0.2,0-0.2
				c-0.9-0.8-2-1.5-3.1-1.9c-0.5,0.1-1,0.2-1.5,0.5c-0.4,0.3-0.8,0.6-1.1,1C156.2,23.5,158.2,24.9,159.6,26.8L159.6,26.8z
				 M104.1,91.8l0.3,0.3c0.4-0.5,0.7-1,0.9-1.6C104.8,90.9,104.4,91.3,104.1,91.8L104.1,91.8z M157.3,28.8c-1.1-1.5-2.6-2.5-4.4-3
				c0,0.7,0,1.5,0.2,2.2l0,0c0,0.1,0,0.1,0,0.2c1.1,0.4,2,1.2,2.6,2.3C156.2,29.9,156.7,29.4,157.3,28.8L157.3,28.8z M171.7,30.7
				c-0.2,0-0.5,0-0.8,0c0.6,0.3,1,0.7,1.4,1.2c0.2,0.3,0.5,0.7,0.6,1.1c2.9,0.4,5.6,1.9,7.3,4.3c0.6-0.4,1.2-0.8,1.9-1.2
				C179.8,32.7,175.8,30.7,171.7,30.7L171.7,30.7z M163.1,37.4c2-2.7,5.2-4.3,8.6-4.4h0.3l0,0c-0.5-0.8-1.2-1.5-2.1-1.8
				c-0.3-0.1-0.5-0.2-0.8-0.2c-2.2,0.5-4.2,1.5-5.9,2.9c-0.3,0.4-0.5,0.8-0.7,1.2c-0.2,0.5-0.3,1-0.5,1.5
				C162.4,36.9,162.7,37.1,163.1,37.4L163.1,37.4z M171.7,37.3c-0.8,0.6-1.9,0.7-2.8,0.2c-0.3-0.1-0.5-0.3-0.7-0.5
				c-1.1,0.6-2.1,1.4-2.8,2.4c0.5,0.5,1.1,1.1,1.5,1.7c1-1.7,2.7-2.7,4.7-2.7c1.9,0,3.7,1,4.7,2.7c0.5-0.6,1-1.2,1.5-1.7
				c-1.2-1.7-3.1-2.9-5.2-3.2C172.5,36.6,172.1,37,171.7,37.3L171.7,37.3z M155.7,93.5c0.5-0.6,1-1.2,1.5-1.7
				c-1.3-1.8-3.3-3-5.5-3.2c-0.7,0.6-1.3,1.3-1.8,2.1v0c0,0.1-0.1,0.1-0.1,0.2c0.4-0.1,0.8-0.1,1.2-0.1
				C152.9,90.8,154.7,91.8,155.7,93.5z M171.7,36.2c-0.8,0-1.7,0.1-2.5,0.4c0.1,0.1,0.3,0.2,0.4,0.2C170.3,37,171.1,36.8,171.7,36.2
				L171.7,36.2z M180.3,58.3c0.6-0.4,1.2-0.9,1.9-1.2c-2.4-3.3-6.1-5.2-10.2-5.4v0.6c0,0.2,0,0.4,0,0.6l0,0c0,0.4,0.1,0.7,0.2,1.1v0
				C175.5,54.2,178.4,55.8,180.3,58.3L180.3,58.3z M174.2,41.6c-0.6-0.7-1.5-1.1-2.5-1.1c-0.5,0-0.9,0.1-1.4,0.3
				C171.6,40.7,173,41,174.2,41.6z M185,55.8c1-0.4,2-0.7,3.1-0.9c-2.8-4.7-7.5-7.9-12.9-8.9c-0.2,0.2-0.4,0.4-0.6,0.6
				c0,0,0,0,0,0.1c-0.1,0.1-0.2,0.2-0.2,0.3c0,0-0.1,0.1-0.1,0.2c0,0.1-0.1,0.1-0.2,0.2c-0.1,0.1-0.1,0.1-0.2,0.2
				c0,0.1-0.1,0.1-0.1,0.2c0,0.1-0.1,0.1-0.2,0.2l-0.1,0.2c0,0.1-0.1,0.2-0.2,0.2c0,0.1-0.1,0.1-0.1,0.2l-0.1,0.3
				C177.8,49.2,182.2,51.8,185,55.8L185,55.8z M134.8,23.4c1,0.2,2.1,0.5,3.1,0.9c4.9-7.3,14.9-9.2,22.2-4.3
				c1.7,1.1,3.1,2.6,4.3,4.3c1-0.4,2-0.7,3.1-0.9c-5.4-9-17-12-26.1-6.6C138.7,18.4,136.4,20.7,134.8,23.4z M184.8,36.7
				c-3.6,1.6-6.7,4.2-8.7,7.6v0.1c1,0.2,2,0.5,3,0.9c1.5-2.2,3.5-4,5.9-5.2c-0.3-0.7-0.4-1.5-0.3-2.3
				C184.6,37.4,184.7,37,184.8,36.7L184.8,36.7z M161.2,36.1C161.2,36.1,161.2,36.2,161.2,36.1c0.1,0,0.1-0.1,0.1-0.2
				C161.2,36,161.2,36.1,161.2,36.1z M164.3,15c-0.8-0.1-1.7-0.4-2.4-0.8c-0.3,0.3-0.5,0.6-0.7,0.9c0.7,0.4,1.3,0.8,1.9,1.2
				C163.5,15.9,163.9,15.4,164.3,15L164.3,15z M99.8,88.5c0.7,0.4,1.3,0.8,1.9,1.2c1.1-1.5,2.5-2.6,4.2-3.4c0-0.2,0-0.3,0-0.5
				c0,0,0-0.1,0-0.1c0-0.2,0-0.3-0.1-0.5s0,0,0-0.1c-0.1-0.4-0.2-0.7-0.3-1.1C103.2,85,101.2,86.6,99.8,88.5z M176.3,20.1
				c0.5-0.6,1-1.2,1.5-1.7c-2.4-3.4-7.1-4.3-10.5-1.9c-0.7,0.5-1.4,1.2-1.9,1.9c0.5,0.5,1.1,1.1,1.5,1.7c1-1.7,2.7-2.7,4.6-2.7
				C173.6,17.4,175.4,18.5,176.3,20.1L176.3,20.1z M167.3,86.3C167.3,86.3,167.3,86.2,167.3,86.3l-0.2,0
				C167.2,86.3,167.3,86.3,167.3,86.3L167.3,86.3z M153.7,12.4c0,0,0.4-0.6,0.5-0.9c-0.3-1.5-1.7-2.6-3.2-2.6c-1.5,0-2.8,1-3.2,2.5
				c0.2,0.3,0.3,0.5,0.5,0.8c0.4,0,0.7-0.1,1.1-0.1l0,0c0-0.9,0.7-1.6,1.6-1.6c0.9,0,1.6,0.7,1.6,1.6c0,0,0,0,0,0v0.1
				C153.1,12.4,153.4,12.4,153.7,12.4L153.7,12.4z M138.7,35.9c0,0,0,0.1,0,0.1s0.1,0.3,0.1,0.4s0,0.1,0,0.1s0.1,0.4,0.2,0.6
				c0.6-0.4,1.1-0.8,1.7-1.1c-0.5-0.7-1.1-1.4-1.7-2c-0.1,0.4-0.3,0.8-0.4,1.2c0,0.1-0.1,0.1-0.1,0.1
				C138.6,35.6,138.7,35.8,138.7,35.9L138.7,35.9z M144.8,28.8c0.5,0.5,1.1,1.1,1.5,1.7c0.9-1.5,2.5-2.5,4.3-2.7
				c-1.2-0.6-2.6-0.8-3.9-0.7c-0.2,0-0.3,0-0.4,0.1C145.7,27.7,145.2,28.2,144.8,28.8L144.8,28.8z M174.3,23c0-0.1,0.4-0.6,0.5-0.9
				c-0.3-1.5-1.6-2.6-3.2-2.6c-1.5,0-2.9,1.1-3.2,2.6c0.2,0.3,0.4,0.5,0.5,0.8c0.4-0.1,0.7-0.1,1.1-0.1l0,0c0-0.9,0.7-1.6,1.6-1.6
				c0.9,0,1.6,0.7,1.6,1.6V23C173.6,23,174,23,174.3,23L174.3,23z M161.7,38.4c0,0.7,0,1.5,0,2.2v0.1c0,0,0,0.1-0.1,0.1
				c0,0,0.1,0.1,0.1,0.2c0.1,0.1,0.1,0.1,0.1,0.2c0,0.1,0.1,0.1,0.1,0.2c0,0,0.1,0.1,0.2,0.2c0.1,0,0.1,0.1,0.1,0.2l0.2,0.2
				c0.1,0.1,0.1,0.1,0.2,0.1c0.1,0,0.1,0.1,0.2,0.2s0.1,0.1,0.2,0.1l0.3,0.1c0,0,0.1,0,0.2,0.1c0.1,0.1,0.2,0.1,0.3,0.1
				c0,0,0.1,0,0.1,0l0.5,0.1c0.1,0,0.3,0,0.5,0h0.1c0.1,0,0.2,0,0.3,0h0.1c0.3,0,0.5-0.1,0.8-0.3C164.9,41,163.4,39.6,161.7,38.4
				L161.7,38.4z M162.5,13.6c0.9,0.4,1.8,0.6,2.8,0.6c1.3-1,2.9-1.7,4.6-2c0.2-0.2,0.3-0.5,0.5-0.7c0.3-0.5,0.4-1.1,0.4-1.7
				c-1.4,0.1-2.8,0.4-4.1,1c0,0.2-0.1,0.4-0.4,0.4c0,0-0.1,0-0.1,0c-0.1,0-0.2,0-0.2-0.1C164.6,11.7,163.5,12.5,162.5,13.6
				L162.5,13.6z M167.4,6.9c-0.5,0.1-1,0.4-1.3,0.9c0.9-0.3,1.8-0.6,2.8-0.8C168.4,6.9,167.9,6.8,167.4,6.9L167.4,6.9z M189.2,38.3
				c-0.1,0.1-0.1,0.2-0.2,0.3c0.4-0.1,0.9-0.2,1.3-0.2c0,0-0.1,0-0.1-0.1C189.9,38,189.5,38,189.2,38.3
				C189.2,38.3,189.2,38.3,189.2,38.3z M73.7,93.5c0.5-0.6,1-1.2,1.5-1.7c-0.7-1.1-1.8-1.9-2.9-2.5c-0.3,0.7-0.6,1.4-0.8,2.1
				C72.4,91.9,73.2,92.6,73.7,93.5z M69,88.5c-2.5,0-4.8,1.2-6.2,3.2c0.5,0.5,1.1,1.1,1.5,1.7c1-1.7,2.7-2.7,4.6-2.7
				c0.6,0,1.1,0.1,1.6,0.3c0.2-0.7,0.5-1.4,0.8-2.1C70.7,88.7,69.9,88.5,69,88.5z M96,86.5c-0.4-0.4-0.9-0.8-1.5-1
				c-0.2,0.3-0.4,0.5-0.5,0.8c0.8,0.2,1.5,0.4,2.3,0.6C96.2,86.8,96.1,86.7,96,86.5z M92.4,85.9c0,0,0.3-0.6,0.5-0.8
				c-0.5,0-1.1,0-1.6,0.2c0.1,0.1,0.1,0.3,0.1,0.5v0.1C91.7,85.8,92,85.9,92.4,85.9L92.4,85.9z M87.2,85.9c-0.2-0.3-0.4-0.6-0.7-0.9
				c0,0,0,0.1,0,0.1c0.2,0.3,0.3,0.5,0.5,0.8H87.2z M69,92.9c-1.5,0-2.9,1.1-3.2,2.6c0.2,0.3,0.3,0.5,0.5,0.8c0.4,0,0.7-0.1,1.1-0.1
				v0c0-0.9,0.7-1.6,1.6-1.6c0.2,0,0.5,0.1,0.7,0.2c0.1-0.5,0.2-1.1,0.3-1.6C69.7,93,69.4,92.9,69,92.9L69,92.9z M153.7,96.3
				c0,0,0.4-0.6,0.5-0.9c-0.3-1.5-1.7-2.6-3.2-2.6c-1.6,0-2.9,1.1-3.2,2.7c0.2,0.3,0.3,0.5,0.5,0.8c0.4,0,0.7-0.1,1.1-0.1v0
				c0-0.9,0.7-1.6,1.6-1.6c0.9,0,1.6,0.7,1.6,1.6c0,0,0,0,0,0v0.1C153,96.3,153.4,96.3,153.7,96.3L153.7,96.3z M135,103.9
				c0.5-0.6,1-1.1,1.5-1.7c-2.4-3.4-7.1-4.3-10.5-1.9c-0.7,0.5-1.4,1.2-1.9,1.9c0.6,0.5,1.1,1.1,1.5,1.7c1-1.7,2.7-2.7,4.7-2.7
				C132.3,101.3,134.1,102.3,135,103.9L135,103.9z M133.1,106.8c0,0,0.4-0.6,0.5-0.8c-0.3-1.5-1.6-2.6-3.2-2.6
				c-1.5,0-2.9,1.1-3.2,2.6c0.2,0.3,0.3,0.5,0.5,0.8c0.4-0.1,0.7-0.1,1.1-0.1v0c0-0.9,0.7-1.6,1.6-1.6c0.9,0,1.6,0.7,1.6,1.6v0.1
				C132.4,106.8,132.8,106.8,133.1,106.8L133.1,106.8z M159.5,86.4c-0.1,0-0.2,0-0.3,0s-0.2,0-0.3,0c-0.1,0-0.2,0-0.3,0
				c-0.2,0-0.5,0-0.7,0h-0.7c-0.5,0-1,0.1-1.4,0.2c1.5,0.8,2.8,1.9,3.9,3.2c0.6-0.4,1.2-0.8,1.9-1.2c-0.5-0.7-1.1-1.4-1.8-2
				C159.7,86.5,159.6,86.5,159.5,86.4L159.5,86.4z M98.2,100.3c0.6-0.5,1.2-0.9,1.9-1.2c-4.2-5.8-12.3-7.1-18-2.9
				c-0.4,0.3-0.7,0.6-1.1,0.9c1.2-0.7,2.6-0.8,3.9-0.4c0.2,0.1,0.4,0.1,0.5,0.2c1.3-0.5,2.7-0.8,4.2-0.8
				C93.1,95.9,96.3,97.6,98.2,100.3L98.2,100.3z M71.7,96.3c0,0,0.4-0.6,0.5-0.9c-0.2-0.8-0.7-1.5-1.3-2c-0.1,0.5-0.2,1-0.3,1.5
				c0,0.1,0,0.3-0.1,0.4c0.1,0.2,0.2,0.5,0.2,0.7v0.1c0.4,0.1,0.7,0.2,1,0.2L71.7,96.3z M103.9,95.2c-0.2,0-0.4-0.1-0.6-0.1l0,0
				c-0.1,0-0.3,0-0.5,0h-0.1c-0.3,0-0.6-0.1-0.9,0h-0.7l0.6-0.5c0.1-0.1,0.2-0.2,0.3-0.3s0.1-0.1,0.2-0.2c0.1-0.1,0.3-0.2,0.4-0.4
				c0,0,0.1-0.1,0.1-0.1l0.4-0.4c-1.5-1.5-3.1-2.7-5-3.6c0.1,0.3,0.1,0.7,0,1c0,0.2-0.1,0.3-0.3,0.4c-0.2,0.1-0.4,0-0.5-0.1
				c-0.1-0.2,0-0.5,0-0.8c0-0.3,0-0.6-0.1-0.9c-8.8-3.8-19-0.6-23.9,7.6c1,0.2,2.1,0.5,3.1,0.9c4.9-7.3,14.9-9.2,22.2-4.3
				c1.7,1.1,3.1,2.6,4.3,4.3c1-0.4,2-0.7,3.1-0.9c-0.3-0.4-0.5-0.8-0.8-1.2c-0.2-0.1-0.4-0.1-0.6-0.2c0,0,0,0-0.1,0
				c-0.2-0.1-0.4-0.1-0.5-0.1L103.9,95.2z M71.7,117.3c0,0,0.4-0.6,0.5-0.8c-0.3-1.5-1.6-2.6-3.2-2.6c-1.5,0-2.9,1.1-3.2,2.6
				c0.2,0.3,0.3,0.5,0.5,0.8c0.4-0.1,0.7-0.1,1.1-0.1v0c0-0.9,0.7-1.6,1.6-1.6c0.9,0,1.6,0.7,1.6,1.6v0.1
				C71,117.3,71.4,117.3,71.7,117.3z M107.9,32.2c-0.1-0.3-0.1-0.7-0.1-1c-0.3,0.4-0.5,0.8-0.6,1.3c0.1,0.2,0.5,0.8,0.5,0.8
				s0.3,0,0.4,0c0-0.3-0.1-0.5-0.1-0.8C107.9,32.5,107.9,32.3,107.9,32.2L107.9,32.2z M99.8,25.5c0.7,0.4,1.3,0.8,1.9,1.2
				c1.6-2.1,3.9-3.6,6.5-4.1l0.3-1.2c0.1-0.4,0.2-0.8,0.3-1.2C105.2,20.7,101.9,22.6,99.8,25.5z M108.8,36.7l-0.4-1.5
				c-6,0.6-11.3,4-14.4,9.1c1,0.2,2.1,0.5,3.1,0.9c2.8-4.1,7.3-6.7,12.2-7.1C109.1,37.7,108.9,37.2,108.8,36.7L108.8,36.7z
				 M107.7,28.5c0-0.9,0-1.6,0.1-2.5c-1.5,0.5-2.8,1.5-3.7,2.8c0.5,0.5,1.1,1.1,1.5,1.7C106.1,29.7,106.8,29,107.7,28.5z
				 M102.9,34.8c1-0.4,2-0.7,3.1-0.9c-2.6-4.2-6.6-7.3-11.4-8.6c-0.5,0.9-1,1.9-1.4,2.8C97.2,29,100.6,31.4,102.9,34.8L102.9,34.8z
				 M63.2,78c-0.6,0.6-1.2,1.3-1.7,2v0c-0.4,0.6-0.8,1.2-1.1,1.9l0,0c-0.1,0.1-0.1,0.3-0.2,0.4c0,0,0,0,0,0.1S60,82.8,60,82.8
				c5.3-3.7,12.2-3.8,17.6-0.3c0.2-0.1,0.4-0.2,0.6-0.2c1.1-0.4,2.3-0.6,3.5-0.5c-3.5-3.1-8-4.8-12.6-4.8C67,77,65.1,77.4,63.2,78z
				 M67.2,42.4c-0.9,0-1.7-0.1-2.5-0.5c-2.5,0.9-4.6,2.5-6.1,4.6c0.7,0.4,1.3,0.8,1.9,1.2C64,43,70.6,42,75.4,45.5
				c0.9,0.6,1.7,1.4,2.3,2.3c0.3-0.2,0.5-0.4,0.8-0.6c-0.1-1.2-0.6-2.4-1.4-3.3c-2-1.6-4.4-2.5-7-2.7C69.3,41.9,68.3,42.3,67.2,42.4
				L67.2,42.4z M90.9,40.8c0,0.7,0,1.3,0.1,2c0.2,0.3,0.4,0.6,0.4,1v0.1c0.4,0,0.7,0,1,0.1c0,0,0.4-0.6,0.5-0.8
				C92.6,42.1,91.9,41.2,90.9,40.8L90.9,40.8z M171.7,24.7c-6.7,0-12.9,3.5-16.3,9.2c1,0.2,2.1,0.5,3.1,0.9
				c4.9-7.3,14.9-9.2,22.2-4.3c1.7,1.1,3.1,2.6,4.3,4.3c0.4-0.1,0.7-0.3,1.1-0.4c0.2-0.2,0.4-0.4,0.5-0.6s0.1,0,0.2,0
				c0-0.2,0-0.4,0-0.5v-0.1c0-0.3,0-0.6,0-0.9v-0.1C183.2,27.5,177.6,24.7,171.7,24.7L171.7,24.7z M179.6,22.4L179.6,22.4
				c-0.2,0-0.3,0-0.4,0h-1.4c0.2-0.2,0.5-0.4,0.7-0.6c0.1-0.1,0.1-0.1,0.2-0.2s0.3-0.3,0.4-0.4s0.1-0.1,0.2-0.2
				c0.1-0.1,0.3-0.3,0.4-0.4c0-0.1,0.1-0.1,0.1-0.2c0.2-0.2,0.3-0.4,0.4-0.6 M180.3,19.7c0.1-0.2,0.2-0.3,0.4-0.5c0,0,0-0.1,0.1-0.2
				c0.1-0.1,0.2-0.3,0.2-0.4c0,0,0-0.1,0.1-0.1s0.1-0.3,0.2-0.4s0-0.1,0-0.1s0.2-0.4,0.2-0.5c-2.2,1.6-4.1,3.6-5.5,5.9
				c1,0.2,2.1,0.5,3.1,0.9c0.4-0.6,0.9-1.2,1.4-1.7c-0.1,0-0.3-0.1-0.4-0.1h0c-0.1,0-0.2,0-0.3-0.1L180.3,19.7z M158.4,13.8
				c0.3-0.4,0.7-0.9,1-1.3c-0.3-0.3-0.5-0.5-0.7-0.8c-0.4-0.6-0.8-1.2-1.1-1.8c-0.8,0.9-1.6,1.9-2.3,3
				C156.3,13.2,157.4,13.5,158.4,13.8L158.4,13.8z M110.3,46.5h-0.5l0,0c-2.3,0.1-4.4,1.3-5.7,3.2c0.5,0.5,1.1,1.1,1.6,1.7
				c0.9-1.6,2.7-2.6,4.5-2.7c1.8,0.1,3.4,1.1,4.3,2.7c0.5-0.6,1-1.2,1.5-1.7C114.6,47.9,112.5,46.7,110.3,46.5z M132.8,20.6
				c0,0.6,0.1,1.2,0.2,1.7c0,0.2,0.1,0.4,0.1,0.6c0.1-0.1,0.4-0.6,0.5-0.8C133.5,21.6,133.2,21,132.8,20.6L132.8,20.6z M124.2,60.3
				c0.6,0.5,1.1,1.1,1.5,1.7c1.5-2.6,4.8-3.5,7.3-2c0.8,0.5,1.5,1.2,2,2c0.5-0.6,1-1.1,1.5-1.7c-0.6-0.8-1.3-1.5-2.1-2l-1.3-0.1
				c-0.4,0-0.9-0.1-1.3-0.2h0c-0.1,0-0.2,0-0.3-0.1c-0.4-0.1-0.7-0.1-1.1-0.2s-0.9-0.2-1.4-0.4C127,57.6,125.3,58.7,124.2,60.3
				L124.2,60.3z M171.7,9.7h-0.2c0,0.8-0.2,1.6-0.6,2.3c0.2,0,0.5,0,0.7,0c3.4,0,6.6,1.6,8.6,4.4c0.6-0.4,1.2-0.8,1.8-1.2v-0.2
				C179.6,11.7,175.8,9.8,171.7,9.7L171.7,9.7z M69,111.7c1.9,0,3.7,1,4.7,2.7c0.5-0.6,1-1.2,1.5-1.7c-2.4-3.4-7.1-4.3-10.5-1.9
				c-0.7,0.5-1.4,1.2-1.9,1.9c0.5,0.5,1.1,1.1,1.5,1.7C65.4,112.7,67.1,111.8,69,111.7L69,111.7z M140.6,31.4c1.2,1,2.2,2.1,3.1,3.4
				c1-0.4,2-0.7,3.1-0.9c-1.1-1.8-2.5-3.4-4.1-4.8c-0.3,0.2-0.5,0.5-0.8,0.7C141.4,30.3,141,30.8,140.6,31.4L140.6,31.4z
				 M155.7,117.4c-0.1,0.1-0.2,0.3-0.3,0.4l0.6,0.1C155.9,117.8,155.8,117.6,155.7,117.4L155.7,117.4z M100.2,120.1
				c-0.4-0.5-0.8-1-1.2-1.4c-0.2,0.3-0.5,0.5-0.8,0.8c-0.3,0.3-0.6,0.5-0.8,0.8c0.3,0.3,0.6,0.7,0.9,1.1
				C98.8,120.8,99.5,120.4,100.2,120.1z M171.7,101.3c0.6,0,1.3,0.1,1.9,0.4c-0.3-0.5-0.5-1.1-0.6-1.7c0-0.3,0-0.5-0.1-0.8
				c-0.4-0.1-0.8-0.1-1.2-0.1c-2.5,0-4.8,1.2-6.2,3.2c0.5,0.5,1.1,1.1,1.5,1.7C168,102.4,169.7,101.3,171.7,101.3L171.7,101.3z
				 M184.2,95.7L184.2,95.7c-0.1-0.1-0.1-0.2-0.2-0.4l0,0c0-0.1-0.1-0.2-0.2-0.3l0,0l-0.1-0.2l0,0l-0.1-0.2l0,0c0,0-0.1-0.1-0.1-0.2
				v0c-0.1,0-0.1-0.1-0.1-0.2l0,0c0,0-0.1-0.1-0.1-0.1s0,0,0,0s0-0.1-0.1-0.1v0c0,0,0-0.1-0.1-0.1s-0.1-0.1-0.1-0.1s0-0.1,0-0.2
				c-0.4-0.1-0.9-0.2-1.3-0.2c-0.5-0.1-1-0.1-1.5,0c2,1.2,3.8,2.8,5.1,4.8c0.1,0,0.2-0.1,0.3-0.1c-0.3-0.6-0.5-1.1-0.8-1.7
				C184.5,96,184.4,95.8,184.2,95.7L184.2,95.7z M21.6,49.8c0.6,0.5,1.1,1.1,1.5,1.7c1-1.7,2.7-2.7,4.6-2.7c1.9,0,3.6,1,4.6,2.5
				c0.1,0,0.2,0,0.3,0c0.4-0.5,0.9-1,1.4-1.5c-2.4-3.4-7.1-4.3-10.6-1.9C22.7,48.6,22.1,49.2,21.6,49.8L21.6,49.8z M31,53.6
				c0-0.1,0-0.2-0.1-0.4c-0.1,0.2-0.2,0.3-0.4,0.5c-0.1,0.2-0.2,0.5-0.3,0.7h0.2C30.5,54.4,30.8,53.8,31,53.6L31,53.6z M27.8,52.6
				c0.9,0,1.6,0.7,1.6,1.5c0-0.3,0.1-0.5,0.3-0.8c0.2-0.4,0.4-0.7,0.8-1c-1-1.5-3-1.8-4.5-0.8c-0.7,0.5-1.1,1.2-1.3,2
				c0.2,0.3,0.3,0.5,0.5,0.8c0.4-0.1,0.7-0.1,1.1-0.1v0c0-0.8,0.6-1.6,1.5-1.6C27.7,52.6,27.8,52.6,27.8,52.6L27.8,52.6z M31.2,56.7
				c0.5,0.2,1,0.2,1.4,0l0,0c-0.6-0.2-1.3-0.3-1.9-0.4C30.8,56.5,31,56.6,31.2,56.7L31.2,56.7z M36.9,53.6c-0.1-0.1-0.3-0.2-0.4-0.3
				l-0.8-0.5c-0.5-0.3-1.1-0.5-1.6-0.6c-0.7,0.8-1.4,1.7-2,2.7c0.7,0.1,1.3,0.3,1.9,0.5c0.1,0,0.3,0,0.4,0.1l0.8,0.3
				C35.7,55,36.3,54.3,36.9,53.6z M59.4,110c0.4,0.2,0.7,0.5,1.1,0.7c3.5-4.7,10.1-5.8,14.9-2.3c0.9,0.6,1.7,1.4,2.3,2.3
				c0.6-0.5,1.2-0.9,1.9-1.2c-4.2-5.8-12.4-7.1-18.2-2.9c-0.9,0.7-1.8,1.5-2.5,2.4C59,109.3,59.2,109.7,59.4,110z M82.3,108.2
				c1-0.4,2-0.7,3.1-0.9c-1.5-2.5-3.5-4.5-5.9-6.1c0,0.3,0,0.7,0,1c0,0.3,0.3,0.6,0.1,0.8c-0.1,0.2-0.4,0.3-0.6,0.2
				c-0.3-0.1-0.4-0.5-0.5-0.8c-0.6-1.2-1.6-2.3-2.7-3.1c-2.2-0.8-4.5-1.3-6.8-1.3c-0.8,0-1.5,0-2.3,0.1c-1.4,0.5-2.7,1.2-3.8,2.1
				c-1.2,1-2.2,2.1-3.1,3.4c-0.1,0.2-0.2,0.4-0.3,0.5c7.1-5.3,17-3.8,22.3,3.2C82,107.7,82.1,108,82.3,108.2L82.3,108.2z
				 M131.6,36.3l0.3,0.1c0,0,0,0,0.1,0c0.1,0.1,0.2,0.1,0.3,0.1h0.1l0.7,0.1C132.7,36.4,132.2,36.3,131.6,36.3L131.6,36.3z
				 M59.6,52.2c-0.1,0.2-0.2,0.4-0.2,0.6c0,0.1-0.1,0.2,0,0.4c0.8,0.8,1.6,1.7,2.3,2.7c1-0.4,2-0.7,3.1-0.9c-0.8-1.4-1.8-2.7-3-3.8
				c-0.4,0-0.8,0-1.2,0.2C60.1,51.6,59.8,51.9,59.6,52.2L59.6,52.2z M67.8,59.2c0.2-0.1,0.4-0.3,0.5-0.4c0.3-0.3,0.6-0.5,0.8-0.8h0
				l0.3-0.3c0.1,0.2,0.2,0.3,0.4,0.5c0.1,0.1,0.2,0.2,0.2,0.3c0,0,0.1,0.1,0.1,0.2c0.2,0.3,0.5,0.5,0.8,0.7c1.4,0.2,2.7,0.5,4,1.1
				l0.5-0.1c0,0,0.1,0,0.1,0c0.2,0,0.3-0.1,0.4-0.2c0.1,0,0.1-0.1,0.2-0.1h0c0.1-0.1,0.1-0.1,0.2-0.1v0c0,0,0.1-0.1,0.1-0.1h0
				c0,0,0.1-0.1,0.1-0.2s0,0,0,0s0.1-0.1,0.1-0.2l0,0c0-0.1,0.1-0.2,0.1-0.2c0-0.1,0.1-0.2,0.1-0.3l0.1-0.3
				c-7.6-3.8-16.8-2.2-22.5,4.1c0.7,0.2,1.4,0.3,2.1,0.3h1c0.4,0,0.7,0,1,0C61.5,60.8,64.6,59.5,67.8,59.2L67.8,59.2z M59.2,83.5
				c-0.3,0-0.5,0.1-0.8,0.1l0,0c-0.2,0-0.5,0.1-0.7,0.2c0,0-0.1,0-0.1,0c-0.2,0.1-0.4,0.1-0.6,0.2c0,0-0.1,0-0.1,0
				c-0.2,0.1-0.5,0.2-0.7,0.3c-0.5,0.3-0.9,0.6-1.3,0.9l0,0c-0.2,0.1-0.4,0.3-0.5,0.5v0c-0.2,0.2-0.4,0.4-0.5,0.6
				c0.7,0.2,1.5,0.4,2.2,0.7C56.8,85.8,57.9,84.5,59.2,83.5z M76.4,55.8c0.2-0.3,0.4-0.6,0.6-0.9l-0.3-0.3c-0.1-0.1-0.2-0.2-0.3-0.2
				l0,0c-0.1,0-0.2-0.1-0.3-0.2l0,0c-0.1,0-0.2-0.1-0.3-0.2c-0.4-0.2-0.8-0.3-1.1-0.4l0,0c-0.1,0-0.3,0-0.4,0
				c-0.3,0.4-0.6,0.9-0.9,1.4C74.4,55.2,75.4,55.5,76.4,55.8L76.4,55.8z M74.4,53.3l0.6-0.3c0,0,0.1,0,0.1,0l0.5-0.3l0,0
				c0.2-0.1,0.4-0.3,0.5-0.4h0c0.2-0.1,0.3-0.3,0.4-0.4h0c0.3-0.3,0.6-0.7,0.8-1.1c0.2-0.4,0.4-0.8,0.6-1.2
				C76.7,50.7,75.5,51.9,74.4,53.3L74.4,53.3z M54.6,60.3c-1.1-1.5-2.6-2.6-4.4-3l0,0c0,0.1,0,0.2,0.1,0.3c0,0,0,0.1,0,0.1
				c0,0.1,0,0.2,0.1,0.3s0,0.1,0,0.1s0,0.2,0.1,0.2s0,0.1,0,0.1s0.1,0.1,0.1,0.2s0,0.1,0.1,0.1s0.1,0.1,0.1,0.2s0,0.1,0.1,0.1
				s0.1,0.1,0.1,0.2s0,0.1,0.1,0.1s0.1,0.1,0.2,0.2s0,0.1,0.1,0.1c0.1,0.1,0.2,0.2,0.3,0.3c0.1,0.1,0.3,0.2,0.4,0.4l0.1,0.1
				c0.1,0.1,0.2,0.2,0.3,0.3s0,0,0.1,0s0.2,0.2,0.4,0.3s0,0,0,0c0.1,0.1,0.3,0.2,0.4,0.3C53.8,61.1,54.2,60.7,54.6,60.3L54.6,60.3z
				 M71.6,54.3c0,0,0.4-0.6,0.5-0.8c-0.3-1.5-1.6-2.6-3.2-2.6c-1.5,0-2.9,1.1-3.2,2.6c0.2,0.3,0.3,0.5,0.5,0.8
				c0.4-0.1,0.7-0.1,1.1-0.1v0c0-0.9,0.7-1.6,1.6-1.6c0.9,0,1.6,0.7,1.6,1.6c0,0,0,0,0,0v0.1C71,54.3,71.4,54.3,71.6,54.3L71.6,54.3
				z M94.9,84.7c0.2,0.1,0.3,0.2,0.5,0.3c0.7,0.4,1.3,1.1,1.8,1.8c1.7-2.4,4.1-4.3,6.8-5.5c-0.1-0.2-0.3-0.4-0.4-0.6
				c-0.1-0.2-0.3-0.4-0.4-0.6c0,0-0.1-0.1-0.1-0.1c-0.1-0.2-0.3-0.3-0.4-0.5c-0.1-0.1-0.2-0.2-0.3-0.4c-0.1-0.1-0.1-0.2-0.2-0.3
				C99.3,80.2,96.8,82.2,94.9,84.7L94.9,84.7z M89.6,78c-2.5,0-4.8,1.2-6.2,3.2c0.4,0.4,0.8,0.8,1.2,1.2l0.5,0.3
				c1.6-2.5,4.9-3.2,7.4-1.7c0.7,0.5,1.4,1.1,1.8,1.9c0.5-0.6,1-1.2,1.5-1.7C94.4,79.3,92.1,78.1,89.6,78L89.6,78z M104.2,64.9
				c0,0,0.1,0,0.1,0.1c0.3,0.2,0.6,0.4,1,0.6c1.5-0.8,3.1-1.2,4.8-1.2c3.2,0.1,6.3,1.7,8.2,4.3c0.6-0.4,1.2-0.8,1.9-1.2
				c-2.3-3.2-6-5.2-10-5.4h-0.5l0,0c-2.3,0.1-4.6,0.8-6.5,2C103.6,64.5,103.9,64.7,104.2,64.9L104.2,64.9z M189,53.5
				c0.2,0.3,0.3,0.5,0.5,0.8c0.3,0,0.7-0.1,1-0.1c0,0,0,0,0-0.1c0-0.5,0.2-0.9,0.6-1.2l0.1-0.3c0.1-0.1,0.1-0.2,0.1-0.3
				c0.1-0.1,0.1-0.2,0.1-0.3c0-0.1,0-0.2,0.1-0.2l0,0c0-0.1,0.1-0.2,0.1-0.2l0,0c0,0,0-0.1,0-0.2l0,0c0,0,0-0.1,0-0.2v0
				c0,0,0-0.1,0-0.1C190.4,51.3,189.4,52.3,189,53.5L189,53.5z M58.5,88.5c0.7,0.4,1.3,0.8,1.9,1.2c2.9-4,8.2-5.4,12.7-3.5
				c0.5-0.6,1-1.2,1.6-1.7c-1.8-0.9-3.8-1.4-5.8-1.4C64.9,83.1,61,85.1,58.5,88.5z M78.5,83.3c1.5,1.1,2.8,2.5,3.8,4
				c1-0.4,2-0.7,3.1-0.9c-0.7-1.2-1.6-2.4-2.7-3.4C81.3,82.7,79.9,82.8,78.5,83.3L78.5,83.3z M74,86.6c1.4,0.8,2.7,1.8,3.6,3.1
				c0.6-0.4,1.2-0.8,1.9-1.2c-1.1-1.4-2.4-2.6-3.9-3.6C75.1,85.5,74.5,86,74,86.6L74,86.6z M157.3,112.7c-1.2-1.7-3-2.9-5.1-3.2
				c-0.1,0.8-0.1,1.6,0.1,2.3c1.4,0.4,2.7,1.3,3.4,2.5C156.2,113.8,156.7,113.2,157.3,112.7L157.3,112.7z M151,111.7h0.3
				c-0.2-0.7-0.2-1.5,0-2.3h-0.2c-2.5,0-4.8,1.2-6.2,3.2c0.5,0.5,1.1,1.1,1.5,1.7C147.4,112.8,149.1,111.8,151,111.7L151,111.7z
				 M151,104.1c-4.2,0-8.1,2-10.5,5.4c0.7,0.4,1.3,0.8,1.9,1.2c2-2.7,5.2-4.3,8.6-4.4c0.5,0,1,0,1.5,0.1c0.6-0.8,1.4-1.4,2.4-1.8
				C153.7,104.3,152.3,104.1,151,104.1L151,104.1z M110.2,106.4c0.4,0,0.9,0,1.3,0.1c0.1-0.6,0.1-1.1,0-1.7v-0.1c0-0.2,0-0.4,0-0.5
				c-0.4-0.1-0.7-0.1-1.1-0.1h-0.5l0,0c-4,0.2-7.7,2.1-10,5.4c0.7,0.4,1.3,0.8,1.9,1.2C103.7,108.1,106.8,106.4,110.2,106.4z
				 M155.7,98.6c-1.5-0.4-3.1-0.6-4.7-0.6c-6.7,0-12.9,3.5-16.3,9.2c1,0.2,2.1,0.5,3.1,0.9c3-4.4,7.9-7.1,13.2-7.1
				c1.6,0,3.2,0.2,4.7,0.7C155.6,100.8,155.6,99.7,155.7,98.6L155.7,98.6z M180.2,60.9h0.5c1.1,0,2.2-0.2,3.3-0.5c0,0,0.1,0,0.2,0h0
				c0,0,0.1,0,0.1,0h0c0,0,0,0,0.1,0h0c0.2-0.1,0.5-0.2,0.7-0.3c0,0,0.1,0,0.2-0.1c0.2-0.1,0.4-0.2,0.6-0.4l0.6-0.4
				c0,0,0.1,0,0.1-0.1l0.5-0.4c0.2-0.2,0.4-0.3,0.5-0.5l0.1-0.1l0.5-0.5c0.2-0.2,0.3-0.3,0.4-0.5l0.1-0.1l0.4-0.5
				c-3.6,0.6-6.9,2.1-9.6,4.5C179.8,60.9,180,60.9,180.2,60.9z M57.1,58.3c0.6-0.4,1.2-0.9,1.9-1.2c-1.4-2-3.3-3.5-5.6-4.4
				c-1,0.3-1.9,0.8-2.6,1.6C53.3,54.8,55.5,56.3,57.1,58.3L57.1,58.3z M110.2,101.1h0.5c-0.4-1.1-1.1-2.1-1.8-3
				c-6.2,0.5-11.7,3.9-14.9,9.2c1,0.2,2.1,0.5,3.1,0.9C100,103.8,104.9,101.2,110.2,101.1z M61.7,97.8c1-0.4,2-0.7,3.1-0.9
				c-2.7-4.5-7.1-7.6-12.1-8.8c-0.1,0.2-0.2,0.5-0.3,0.7l0,0c-0.1,0.3-0.2,0.5-0.3,0.8c-0.1,0.5-0.2,0.9-0.3,1.4
				C55.8,91.9,59.4,94.3,61.7,97.8L61.7,97.8z M69,46.5c-2.5,0-4.8,1.2-6.2,3.2c0.6,0.5,1.1,1.1,1.5,1.7c1.5-2.6,4.8-3.4,7.4-1.9
				c0.8,0.5,1.5,1.1,1.9,1.9c0.5-0.6,1-1.2,1.5-1.7C73.8,47.8,71.5,46.5,69,46.5z M57,100.3c0.6-0.5,1.2-0.9,1.9-1.2
				c-1.7-2.4-4.3-4.2-7.1-4.9c0.2,1,0.7,2,1.2,2.9C54.6,97.8,56,98.9,57,100.3L57,100.3z M78.6,100.6l-0.3-0.1
				c0.1,0.1,0.1,0.2,0.2,0.3S78.6,100.7,78.6,100.6L78.6,100.6z M84.4,97.3c-0.9-0.3-1.9-0.2-2.7,0.3c-0.8,0.4-1.4,1.1-1.8,1.9
				l1.2,0.8C82,99.1,83.1,98.1,84.4,97.3L84.4,97.3z M89.7,82.5c-1.1,0-2.2,0.6-2.8,1.6c0.5,0.4,0.8,1,1.1,1.5
				c0.1-0.8,0.8-1.5,1.6-1.5c0.4,0,0.8,0.1,1.1,0.4c0.4-0.1,0.7-0.2,1.1-0.3c0.2,0,0.5,0,0.7,0C92,83.2,90.9,82.5,89.7,82.5
				L89.7,82.5z M36.4,47.8c0.6-0.5,1.2-0.9,1.9-1.2c-1.5-2.1-3.5-3.6-5.9-4.5c-0.1,0.2-0.2,0.5-0.3,0.7c0,0,0,0.1,0,0.1
				c-0.1,0.2-0.2,0.5-0.2,0.8c-0.8-0.7-1.7-1.2-2.7-1.4c-0.4-0.1-0.8-0.1-1.2-0.1c-0.2,0-0.3,0-0.5,0c0,0-0.1,0-0.1,0
				c-0.1,0-0.3,0-0.4,0.1c-0.1,0-0.1,0-0.1,0c-0.3,0.1-0.6,0.2-0.9,0.4l0,0l-0.4,0.3l0,0c-0.5,0.3-0.9,0.7-1.2,1.2
				c1.2-0.4,2.4-0.6,3.6-0.6C31.3,43.5,34.5,45.1,36.4,47.8L36.4,47.8z M17.2,46.5c0.7,0.4,1.3,0.8,1.9,1.2c0.8-1,1.7-1.9,2.7-2.6
				c-0.1-0.1-0.3-0.2-0.5-0.3c0,0-0.1,0-0.1-0.1s-0.3-0.2-0.4-0.3c0,0-0.1,0-0.1,0l-0.5-0.3c0,0,0,0,0,0L19.8,44
				C18.9,44.7,18,45.6,17.2,46.5z M14.5,45.2c0.5-0.8,1.2-1.6,1.9-2.3h-0.7c-0.2,0-0.4,0-0.5,0s-0.4,0-0.6,0.1h-0.2L14,43.2
				c0,0-0.1,0-0.2,0s-0.3,0.1-0.4,0.2s0,0-0.1,0s-0.3,0.1-0.4,0.2s-0.1,0-0.2,0.1s-0.2,0.1-0.3,0.2c-0.1,0-0.1,0.1-0.2,0.1
				c-0.1,0-0.2,0.1-0.3,0.2s-0.1,0-0.1,0.1C12.7,44.6,13.6,44.9,14.5,45.2L14.5,45.2z M41.1,45.2c1-0.4,2-0.7,3.1-0.9
				c-0.4-0.7-0.9-1.4-1.5-2c-0.2-0.1-0.4-0.1-0.6-0.1c-0.3,0-0.6,0-0.9,0.1c-0.3,0.1-0.5,0.3-0.8,0.2C40.1,42.5,40,42.3,40,42
				c0.1-0.3,0.5-0.4,0.7-0.4c0.4-0.1,0.8-0.2,1.2-0.2c-1.3-1.4-2.7-2.6-4.4-3.6c0,0-0.1,0-0.1,0L37,38c0,0-0.1,0-0.2,0
				C36.7,38,36.6,38,36.5,38c0,0-0.1,0-0.2,0.1l-0.3,0.1c-0.1,0-0.1,0-0.2,0.1l-0.2,0.1c-0.1,0-0.1,0.1-0.2,0.1
				c-0.1,0-0.1,0.1-0.2,0.1L35,38.9c0,0-0.1,0.1-0.2,0.1s-0.1,0.1-0.2,0.1s-0.1,0.1-0.2,0.1l-0.2,0.2C37,40.7,39.4,42.7,41.1,45.2
				L41.1,45.2z M62.4,34.5c0.7-0.3,1.5-0.5,2.3-0.6c-0.2-0.3-0.4-0.6-0.5-0.8H64c-0.1,0-0.1,0-0.2,0c-0.2,0-0.4,0-0.6,0.1
				c0,0.1,0,0.1,0,0.2c-0.3,0.3-0.5,0.7-0.7,1.1C62.5,34.4,62.5,34.5,62.4,34.5z M40.7,34.1v0.3c0,0.1,0,0.2,0,0.3l0,0
				c0,0.1,0,0.2,0,0.4l0,0c0,0.1,0,0.3,0.1,0.4s0.1,0.3,0.1,0.4c4.2-4,11-3.9,15,0.3c0.3,0.3,0.6,0.7,0.9,1.1
				c0.6-0.4,1.2-0.8,1.9-1.2c-4.2-5.8-12.3-7.1-18.1-2.9c0,0,0,0-0.1,0c0,0.1,0,0.1,0,0.2L40.7,34.1L40.7,34.1z M61.5,34.5
				c0.3-0.7,0.7-1.4,1.2-1.9v0c-0.2-0.4-0.4-0.8-0.6-1.1l0,0c-0.1-0.2-0.2-0.4-0.4-0.5s0,0,0-0.1s-0.3-0.4-0.5-0.6l0,0
				c-0.1-0.2-0.3-0.4-0.5-0.5l0,0l-0.5-0.5c0,0-0.1,0-0.1-0.1c-0.2-0.2-0.4-0.3-0.6-0.5s-0.1,0-0.1-0.1c-0.2-0.2-0.5-0.3-0.7-0.4
				c-0.2-0.1-0.4-0.3-0.7-0.4c-0.1,0-0.1-0.1-0.2-0.1s-0.4-0.1-0.5-0.2s-0.2,0-0.3-0.1s-0.4-0.1-0.5-0.2c-0.1,0-0.1-0.1-0.2-0.1
				c-0.3-0.1-0.5-0.1-0.8-0.2l0,0L55,26.7c-0.1,0-0.1,0-0.2,0c-0.2-0.1-0.4-0.1-0.6-0.1c-0.1,0-0.2,0-0.3-0.1c-0.2,0-0.4,0-0.6,0
				h-1.1c-0.3,0-0.5,0-0.8,0h-0.2c-0.2,0-0.4,0-0.6,0.1c-0.1,0-0.2,0-0.2,0.1l-0.7,0.1h-0.1c-0.5,0.1-1.1,0.2-1.6,0.4
				c0,0-0.1,0-0.1,0c-0.2,0.1-0.4,0.1-0.6,0.2s-0.1,0-0.1,0l-0.7,0.3l0,0c-0.3,0.1-0.5,0.2-0.8,0.4c1-0.2,2.1-0.3,3.1-0.3
				C53.8,27.9,58.5,30.4,61.5,34.5z M66.4,33.4c0.4-0.1,0.7-0.1,1.1-0.1v-0.1h-0.1c-0.1,0-0.3,0-0.5,0c-0.1,0-0.1,0-0.2,0
				c-0.1,0-0.3,0-0.4,0h-0.1C66.2,33.2,66.3,33.3,66.4,33.4L66.4,33.4z M38.2,59.2c-1.3-0.9-2.8-1.6-4.3-2.1c-0.6,0.5-1.3,0.7-2,0.7
				c-1-0.1-1.8-0.7-2.2-1.6c-0.6,0-1.2-0.1-1.8-0.1c-1.4,0-2.9,0.2-4.3,0.5c0.3,1,0.9,2,1.5,2.8c0.9-0.2,1.8-0.2,2.8-0.2
				c2.9,0,5.7,0.8,8.2,2.3c0.1,0,0.2-0.1,0.3-0.2l0,0c0.1-0.1,0.2-0.1,0.3-0.2C37.2,60.5,37.8,59.9,38.2,59.2z M37.9,57.1
				c0.3,0.1,0.5,0.3,0.8,0.5c0-0.4,0-0.8-0.1-1.2C38.3,56.5,38.1,56.8,37.9,57.1z M9.9,45.9l-0.4,0.3c-0.1,0-0.1,0.1-0.2,0.1
				c-0.1,0-0.2,0.1-0.3,0.2c-0.1,0-0.1,0.1-0.2,0.1c-0.1,0-0.2,0.1-0.4,0.2s-0.1,0-0.1,0.1S8,47,7.8,47.1s-0.1,0-0.2,0l-0.4,0.1
				c0,0-0.1,0-0.2,0l-0.7,0.1c-0.3,0-0.5,0.1-0.8,0.1H5.5c-0.2,0-0.5,0-0.7,0H3.9c-0.4,0-0.9-0.1-1.3-0.2H2.5l-0.6-0.1H1.8
				c-0.2,0-0.4-0.1-0.5-0.2c0,0,0,0-0.1,0s-0.4-0.1-0.5-0.2c-0.1,0.1-0.2,0.1-0.3,0.1c0.6,0.7,1.2,1.3,1.8,1.9
				c0.2,0.2,0.4,0.3,0.6,0.5c3.6-1,7.4-0.8,10.8,0.7c0.2,0,0.4-0.1,0.6-0.2c0.1,0,0.1,0,0.2,0c0.2-0.1,0.3-0.1,0.5-0.1
				c0.1,0,0.1,0,0.2,0c0.2,0,0.3-0.1,0.5,0h1c0.3,0,0.5,0,0.7,0h0.2l0.7,0.1c0.2,0,0.4,0.1,0.7,0.2c0,0,0.1,0,0.1,0
				c0.2,0.1,0.5,0.1,0.7,0.2C16.8,48,13.5,46.4,9.9,45.9L9.9,45.9z M48.4,48.7c2.5,0,5,0.6,7.2,1.7c0.3-1.1,0.2-2.2-0.1-3.2
				c0,0,0-0.1,0-0.2c-2.2-0.9-4.6-1.3-7-1.3c-5.1,0-10,2.1-13.6,5.7l0.5,0.1c0.5,0.2,1,0.5,1.5,0.8c0.2,0.1,0.4,0.3,0.6,0.5
				c0,0,0-0.1,0.1-0.2s0.1-0.1,0.1-0.2l0,0l0.1-0.1c0,0,0,0,0.1,0c0.1-0.1,0.1-0.1,0.2-0.1c0,0,0.1,0,0.1,0s0.1,0,0.1,0s0.1,0,0.2,0
				h0.1c0.1,0,0.3-0.1,0.4-0.1C41.7,49.9,45,48.8,48.4,48.7L48.4,48.7z M49.7,54.1c0.6-0.8,1.4-1.4,2.3-1.8
				c-1.2-0.4-2.4-0.5-3.6-0.5c-1.7,0-3.3,0.3-4.9,0.9c0.5,0.3,0.9,0.7,1.2,1.1c0.2,0.2,0.4,0.4,0.6,0.7c1-0.3,2-0.4,3-0.5
				C48.8,54,49.2,54,49.7,54.1L49.7,54.1z M29.5,62.3c0.3,0.1,0.5,0.1,0.8,0.2l0,0l0.9,0.1C30.7,62.5,30.1,62.3,29.5,62.3L29.5,62.3
				z M23.4,54.9c-0.1-0.3-0.3-0.5-0.5-0.8c0,0.3,0,0.6,0.1,0.8C23.2,55,23.3,54.9,23.4,54.9L23.4,54.9z M130.4,33
				c2.6,0,5.1,0.9,7,2.6c0.2-0.1,0.4-0.3,0.6-0.4c0-0.1,0-0.1,0-0.2c0.1-0.5,0.4-1,0.5-1.5c-2.3-1.8-5.1-2.8-8.1-2.8
				c-0.3,0-0.7,0-1,0c-0.1,0.4-0.1,0.8-0.1,1.1v0.6c0,0.2,0,0.4,0.1,0.5C129.7,33.1,130,33,130.4,33L130.4,33z M62.4,38.5
				c0.1,0.3,0.3,0.6,0.5,0.9c0.9-0.4,1.9-0.7,2.9-0.9c-0.1-0.1-0.1-0.2-0.1-0.4c0-0.7,0.2-1.4,0.7-1.8c1-1.1,2.6-1.2,3.7-0.2
				c0.6,0.6,1,1.4,1,2.2c1,0.1,2.1,0.4,3.1,0.7c0-0.1-0.1-0.2-0.1-0.4l0,0c0-0.1-0.1-0.2-0.1-0.4s-0.2-0.4-0.3-0.6
				c0-0.1-0.1-0.1-0.1-0.2c0-0.1-0.1-0.1-0.1-0.2c0-0.1-0.1-0.2-0.2-0.3c0,0-0.1-0.1-0.1-0.2c-0.1-0.1-0.2-0.2-0.2-0.3l-0.1-0.1
				c-0.1-0.1-0.2-0.3-0.4-0.5c-0.2-0.2-0.4-0.4-0.6-0.6c-0.9-0.1-1.9-0.2-2.8-0.2c-2.4,0-4.8,0.5-7.1,1.4
				C62,37.2,62.1,37.9,62.4,38.5L62.4,38.5z M139.9,30.9c0.6-0.8,1.2-1.6,2-2.3c-2.3-1.8-5.1-3-7.9-3.5l0.4,0.7c0,0,0.1,0.1,0.1,0.1
				c0.1,0.1,0.2,0.3,0.4,0.4s0.1,0.1,0.2,0.2l0.4,0.4c0,0.1,0.1,0.1,0.2,0.1c0.2,0.2,0.4,0.3,0.6,0.4c-0.1-0.1-0.2-0.1-0.4-0.2
				c0,0-0.1,0-0.1,0c-0.1,0-0.1-0.1-0.2-0.1c0,0-0.1-0.1-0.1-0.1c-0.1,0-0.1-0.1-0.2-0.1c0,0-0.1,0-0.1,0s-0.2,0-0.3,0h-0.1
				c-0.1,0-0.2,0-0.4,0h-0.9c-0.1,0-0.1,0-0.2,0c-0.1,0-0.1,0-0.2,0h-0.2c-0.1,0.1-0.2,0.1-0.3,0.1s-0.1,0.1-0.1,0.1s-0.1,0-0.2,0.1
				s-0.1,0-0.1,0s-0.1,0.1-0.2,0.1s-0.1,0.1-0.1,0.1l-0.2,0.1c0,0.1-0.1,0.1-0.1,0.1s-0.1,0.1-0.2,0.1
				C134.4,27.9,137.4,29,139.9,30.9L139.9,30.9z M139,16.4c0.6-0.4,1.2-0.9,1.9-1.2c-0.8-1.2-1.8-2.2-3-3l-0.5,0.3
				c-0.2,0.1-0.4,0.2-0.5,0.3c-0.4,0.2-0.7,0.5-1,0.8C137.1,14.2,138.2,15.2,139,16.4L139,16.4z M135.1,20.1c0.5-0.6,1-1.2,1.5-1.7
				c-0.7-1-1.6-1.8-2.7-2.4c-0.1,0.2-0.3,0.5-0.4,0.8c0,0,0,0.1,0,0.1c-0.1,0.3-0.2,0.5-0.3,0.8c0,0.1,0,0.2-0.1,0.4
				C134,18.6,134.6,19.3,135.1,20.1L135.1,20.1z M117.2,55.8c0.8-1.1,1.7-2.2,2.8-3.1l-1.2-0.9c-0.4-0.3-0.8-0.6-1.1-1
				c-1.3,1.2-2.5,2.6-3.4,4.2C115.2,55.2,116.2,55.5,117.2,55.8z M119.9,57.1c0.7,0.4,1.3,0.8,1.9,1.2c0.8-1.1,1.8-2,3-2.7l-1-0.5
				c0,0-0.1,0-0.2-0.1c-0.4-0.2-0.8-0.4-1.1-0.6C121.5,55.2,120.7,56.1,119.9,57.1L119.9,57.1z M98.3,37.4c0.6-0.5,1.2-0.9,1.9-1.2
				c-1.9-2.7-4.8-4.5-8-5.2c-0.1,0.4-0.2,0.7-0.3,1.1s-0.2,0.7-0.3,1.1C94.3,33.7,96.6,35.2,98.3,37.4L98.3,37.4z M94.3,41.1
				c0.5-0.6,1-1.2,1.5-1.7c-1.1-1.6-2.9-2.8-4.8-3.1c-0.1,0.7-0.2,1.5-0.2,2.2C92.3,38.9,93.5,39.8,94.3,41.1L94.3,41.1z M89.7,75
				c3.4,0,6.6,1.6,8.6,4.4c0.6-0.4,1.2-0.8,1.9-1.2C96,72.3,87.8,71,82,75.3c-1.1,0.8-2,1.7-2.8,2.8c0.7,0.4,1.3,0.8,1.9,1.2
				C83.1,76.6,86.3,75,89.7,75L89.7,75z M111.5,12.2L111.5,12.2L111.5,12.2c0.3,0.1,0.6,0.1,0.9,0.2c0.2-0.3,0.4-0.7,0.7-1
				c0-0.2-0.1-0.3-0.2-0.5c-0.5,0.1-1,0.3-1.5,0.5C111.4,11.7,111.4,12,111.5,12.2L111.5,12.2z M110.3,41.2h-0.5l0,0
				c-4,0.2-7.7,2.1-10,5.4c0.7,0.4,1.3,0.8,1.9,1.2c2-2.7,5.1-4.3,8.5-4.4c0.5,0,1,0.1,1.5,0.2l-0.7-1.2c-0.2-0.4-0.4-0.8-0.6-1.2
				C110.4,41.2,110.4,41.2,110.3,41.2L110.3,41.2z M97,24.3c2.9-4.3,7.6-6.9,12.8-7.1c0.2-0.5,0.5-1,0.7-1.6s0.5-1,0.8-1.5
				c-0.3,0-0.7,0-1,0h-0.5l0,0c-2.2,0-4.4,0.5-6.4,1.3c-1.9,1.4-3.7,3-5.3,4.8c-0.9,1.1-1.8,2.3-2.6,3.5C96,23.9,96.5,24.1,97,24.3
				L97,24.3z M151,130.5c-2.5,0-4.8,1.2-6.2,3.2l0.2,0.2c0.1,0,0.3-0.1,0.4-0.1c0,0,0.1,0,0.2,0l0,0c0,0,0.1,0,0.2,0s0,0,0.1,0
				s0.1,0,0.2,0s0.1,0,0.1,0s0.1,0,0.2,0s0.1,0,0.1,0s0.2,0,0.2-0.1s0.1,0,0.1,0c0.1,0,0.2-0.1,0.3-0.1c0,0,0.1,0,0.1,0
				c0.1,0,0.2-0.1,0.4-0.1c0,0,0,0,0.1,0c0.3-0.1,0.6-0.2,0.9-0.4c0,0,0.1,0,0.1,0c0.1,0,0.3-0.1,0.4-0.2c0,0,0.1,0,0.1-0.1
				c0.1,0,0.2-0.1,0.4-0.2c0,0,0.1,0,0.2-0.1s0.2-0.1,0.4-0.2s0.1,0,0.2-0.1s0.2-0.1,0.4-0.2s0.1,0,0.2-0.1s0.3-0.1,0.4-0.2
				s0.1,0,0.1-0.1s0.3-0.2,0.4-0.3s0,0,0.1,0s0.4-0.2,0.5-0.4C152,130.8,151.5,130.6,151,130.5L151,130.5z M156.4,105.2
				c-0.2,0-0.3,0-0.5,0.1c-0.6,0.2-1.1,0.4-1.6,0.8c-0.2,0.2-0.4,0.4-0.6,0.6c2.4,0.6,4.5,2,6,4c0-0.3,0.1-0.6,0.2-1
				c0,0,0-0.1,0-0.1c0-0.1,0.1-0.2,0.1-0.4c0,0,0-0.1,0-0.1c0.1-0.2,0.1-0.4,0.2-0.5c0.1-0.2,0.1-0.3,0.2-0.4
				C159.2,106.9,157.8,105.9,156.4,105.2L156.4,105.2z M156.6,98.9c-0.1,0.8-0.1,1.7,0,2.5c0,0.3,0.1,0.5,0.1,0.8
				c2.1,0.8,4,2,5.6,3.6c0.1-0.1,0.2-0.1,0.2-0.2l0.1-0.1l0.3-0.2c0,0,0.1-0.1,0.1-0.1c0.2-0.1,0.4-0.3,0.6-0.4l0.3-0.1
				c0,0,0.1,0,0.1,0l0.3-0.1c0,0,0,0,0.1,0l0.6-0.2C162.8,101.7,159.9,99.9,156.6,98.9L156.6,98.9z M139.7,63.1
				c0.4-0.3,0.8-0.7,1.1-1h0c0.3-0.3,0.6-0.6,1-0.9l0.2-0.2c0.3-0.3,0.7-0.7,1-1l0.1-0.1l0.8-0.9c0.1-0.1,0.1-0.2,0.2-0.3
				c0.3-0.4,0.6-0.7,0.8-1.1l-1.2,0.3c-0.3,0.1-0.7,0.1-1,0.2c-3.3,1.6-6.1,4.1-8,7.3c0.4,0.1,0.8,0.2,1.3,0.3
				c0.9-0.5,1.7-1.1,2.5-1.6C138.9,63.7,139.3,63.4,139.7,63.1L139.7,63.1z M171.7,108.6c-1.1,0-2.1,0.1-3.2,0.3
				c0.1,0.1,0.1,0.2,0.1,0.3c0,0.1,0,0.1,0.1,0.2c0.1,0.1,0.1,0.2,0.1,0.3c0,0.1,0.1,0.2,0.1,0.2c0.1,0.1,0.1,0.2,0.2,0.4
				c0,0,0,0.1,0.1,0.1c0.1,0.2,0.2,0.3,0.3,0.4l0.1,0.1c0.1,0.2,0.3,0.3,0.4,0.4l0.3,0.3c0.5,0,1-0.1,1.5-0.1c2.5,0,4.9,0.6,7.1,1.7
				c1.2-0.3,2.3-0.9,3.2-1.7C178.9,109.6,175.3,108.6,171.7,108.6L171.7,108.6z M157.3,115.2l0.6-0.3c0.1-0.1,0.1-0.1,0.2-0.1
				c0,0,0.1-0.1,0.2-0.1c0.1-0.1,0.3-0.2,0.4-0.3c0.1-0.1,0.2-0.2,0.2-0.3c0,0,0.1-0.1,0.1-0.1s0-0.1,0.1-0.1s0.1-0.1,0.1-0.2l0,0
				c0-0.1,0.1-0.1,0.1-0.2C158.5,113.9,157.9,114.5,157.3,115.2L157.3,115.2z M151,119c-6.7,0-12.9,3.5-16.3,9.2
				c1,0.2,2.1,0.5,3.1,0.9c4.3-6.3,12.4-8.7,19.4-5.8c0.1-1.2-0.1-2.3-0.5-3.4C154.9,119.3,152.9,119,151,119L151,119z M192.3,83.1
				c-4.2,0-8.1,2-10.5,5.4c0.7,0.4,1.3,0.8,1.9,1.2c0.4-0.6,0.9-1.1,1.4-1.5c0.4-0.5,0.7-0.9,1.1-1.3c0.2-0.2,0.4-0.4,0.6-0.6
				c0,0,0.1,0,0.1-0.1l0.7-0.5c0.2-0.2,0.4-0.3,0.7-0.4c0,0,0.1,0,0.1-0.1c0.2-0.1,0.4-0.2,0.7-0.4c0,0,0.1,0,0.1,0
				c0.4-0.2,0.9-0.4,1.3-0.5c0,0,0,0,0.1,0c0.2-0.1,0.4-0.1,0.7-0.2h0c1.1-0.3,2.2-0.5,3.2-0.6C193.8,83.2,193.1,83.1,192.3,83.1
				L192.3,83.1z M212.9,57.1c-0.9,0-1.7,0.1-2.5,0.5c0.6,0.1,1.2,0.1,1.7,0c0.7-0.1,1.4-0.2,2.1-0.4
				C213.8,57.1,213.4,57.1,212.9,57.1L212.9,57.1z M197.3,75.5c-0.2,0.1-0.4,0.2-0.6,0.2c0,0,0,0,0,0.1c1,0.2,2.1,0.5,3.1,0.9
				c1-1.5,2.3-2.8,3.7-3.9c0-0.2,0-0.4,0.1-0.6s0-0.5,0.1-0.8c0-0.1,0-0.2,0-0.4c0-0.4,0-0.7,0.1-1.1
				C202.2,72.5,200,74.4,197.3,75.5z M219.3,54.4c-0.5,0-1.1,0-1.6-0.1h-0.1c-0.7-0.1-1.5-0.3-2.2-0.5l-0.3-0.1
				c-0.3-0.1-0.7-0.3-1-0.5c-0.4-0.2-0.8-0.5-1.2-0.8c-0.2-0.2-0.5-0.4-0.7-0.6c-2.5,0.2-4.8,1-6.8,2.5c0.1,0.1,0.2,0.3,0.4,0.4v0
				c0.4,0.4,0.8,0.8,1.2,1.2c1.8-1.2,3.9-1.9,6.1-1.9c1.9,0,3.8,0.5,5.4,1.5c0.3-0.2,0.6-0.3,0.8-0.5c0.3-0.2,0.6-0.4,0.8-0.6h0
				C219.8,54.3,219.6,54.4,219.3,54.4L219.3,54.4z M182.2,100.9c-0.2,1.2-0.8,2.2-1.8,2.9c-0.7,0.4-1.5,0.6-2.4,0.6
				c-0.8,0.9-1.5,1.9-2.2,2.9c1,0.2,2.1,0.5,3.1,0.9c1.8-2.6,4.3-4.7,7.2-5.9c0-0.5-0.1-1.1-0.1-1.6c-0.1-0.5-0.2-1-0.4-1.5
				C184.5,99.6,183.4,100.2,182.2,100.9L182.2,100.9z M151,125.1c-4.2,0-8.1,2-10.5,5.4c0.7,0.4,1.3,0.8,1.9,1.2
				c2-2.7,5.2-4.3,8.6-4.4c1.5,0,2.9,0.3,4.2,0.9c0.5-0.6,0.9-1.2,1.2-2C154.7,125.5,152.9,125.1,151,125.1L151,125.1z M192.2,77.1
				c-5.2,0-10.1,2.1-13.6,5.8c-0.1,0.2-0.2,0.4-0.3,0.7c0,0,0,0.1,0,0.2c-0.1,0.2-0.1,0.4-0.2,0.6s-0.1,0.3-0.1,0.4
				s-0.1,0.3-0.1,0.5s-0.2,0.7-0.3,1c-0.3-0.3-0.7-0.6-1.1-0.8l-0.5,0.8c1,0.2,2.1,0.5,3.1,0.9c4.4-6.5,12.8-8.9,20-5.6
				c0.3-0.2,0.5-0.4,0.8-0.6l0.1-0.1l0.2-0.2l0.3-0.3l0.1-0.1c0.1-0.1,0.1-0.2,0.2-0.3c0.1-0.1,0.1-0.1,0.1-0.2
				c0.1-0.1,0.2-0.2,0.3-0.4c0.1-0.1,0-0.1,0.1-0.1C198.5,77.8,195.4,77.1,192.2,77.1L192.2,77.1z M110.2,130.5h-0.4l0,0
				c-2.3,0.1-4.4,1.3-5.7,3.2l0,0c0.3,0,0.5,0,0.8,0h0.8c0.2,0,0.5,0,0.7,0c0.2,0,0.5,0,0.7-0.1c0.9-0.6,1.9-1,3-1
				c0.1,0,0.3,0,0.4,0c0.7-0.3,1.3-0.7,1.9-1.1c0.2-0.1,0.4-0.3,0.5-0.5C112,130.7,111.1,130.6,110.2,130.5z M102.9,118.8
				c1-0.4,2-0.7,3.1-0.9c-5.4-9-17-12-26-6.6c-2.7,1.6-5,3.9-6.6,6.6c1,0.2,2.1,0.5,3.1,0.9c3-4.4,7.9-7.1,13.3-7.1
				C95,111.7,100,114.3,102.9,118.8L102.9,118.8z M110.1,122.1c2.1,0,4.2,0.5,6.1,1.3c0-0.1,0-0.1,0-0.2c0.2-0.9,0.5-1.9,1-2.7
				c-2.2-0.9-4.5-1.4-6.9-1.5h-0.5l0,0c-5.5,0.1-10.6,2.6-14.1,6.9c0,0.1,0,0.3,0.1,0.5l0,0c0.1,0.3,0.2,0.6,0.3,0.8v0l0.1,0.4l0,0
				c0.1,0.3,0.2,0.5,0.4,0.8l0,0c0,0.1,0.1,0.2,0.2,0.3v0c0,0,0.1,0.2,0.2,0.3l0,0C99.9,124.7,104.9,122,110.1,122.1L110.1,122.1z
				 M143.7,13.9c1-0.4,2-0.7,3.1-0.9c-1.2-2-2.7-3.7-4.5-5.2c-0.2,0.2-0.3,0.5-0.5,0.7c0,0.1-0.1,0.1-0.1,0.2
				c-0.1,0.2-0.2,0.4-0.3,0.6s0,0.1,0,0.1c-0.1,0.2-0.2,0.4-0.3,0.6v0.1c-0.1,0.2-0.2,0.4-0.2,0.6C141.9,11.6,142.9,12.7,143.7,13.9
				L143.7,13.9z M86.1,115.2l0.4,0.1l0.5,0.1c0.1,0,0.3,0,0.4,0h0.5c0.1,0,0.1,0,0.2,0c0,0,0.1,0,0.1,0c0.1,0,0.1,0,0.2,0
				s0.1,0,0.1,0c0.1,0,0.1-0.1,0.2-0.1c0,0,0.1,0,0.1,0c0.1,0,0.1-0.1,0.2-0.1c0,0,0.1,0,0.1,0l0.2-0.1c0,0,0.1,0,0.1,0
				c0.1,0,0.2-0.1,0.3-0.2h-0.3C88.5,114.8,87.3,114.9,86.1,115.2L86.1,115.2z M63.4,98.9c-4.4,1.4-8.2,4.4-10.6,8.4
				c1,0.2,1.9,0.5,2.9,0.9c0.1,0,0.2,0,0.2-0.1c0.5-0.8,1.2-1.6,1.9-2.2c0.7-1.6,1.6-3.1,2.8-4.4C61.3,100.5,62.3,99.6,63.4,98.9z
				 M69,119h-0.4c0.2,0.1,0.5,0.2,0.8,0.4c0,0,0,0,0.1,0s0.2,0.1,0.3,0.1s0.1,0,0.2,0s0.2,0.1,0.3,0.1s0.1,0,0.2,0l0.4,0.1
				c0,0,0.1,0,0.1,0c0.4,0.1,0.8,0.2,1.2,0.3c0,0,0.1,0,0.1,0c0.1,0,0.2,0,0.4,0.1c0,0,0.1,0,0.1,0c0.1,0,0.3,0,0.4,0h0.1
				c0.4,0,0.9,0.1,1.3,0.1h0.6c0.1,0,0.3,0,0.4,0h0.1c0.1,0,0.3,0,0.4,0C73.9,119.4,71.5,119,69,119L69,119z M95.7,123.1
				c0,0,0,0.1,0,0.2c0,0.1,0,0.1,0,0.2v0.1c0.1-0.1,0.1-0.2,0.2-0.2C95.9,123.2,95.8,123.2,95.7,123.1L95.7,123.1z M50.1,106.7
				L50.1,106.7L50.1,106.7c0.4,0.1,0.7,0.1,1,0.2c0,0,0.4-0.6,0.5-0.8c-0.3-1.5-1.6-2.6-3.2-2.6c-0.2,0-0.4,0-0.5,0
				c0,0.4,0,0.8,0.1,1.2c0,0.1,0,0.3,0.1,0.4c0.1,0,0.2-0.1,0.4,0C49.3,105.1,50,105.8,50.1,106.7L50.1,106.7z M124.7,137
				c0,0.2,0.1,0.4,0.1,0.5c0.2,0.6,0.4,1.1,0.8,1.6c1.5-0.8,3.1-1.2,4.8-1.2c1.2,0,2.4,0.2,3.5,0.6c0.2-0.3,0.3-0.6,0.5-0.9l0,0
				c0.1-0.2,0.1-0.3,0.2-0.5v0c0-0.2,0.1-0.4,0.2-0.5c-1.4-0.5-2.9-0.8-4.5-0.8C128.4,135.7,126.4,136.1,124.7,137L124.7,137z
				 M130.4,129.6c-3.1,0-6.2,0.8-8.9,2.2c0.2,0.1,0.4,0.1,0.7,0.2c0,0,0.1,0,0.1,0l0.6,0.1c0.1,0,0.1,0,0.2,0c0.2,0,0.4,0.1,0.5,0h1
				c0.2,0,0.3,0,0.5,0c0.1,0,0.2,0,0.3,0c0.2,0,0.3,0,0.5-0.1c0.1,0,0.2,0,0.3,0l0.5-0.1c0.1,0,0.1,0,0.2,0l0.7-0.3
				c-0.2,0.1-0.4,0.2-0.5,0.3s-0.1,0-0.1,0.1c-0.2,0.1-0.3,0.3-0.5,0.4c-0.2,0.1-0.3,0.3-0.5,0.4l-0.1,0.1c-0.1,0.2-0.3,0.3-0.4,0.5
				c1.6-0.5,3.3-0.8,5-0.8c2.2,0,4.4,0.5,6.4,1.3l0.6,0.1c1,0.2,1.9,0.3,2.9,0.3h0.9c0.2,0,0.5,0,0.8,0h0.1c0.3,0,0.6,0,0.8-0.1
				C139.5,131.3,135,129.6,130.4,129.6L130.4,129.6z M130.4,141c-0.5,0-0.9,0-1.4,0.1c0.1,0,0.2,0,0.3,0h0.3c0.2,0,0.4,0,0.6,0
				l0.6-0.1H130.4z M120.3,130.5c-0.9-1.3-2-2.3-3.3-3.2c0,0.3,0.1,0.5,0.1,0.9c0,0.1,0,0.2-0.1,0.2c0.1,0.2,0.3,0.4,0.5,0.7h0
				c0.1,0.2,0.3,0.4,0.4,0.5l0.1,0.1c0.1,0.1,0.3,0.3,0.4,0.4h0c0.3,0.3,0.7,0.6,1.1,0.9C119.9,130.7,120.1,130.6,120.3,130.5
				L120.3,130.5z M110.3,125.1h-0.5l0,0c-4,0.2-7.7,2.1-10,5.4c0.7,0.4,1.3,0.8,1.9,1.2c2-2.7,5.1-4.3,8.5-4.4
				c1.8,0,3.6,0.5,5.1,1.5c0,0,0,0,0-0.1c0.2-0.2,0.3-0.5,0.5-0.7c0.1,0,0.1-0.1,0.1-0.2c0.1-0.2,0.2-0.4,0.3-0.5
				c-0.1,0-0.1-0.1-0.1-0.2c0-0.2,0-0.3,0-0.5C114.3,125.7,112.3,125.1,110.3,125.1L110.3,125.1z M181.8,109.5
				c0.5,0.3,1,0.6,1.5,0.9c0.9-1.1,1.6-2.2,2.2-3.5c0-0.1,0.1-0.1,0.1-0.2c0-0.1,0.1-0.1,0.1-0.2l0,0c0-0.1,0-0.1,0-0.2v0
				c0,0,0-0.1,0-0.1v0c0,0,0-0.1,0-0.1C184.1,106.8,182.8,108,181.8,109.5L181.8,109.5z M94.3,104c0.5-0.6,1-1.1,1.5-1.7
				c-1.4-2-3.7-3.2-6.2-3.2c-0.6,0-1.2,0.1-1.7,0.2c0.2,0.5,0.4,1,0.5,1.5v0.1c0,0.2-0.2,0.3-0.4,0.3c-0.2,0-0.4-0.1-0.5-0.4
				c-0.1-0.4-0.2-0.8-0.3-1.1l-0.1-0.2c-1.5,0.5-2.7,1.5-3.6,2.8c0.5,0.5,1.1,1.1,1.5,1.7c1-1.7,2.7-2.7,4.7-2.7
				C91.6,101.3,93.3,102.3,94.3,104L94.3,104z M53.1,104c0.5-0.6,1-1.1,1.5-1.7c-1-1.5-2.5-2.6-4.3-3c-0.4,0.2-0.7,0.5-1,0.8
				l-0.3,0.3c-0.1,0.1-0.2,0.3-0.3,0.4v0c-0.1,0.1-0.2,0.3-0.2,0.4C50.4,101.3,52.1,102.4,53.1,104L53.1,104z M92.4,106.9
				c0,0,0.4-0.6,0.5-0.8c-0.3-1.5-1.6-2.6-3.2-2.6c-1.5,0-2.9,1.1-3.2,2.6c0.2,0.3,0.3,0.5,0.5,0.8c0.4-0.1,0.7-0.1,1.1-0.1v0
				c0-0.9,0.7-1.6,1.6-1.6c0.9,0,1.6,0.7,1.6,1.6v0.1C91.7,106.8,92,106.8,92.4,106.9L92.4,106.9z M50.1,43.8L50.1,43.8
				c0.4,0.1,0.7,0.1,1,0.2c0,0,0.4-0.6,0.5-0.8v0c-0.6-0.2-1.3-0.3-1.9-0.3C49.9,43.1,50.1,43.4,50.1,43.8L50.1,43.8z M46.1,43.8
				c-0.1,0-0.1,0.1-0.2,0.1c0.3,0,0.6-0.1,0.9-0.1v0c0-0.2,0-0.3,0.1-0.4C46.6,43.5,46.3,43.7,46.1,43.8L46.1,43.8z M114.5,114.4
				c0.5-0.6,1-1.1,1.5-1.7c-1.3-1.9-3.4-3-5.7-3.2h-0.5l0,0c-2.3,0.2-4.4,1.3-5.7,3.2c0.6,0.6,1.1,1.2,1.6,1.8
				c0.9-1.6,2.7-2.6,4.5-2.7C111.9,111.9,113.5,112.9,114.5,114.4L114.5,114.4z M125.4,122c0.2,0.3,0.5,0.7,0,0.9
				c-0.3,0.2-0.5-0.1-0.7-0.3c-0.2,0.2-0.3,0.4-0.5,0.6c0.6,0.5,1.1,1.1,1.6,1.7c0.7-1.2,1.9-2.1,3.3-2.5c0.1-0.8,0-1.5-0.2-2.3
				C127.5,120.5,126.3,121.1,125.4,122L125.4,122z M56.4,50.9c0.8,0.4,1.5,1,2.2,1.6c0.3-1.1,1.1-1.9,2.2-2.2
				c-1.3-1.1-2.8-2.1-4.4-2.8c0.1,0.5,0.2,0.9,0.2,1.4c0,0.5,0,1-0.1,1.5C56.5,50.5,56.5,50.7,56.4,50.9L56.4,50.9z M123.1,129.2
				c1-0.4,2-0.7,3.1-0.9c-0.4-0.6-0.8-1.2-1.2-1.7c-1,0-1.9-0.6-2.5-1.4c-0.4-0.5-0.5-1.1-0.5-1.7c-1.2-1-2.5-1.9-4-2.5
				c-0.5,0.9-0.8,1.9-1,2.9C119.4,125.1,121.5,126.9,123.1,129.2L123.1,129.2z M123.7,125.2l0.3,0.1c-0.3-0.4-0.7-0.7-1-1.1
				C123.1,124.7,123.4,125,123.7,125.2L123.7,125.2z M135.1,125c0.5-0.6,1-1.2,1.5-1.7c-1.4-2-3.7-3.2-6.2-3.2c-0.2,0-0.5,0-0.7,0
				c0.2,0.4,0.2,0.9,0.3,1.3c0,0.3,0,0.6,0,0.9h0.4C132.3,122.3,134.1,123.3,135.1,125L135.1,125z M112.5,117.3c0,0,0.4-0.6,0.5-0.8
				c-0.3-1.3-1.4-2.3-2.7-2.5l0,0h-0.5l0,0c-1.3,0.2-2.4,1.2-2.7,2.5c0.1,0.2,0.5,0.8,0.5,0.8c0.3,0,0.7-0.1,1-0.1v-0.1
				c0-0.8,0.6-1.5,1.5-1.6c0.8,0.1,1.4,0.8,1.4,1.6v0.1C111.8,117.3,112.1,117.3,112.5,117.3L112.5,117.3z M139,121.2
				c0.6-0.4,1.2-0.8,1.9-1.2c-2.4-3.4-6.3-5.4-10.5-5.4c-2.1,0-4.2,0.5-6.1,1.5c0.4,0,0.7,0,1.1,0.1c0.5,0.1,0.9,0.3,1.4,0.5
				c0.3,0.1,0.6,0.3,0.8,0.5c0.9-0.2,1.9-0.4,2.8-0.4C133.8,116.9,137,118.5,139,121.2L139,121.2z M143.7,118.8c1-0.4,2-0.7,3.1-0.9
				c-5.4-9-17-12-26-6.6c-2.7,1.6-5,3.9-6.6,6.6c1,0.2,2.1,0.5,3.1,0.9c3-4.4,7.9-7.1,13.2-7.1C135.8,111.7,140.8,114.3,143.7,118.8
				L143.7,118.8z M48.4,40.5c-1.4,0-2.6,0.9-3.1,2.2c0.1,0.1,0.2,0.2,0.3,0.3c1.6-1.1,3.6-1.4,5.5-1C50.6,41.1,49.5,40.5,48.4,40.5z
				 M102.9,55.8c1-0.4,2-0.7,3.1-0.9c-3.1-5.2-8.5-8.6-14.6-9.1c0.2,1.1,0.5,2.1,0.8,3.2C96.6,49.6,100.5,52.1,102.9,55.8
				L102.9,55.8z M48.4,36.1c-2.5,0-4.8,1.2-6.2,3.2c0.5,0.5,1.1,1.1,1.5,1.7c1-1.7,2.7-2.7,4.7-2.7c1.9,0,3.7,1,4.6,2.7
				c0.5-0.6,1-1.2,1.5-1.7C53.2,37.3,50.9,36.1,48.4,36.1L48.4,36.1z M98.3,58.3c0.6-0.4,1.2-0.9,1.9-1.2c-1.6-2.3-4-4-6.6-4.8
				c0.4,0.8,0.8,1.6,1.1,2.3c0.1,0.2,0.2,0.3,0.3,0.5c0.1,0.2,0.2,0.4,0.3,0.5C96.4,56.3,97.5,57.2,98.3,58.3L98.3,58.3z
				 M133.1,64.9c0,0,0.4-0.6,0.5-0.9c-0.3-1.5-1.7-2.6-3.2-2.6c-1.5,0-2.9,1.1-3.2,2.6c0.2,0.3,0.3,0.5,0.5,0.8
				c0.4-0.1,0.7-0.1,1.1-0.1v0c0-0.9,0.7-1.6,1.6-1.6c0.9,0,1.6,0.7,1.6,1.6c0,0,0,0,0,0v0.1C132.4,64.9,132.8,64.9,133.1,64.9
				L133.1,64.9z M119.9,69.8c1.5,0,3,0,4.5-0.2h0l0.8-0.1h0.1l0.8-0.1c1.1-0.2,2.2-0.5,3.3-0.8h0.2c0.2-0.1,0.5-0.1,0.7-0.2
				s0.2,0,0.2-0.1c0.2-0.1,0.4-0.1,0.6-0.2c0.1,0,0.1-0.1,0.2-0.1c0.8-0.3,1.5-0.6,2.3-1c-1.1-0.2-2.1-0.3-3.2-0.3
				C126.6,66.7,123,67.8,119.9,69.8L119.9,69.8z M123,66.2c1-0.4,2-0.7,3.1-0.9c-3.3-5.6-9.3-9.1-15.8-9.2h-0.5l0,0
				c-4.1,0.1-8,1.5-11.2,4c0.4,0.4,0.7,0.8,1.1,1.1l1.1,1.1c2.7-2,6-3.1,9.4-3.1C115.3,59.2,120.2,61.9,123,66.2L123,66.2z
				 M110.3,51h-0.5l0,0c-1.3,0.2-2.4,1.2-2.7,2.5c0.1,0.2,0.5,0.8,0.5,0.9c0.3-0.1,0.7-0.1,1-0.1v-0.1c0-0.8,0.6-1.5,1.5-1.6
				c0.8,0.1,1.4,0.8,1.4,1.6v0.1c0.4,0,0.7,0,1,0.1c0,0,0.4-0.6,0.5-0.9C112.6,52.2,111.6,51.3,110.3,51z M62.1,39.8
				c-0.6-0.8-0.9-1.8-1-2.8v-0.2c-3,1.4-5.6,3.5-7.5,6.2c0.8,0.6,1.5,1.3,2,2.1c0.1,0,0.1,0,0.2,0C57.3,42.9,59.5,41,62.1,39.8z
				 M53.1,43.8c-0.1,0.2-0.3,0.4-0.4,0.6c0.5,0.1,0.9,0.2,1.4,0.4C53.8,44.4,53.5,44.1,53.1,43.8z M71.7,75.4
				c0.1-0.2,0.2-0.3,0.3-0.4c-0.5,0-0.9,0-1.3,0c0,0.1,0,0.2,0,0.3v0.1C71,75.3,71.3,75.3,71.7,75.4z M67.8,36.5
				c-0.4,0.1-0.7,0.4-0.9,0.7c-0.2,0.3-0.3,0.6-0.3,1c0,0.1,0,0.1,0,0.2c0.8-0.1,1.6-0.2,2.5-0.2c0.4,0,0.8,0,1.2,0
				c0-0.4-0.2-0.8-0.4-1.1C69.5,36.4,68.6,36.2,67.8,36.5z M75.3,75.7c0,0-0.1,0-0.1,0c-0.2-0.1-0.4-0.1-0.6-0.2L74,75.3
				c-0.1,0-0.2-0.1-0.3-0.1c-0.1,0.2-0.3,0.4-0.4,0.7c1,0.2,2.1,0.5,3.1,0.9c0.1-0.1,0.2-0.3,0.3-0.4c-0.2-0.1-0.5-0.3-0.7-0.4
				C75.7,75.9,75.5,75.8,75.3,75.7z M68.4,41.2c-0.8,0-1.5,0.2-2.2,0.4C66.9,41.6,67.7,41.5,68.4,41.2z M200.5,50.3
				c0.3,0.1,0.5,0.2,0.8,0.4c0,0,0,0,0.1,0c0.2,0.1,0.4,0.2,0.6,0.4c0,0,0,0,0.1,0s0.4,0.3,0.6,0.4v0c0.2,0.1,0.3,0.3,0.5,0.4
				c2-1.5,4.2-2.5,6.7-3v0c-0.5-0.9-1-1.8-1.4-2.8v0C205.5,46.8,202.8,48.3,200.5,50.3L200.5,50.3z M119.9,120
				c0.7,0.4,1.3,0.8,1.9,1.2c1.2-1.6,2.9-2.9,4.8-3.6c-0.1,0-0.1-0.1-0.2-0.1c-1.1-0.5-2.4-0.6-3.5-0.4h0
				C121.6,118,120.7,119,119.9,120L119.9,120z M186.1,28.8c0.1,0.1,0.3,0.3,0.4,0.4c0,0,0-0.1,0-0.2s0-0.2-0.1-0.3s0-0.1,0-0.2
				S186.2,28.7,186.1,28.8L186.1,28.8z M187.1,76.1c-0.8,0-1.6,0.2-2.4,0.4c0.1,0.1,0.1,0.2,0.2,0.3
				C185.6,76.5,186.4,76.3,187.1,76.1L187.1,76.1z M190.9,41.2c-0.4,0.5-0.9,0.8-1.5,1c-0.7,0.2-1.5,0.2-2.3,0
				c-2.2,0.9-4,2.4-5.4,4.4c0.7,0.4,1.3,0.8,1.9,1.2c3.5-4.8,10.2-5.8,14.9-2.3c0.9,0.6,1.7,1.4,2.3,2.3c0.6-0.5,1.2-0.9,1.9-1.2
				c-1.6-2.2-3.9-3.9-6.5-4.8c-0.2,0.1-0.4,0.1-0.6,0.2s-0.5,0.2-0.8,0.3c0-0.2,0.1-0.3,0-0.5c0-0.1,0-0.3,0-0.4
				c-0.9-0.2-1.8-0.3-2.7-0.3C191.8,41.2,191.4,41.2,190.9,41.2L190.9,41.2z M144.8,7.8c0.5,0.5,1.1,1.1,1.5,1.7
				c1.5-2.6,4.8-3.4,7.4-1.9c0.8,0.5,1.5,1.1,1.9,1.9c0.4-0.5,0.9-1,1.3-1.5c0-0.3-0.1-0.5-0.1-0.8c-2.7-3.2-7.5-3.6-10.7-0.9
				C145.7,6.8,145.2,7.3,144.8,7.8L144.8,7.8z M198.5,49.7c-2.4-3.4-7.2-4.2-10.6-1.7c-0.7,0.5-1.3,1.1-1.8,1.8
				c0.6,0.5,1.1,1.1,1.6,1.7c1-1.7,2.7-2.7,4.6-2.7c1.1,0,2.1,0.3,3,0.9c0.2,0,0.5,0,0.7-0.1h0.1C196.9,49.6,197.7,49.6,198.5,49.7
				L198.5,49.7z M185.6,39.2c0,0.1,0.1,0.3,0.1,0.4c0.7-0.3,1.5-0.6,2.3-0.8c0-0.2,0-0.3,0.1-0.5c0.2-0.6,0.7-1,1.3-1.2
				c0.8-0.1,1.5,0.3,1.9,1c0.4,0,0.7,0,1,0c0.8,0,1.6,0.1,2.4,0.2c-0.4-1.2-1-2.4-2-3.2h-0.4c-2.2,0-4.3,0.4-6.4,1.1
				C185.4,37.1,185.3,38.2,185.6,39.2L185.6,39.2z M164.3,3.3c1-0.4,2-0.7,3.1-0.9c-0.5-0.8-1-1.6-1.6-2.3L165,0.3
				c-0.2,0-0.4,0.1-0.6,0.2l0,0c-0.6,0.2-1.2,0.4-1.7,0.7C163.2,1.8,163.8,2.5,164.3,3.3L164.3,3.3z M183.4,24.1L183.4,24.1
				c-0.1,0-0.1-0.1-0.2-0.1c-0.5,0.5-1,1.1-1.5,1.7c0.7,0.4,1.3,0.8,1.9,1.2c0.3-0.4,0.7-0.9,1.1-1.3l0,0c-0.1-0.1-0.1-0.2-0.2-0.3
				s-0.1-0.1-0.1-0.2s-0.1-0.1-0.2-0.2l-0.2-0.2c0,0-0.1-0.1-0.2-0.2C183.8,24.3,183.6,24.2,183.4,24.1L183.4,24.1z M158.3,4.2
				L158.3,4.2c0.4,0.5,0.9,1.1,1.3,1.6c0.6-0.4,1.2-0.9,1.9-1.2c-0.5-0.7-1-1.3-1.6-1.8c0,0-0.1,0-0.1,0.1s-0.2,0.1-0.3,0.2
				s-0.1,0.1-0.2,0.1s-0.2,0.1-0.3,0.2c0,0.1-0.1,0.1-0.2,0.1c-0.1,0.1-0.2,0.2-0.3,0.2l-0.1,0.1C158.5,4.1,158.4,4.2,158.3,4.2
				L158.3,4.2z M165,8.2c0.2-1,1-1.9,2-2.2c1-0.3,2.2-0.1,3.1,0.5c0.1,0.1,0.2,0.2,0.3,0.2c0.5,0,0.9-0.1,1.4-0.1
				c3.4,0,6.7,1.1,9.4,3.2c-0.2-0.5-0.5-0.9-0.7-1.4l-0.4-0.7c-0.1-0.2-0.3-0.4-0.4-0.7s-0.3-0.4-0.5-0.7s-0.4-0.4-0.5-0.6
				c-0.4-0.4-0.8-0.8-1.2-1.2c-1.9-0.6-3.8-0.9-5.8-0.9c-5,0-9.8,2-13.4,5.5c0.4,1,1,1.9,1.7,2.6C161.4,10.4,163.1,9.1,165,8.2
				L165,8.2z M173.3,1.8L173.3,1.8c0.2,0.1,0.5,0.1,0.7,0.2c-0.2-0.1-0.5-0.3-0.7-0.4C173.3,1.6,173.3,1.8,173.3,1.8L173.3,1.8z
				 M170.1,1.9L170.1,1.9c0-0.5,0.2-1,0.7-1.4c-0.6-0.2-1.2-0.3-1.8-0.4c-0.2,0.3-0.3,0.7-0.4,1.1c0.2,0.3,0.3,0.5,0.5,0.8
				C169.4,1.9,169.7,1.9,170.1,1.9L170.1,1.9z M205.6,45.2c0.7-0.3,1.3-0.5,2-0.7c-0.1-0.2-0.3-0.4-0.4-0.6s-0.1-0.1-0.1-0.2
				c-0.1-0.1-0.1-0.2-0.2-0.3c-0.1-0.1-0.2-0.3-0.3-0.4l-0.1-0.1l-0.4-0.5c0,0-0.1,0-0.1-0.1c-0.2-0.2-0.4-0.3-0.6-0.5
				c-0.1-0.1-0.2-0.1-0.4-0.2 M204.9,41.7c-0.1-0.1-0.2-0.1-0.3-0.2l0,0c-0.1,0-0.3-0.1-0.4-0.2c-0.9-0.3-1.9-0.5-2.8-0.5
				c1.7,1.2,3.2,2.7,4.3,4.5L204.9,41.7z M181.2,101.7c-0.7,0.5-1.4,1.1-2,1.7C180,103.1,180.8,102.5,181.2,101.7z M179.7,98.4
				c-0.3,0-0.6,0-0.9,0.1c0.6,0.5,1.1,1.1,1.6,1.7c0.3-0.2,0.7-0.5,1-0.7c0-0.1-0.1-0.2-0.1-0.2C180.9,98.8,180.3,98.5,179.7,98.4
				L179.7,98.4z M177,103.3c0.3-0.4,0.6-0.7,0.9-1c-1-1.4-2.5-2.5-4.2-2.9c0,0.7,0.2,1.3,0.6,1.9C174.9,102.2,175.8,102.9,177,103.3
				L177,103.3z M152.4,114.2c-0.4-0.2-0.9-0.3-1.3-0.3c-1.5,0-2.9,1.1-3.2,2.6c0.2,0.3,0.3,0.5,0.5,0.8c0.4-0.1,0.7-0.1,1.1-0.1v0
				c0-0.9,0.7-1.6,1.6-1.6c0.9,0,1.6,0.7,1.6,1.6v0.1c0.4,0,0.7,0,1,0.1c0,0,0.4-0.6,0.5-0.8c0-0.1-0.1-0.2-0.1-0.4
				C153.5,115.6,152.8,114.9,152.4,114.2L152.4,114.2z M133.1,127.9c0,0,0.4-0.6,0.5-0.8c-0.3-1.5-1.6-2.6-3.2-2.6
				c-0.6,0-1.2,0.2-1.7,0.5c-0.3,0.3-0.6,0.6-0.9,0.8c-0.3,0.4-0.5,0.8-0.6,1.3c0.2,0.3,0.4,0.5,0.5,0.8c0.4,0,0.7-0.1,1.1-0.1l0,0
				c0-0.9,0.7-1.6,1.6-1.6c0.9,0,1.6,0.7,1.6,1.6c0,0,0,0,0,0v0.1C132.5,127.8,132.8,127.8,133.1,127.9L133.1,127.9z M162.3,92.8
				c-2.5,0.1-4.5,2.2-5.3,4.5c0.5,0.1,1,0.3,1.4,0.5c1.3-2,3.1-3.7,5.2-4.9C163.2,92.8,162.7,92.8,162.3,92.8L162.3,92.8z
				 M173.9,57.5c0.2,0.3,0.4,0.5,0.6,0.8c0.1,0.1,0.2,0.2,0.4,0.4c0,0,0.1,0.1,0.1,0.1l0.3,0.3c0,0,0.1,0,0.1,0.1s0.2,0.1,0.3,0.2
				s0.1,0,0.1,0.1s0.2,0.1,0.3,0.2s0,0,0.1,0c0.1,0.1,0.2,0.2,0.4,0.2c0,0,0,0,0,0s0.2,0.1,0.4,0.2l0,0c0.1,0,0.3,0.1,0.4,0.2
				l0.4,0.1c0,0,0-0.1,0.1-0.1C176.8,59,175.5,58,173.9,57.5L173.9,57.5z M166,88.5c-0.1,0.3-0.2,0.6-0.3,0.9c0,0,0,0.1,0,0.2
				c-0.1-0.1-0.3-0.3-0.4-0.4s-0.3-0.2-0.4-0.3c-4,1.5-7.3,4.3-9.5,8c0.3,0,0.5,0.1,0.8,0.2c0.7-2.4,2.7-4.3,5.1-5
				c1.2-0.3,2.4-0.2,3.5,0.2c2.2-1.1,4.6-1.6,7-1.6c2.4,0,4.8,0.5,6.9,1.6c1.4-0.3,2.9-0.3,4.4,0l0.3-0.7c0,0,0,0,0-0.1
				c-3.3-2.6-7.4-4-11.6-4C169.8,87.6,167.9,87.9,166,88.5L166,88.5z M172.5,84.1h-0.8c-0.5,0-0.9,0.1-1.4,0.2c0,0-0.1,0-0.2,0
				c-0.2,0-0.3,0.1-0.5,0.2c0,0-0.1,0-0.2,0.1c-0.2,0.1-0.4,0.2-0.6,0.3l-0.3,0.2c0.2,0.3,0.3,0.5,0.5,0.8c0.4-0.1,0.7-0.1,1.1-0.1
				v0c-0.1-0.9,0.6-1.7,1.5-1.8s1.7,0.6,1.8,1.5c0,0.1,0,0.2,0,0.3v0.1c0.4,0,0.7,0,1,0.1c0,0,0.4-0.6,0.5-0.8
				c0-0.2-0.1-0.3-0.1-0.5c-0.2-0.1-0.5-0.2-0.8-0.2l0,0C173.5,84.2,173,84.1,172.5,84.1L172.5,84.1z M181.3,78.6
				c0.3-0.2,0.7-0.4,1-0.6c0,0-0.1-0.1-0.1-0.2c-0.1,0.1-0.3,0.2-0.4,0.4C181.5,78.4,181.3,78.5,181.3,78.6L181.3,78.6z M176.1,94.4
				c-0.6,0.5-1.2,1.2-1.6,1.9c1.2,0.3,2.4,0.9,3.5,1.6c0.1-0.1,0.3-0.1,0.4-0.2c0.6-0.2,1.2-0.3,1.8-0.2c0.9,0.2,1.6,0.8,2,1.5
				c0,0,0.1,0,0.1-0.1C180.7,96.9,178.5,95.3,176.1,94.4L176.1,94.4z M174.4,106.9c0,0,0.4-0.6,0.5-0.8c-0.3-1.5-1.6-2.6-3.2-2.6
				c-1.5,0-2.9,1.1-3.2,2.6c0.2,0.3,0.3,0.5,0.5,0.8c0.4-0.1,0.7-0.1,1.1-0.1v0c0-0.9,0.7-1.6,1.6-1.6c0.9,0,1.6,0.7,1.6,1.6v0.1
				C173.7,106.8,174,106.8,174.4,106.9L174.4,106.9z M175.1,94.1c-1.1-0.3-2.2-0.5-3.4-0.5c-1.5,0-2.9,0.3-4.3,0.8
				c0.2,0.3,0.4,0.7,0.5,1.1v0.1c0,0.2-0.2,0.4-0.4,0.4c-0.2,0-0.3-0.1-0.4-0.2c-0.2-0.3-0.2-0.6-0.4-0.9c0-0.1-0.1-0.2-0.2-0.3
				c-2.2,0.9-4,2.4-5.4,4.3c0.7,0.4,1.3,0.8,1.9,1.2c2-2.7,5.2-4.4,8.6-4.4c0.6,0,1.2,0,1.9,0.2c0.1-0.2,0.2-0.4,0.3-0.5
				C174.2,95,174.6,94.6,175.1,94.1L175.1,94.1z"/>
		</g>
	</g>
</g>
</svg>
