<svg id="图层_1" data-name="图层 1" xmlns="http://www.w3.org/2000/svg" viewBox="0 0 337.53 337.53"><defs><style>.cls-1{fill:#982c35;}.cls-2{fill:#dde3df;fill-opacity:0.2;}</style></defs><path class="cls-1" d="M558.61,197.73c4.38,3.29,7.67,7.68,10.95,12.06l9.87,13.15c3.29,4.38,5.48,8.77,8.77,14.25s5.47,9.86,6.57,15.34,4.38,9.86,5.48,15.34,3.29,11,4.38,16.44,2.2,11,2.2,16.44,1.09,11,1.09,16.44,0,11-1.09,16.44-1.1,10.95-2.2,16.43a91,91,0,0,1-4.38,16.44c-2.19,5.48-3.29,11-5.48,15.34-2.19,5.48-4.38,9.87-6.57,15.35a100.56,100.56,0,0,1-8.77,14.24l-9.87,13.15c-3.28,4.39-6.57,8.77-10.95,12.06s-7.68,7.67-12.06,11l-13.15,9.86c-4.38,3.29-8.77,5.48-14.25,8.77s-9.86,4.38-15.34,6.57a130.56,130.56,0,0,1-15.34,5.48c-5.48,1.1-11,3.29-16.44,4.39A167.42,167.42,0,0,1,439.15,486c-5.48,0-11,0-16.43-1.09-5.48,0-11-1.1-16.44-2.19a91.83,91.83,0,0,1-16.44-4.39c-5.48-1.09-9.86-3.28-15.34-5.48s-9.87-4.38-15.35-6.57a99.65,99.65,0,0,1-14.24-8.77l-13.15-9.86a170.71,170.71,0,0,1-23-23l-9.86-13.15c-3.29-4.38-5.48-8.76-8.77-14.24s-5.48-9.87-6.57-15.35c-2.19-5.47-4.39-9.86-5.48-15.34s-3.29-11-4.39-16.44-2.19-11-2.19-16.43-1.09-11-1.09-16.44,0-11,1.09-16.44,1.1-11,2.19-16.44a91.83,91.83,0,0,1,4.39-16.44,63.12,63.12,0,0,1,5.48-15.34c2.19-5.48,4.38-9.86,6.57-15.34s5.48-9.87,8.77-14.25l9.86-13.15c3.29-4.38,6.58-8.77,11-12.06s7.67-7.67,12.06-10.95l13.15-9.87c8.76-6.57,18.63-11,28.49-15.34,5.48-2.19,9.86-4.38,15.34-5.48s11-3.29,16.44-4.38,11-2.19,16.44-2.19,11-1.1,16.44-1.1,11,0,16.44,1.1,11,1.09,16.43,2.19a91,91,0,0,1,16.44,4.38c5.48,2.19,11,3.29,15.35,5.48s9.86,4.38,15.34,7.67A99.65,99.65,0,0,1,532.3,178l13.16,9.86C549.84,191.16,554.22,193.35,558.61,197.73Z" transform="translate(-270.39 -148.42)"/><path class="cls-2" d="M353.67,414.72c2.2-3.29,5.48-6.57,8.77-9.86-13.15-18.63-39.45-23-58.08-9.86a25.5,25.5,0,0,0-7.67,7.67c1.09,2.19,2.19,3.28,3.29,5.48s0,0,0,1.09l3.28,5.48c5.48-8.77,14.25-13.15,25.21-13.15C338.33,399.38,348.19,404.86,353.67,414.72Z" transform="translate(-270.39 -148.42)"/><path class="cls-2" d="M400.8,379.65a91.79,91.79,0,0,1,16.44-4.38C387.65,326,323,309.52,273.67,339.1h0c0,3.29,1.1,5.48,1.1,8.77s1.1,5.48,2.19,8.77c39.45-27.4,94.25-18.63,121.65,21.92A3.85,3.85,0,0,1,400.8,379.65Z" transform="translate(-270.39 -148.42)"/><path class="cls-2" d="M375.59,393.9a98.4,98.4,0,0,1,11-6.58c-13.15-18.63-35.07-29.59-58.08-29.59-16.44,0-32.88,5.48-44.93,16.44,0,1.1,1.09,2.2,1.09,3.29l1.1,3.29c1.09,2.19,2.19,4.38,2.19,5.48,11-11,25.21-16.44,40.55-16.44A57.67,57.67,0,0,1,375.59,393.9Z" transform="translate(-270.39 -148.42)"/><path class="cls-2" d="M337.24,198.83h5.48a43.6,43.6,0,0,1,3.28-4.38,20,20,0,0,0-7.67-11c-2.19,2.19-5.48,4.38-7.67,6.57C335,190.06,337.24,194.45,337.24,198.83Z" transform="translate(-270.39 -148.42)"/><path class="cls-2" d="M342.72,315a44.59,44.59,0,0,1,3.28-4.39c-2.19-9.86-12.05-16.44-20.82-14.24-6.57,1.09-12.05,6.57-14.25,14.24a8.31,8.31,0,0,1,2.2,4.39c2.19,0,4.38,0,5.48-1.1h0c1.09-5.48,5.48-8.77,9.86-7.67a7.49,7.49,0,0,1,7.67,7.67h0A19.23,19.23,0,0,0,342.72,315Z" transform="translate(-270.39 -148.42)"/><path class="cls-2" d="M518.06,174.72l8.77,8.77c2.19-2.19,3.28-5.48,6.57-7.67-3.29-2.19-7.67-4.39-11-6.58C520.25,171.43,519.15,172.53,518.06,174.72Z" transform="translate(-270.39 -148.42)"/><path class="cls-2" d="M504.91,163.76l1.09-1.09-7.67-3.29A22.84,22.84,0,0,1,504.91,163.76Z" transform="translate(-270.39 -148.42)"/><path class="cls-2" d="M439.15,150.61A103.74,103.74,0,0,0,352.58,201c5.48,1.1,11,3.29,16.44,4.39C394.22,166,447.92,155,487.37,180.2a91.94,91.94,0,0,1,25.21,25.21A91,91,0,0,1,529,201a105.23,105.23,0,0,0-86.58-50.41h-3.29Z" transform="translate(-270.39 -148.42)"/><path class="cls-2" d="M359.15,170.34c-3.28,2.19-7.67,4.38-11,6.57a47.42,47.42,0,0,1,6.58,7.67c2.19-3.28,5.48-6.57,8.77-9.86Z" transform="translate(-270.39 -148.42)"/><path class="cls-2" d="M441.35,457.46c9.86,1.1,18.63,6.58,23,14.25a33.25,33.25,0,0,1,8.77-8.77,44.45,44.45,0,0,0-31.78-17.53h-3.29a44.45,44.45,0,0,0-31.78,17.53c3.28,3.29,5.48,6.58,8.76,8.77A30.84,30.84,0,0,1,441.35,457.46Z" transform="translate(-270.39 -148.42)"/><path class="cls-2" d="M441.35,398.28a90,90,0,0,1,71.23,39.46A91,91,0,0,1,529,433.35a105.23,105.23,0,0,0-86.58-50.41h-2.19a103.75,103.75,0,0,0-86.58,50.41c5.48,1.1,11,3.29,16.44,4.39C384.36,413.63,411.76,398.28,441.35,398.28Z" transform="translate(-270.39 -148.42)"/><path class="cls-2" d="M277,276.64c1.1,1.09,2.19,1.09,3.29,2.19,18.63-26.3,55.89-31.78,82.19-13.15a74.45,74.45,0,0,1,13.15,13.15,96.93,96.93,0,0,1,11-6.57c-13.15-18.63-35.07-29.59-58.08-29.59-16.44,0-32.88,5.48-44.93,16.43C281.35,264.58,279.15,270.06,277,276.64Z" transform="translate(-270.39 -148.42)"/><path class="cls-2" d="M328.47,439.93h-1.1a258.73,258.73,0,0,0,27.4,20.82A76.32,76.32,0,0,1,380,472.8l7.67,3.29a20.23,20.23,0,0,0,7.67,2.19c2.19,1.1,5.48,1.1,8.77,2.19,2.19,1.1,5.47,1.1,8.76,2.2C392,455.27,361.35,439.93,328.47,439.93Z" transform="translate(-270.39 -148.42)"/><path class="cls-2" d="M441.35,427.87c17.53,1.1,35.06,9.87,44.93,24.11a95.18,95.18,0,0,1,11-6.57c-13.15-17.54-32.88-28.5-54.8-29.59h-2.19c-21.92,1.09-41.64,12.05-54.79,29.59,3.28,2.19,7.67,4.38,11,6.57C406.28,436.64,422.72,427.87,441.35,427.87Z" transform="translate(-270.39 -148.42)"/><path class="cls-2" d="M599.15,278.83c1.1-1.1,2.2-1.1,3.29-2.19-1.09-6.58-3.29-12.06-5.48-17.54-29.59-25.2-74.52-20.82-99.72,8.77-1.1,1.1-2.2,3.29-3.29,4.39,3.29,2.19,7.67,4.38,11,6.57,18.63-26.3,55.89-31.78,81.09-13.15a37.72,37.72,0,0,1,13.15,13.15Z" transform="translate(-270.39 -148.42)"/><path class="cls-2" d="M586,289.79c-13.15-18.63-39.45-23-58.08-11a52.24,52.24,0,0,0-11,11l8.77,8.77a30.37,30.37,0,0,1,25.2-14.25c11,0,20.83,5.48,25.21,15.34C580.52,296.37,582.72,293.08,586,289.79Z" transform="translate(-270.39 -148.42)"/><path class="cls-2" d="M441.35,299.65h-2.2c-21.91,1.1-41.64,12.06-54.79,29.59,3.29,2.19,7.67,4.39,11,6.58,11-14.25,27.4-23,46-23,17.53,1.1,34,8.77,44.93,24.11a95.18,95.18,0,0,1,11-6.57,71.15,71.15,0,0,0-55.89-30.69Z" transform="translate(-270.39 -148.42)"/><path class="cls-2" d="M328.47,272.26a42.05,42.05,0,0,0-34,17.53c3.28,3.29,5.48,6.57,8.76,8.77,7.67-14.25,26.3-18.63,40.55-11a26.38,26.38,0,0,1,11,11c2.19-3.29,5.48-6.58,8.77-9.87C354.77,278.83,341.62,272.26,328.47,272.26Z" transform="translate(-270.39 -148.42)"/><path class="cls-2" d="M583.81,401.57c-7.67-9.86-19.72-14.25-31.78-15.34a42.05,42.05,0,0,0-34,17.53c3.29,3.29,5.48,6.58,8.77,9.87a30.26,30.26,0,0,1,40.54-11,21.53,21.53,0,0,1,9.87,9.86l3.28-5.48V406C581.62,406,582.72,403.76,583.81,401.57Z" transform="translate(-270.39 -148.42)"/><path class="cls-2" d="M342.72,430.06a44.81,44.81,0,0,1,3.28-4.38c-2.19-8.77-8.76-14.25-17.53-14.25A17.81,17.81,0,0,0,312,423.49c1.1,2.19,3.29,4.38,5.48,6.57h2.19c1.1-5.48,5.48-8.76,9.86-7.67a7.5,7.5,0,0,1,7.68,7.67h5.48Z" transform="translate(-270.39 -148.42)"/><path class="cls-2" d="M552,439.93c-32.88,0-64.66,15.34-84.38,42.74,3.28,0,5.48-1.1,8.76-2.2s5.48-1.09,8.77-2.19c2.19-1.09,5.48-1.09,7.67-2.19l7.67-3.29a76.23,76.23,0,0,1,25.21-12.05,129.2,129.2,0,0,0,27.4-20.82Z" transform="translate(-270.39 -148.42)"/><path class="cls-2" d="M351.48,317.19c5.48,1.09,11,3.28,16.44,4.38,25.21-39.45,78.9-50.41,118.36-25.2a91.86,91.86,0,0,1,25.2,25.2,91,91,0,0,1,16.44-4.38,105.18,105.18,0,0,0-86.57-50.41h-2.2C403,266.78,370.11,286.5,351.48,317.19Z" transform="translate(-270.39 -148.42)"/><path class="cls-2" d="M441.35,226.23c9.86,1.09,18.63,6.57,23,14.24a33.36,33.36,0,0,1,8.77-8.76,44.46,44.46,0,0,0-31.78-17.54h-3.29a44.46,44.46,0,0,0-31.78,17.54l8.76,8.76A30.86,30.86,0,0,1,441.35,226.23Z" transform="translate(-270.39 -148.42)"/><path class="cls-2" d="M441.35,184.58h-2.2c-21.91,1.1-41.64,12.06-54.79,29.59,3.29,2.19,7.67,4.39,11,6.58,17.53-25.21,52.6-31.78,77.81-14.25,5.48,3.29,9.86,8.77,14.24,14.25a96.9,96.9,0,0,1,11-6.58c-13.15-17.53-32.87-28.49-54.79-29.59Z" transform="translate(-270.39 -148.42)"/><path class="cls-2" d="M453.4,256.91a43.71,43.71,0,0,1,3.29-4.38c-2.19-7.67-7.67-13.15-15.34-14.25h-2.2c-7.67,1.1-13.15,6.58-15.34,14.25,1.1,1.1,2.19,4.38,3.29,4.38h5.48c0-4.38,3.29-8.76,7.67-8.76,4.38,1.09,7.67,4.38,7.67,8.76h5.48Z" transform="translate(-270.39 -148.42)"/><path class="cls-2" d="M456.69,482.67c-2.19-7.67-7.67-13.15-15.34-14.25h-2.2c-7.67,1.1-13.15,6.58-15.34,14.25v1.09h8.77c1.09-4.38,4.38-6.57,8.77-6.57,3.28,0,5.48,3.28,6.57,6.57a31,31,0,0,0,8.77-1.09C455.59,483.76,455.59,482.67,456.69,482.67Z" transform="translate(-270.39 -148.42)"/><path class="cls-2" d="M375.59,163.76l6.58-4.38c-2.19,1.09-5.48,2.19-7.67,3.29A1.07,1.07,0,0,1,375.59,163.76Z" transform="translate(-270.39 -148.42)"/><path class="cls-2" d="M328.47,226.23c29.59,0,57,14.24,72.33,38.35a91.79,91.79,0,0,1,16.44-4.38c-18.63-31.78-52.61-50.41-89.87-50.41-6.57,0-12.05,0-17.53,2.19a132.46,132.46,0,0,0-11,15.34h0c-1.1,2.2-2.19,3.29-3.29,5.48A88,88,0,0,1,328.47,226.23Z" transform="translate(-270.39 -148.42)"/><path class="cls-2" d="M462.17,260.2c5.48,1.1,11,3.29,16.44,4.38a86.87,86.87,0,0,1,105.2-31.78c-1.09-2.19-2.19-3.28-3.29-5.48v-1.09c-3.28-5.48-7.67-11-11-15.34-5.47-1.1-12-1.1-17.53-2.2C515.87,208.69,481.89,228.42,462.17,260.2Z" transform="translate(-270.39 -148.42)"/><path class="cls-2" d="M462.17,375.27c5.48,1.1,11,3.29,16.44,4.38,27.39-40.55,81.09-51.5,121.64-24.11,1.1,0,1.1,1.1,2.19,1.1,1.1-3.29,1.1-5.48,2.19-8.77,0-3.29,1.1-5.48,1.1-8.77a103.31,103.31,0,0,0-143.56,36.17Z" transform="translate(-270.39 -148.42)"/><path class="cls-2" d="M453.4,372a42.57,42.57,0,0,1,3.29-4.38c-2.19-7.67-7.67-13.15-15.34-14.25h-2.2c-7.67,1.1-13.15,6.58-15.34,14.25,1.1,1.09,2.19,4.38,3.29,4.38h5.48c0-4.38,3.29-8.77,7.67-8.77,4.38,1.1,7.67,4.39,7.67,8.77h5.48Z" transform="translate(-270.39 -148.42)"/><path class="cls-2" d="M464.36,356.64c3.29-3.29,5.48-6.58,8.77-9.86a44.46,44.46,0,0,0-31.78-17.54h-3.29a46.65,46.65,0,0,0-31.78,17.54c3.28,3.28,5.48,6.57,8.76,9.86,5.48-8.77,14.25-14.25,25.21-14.25C450.11,342.39,460,347.87,464.36,356.64Z" transform="translate(-270.39 -148.42)"/><path class="cls-2" d="M597,374.17A68.93,68.93,0,0,0,552,357.73c-23,0-43.84,11-58.08,29.59,3.29,2.2,7.67,4.39,11,6.58A57.67,57.67,0,0,1,552,369.79c15.34,0,29.59,5.48,40.55,16.44,1.09-2.19,1.09-4.39,2.19-5.48a3.39,3.39,0,0,0,1.1-2.19A8.33,8.33,0,0,0,597,374.17Z" transform="translate(-270.39 -148.42)"/></svg>