<?xml version="1.0" encoding="utf-8"?>
<!-- Generator: Adobe Illustrator 25.3.1, SVG Export Plug-In . SVG Version: 6.00 Build 0)  -->
<svg version="1.1" xmlns="http://www.w3.org/2000/svg" xmlns:xlink="http://www.w3.org/1999/xlink" x="0px" y="0px"
	 viewBox="0 0 227.9 97.2" style="enable-background:new 0 0 227.9 97.2;" xml:space="preserve">
<style type="text/css">
	.st0{fill:#8795A2;}
	.st1{fill:#B8BFC9;}
	.st2{clip-path:url(#SVGID_4_);}
	.st3{fill:#DEE4E0;fill-opacity:0.2;}
	.st4{fill:#FFFFFF;}
</style>
<g id="图层_2">
	<path class="st0" d="M118.3,25.9c0,0.7,0,1.5-0.1,2.2s-0.2,1.4-0.3,2.1s-0.3,1.4-0.5,2.1s-0.5,1.4-0.7,2s-0.6,1.3-0.9,2
		s-0.7,1.3-1.1,1.9s-0.8,1.2-1.3,1.7c-0.5,0.6-0.9,1.1-1.5,1.6c-0.5,0.5-1,1-1.6,1.5c-0.6,0.5-1.1,0.9-1.7,1.3
		c-0.6,0.4-1.2,0.8-1.9,1.1s-1.3,0.6-2,0.9c-0.7,0.3-1.3,0.5-2,0.7c-0.7,0.2-1.4,0.4-2.1,0.5s-1.4,0.2-2.1,0.3S97,48,96.3,48
		s-1.4,0-2.2-0.1s-1.4-0.2-2.1-0.3s-1.4-0.3-2.1-0.5c-0.7-0.2-1.3-0.5-2-0.7c-0.7-0.3-1.3-0.6-2-0.9c-0.6-0.3-1.3-0.7-1.9-1.1
		c-0.6-0.4-1.2-0.8-1.7-1.3c-1.1-0.9-2.1-1.9-3-3.1c-0.5-0.6-0.9-1.1-1.3-1.7c-0.4-0.6-0.8-1.2-1.1-1.9s-0.6-1.3-0.9-2
		s-0.5-1.4-0.7-2s-0.4-1.4-0.5-2.1s-0.2-1.4-0.3-2.1s-0.1-1.5-0.1-2.2s0-1.5,0.1-2.2s0.2-1.4,0.3-2.1c0.3-1.4,0.7-2.8,1.2-4.2
		c0.3-0.7,0.6-1.3,0.9-2s0.7-1.3,1.1-1.9c0.8-1.2,1.7-2.3,2.7-3.4c0.5-0.5,1-1,1.6-1.5s1.1-0.9,1.7-1.3c0.6-0.4,1.2-0.8,1.9-1.1
		c0.6-0.3,1.3-0.7,2-0.9c0.7-0.3,1.3-0.5,2-0.7c0.7-0.2,1.4-0.4,2.1-0.5c2.8-0.6,5.8-0.6,8.6,0c0.7,0.1,1.4,0.3,2.1,0.5
		c0.7,0.2,1.3,0.5,2,0.7c0.7,0.3,1.4,0.6,2,0.9c0.7,0.3,1.3,0.7,1.9,1.1c0.6,0.4,1.2,0.8,1.7,1.3c1.1,0.9,2.1,2,3.1,3.1
		c0.5,0.6,0.9,1.1,1.3,1.8s0.8,1.2,1.1,1.9s0.6,1.3,0.9,2s0.5,1.4,0.7,2s0.4,1.4,0.5,2.1s0.2,1.4,0.3,2.1S118.3,25.1,118.3,25.9z"/>
</g>
<g id="图层_3">
	<g>
		<path class="st1" d="M95.2,66.7c0.7,0.3,1.3,0.8,1.5,1.5c0.1-1,0.6-1.9,1.4-2.5c0.7-0.4,1.6-0.3,2.2,0.2c2-1.2,4.5-1.7,6.8-1.3
			c4.5,0.8,7,4.8,7.5,5.7c1.5-0.9,3.3-0.9,4.8-0.2c0.5,0.3,3.2,1.7,3.1,4.6c0,3.1-3.1,4.7-3.4,4.9c-1.6,0.8-3.5,0.7-4.9-0.3
			c-0.8,1.4-2,2.4-3.5,2.9c-2.1,0.5-4.2-0.5-5.6-2.7c-0.9,1.1-2.2,1.8-3.6,1.8c-1.4-0.1-2.6-0.9-3.4-2c-0.3,1-1,1.9-1.9,2.4
			c-0.7,0.4-1.6,0.5-2.4,0.2c0.1,2.3-0.6,4.5-2,6.3c-1.9,2.5-5.5,2.9-8,1c-3.8,2.8-8.4,2.6-11.4-0.4c-3.3-3.3-3.4-8.4-3.4-9.2
			c-0.7-0.4-1.3-1.1-1.5-1.9c-0.2-0.8-0.3-1.6-0.1-2.4c-0.5,1-1.4,1.7-2.4,1.9c-0.6,0.1-1.3,0-1.8-0.4c-0.2,2.3-1.4,4.3-3.3,5.5
			c-1.2,0.7-2.7,0.7-3.9,0.1c-1.3,1.6-3.2,2.5-5.2,2.5c-3.5-0.2-5.1-3.9-5.2-4.2c-0.5,0.5-1.1,0.8-1.8,0.9c-0.8,0-1.6-0.4-2.1-1
			c-1.5,2.9-4,4.4-6,3.8c-1-0.4-1.9-1.1-2.4-2c-1-0.6-5.7-3.4-8.8-0.8c-0.3,0.2-1.5,1.2-1.4,2.2c0.1,1.7,3,2.6,4,2.9
			c3,0.9,3.8-0.2,6,0.9c0.8,0.4,3,1.4,3.4,3.8c0.1,1.3-0.2,2.7-0.9,3.8c-1.8,2.6-6.2,2.5-11.1-0.2c-4.5,2-7.4,1.4-9.3,0.4
			c-3.3-1.7-4.2-4.9-7.6-6.1c-2.4-0.7-5.1-0.4-7.3,0.8c4.3-4.2,7.1-4.5,8.9-4c2.6,0.7,2.8,3,6.6,4.9c2.5,1.2,6.6,2.2,8,0.1
			c0.4-0.7,0.5-1.6,0.3-2.4c-0.4-1.6-2.2-2.6-4.5-2.2c-0.9,0.9-2.3,1.3-3.5,1c-1.7-0.7-2.8-2.3-2.9-4.1c-0.2-2.8,1.8-5.1,3.3-6
			c2.1-1.4,3.7-0.4,6.8-0.3c3,0,5.9-0.7,8.5-2c-0.3-0.8-1.4-3.7-0.4-6.2c1.3-3.2,5.8-4.9,10.5-2.1c0-1.3,0.3-2.6,1-3.6
			c0.9-1.5,2.6-2.2,4.2-1.9c-0.1-1.7,0.4-3.4,1.3-4.9c1.8-2.5,5.2-3.1,8.1-1.2c-0.5-0.6-0.8-1.3-0.7-2.1c0.1-0.8,0.5-1.6,1.2-2
			c0-0.3-0.6-4.5,1.6-7.1s6-2.7,8.6,0.3c1.4-0.8,3.1-1.1,4.7-0.9c1.8,0.3,3.4,1.2,4.5,2.5c2.5,0.1,4.8,1.1,6.6,2.8
			c1.7,1.7,2.9,3.7,3.6,6c3.1-1.8,7.1-0.8,8.9,2.4c0.3,0.6,0.6,1.2,0.7,1.9c0.4,3-0.7,6-2.8,8.2C93.5,67.1,94.2,66.4,95.2,66.7z
			 M138.8,46.8c-0.7,0.1-1.4,0.6-1.8,1.2c0.1-1-0.2-2-1-2.7c-0.6-0.5-1.5-0.6-2.2-0.2c-1.8-1.6-4.1-2.5-6.4-2.6
			c-4.6,0-7.7,3.4-8.4,4.2c-1.3-1.1-3-1.5-4.7-1.1c-0.5,0.2-3.5,1.1-4,3.9c-0.5,3,2.2,5.2,2.4,5.4c1.4,1.1,3.3,1.3,4.9,0.7
			c0.5,1.5,1.5,2.8,2.9,3.5c1.9,0.9,4.2,0.3,6-1.6c0.6,1.2,1.8,2.1,3.2,2.5c1.4,0.1,2.8-0.4,3.7-1.4c0.2,1.1,0.7,2,1.5,2.8
			c0.6,0.5,1.5,0.8,2.3,0.7c-0.5,2.2-0.2,4.5,0.8,6.6c1.5,2.8,4.8,3.9,7.6,2.5c3.2,3.5,7.7,4.2,11.3,1.7c3.8-2.6,4.9-7.6,5.1-8.4
			c0.8-0.2,1.5-0.8,1.9-1.6c0.4-0.7,0.6-1.5,0.6-2.3c0.3,1,1,1.9,2,2.4c0.6,0.2,1.3,0.2,1.9,0c-0.3,2.2,0.5,4.5,2.2,6
			c1.1,0.9,2.5,1.2,3.9,0.8c0.9,1.8,2.7,3.1,4.6,3.5c3.4,0.4,5.8-2.9,6-3.1c0.4,0.6,0.9,1,1.6,1.2c0.8,0.2,1.7-0.1,2.3-0.6
			c1,3.1,3.1,5,5.2,4.8c1-0.2,2-0.7,2.7-1.5c1.1-0.5,6.2-2.3,8.8,0.8c0.2,0.3,1.2,1.4,1,2.5c-0.4,1.6-3.4,2-4.4,2
			c-3.1,0.3-3.7-0.9-6-0.2c-0.9,0.2-3.2,0.8-4.1,3.1c-0.4,1.3-0.4,2.7,0.1,3.9c1.2,2.9,5.6,3.6,11,1.9c4,2.8,7,2.7,9,2.2
			c3.6-1,5-4,8.7-4.6c2.5-0.2,5.1,0.5,7,2.2c-3.4-4.9-6.2-5.8-8.1-5.6c-2.6,0.2-3.3,2.4-7.4,3.5c-2.7,0.7-7,0.9-7.8-1.4
			c-0.3-0.8-0.2-1.6,0.1-2.4c0.7-1.5,2.6-2.1,4.8-1.3c0.7,1.1,2,1.7,3.3,1.6c1.8-0.3,3.2-1.7,3.6-3.5c0.8-2.7-0.8-5.4-2.1-6.5
			c-1.8-1.8-3.6-1.1-6.7-1.6c-2.9-0.5-5.6-1.7-8-3.5c0.5-0.7,2.1-3.4,1.6-6c-0.7-3.4-4.8-5.9-9.9-4c0.3-1.3,0.2-2.6-0.3-3.8
			c-0.6-1.6-2.1-2.7-3.8-2.6c0.4-1.7,0.2-3.4-0.4-5c-1.2-2.8-4.5-4.1-7.8-2.7c0.6-0.5,1-1.2,1-2c0.1-0.8-0.2-1.7-0.8-2.2
			c0.1-0.3,1.4-4.3-0.2-7.3s-5.3-3.8-8.5-1.4c-2.7-2.3-6.6-2.3-9.4-0.1c-2.4-0.4-4.9,0.1-7,1.5c-2,1.3-3.6,3.1-4.6,5.2
			c-2.7-2.4-6.7-2.2-9.1,0.5c-0.5,0.5-0.9,1.1-1.1,1.8c-0.9,2.9-0.5,6.1,1.2,8.6C140.1,47.2,139.5,46.8,138.8,46.8L138.8,46.8z
			 M128.1,21.1c-1.3,0-2.4,0.8-2.8,2.1c-0.2,1.1,0.3,2.2,1.3,2.7c1.3,0.6,3.5-0.1,4.6-2.2c1.4,1.2,3,2,4.8,2.4
			c0.9,0.2,5.9,1.1,8.1-1.9c0.8-1.2,1.1-2.7,0.9-4.2c0.7,0.3,1.5,0.4,2.2,0.2c1.1-0.4,1.1-1.4,2.3-2.2c1.4-1,3.6-1.2,4.2-0.4
			s-0.9,2.1-0.4,3.9c0.5,2,3.1,2.7,3.2,2.7c3.1,0.8,5.7-1.7,5.8-1.8c1.5-1.7,2.2-4,1.6-6.2c1.2-1.2,2.7-2.1,4.4-2.4
			c2.6-0.4,4,1.1,6.2,0.7c1.3-0.2,3.2-1,5.3-4.2c-1.3,0.8-2.9,1.2-4.5,1.1c-3-0.2-4.2-2.4-6.7-2.4c-1.2,0-3.1,0.4-5.4,2.9
			c-0.6-1.6-2.1-2.6-3.8-2.6c-1,0.1-2,0.6-2.7,1.4c-0.7-2-2.4-3.4-4.4-3.7c-1.2-0.1-2.4,0.2-3.5,0.8c1.1-2.1,0.8-3.5,0.6-4.1
			c-1.3-3.6-8.9-5.2-13-2c-1.3,1.1-2.3,2.5-2.7,4.2c-2.5-0.4-5,0.6-6.5,2.6c-0.9,1.4-1.3,3-1,4.7c-1.7,0.9-2.6,2.7-2.3,4.6
			C124.5,19.7,126.2,21.1,128.1,21.1L128.1,21.1z M69,24.1c-0.1-1.9-1.4-3.5-3.2-4c-0.1-1.7-0.8-3.2-2-4.3c-1.9-1.6-4.6-2-6.9-1.1
			c-0.8-1.5-2.1-2.7-3.6-3.5c-4.7-2.1-11.8,1-12.3,4.9c-0.1,0.6-0.1,2,1.5,3.8c-2.8-1-5.8,0.5-6.8,3.2c-0.2,0.4-0.3,0.9-0.3,1.4
			c-0.8-0.6-1.9-0.9-2.9-0.8c-1.6,0.3-2.9,1.7-3.1,3.3c-2.8-1.9-4.7-2-5.9-1.6c-2.5,0.6-3.1,3-6,3.8c-1.5,0.4-3.1,0.4-4.6-0.1
			c2.7,2.7,4.8,3,6.1,3c2.3-0.2,3.3-1.9,6-2.1c1.7-0.1,3.4,0.4,4.8,1.3c0,2.3,1.1,4.4,3,5.7c0.2,0.1,3.2,2,6,0.5
			c0.1-0.1,2.5-1.3,2.5-3.4c0.1-1.9-1.7-2.8-1.2-3.7s2.6-1.2,4.2-0.5c1.3,0.6,1.5,1.5,2.7,1.7c0.8,0,1.5-0.2,2.1-0.7
			c0.1,1.5,0.7,2.9,1.8,3.9c2.8,2.5,7.5,0.5,8.3,0.1c1.7-0.8,3.1-1.9,4.1-3.4c1.5,1.8,3.8,2,5,1.1c0.9-0.7,1.2-1.9,0.7-2.9
			c-0.6-1.1-1.9-1.7-3.1-1.4C67.8,27.8,69.1,26.1,69,24.1L69,24.1z"/>
	</g>
</g>
<g id="图层_1">
	<g>
		<defs>
			<rect id="SVGID_1_" x="0" y="-0.7" width="227.9" height="98"/>
		</defs>
		<clipPath id="SVGID_2_">
			<use xlink:href="#SVGID_1_"  style="overflow:visible;"/>
		</clipPath>
	</g>
	<g>
		<defs>
			<rect id="SVGID_3_" x="0" y="0.3" width="227.3" height="97"/>
		</defs>
		<clipPath id="SVGID_4_">
			<use xlink:href="#SVGID_3_"  style="overflow:visible;"/>
		</clipPath>
		<g class="st2">
			<path class="st3" d="M14.2,90.2l-0.5-0.1c0-0.1,0.1-0.1,0.1-0.2C13.8,90,14,90.1,14.2,90.2z M194,69.9c0.4-0.3,0.9-0.6,1.4-0.9
				c-3-4.2-8.8-5.1-13-2.1c-0.8,0.6-1.5,1.3-2.1,2.1c0.5,0.3,0.9,0.6,1.4,0.9c1.4-2,3.7-3.1,6.2-3.1C190.3,66.8,192.5,68,194,69.9z
				 M68.6,29.3L68.6,29.3v-0.2c-0.3-0.3-0.6-0.5-1-0.6c0,0.1-0.1,0.2-0.1,0.4c0.1,0.2,0.2,0.4,0.4,0.6
				C68.1,29.4,68.3,29.3,68.6,29.3z M197.3,68.1c0.7-0.3,1.5-0.5,2.2-0.6c-3.8-6.5-12.2-8.6-18.7-4.7c-2,1.2-3.6,2.8-4.7,4.7
				c0.7,0.2,1.5,0.4,2.2,0.6c3.5-5.2,10.6-6.6,15.9-3.1C195.4,65.8,196.5,66.9,197.3,68.1L197.3,68.1z M25.3,93.3
				c1.4,0,2.6,0.7,3.3,1.9c0.4-0.5,0.7-0.8,1.1-1.2c-1.7-2.5-5.1-3.1-7.5-1.4c-0.5,0.4-1,0.8-1.4,1.4c0.4,0.4,0.8,0.8,1.1,1.2
				C22.7,94.1,23.9,93.3,25.3,93.3L25.3,93.3z M194,85c0.4-0.3,0.9-0.6,1.4-0.9c-0.8-1.1-1.8-2-2.9-2.6c-0.2,0.2-0.3,0.5-0.4,0.8
				c-0.1,0.3-0.2,0.5-0.2,0.8C192.7,83.6,193.4,84.3,194,85L194,85z M31.8,81.7c4.3-4.6,11.6-4.8,16.2-0.5c0.6,0.6,1.2,1.2,1.6,2
				c0.7-0.3,1.4-0.5,2.2-0.6C48,76.1,39.7,74,33.2,77.8c-1.4,0.8-2.6,1.9-3.6,3.1C30.4,81.1,31.1,81.4,31.8,81.7L31.8,81.7z
				 M34.8,90.7l1.1-0.4c-0.7-1.2-1.8-2.2-3.1-2.7c-0.6-0.3-1.2-0.5-1.9-0.5C32.5,88,33.8,89.3,34.8,90.7L34.8,90.7z M19.4,92.3
				c-0.3-0.1-0.7-0.1-1-0.2c0.3,0.2,0.5,0.3,0.8,0.5C19.2,92.5,19.3,92.4,19.4,92.3L19.4,92.3z M31.5,77.4c0.5-0.3,0.9-0.6,1.4-0.9
				c-0.4-0.5-0.8-1-1.2-1.4l0,0c-0.5,0.3-1.1,0.5-1.7,0.7C30.5,76.3,31,76.8,31.5,77.4L31.5,77.4z M209.3,90.6
				c-3-3-7.6-3.7-11.3-1.5c1.8,0,3.6-0.3,5.3-0.9C205,89.5,207.1,90.3,209.3,90.6L209.3,90.6z M187.8,69.1c-1.8,0-3.4,0.9-4.5,2.3
				l0.3,0.3c0.5-0.5,1-1,1.4-1.5c0.3,0.4,0.6,0.7,1,1c0.6-0.3,1.2-0.4,1.8-0.4c0.3,0,0.7,0,1,0.1c0,0,0.1-0.1,0.1-0.1
				c0,0,0,0.1,0,0.1c0.9,0.3,1.7,0.9,2.2,1.8c0.4-0.5,0.7-0.8,1.1-1.2C191.3,70,189.6,69.1,187.8,69.1L187.8,69.1z M62.4,32.8
				c-0.8,0.5-1.5,1-2.1,1.7C61,34,61.7,33.4,62.4,32.8z M20,83.2c0.7-0.3,1.4-0.5,2.2-0.6c-1.4-2.3-3.4-4.1-5.7-5.3
				c-0.1,0-0.1,0.1-0.2,0.1c-0.6,0.4-1.1,0.9-1.6,1.4C16.8,79.8,18.7,81.3,20,83.2L20,83.2z M64.4,45.4c0.7-0.3,1.4-0.5,2.2-0.6
				c-0.4-0.7-0.9-1.4-1.4-2c-1.2-0.6-2.5-0.8-3.9-0.5C62.6,43.1,63.6,44.2,64.4,45.4L64.4,45.4z M224.3,86c0.8,0.3,1.6,0.6,2.4,1.1
				c0.1-0.1,0.3-0.2,0.4-0.2c-0.5-0.6-0.9-1.2-1.5-1.7C225.2,85.4,224.7,85.7,224.3,86z M8.9,86.2c-0.8-0.2-1.7-0.2-2.6,0
				c-0.1,0.1-0.2,0.2-0.3,0.4c0.4,0.4,0.8,0.8,1.1,1.2C7.5,87,8.1,86.5,8.9,86.2z M19.7,76.8c-0.5-0.1-1.1-0.1-1.6,0
				c0.3,0.2,0.7,0.5,1.1,0.7C19.3,77.2,19.5,77,19.7,76.8L19.7,76.8z M25.3,78.2c1.4,0,2.6,0.7,3.3,1.9c0.4-0.4,0.7-0.8,1.1-1.2
				c-0.7-1-1.7-1.8-2.9-2.1c-1.2,0.3-2.5,0.4-3.8,0.3H23c-0.8,0.4-1.6,1-2.1,1.8c0.4,0.4,0.8,0.8,1.1,1.2
				C22.7,78.9,23.9,78.2,25.3,78.2L25.3,78.2z M25.3,94.9c-0.3,0-0.7,0.1-1,0.2c1,0.6,2.1,1.1,3.2,1.4
				C27.2,95.5,26.3,94.9,25.3,94.9L25.3,94.9z M12.2,93.4c2.3,0.4,4.4,1.4,6.1,3c0.9,0,1.9-0.1,2.8-0.3c-2.6-3.2-6.5-5-10.6-5H10
				C10.8,91.8,11.5,92.6,12.2,93.4z M31.4,92.6c0.5-0.3,0.9-0.6,1.4-0.9c-1.7-2.4-4.6-3.9-7.5-3.9c-0.6,0-1.2,0.1-1.8,0.2
				c0.2,0.2,0.3,0.5,0.4,0.8c0.1,0.3,0.1,0.5,0.1,0.8c0.4-0.1,0.9-0.1,1.3-0.1C27.7,89.4,30,90.6,31.4,92.6L31.4,92.6z M15.7,30.3
				c0.2-0.3,0.4-0.5,0.6-0.8c-0.9,0.1-1.8,0.1-2.6-0.1c-0.1,0.1-0.1,0.2-0.2,0.2C14.3,29.8,15,30,15.7,30.3L15.7,30.3z M206.3,78
				c-0.4,0.4-0.9,0.8-1.4,0.9c0.4,0.3,0.8,0.7,1.1,1.2c0.3-0.4,0.7-0.8,1.1-1.2C206.8,78.6,206.6,78.3,206.3,78L206.3,78z M3.7,88.9
				c1-0.1,2-0.1,3,0.2c-0.6-0.9-1.4-1.7-2.2-2.4c-0.7,0.3-1.4,0.8-2,1.2C3,88.2,3.4,88.6,3.7,88.9z M31.5,97.1
				c1.2-1.4,2.7-2.5,4.5-3.1c0.3-0.8,0.4-1.6,0.3-2.4c-3,0.9-5.6,2.8-7.4,5.3C29.7,97.1,30.6,97.2,31.5,97.1L31.5,97.1z M219.8,82.3
				c1.5,0.5,2.8,1.4,3.8,2.7l1.1-0.8C223.4,82.9,221.7,82.3,219.8,82.3L219.8,82.3z M215.6,84.5c-0.4,0.3-0.9,0.5-1.4,0.7
				c-0.5,0.3-0.9,0.8-1.2,1.3c0.4,0.4,0.8,0.8,1.1,1.2c0.7-1.2,2-1.9,3.3-1.9c0.6,0,1.2,0.1,1.8,0.4c0.6-0.2,1.1-0.4,1.7-0.5
				c0.1,0,0.2,0,0.3,0c-1-1-2.4-1.5-3.8-1.5C216.8,84.2,216.2,84.3,215.6,84.5L215.6,84.5z M16.6,85c0.5-0.3,0.9-0.6,1.4-0.9
				c-1.1-1.6-2.8-2.8-4.6-3.4c-0.2,0.5-0.4,1-0.5,1.6C14.4,82.8,15.7,83.8,16.6,85L16.6,85z M66.7,33.2c0.4-0.1,0.8-0.2,1.2-0.2
				c0.1-0.1,0.3-0.2,0.4-0.3c0.6-0.5,0.9-1.3,0.9-2.1c-1.9,0.1-3.7,0.5-5.5,1.3C64.6,32.7,65.6,33.2,66.7,33.2L66.7,33.2z
				 M54.9,31.2c-1.8,0-3.4,0.9-4.5,2.3c0.4,0.4,0.8,0.8,1.1,1.2c1.1-1.8,3.5-2.5,5.3-1.4c0.6,0.3,1,0.8,1.4,1.4
				c0.4-0.4,0.7-0.8,1.1-1.2C58.3,32.1,56.7,31.2,54.9,31.2L54.9,31.2z M208.8,77.4c0.4-0.3,0.9-0.6,1.4-0.9
				c-1.8-2.4-4.6-3.9-7.5-3.9c-1.3,0-2.5,0.3-3.7,0.8c2-0.5,5-0.6,6.7,1.5C206.9,75.5,208,76.3,208.8,77.4L208.8,77.4z M201.3,63.3
				c0.1-0.6,0.1-1.1,0.1-1.7c-1.3,0.3-2.4,1.1-3.2,2.2c0.4,0.4,0.8,0.8,1.1,1.2C199.7,64.2,200.4,63.6,201.3,63.3L201.3,63.3z
				 M40.1,25.3c1.4,0,2.7,0.8,3.3,2c0.4-0.5,0.7-0.8,1.1-1.2c-1.7-2.5-5.1-3.1-7.5-1.4c-0.5,0.4-1,0.8-1.4,1.4
				c0.4,0.4,0.8,0.8,1.1,1.2C37.4,26.1,38.7,25.4,40.1,25.3L40.1,25.3z M149.5,62.3c0.5-0.3,0.9-0.6,1.4-0.9
				c-3-4.2-8.8-5.1-12.9-2.1c-0.8,0.6-1.5,1.3-2.1,2.1c0.4,0.2,0.7,0.5,1.1,0.7c0.2,0,0.2,0,0.4,0c0,0.1,0,0.1,0,0.2
				c1.4-1.9,3.7-3.1,6.1-3.1C145.8,59.2,148.1,60.4,149.5,62.3L149.5,62.3z M152.9,60.5c0.7-0.3,1.4-0.5,2.2-0.6
				c-3.8-6.5-12.2-8.6-18.7-4.7c-2,1.2-3.6,2.8-4.7,4.7h0.1c0.7-0.3,1.2-0.7,1.8-1.1c0.1,0.5,0.3,1.1,0.5,1.6
				c3.6-5.2,10.7-6.5,15.8-2.9C151,58.2,152.1,59.3,152.9,60.5L152.9,60.5z M69.7,66.8c2.5,0,4.8,1.2,6.2,3.2
				c0.4-0.3,0.9-0.6,1.4-0.9c-3-4.2-8.8-5.1-13-2.1c-0.8,0.6-1.5,1.3-2.1,2.1c0.5,0.3,0.9,0.6,1.4,0.9C65,68,67.3,66.8,69.7,66.8
				L69.7,66.8z M65,77.2c0.7-0.1,1.3-0.5,1.8-1c-1,0.2-1.9,0.6-2.8,1C64.2,77.3,64.6,77.3,65,77.2L65,77.2z M69.7,63
				c3.8,0,7.4,1.9,9.5,5.1c0.7-0.3,1.5-0.5,2.2-0.6c-3.8-6.5-12.2-8.6-18.7-4.7c-2,1.2-3.6,2.8-4.7,4.7c0.7,0.2,1.5,0.4,2.2,0.6
				C62.3,64.9,65.9,63,69.7,63L69.7,63z M69.7,70.6c1.4,0,2.7,0.8,3.4,2c0.4-0.5,0.7-0.8,1.1-1.2c-1.7-2.5-5.1-3.1-7.5-1.4
				c-0.5,0.4-1,0.8-1.4,1.4c0.4,0.4,0.8,0.8,1.1,1.2C67,71.4,68.3,70.7,69.7,70.6L69.7,70.6z M75.9,85c0.4-0.3,0.9-0.6,1.4-0.9
				c-1.8-2.4-4.6-3.9-7.5-3.9c-0.2,0-0.4,0-0.6,0c0,0.5,0.1,1.1,0.2,1.6h0.4C72.1,81.9,74.5,83.1,75.9,85L75.9,85z M150.6,69
				c0.5,0.3,0.9,0.6,1.4,0.9c1.4-2,3.7-3.1,6.2-3.1c1,0,2.1,0.2,3,0.6c0.2-0.6,0.4-1.1,0.5-1.5C157.7,64.2,153.2,65.6,150.6,69
				L150.6,69z M145.3,67.1c0,0,0.2-0.5,0.4-0.6c-0.2-1.1-1.2-1.9-2.3-1.9c-1.1,0-2.1,0.8-2.3,1.9c0.1,0.2,0.2,0.4,0.4,0.6
				c0.3,0,0.5-0.1,0.8-0.1l0,0c-0.1-0.6,0.4-1.2,1.1-1.3s1.2,0.4,1.3,1.1c0,0.1,0,0.1,0,0.2V67C144.8,67,145,67.1,145.3,67.1
				L145.3,67.1z M30.5,34.6c0.3,0.7,0.8,1.3,1.3,1.8c2.2-2.3,5.2-3.6,8.3-3.6c0.3,0,0.6,0,1,0c-0.5-1-1.2-1.6-1-2.2
				C36.5,30.6,33,32,30.5,34.6z M147.8,63.8c-1.7-2.5-5.1-3.1-7.5-1.4c-0.5,0.4-1,0.8-1.4,1.4c0.4,0.4,0.8,0.8,1.1,1.2
				c1.1-1.8,3.4-2.5,5.3-1.4c0.6,0.3,1.1,0.8,1.4,1.4C147.1,64.6,147.5,64.2,147.8,63.8L147.8,63.8z M177.8,11.2
				c0.4,0.2,0.7,0.4,1,0.6c0.4-0.4,0.7-0.9,1-1.4C179.3,10.7,178.6,11,177.8,11.2L177.8,11.2z M149.5,47.2c0.5-0.3,0.9-0.6,1.4-0.9
				c-2.8-3.8-8-5-12.1-2.7c0.1,0.6,0.2,1.1,0.4,1.7c1.2-0.8,2.7-1.2,4.1-1.2C145.8,44.1,148.1,45.3,149.5,47.2L149.5,47.2z
				 M179.2,32.1c0,0,0.1-0.1,0.1-0.1c-0.1-0.2-0.2-0.3-0.2-0.5c-1.2-2.2-3.7-3.3-6.1-2.6l0,0C175.4,29,177.7,30.1,179.2,32.1z
				 M152.9,45.4c0.7-0.3,1.4-0.5,2.2-0.6c-3.2-5.4-9.7-7.9-15.7-6c-0.1,0.1-0.1,0.3-0.2,0.4c-0.3,0.7-0.4,1.4-0.5,2.2
				C143.8,39,149.8,40.8,152.9,45.4z M177.5,33.6c-1.7-2.5-5.1-3.1-7.5-1.4c-0.5,0.4-1,0.8-1.4,1.4c0.4,0.4,0.8,0.8,1.1,1.2
				c1.1-1.8,3.4-2.5,5.3-1.4c0.6,0.3,1.1,0.8,1.4,1.4C176.7,34.4,177.1,34,177.5,33.6L177.5,33.6z M174.9,36.9c0,0,0.3-0.5,0.4-0.6
				c-0.2-1.1-1.2-1.9-2.3-1.9c-1.1,0-2.1,0.8-2.3,1.9c0.1,0.2,0.2,0.4,0.4,0.6c0.3,0,0.5-0.1,0.8-0.1l0,0c0-0.7,0.5-1.2,1.2-1.2
				s1.2,0.5,1.2,1.2c0,0,0,0,0,0v0.1C174.5,36.8,174.7,36.9,174.9,36.9L174.9,36.9z M146.5,67.5c0.7,0.2,1.5,0.4,2.2,0.6
				c2.1-3.2,5.7-5.1,9.5-5.1c1.6,0,3.2,0.3,4.7,1c0.4-0.3,0.8-0.7,1-1.1c0.1-0.2,0.2-0.5,0.3-0.7C157.9,59,150.1,61.3,146.5,67.5
				L146.5,67.5z M173,12.3c-2,0-3.9,0.6-5.4,1.8l0.9-0.2c1-0.1,2,0,2.9,0.2c0.5-0.1,1.1-0.2,1.7-0.2c0.9,0,1.8,0.2,2.6,0.5
				c0.6-0.2,1.2-0.6,1.8-1C176,12.6,174.5,12.2,173,12.3L173,12.3z M43.2,29.6c0.7,0.2,1.5,0.4,2.2,0.6c3.5-5.2,10.6-6.6,15.9-3.1
				c1.2,0.8,2.3,1.9,3.1,3.1c0.7-0.3,1.4-0.5,2.2-0.6c-3.9-6.5-12.3-8.6-18.8-4.7C45.9,26.1,44.3,27.7,43.2,29.6L43.2,29.6z
				 M49.6,68.1c0.7-0.3,1.4-0.5,2.2-0.6c-1.6-2.7-4.2-4.8-7.2-5.9c-0.8,0.3-1.5,0.9-2,1.7c0,0,0,0,0,0.1
				C45.5,63.9,48,65.7,49.6,68.1L49.6,68.1z M145.3,51.9c0,0,0.2-0.4,0.4-0.6c-0.2-1.1-1.2-1.9-2.3-1.9c-1.1,0-2.1,0.8-2.3,1.9
				c0.1,0.2,0.2,0.4,0.4,0.6c0.2,0,0.5,0,0.7,0l0,0c-0.1-0.6,0.4-1.2,1.1-1.3s1.2,0.4,1.3,1.1c0,0.1,0,0.1,0,0.2l0,0
				C144.8,51.9,145,51.9,145.3,51.9z M147.8,48.6c-1-1.5-2.7-2.3-4.5-2.3c-1.1,0-2.2,0.3-3.1,1c0.1,0.1,0.1,0.2,0.2,0.3
				c-0.1-0.1-0.2-0.2-0.3-0.3c-0.5,0.4-0.9,0.8-1.3,1.3c0.4,0.4,0.8,0.8,1.1,1.2c1.1-1.8,3.4-2.5,5.3-1.4c0.6,0.3,1.1,0.8,1.4,1.4
				C147.1,49.5,147.5,49.1,147.8,48.6L147.8,48.6z M138.4,69.2c0.5,0.7,1.1,1.3,1.9,1.7c4.2-1.2,8.7,0.1,11.6,3.3
				c0.9,0.1,1.8,0,2.6-0.3C150.9,68.9,144.2,66.9,138.4,69.2L138.4,69.2z M33.5,83c0.3,0.4,0.8,0.8,1.2,1.1c1.4-1.4,3.3-2.2,5.3-2.2
				c0.2,0,0.4,0,0.6,0c0.3-0.4,0.6-0.8,0.8-1.3c0.5,0.7,1.3,1.1,2.1,1.1c0.4,0,0.7-0.1,1-0.3c-1.4-0.8-2.9-1.2-4.5-1.2
				C37.7,80.2,35.3,81.2,33.5,83z M160.2,59.6c0,0,0.3-0.4,0.4-0.6c-0.2-1.1-1.2-1.9-2.3-1.9c-1.1,0-2.1,0.8-2.3,1.9
				c0.1,0.2,0.2,0.4,0.4,0.6c0.3,0,0.5-0.1,0.8-0.1l0,0c0-0.7,0.5-1.2,1.2-1.2s1.2,0.5,1.2,1.2c0,0,0,0,0,0v0.1
				C159.6,59.6,159.9,59.6,160.2,59.6z M54.9,74.3c2.4,0,4.7,1.2,6.2,3.1c0.4-0.3,0.9-0.6,1.4-0.9c-3-4.2-8.8-5.1-13-2.1
				c-0.8,0.6-1.5,1.3-2.1,2.1c0.5,0.3,0.9,0.6,1.4,0.9C50.2,75.5,52.5,74.3,54.9,74.3z M173,68.3c-1,0-1.9,0.1-2.8,0.3
				c0.1,0.1,0.2,0.2,0.4,0.4c1.1,0.9,2.5,1.2,3.9,0.8c0.2,0.3,0.4,0.6,0.6,0.9c2,0.3,3.8,1.2,5.4,2.5c0.8-0.1,1.6-0.4,2.3-0.9
				C180.1,69.8,176.6,68.3,173,68.3L173,68.3z M54.9,78.2c1.4,0,2.7,0.7,3.3,1.9c0.4-0.4,0.7-0.8,1.1-1.2c-1.7-2.5-5.1-3.1-7.5-1.4
				c-0.5,0.4-1,0.8-1.4,1.4c0.4,0.4,0.8,0.8,1.1,1.2C52.3,78.9,53.5,78.2,54.9,78.2L54.9,78.2z M182.5,60.5c0.7-0.3,1.4-0.5,2.2-0.6
				c-3.8-6.5-12.2-8.6-18.7-4.7c-2,1.2-3.6,2.8-4.7,4.7c0.7,0.2,1.5,0.4,2.2,0.6c3.5-5.2,10.6-6.6,15.9-3.1
				C180.6,58.2,181.7,59.3,182.5,60.5L182.5,60.5z M54.9,70.5c3.8,0,7.4,1.9,9.5,5.1c0.7-0.3,1.4-0.5,2.2-0.6
				c-3.8-6.5-12.2-8.6-18.7-4.8c-2,1.2-3.6,2.8-4.8,4.8c0.7,0.2,1.5,0.4,2.2,0.6C47.5,72.4,51.1,70.5,54.9,70.5L54.9,70.5z
				 M34.8,30.3c0.7-0.3,1.4-0.5,2.2-0.6c-1.4-2.4-3.5-4.2-6-5.4c-0.6,0.5-1.1,1.1-1.4,1.8C31.8,26.9,33.6,28.4,34.8,30.3L34.8,30.3z
				 M177.5,63.8c-1.7-2.5-5.1-3.1-7.5-1.4c-0.5,0.4-1,0.8-1.4,1.4c0.4,0.4,0.8,0.8,1.1,1.2c1.1-1.8,3.4-2.5,5.3-1.4
				c0.6,0.3,1.1,0.8,1.4,1.4C176.7,64.6,177.1,64.2,177.5,63.8z M174.9,67.1c0,0,0.3-0.5,0.4-0.6c-0.2-1.1-1.2-1.9-2.3-1.9
				c-1.1,0-2.1,0.8-2.3,1.9c0.1,0.2,0.2,0.4,0.4,0.6c0.3,0,0.5-0.1,0.8-0.1l0,0c0-0.7,0.5-1.2,1.2-1.2c0.6,0,1.2,0.5,1.2,1.2v0.1
				C174.4,67.1,174.7,67.1,174.9,67.1L174.9,67.1z M179.2,62.3c0.4-0.3,0.9-0.6,1.4-0.9c-3-4.2-8.8-5.1-12.9-2.1
				c-0.8,0.6-1.5,1.3-2.1,2.1c0.5,0.3,0.9,0.6,1.4,0.9c1.4-2,3.7-3.1,6.2-3.1C175.4,59.2,177.7,60.4,179.2,62.3L179.2,62.3z
				 M150.6,38.8c0.5,0.3,0.9,0.6,1.4,0.9c1.4-2,3.7-3.1,6.2-3.1c2.4,0,4.7,1.2,6.2,3.1c0.4-0.3,0.9-0.6,1.4-0.9
				c-3-4.2-8.8-5.1-12.9-2.1C152,37.3,151.2,38,150.6,38.8L150.6,38.8z M167.7,53c0.7-0.3,1.4-0.5,2.2-0.6
				c-3.8-6.5-12.2-8.6-18.7-4.7c-2,1.2-3.6,2.8-4.7,4.7c0.7,0.2,1.5,0.4,2.2,0.6c3.5-5.2,10.6-6.6,15.9-3.1
				C165.8,50.7,166.8,51.8,167.7,53L167.7,53z M86.4,67.1c0,0,0.3-0.5,0.4-0.6c-0.2-1.1-1.2-1.9-2.3-1.9c-1.1,0-2.1,0.8-2.3,1.9
				c0.1,0.2,0.2,0.4,0.4,0.6c0.3,0,0.5-0.1,0.8-0.1l0,0c-0.1-0.6,0.4-1.2,1.1-1.3s1.2,0.4,1.3,1.1c0,0.1,0,0.1,0,0.2v0.1
				C86,67.1,86.2,67.1,86.4,67.1L86.4,67.1z M72.8,74.9c0.7,0.2,1.5,0.4,2.2,0.6c3.5-5.2,10.6-6.6,15.9-3.1c1.2,0.8,2.3,1.9,3.1,3.1
				c0.7-0.3,1.4-0.5,2.2-0.6c-3.8-6.5-12.2-8.6-18.7-4.7C75.6,71.4,74,73,72.8,74.9L72.8,74.9z M164.4,54.8c0.4-0.3,0.9-0.6,1.4-0.9
				c-3-4.2-8.8-5.1-12.9-2.1c-0.8,0.6-1.6,1.3-2.1,2.1c0.5,0.3,0.9,0.6,1.4,0.9c1.4-2,3.7-3.1,6.2-3.1
				C160.6,51.7,162.9,52.9,164.4,54.8L164.4,54.8z M162.6,56.2c-1.7-2.5-5.1-3.1-7.6-1.4c-0.5,0.4-1,0.8-1.4,1.4
				c0.4,0.4,0.8,0.8,1.1,1.2c1.1-1.8,3.4-2.5,5.3-1.4c0.6,0.3,1.1,0.8,1.4,1.4C161.9,57.1,162.2,56.7,162.6,56.2L162.6,56.2z
				 M40.1,66.8c2.4,0,4.7,1.1,6.2,3.1c0.4-0.3,0.9-0.6,1.4-0.9c-1.4-2-3.5-3.3-5.9-3.7c-0.1,0.5-0.2,1-0.2,1.5
				c-1.2-0.8-2.6-1.2-4-1.4c-2.1,0.6-3.8,1.8-5.1,3.5c0.5,0.3,0.9,0.6,1.4,0.9C35.3,68,37.7,66.8,40.1,66.8z M84.5,59.2
				c2.4,0,4.7,1.2,6.2,3.1c0.4-0.3,0.9-0.6,1.4-0.9c-3-4.2-8.8-5.1-13-2.1c-0.8,0.6-1.5,1.3-2.1,2.1c0.5,0.3,0.9,0.6,1.4,0.9
				C79.8,60.4,82.1,59.2,84.5,59.2L84.5,59.2z M34.5,23.9c-0.6-0.3-1.2-0.4-1.9-0.3l0,0c0.5,0.3,0.9,0.6,1.4,0.9
				C34.1,24.3,34.3,24.1,34.5,23.9z M84.5,55.4c3.8,0,7.4,1.9,9.5,5.1c0.7-0.3,1.4-0.5,2.2-0.6C94.6,57.1,92,55,89,53.9
				c-0.8,0.1-1.6,0.4-2.4,0.8c-0.1-0.4-0.3-0.9-0.5-1.4c-0.5-0.1-1-0.1-1.6-0.1c-4.8,0-9.3,2.6-11.7,6.7c0.7,0.2,1.5,0.4,2.2,0.6
				C77.1,57.4,80.7,55.4,84.5,55.4L84.5,55.4z M84.5,63.1c1.4,0,2.7,0.7,3.4,1.9c0.3-0.4,0.7-0.8,1.1-1.2c-1.7-2.5-5.1-3.1-7.5-1.4
				c-0.5,0.4-1,0.8-1.4,1.4c0.4,0.4,0.8,0.8,1.1,1.2C81.9,63.9,83.1,63.1,84.5,63.1L84.5,63.1z M46.3,24.6c0.4-0.3,0.9-0.6,1.4-0.9
				c-1.8-2.4-4.6-3.9-7.5-3.9c-0.4,0-0.8,0-1.3,0.1c-1.3,0.5-2.4,1.5-3,2.8C39.2,20.5,43.8,21.3,46.3,24.6L46.3,24.6z M50.7,85
				c1.6,0.1,3.1-0.5,4.3-1.6h-0.1c-2,0-3.9,0.4-5.7,1.2C49.7,84.9,50.2,85,50.7,85L50.7,85z M84.5,50.7h0.1c-0.3-0.4-0.5-0.7-0.8-1
				c-0.8,0.3-1.4,0.9-1.6,1.8c0.1,0.2,0.2,0.4,0.4,0.6c0.3,0,0.5-0.1,0.8-0.1l0,0C83.3,51.3,83.8,50.7,84.5,50.7
				C84.5,50.7,84.5,50.7,84.5,50.7L84.5,50.7z M153.7,71.4c0.4,0.4,0.8,0.8,1.1,1.2c0.9-1.5,2.7-2.3,4.4-1.8c0.4-0.4,0.7-0.9,1-1.4
				c-0.6-0.2-1.3-0.4-2-0.4C156.4,69.1,154.7,69.9,153.7,71.4L153.7,71.4z M157.8,72.3c-0.7,0.1-1.2,0.5-1.6,1.1
				c0.3-0.1,0.5-0.3,0.8-0.4C157.3,72.7,157.5,72.5,157.8,72.3z M0.9,89.4c-0.3,0.3-0.5,0.5-0.8,0.8c0.4-0.2,0.8-0.4,1.2-0.5
				C1.1,89.6,1,89.5,0.9,89.4z M145.3,36.9c0,0,0.2-0.5,0.4-0.6c-0.1-0.4-0.3-0.8-0.6-1.1c-1.4,0-2.8,0.5-3.9,1.4
				c0.1,0.1,0.2,0.3,0.3,0.4c0.3,0,0.5-0.1,0.8-0.1l0,0c0-0.7,0.5-1.2,1.2-1.2s1.2,0.5,1.2,1.2c0,0,0,0,0,0v0.1
				C144.8,36.9,145.1,36.8,145.3,36.9z M58.2,49.9c0.4-0.5,0.7-0.8,1.1-1.2c-0.6-0.8-1.3-1.4-2.2-1.8c-0.1,0.5-0.2,1.1-0.3,1.7
				C57.5,48.8,57.9,49.3,58.2,49.9L58.2,49.9z M207.3,80.4c0.8-0.1,1.5,0,2.2,0.3c0,0.1,0.1,0.2,0.2,0.3c1.9-1.7,4.3-2.7,6.8-2.9
				c0.1-0.7,0-1.5-0.2-2.2C212.9,76.2,209.6,77.8,207.3,80.4L207.3,80.4z M61.1,47.2c0.4-0.3,0.9-0.6,1.4-0.9
				c-0.9-1.2-2-2.2-3.4-2.9L58.5,44c-0.2,0.2-0.4,0.5-0.5,0.7C59.2,45.3,60.3,46.2,61.1,47.2z M79.2,53c0.7-0.3,1.5-0.5,2.2-0.6
				c-3.8-6.5-12.2-8.6-18.7-4.7c-2,1.2-3.6,2.8-4.7,4.7c0.7,0.2,1.5,0.4,2.2,0.6c3.5-5.2,10.6-6.6,15.9-3.1
				C77.3,50.7,78.4,51.8,79.2,53L79.2,53z M62.2,53.9c0.5,0.3,0.9,0.6,1.4,0.9c2.5-3.4,7.3-4.1,10.7-1.6c0.6,0.5,1.2,1,1.6,1.6
				c0.4-0.3,0.9-0.6,1.4-0.9c-3-4.2-8.8-5.1-12.9-2.1C63.5,52.4,62.8,53.1,62.2,53.9z M57.2,51.4c-0.1-0.3-0.2-0.6-0.3-0.8
				c0,0.3,0.1,0.5,0.1,0.6c-0.3,0.2-0.6,0.4-0.8,0.8c0.2,0,0.5,0,0.7,0.1C56.9,51.9,57.1,51.6,57.2,51.4z M25.3,29
				c2.4,0,4.7,1.2,6.2,3.1c0.5-0.3,0.9-0.6,1.4-0.9c-3-4.2-8.8-5.1-13-2.1c-0.8,0.6-1.5,1.3-2.1,2.1c0.5,0.3,0.9,0.6,1.4,0.9l0,0
				C20.6,30.1,22.9,29,25.3,29L25.3,29z M193,87.4c0.5,0.5,1.2,0.9,1.9,1.2c2.1-1.9,4.8-3,7.7-3c3.7,0,7.1,1.8,9.3,4.8l0.3-0.1
				c0.6-0.2,1.2-0.4,1.8-0.7c-0.9-1.3-2-2.5-3.2-3.4c-2.5,0.4-5.5,0.2-6.2-1.7c-0.1-0.3-0.2-0.6-0.2-0.9c-0.6-0.1-1.2-0.1-1.8-0.1
				C199,83.4,195.6,84.8,193,87.4L193,87.4z M11,87.4c-0.2,0-0.4-0.1-0.5-0.1c-1.1,0-2.1,0.8-2.3,1.9c0.1,0.2,0.2,0.4,0.4,0.6
				c0.3,0,0.5-0.1,0.8-0.1l0,0c0-0.7,0.5-1.2,1.2-1.2s1.2,0.5,1.2,1.2c0,0,0,0,0,0v0.1c0.2,0,0.5,0,0.7,0.1c0,0,0.3-0.5,0.4-0.6
				v-0.1C12.1,88.5,11.6,87.9,11,87.4L11,87.4z M215.2,88.8c0.6-0.5,1.3-1,1.9-1.4C216.3,87.5,215.6,88,215.2,88.8L215.2,88.8z
				 M57.7,14.4c1.4,0.5,2.5,1.4,3.4,2.6c0.4-0.3,0.9-0.6,1.4-0.9c-0.5-0.7-1.1-1.3-1.7-1.8C59.7,14.1,58.7,14.2,57.7,14.4z
				 M13.3,84.9c0.3,0.7,0.7,1.4,1.3,1.9c0.1-0.1,0.2-0.2,0.3-0.4C14.5,85.8,13.9,85.3,13.3,84.9z M22.9,83.9v-0.2
				c-2.8,0.5-5.3,1.8-7.3,3.8l0.2,0.1c1.3,0.3,2.6-0.1,3.5-1c0.5-0.1,1-0.1,1.5,0c1.1-0.4,2.3-0.7,3.5-0.9
				C23.5,85.2,22.9,84.7,22.9,83.9L22.9,83.9z M214.3,72.3c-0.4-0.3-0.8-0.6-1.2-0.8c0.3,0.4,0.7,0.7,1,1.2
				C214.1,72.5,214.2,72.4,214.3,72.3L214.3,72.3z M216,74.6c-0.2-0.4-0.4-0.7-0.6-1.1c-0.1,0.2-0.2,0.4-0.2,0.5
				c0.1,0.2,0.2,0.4,0.3,0.6L216,74.6z M211.7,82.2c0.4,0.1,0.7,0.1,1.1,0.1c1.2-0.2,2.3-0.9,2.9-1.9
				C214.2,80.7,212.9,81.3,211.7,82.2L211.7,82.2z M201.4,68.4c-4.2,0.4-8,2.6-10.2,6.2c0.6,0.5,1.3,0.9,2,1
				c3.5-5.2,10.7-6.6,15.9-3.1c1.2,0.8,2.3,1.9,3.1,3.1c0.7-0.3,1.4-0.5,2.2-0.6c-0.9-1.5-2.1-2.9-3.6-3.9c-1,0-2-0.1-3-0.3
				C205.5,70.4,203.4,69.6,201.4,68.4L201.4,68.4z M114.2,38.1h-0.4l0,0c-4.7,0.1-8.9,2.6-11.4,6.6c0.7,0.2,1.5,0.4,2.2,0.6
				c1.9-2.8,4.9-4.6,8.3-5c0.6-0.7,1.2-1.5,1.7-2.2C114.5,38.1,114.3,38.1,114.2,38.1z M67.6,44.1c0.1,0.1,0.1,0.2,0.2,0.4
				c0.3,0,0.5-0.1,0.8-0.1l0,0c0-0.2,0.1-0.5,0.2-0.7C68.4,43.8,68,44,67.6,44.1L67.6,44.1z M110.8,52.4c0.1,0,0.2,0,0.3-0.1
				c-0.2-0.3-0.4-0.6-0.6-0.9C110.5,51.8,110.6,52.1,110.8,52.4L110.8,52.4z M91.8,8.6c0.5,0.3,0.9,0.6,1.4,0.9
				c1.4-2,3.7-3.1,6.2-3.1c2.4,0,4.7,1.2,6.2,3.1c0.4-0.3,0.9-0.6,1.4-0.9c-1.8-2.4-4.6-3.9-7.5-3.9C96.3,4.7,93.5,6.2,91.8,8.6
				L91.8,8.6z M79.9,11.1C85,8.8,91,10.6,94.1,15.2c0.7-0.3,1.4-0.5,2.2-0.6c-2.5-4.1-6.9-6.6-11.8-6.6c-0.4,0-0.8,0-1.2,0.1
				C82.1,8.9,80.9,9.9,79.9,11.1L79.9,11.1z M119.3,79.7c0.8-0.4,1.4-1,2-1.6C120.6,78.5,119.9,79.1,119.3,79.7
				C119.2,79.7,119.3,79.7,119.3,79.7L119.3,79.7z M156.3,24.1c0.1,0,0.2,0.1,0.3,0.1c1.1,0.3,2.3,0.2,3.3-0.2
				c-0.5-0.2-1.1-0.3-1.7-0.3c-0.7,0-1.4,0.1-2.1,0.3L156.3,24.1z M102.7,42.4c0.4-0.5,0.7-0.8,1.1-1.2c-1.7-2.5-5.1-3.1-7.5-1.4
				c-0.5,0.4-1,0.8-1.4,1.4c0.4,0.4,0.8,0.8,1.1,1.2c1.1-1.8,3.4-2.5,5.3-1.4C101.9,41.3,102.3,41.8,102.7,42.4L102.7,42.4z
				 M101.2,44.5c0,0,0.3-0.5,0.4-0.6c-0.3-1.3-1.5-2.1-2.8-1.8c-0.9,0.2-1.6,0.9-1.8,1.8c0.1,0.2,0.2,0.4,0.4,0.6
				c0.3,0,0.5-0.1,0.8-0.1l0,0c-0.1-0.6,0.4-1.2,1.1-1.3s1.2,0.4,1.3,1.1c0,0.1,0,0.1,0,0.2v0.1C100.8,44.5,101,44.5,101.2,44.5z
				 M190.9,59.9c0.7,0.2,1.5,0.4,2.2,0.6c1-1.5,2.4-2.8,3.9-3.6c-1.1-0.3-2.3-0.4-3.4-0.3C192.6,57.5,191.6,58.6,190.9,59.9
				L190.9,59.9z M104.9,64.5c1.6,0.9,2.9,2.1,3.9,3.6c0.7-0.3,1.5-0.5,2.2-0.6c-0.4-0.7-0.9-1.4-1.5-2c-0.8-0.4-1.6-0.7-2.4-0.8
				C106.4,64.5,105.7,64.5,104.9,64.5L104.9,64.5z M127.1,42.5c-0.4,0.3-0.7,0.8-0.8,1.3c0.1,0.2,0.2,0.4,0.4,0.6
				c0.3,0,0.5-0.1,0.8-0.1l0,0c0-0.7,0.5-1.2,1.2-1.2c0.6,0,1.2,0.5,1.2,1.2v0.1l0.7,0.1c0,0,0.2-0.5,0.4-0.6
				c-0.1-0.3-0.2-0.5-0.3-0.7c-1-0.4-2-0.6-3.1-0.6C127.4,42.6,127.2,42.5,127.1,42.5L127.1,42.5z M123.3,45.4
				c0.7-0.3,1.4-0.5,2.2-0.6c-0.4-0.6-0.7-1.1-1.2-1.7c-0.7,0.3-1.4,0.6-2.1,1C122.6,44.5,123,44.9,123.3,45.4L123.3,45.4z
				 M137,47.1c-0.1-0.5-0.3-1-0.6-1.5c-0.2,0.2-0.4,0.5-0.6,0.7C136.2,46.6,136.7,46.8,137,47.1L137,47.1z M143.4,2.6
				c1.4,0,2.6,0.7,3.3,1.9c0.4-0.4,0.7-0.8,1.1-1.2c-1.7-2.5-5.1-3.1-7.5-1.4c-0.5,0.4-1,0.8-1.4,1.4c0.4,0.4,0.8,0.8,1.1,1.2
				C140.7,3.3,142,2.6,143.4,2.6L143.4,2.6z M131.6,14.5c0.7,0.2,1.5,0.4,2.2,0.6c3.5-5.2,10.6-6.6,15.9-3.1
				c1.2,0.8,2.3,1.9,3.1,3.1c0.7-0.3,1.4-0.5,2.2-0.6c-2.5-4.1-6.9-6.7-11.7-6.7C138.5,7.9,134.1,10.4,131.6,14.5L131.6,14.5z
				 M145.3,6.6c0,0,0.2-0.4,0.4-0.6c-0.2-1.1-1.2-1.9-2.3-1.9c-1.1,0-2.1,0.8-2.3,1.9c0.1,0.2,0.2,0.4,0.4,0.6
				c0.3,0,0.5-0.1,0.8-0.1l0,0c-0.1-0.6,0.4-1.2,1.1-1.3c0.6-0.1,1.2,0.4,1.3,1.1c0,0.1,0,0.1,0,0.2v0.1
				C144.8,6.6,145.1,6.6,145.3,6.6L145.3,6.6z M119.3,46.4c0.2,0.2,0.5,0.5,0.7,0.8c0.5-0.3,0.9-0.6,1.4-0.9c-0.3-0.4-0.5-0.7-0.9-1
				C120,45.7,119.7,46,119.3,46.4L119.3,46.4z M70.4,43.4c0.3,0.2,0.5,0.6,0.5,0.9v0.1l0.7,0.1c0,0,0.2-0.5,0.4-0.6
				c0-0.1-0.1-0.2-0.1-0.4l0,0C71.4,43.4,70.9,43.4,70.4,43.4L70.4,43.4z M84.5,87.8c-2.8,0-5.4,1.3-7.2,3.4
				c0.8,0.1,1.6,0.1,2.4-0.1c1.1-0.9,2.4-1.4,3.9-1.6c0.1-0.1,0.2-0.1,0.3-0.2l0.3,0.2h0.4c1.3,0,2.6,0.4,3.7,1
				c0.7-0.1,1.3-0.3,1.9-0.7C88.5,88.5,86.6,87.8,84.5,87.8L84.5,87.8z M93.8,82.1c-0.8,0.6-1.5,1.3-2.1,2.1
				c0.5,0.3,0.9,0.6,1.4,0.9c0.1-0.2,0.3-0.4,0.5-0.5C93.7,83.7,93.8,82.9,93.8,82.1L93.8,82.1z M130.5,59.6c0,0,0.2-0.4,0.4-0.6
				c-0.2-1.1-1.2-1.9-2.3-1.9c-0.7,0-1.4,0.3-1.8,0.9c0.2,0.3,0.5,0.7,0.8,0.9c0.3-0.6,1-0.8,1.6-0.5c0.4,0.2,0.7,0.6,0.7,1.1v0.1
				C130,59.6,130.3,59.6,130.5,59.6L130.5,59.6z M86.4,36.9c0,0,0.3-0.5,0.4-0.6c-0.2-1.1-1.2-1.9-2.3-1.9c-1.1,0-2.1,0.8-2.3,1.9
				c0.1,0.2,0.2,0.4,0.4,0.6c0.3,0,0.5-0.1,0.8-0.1l0,0c-0.1-0.6,0.4-1.2,1.1-1.3s1.2,0.4,1.3,1.1c0,0.1,0,0.1,0,0.2v0.1L86.4,36.9z
				 M160.2,44.5c0,0,0.3-0.5,0.4-0.6c-0.2-1.1-1.2-1.9-2.3-1.9c-1.1,0-2.1,0.8-2.3,1.9c0.1,0.2,0.2,0.4,0.4,0.6
				c0.3,0,0.5-0.1,0.8-0.1l0,0c0-0.7,0.5-1.2,1.2-1.2c0.6,0,1.2,0.5,1.2,1.2v0.1C159.6,44.4,159.9,44.4,160.2,44.5z M161.6,42.5
				c0.4-0.5,0.7-0.8,1.1-1.2c-1.7-2.5-5.1-3.1-7.5-1.4c-0.5,0.4-1,0.8-1.4,1.4c0.4,0.4,0.8,0.8,1.1,1.2c1.1-1.8,3.4-2.5,5.3-1.4
				C160.7,41.4,161.2,41.8,161.6,42.5L161.6,42.5z M165.5,46.4c0.5,0.3,0.9,0.6,1.4,0.9c2.5-3.4,7.3-4.2,10.7-1.7
				c0.6,0.5,1.2,1,1.7,1.7c0.4-0.3,0.9-0.6,1.4-0.9c-3-4.2-8.8-5.1-12.9-2.1C166.8,44.9,166.1,45.6,165.5,46.4L165.5,46.4z
				 M71.7,74.7c0,0,0.2-0.4,0.4-0.6c-0.2-1.1-1.2-1.9-2.3-1.9c-1.1,0-2.1,0.8-2.3,1.9c0.1,0.2,0.2,0.4,0.4,0.6
				c0.3,0,0.5-0.1,0.8-0.1l0,0c-0.1-0.6,0.4-1.2,1.1-1.3s1.2,0.4,1.3,1.1c0,0.1,0,0.1,0,0.2v0.1C71.2,74.7,71.4,74.7,71.7,74.7
				L71.7,74.7z M79.3,83.3c0.7-0.3,1.5-0.5,2.2-0.6c-2.5-4.2-6.9-6.7-11.8-6.7c-0.8,0-1.6,0.1-2.4,0.2c0,0.5,0,1.1,0.2,1.6
				c0.1,0.2,0.2,0.4,0.3,0.5c0.7-0.1,1.3-0.2,2-0.2C73.6,78.2,77.1,80.1,79.3,83.3L79.3,83.3z M55,29.1c2.4,0,4.7,1.2,6.2,3.1
				c0.4-0.3,0.9-0.6,1.4-0.9c-3-4.2-8.8-5.1-13-2.1c-0.8,0.6-1.5,1.3-2.1,2.1c0.2,0.1,0.4,0.2,0.6,0.4c0.4-0.2,0.8-0.4,1.2-0.7
				c0,0.2,0,0.4,0.1,0.6C50.7,29.9,52.7,29,55,29.1L55,29.1z M161.3,44.8c0.7,0.2,1.5,0.4,2.2,0.6c3.5-5.3,10.6-6.7,15.9-3.2
				c0.1,0.1,0.2,0.1,0.3,0.2c0.3-0.4,0.4-0.9,0.5-1.3c0-0.3,0-0.7-0.1-1c-2.1-1.3-4.5-2-7-2C168.2,38.1,163.8,40.6,161.3,44.8z
				 M180,42.8c1,0.8,1.8,1.7,2.5,2.7c0.7-0.3,1.4-0.5,2.2-0.6c-0.4-0.8-1-1.5-1.6-2.1C182.1,42.4,181,42.5,180,42.8L180,42.8z
				 M49.6,22.8c0.7-0.3,1.4-0.5,2.2-0.6c-2.3-3.8-6.3-6.3-10.7-6.6C41,15.7,41,15.9,41,16c-0.1,0.6,0,1.1,0.2,1.7
				C44.6,18,47.7,19.9,49.6,22.8L49.6,22.8z M71.6,59.6c0,0,0.2-0.4,0.4-0.6c-0.2-1.1-1.2-1.9-2.3-1.9c-1.1,0-2.1,0.8-2.3,1.9
				c0.1,0.2,0.2,0.4,0.4,0.6c0.3,0,0.5-0.1,0.8-0.1l0,0c-0.1-0.6,0.4-1.2,1.1-1.3s1.2,0.4,1.3,1.1c0,0.1,0,0.1,0,0.2v0.1
				C71.1,59.6,71.4,59.6,71.6,59.6L71.6,59.6z M185.9,44.5c0.1,0,0.1,0,0.2,0c-0.2-0.2-0.3-0.4-0.5-0.6
				C185.7,44.1,185.8,44.3,185.9,44.5z M51.4,10.6c-1.8-0.3-3.7-0.1-5.4,0.5c-1.1,1-2.1,2.1-2.8,3.4c0.7,0.2,1.5,0.4,2.2,0.6
				C46.8,13,49,11.4,51.4,10.6z M42,14.3c0,0,0.3-0.5,0.4-0.6c0-0.1,0-0.1,0-0.2c-0.2,0.2-0.4,0.5-0.6,0.8
				C41.8,14.3,41.9,14.3,42,14.3z M58.2,19.7c0.4-0.5,0.7-0.8,1.1-1.2c-1.7-2.5-5.1-3.1-7.5-1.4c-0.5,0.4-1,0.8-1.4,1.4
				c0.4,0.4,0.8,0.8,1.1,1.2c0.7-1.2,2-1.9,3.3-1.9C56.3,17.8,57.6,18.5,58.2,19.7z M167.7,37.9c0.7-0.3,1.4-0.5,2.2-0.6
				c-2.4-4.1-6.9-6.7-11.7-6.7c-1,0-1.9,0.1-2.9,0.3c-0.4,0.2-0.8,0.4-1.2,0.6c-2,1.3-3.6,3.1-4.6,5.2c-0.6-0.4-1.2-0.8-1.9-1.1
				c-0.4,0.5-0.8,1-1.1,1.6c0.7,0.2,1.5,0.4,2.2,0.6c3.5-5.3,10.6-6.7,15.9-3.2C165.8,35.5,166.9,36.6,167.7,37.9L167.7,37.9z
				 M163.5,11.9C163.5,11.9,163.5,11.9,163.5,11.9c-0.8,0.7-1.6,1.7-2.1,2.7c0.7,0.2,1.5,0.4,2.2,0.6c1.9-2.9,5.1-4.8,8.5-5.1
				c-0.9-0.7-2-1.1-3.1-1.1c-0.7,0-1.4,0.1-2,0.4c-0.9,0.5-1.8,1-2.5,1.7C164,11.3,163.8,11.6,163.5,11.9L163.5,11.9z M64.4,60.6
				c0.7-0.3,1.4-0.5,2.2-0.6c-2.3-3.9-6.4-6.4-10.9-6.6c-0.1,0.8,0.2,1.5,0.7,2.1c-3-2-6.4-1.4-8.1,1.2c-0.4,0.6-0.7,1.2-0.9,1.8
				c2.1-1.9,4.8-2.9,7.6-2.9C58.7,55.5,62.3,57.4,64.4,60.6L64.4,60.6z M73,57.6c0.4-0.5,0.7-0.8,1.1-1.2c-1.7-2.5-5.1-3.1-7.5-1.4
				c-0.5,0.4-1,0.8-1.4,1.4c0.4,0.4,0.8,0.8,1.1,1.2c0.7-1.2,2-1.9,3.3-1.9C71.1,55.7,72.3,56.4,73,57.6L73,57.6z M47.4,61.6
				c0.5,0.3,0.9,0.6,1.4,0.9c2.5-3.4,7.3-4.2,10.7-1.7c0.6,0.5,1.2,1,1.7,1.7c0.4-0.3,0.9-0.6,1.4-0.9c-1.8-2.4-4.6-3.9-7.5-3.9
				C51.9,57.7,49.1,59.1,47.4,61.6L47.4,61.6z M56.8,21.9c0,0,0.2-0.5,0.4-0.6c-0.2-1.1-1.2-1.9-2.3-1.9c-1.1,0-2.1,0.8-2.3,1.9
				c0.1,0.2,0.2,0.4,0.4,0.6c0.3,0,0.5-0.1,0.8-0.1l0,0c-0.1-0.6,0.4-1.2,1.1-1.3s1.2,0.4,1.3,1.1c0,0.1,0,0.1,0,0.2v0.1
				C56.3,21.7,56.6,21.7,56.8,21.9L56.8,21.9z M54.9,34.5c-0.9,0-1.8,0.6-2.1,1.4c0.4,0.1,0.8,0.2,1.2,0.2c0.2-0.3,0.6-0.5,0.9-0.5
				c0.3,0,0.6,0.1,0.9,0.4c0.4-0.1,0.8-0.2,1.2-0.2C56.6,35,55.8,34.4,54.9,34.5L54.9,34.5z M191.2,57.5c0.1-0.1,0.2-0.3,0.3-0.4
				s-0.1,0-0.1,0c0.1-0.6,0.2-1.2,0.2-1.8c-1-0.9-2.3-1.5-3.7-1.5c-1.8,0-3.4,0.9-4.5,2.3c0.4,0.4,0.8,0.8,1.1,1.2
				c1.1-1.8,3.5-2.5,5.3-1.4C190.4,56.4,190.8,56.9,191.2,57.5L191.2,57.5z M40.2,36.6c0.5-0.4,0.8-1,1-1.6
				c-2.8-0.3-5.5,0.6-7.5,2.5c0.6,0.3,1.3,0.4,1.9,0.5C36.9,37.1,38.5,36.6,40.2,36.6L40.2,36.6z M189.8,59.6c0,0,0.3-0.4,0.4-0.6
				c-0.3-1.3-1.5-2.1-2.8-1.8c-0.9,0.2-1.6,0.9-1.8,1.8c0.1,0.2,0.2,0.4,0.4,0.6c0.3,0,0.5-0.1,0.8-0.1l0,0c0-0.7,0.5-1.2,1.2-1.2
				s1.2,0.5,1.2,1.2c0,0,0,0,0,0v0.1L189.8,59.6z M42,74.7c0,0,0.3-0.4,0.4-0.6c-0.2-1.1-1.2-1.9-2.3-1.9c-1.1,0-2.1,0.8-2.3,1.9
				c0.1,0.2,0.2,0.4,0.4,0.6c0.3,0,0.5-0.1,0.8-0.1l0,0c0-0.7,0.5-1.2,1.2-1.2s1.2,0.5,1.2,1.2c0,0,0,0,0,0v0.1
				C41.5,74.7,41.8,74.7,42,74.7z M34.8,75.6c0.7-0.3,1.4-0.5,2.2-0.6c-1.4-2.4-3.5-4.2-6-5.4c-0.2,0.8-0.3,1.6-0.2,2.4
				C32.4,72.9,33.8,74.1,34.8,75.6L34.8,75.6z M43.4,72.6c0.4-0.5,0.7-0.8,1.1-1.2c-1.7-2.5-5.1-3.1-7.5-1.4c-0.5,0.4-1,0.8-1.4,1.4
				c0.4,0.4,0.8,0.8,1.1,1.2c0.7-1.2,2-1.9,3.3-1.9C41.5,70.7,42.7,71.4,43.4,72.6L43.4,72.6z M195.1,61.5c0.5,0.3,0.9,0.6,1.4,0.9
				c1-1.4,2.5-2.4,4.1-2.9c-0.3-0.5-0.7-1-1.2-1.4C197.7,58.8,196.2,60,195.1,61.5z M24.2,81.7c0.2-0.5,0.6-0.8,1.1-0.8
				c0.1,0,0.1,0,0.2,0c0.5-0.2,1-0.3,1.6-0.4c-0.4-0.5-1.1-0.8-1.8-0.8c-1.1,0-2.1,0.8-2.3,1.9c0.1,0.2,0.2,0.4,0.4,0.6
				c0.1,0,0.2,0,0.4,0C23.9,81.9,24.1,81.8,24.2,81.7z M202.6,79.7c-1.1,0-2.1,0.8-2.3,1.9c0.1,0.2,0.2,0.4,0.4,0.6
				c0.3,0,0.5-0.1,0.8-0.1l0,0c0-0.7,0.5-1.2,1.2-1.2s1.2,0.5,1.2,1.2c0,0,0,0,0,0v0.1l0.7,0.1c0,0,0.3-0.5,0.4-0.6
				C204.7,80.5,203.7,79.8,202.6,79.7L202.6,79.7z M199.8,79.4l-1.4-0.3c0.3,0.3,0.6,0.6,0.9,1C199.4,79.9,199.6,79.6,199.8,79.4
				L199.8,79.4z M194.1,80c1.3,0.8,2.4,1.9,3.2,3.2c0.7-0.3,1.5-0.5,2.2-0.6c-0.8-1.3-1.8-2.4-2.9-3.4l-0.5,0.1
				C195.4,79.4,194.7,79.7,194.1,80L194.1,80z M56.8,67.1c0,0,0.2-0.5,0.4-0.6c-0.2-1.1-1.2-1.9-2.3-1.9c-1.1,0-2.1,0.8-2.3,1.9
				c0.1,0.2,0.2,0.4,0.4,0.6c0.3,0,0.5-0.1,0.8-0.1l0,0c-0.1-0.6,0.4-1.2,1.1-1.3s1.2,0.4,1.3,1.1c0,0.1,0,0.1,0,0.2v0.1
				C56.4,67.1,56.6,67.1,56.8,67.1L56.8,67.1z M54.9,80.9c0.7,0,1.2,0.5,1.2,1.2v0.1l0.7,0.1c0,0,0.3-0.5,0.4-0.6
				c-0.2-1.1-1.2-1.9-2.3-1.9c-1.1,0-2.1,0.8-2.3,1.9c0.1,0.2,0.2,0.4,0.4,0.6c0.3,0,0.5-0.1,0.8-0.1l0,0
				C53.7,81.5,54.2,81,54.9,80.9z M169.4,67.6c0.2,0,0.4-0.1,0.5-0.1c-0.4-0.6-0.8-1.2-1.3-1.8C168.8,66.3,169,67,169.4,67.6
				L169.4,67.6z M63,77.7c-2.1,1.2-3.8,2.8-5,4.9l0.9,0.2c0.3-0.1,0.7-0.2,1-0.4C61.6,81.4,62.7,79.7,63,77.7z M58.2,65
				c0.3-0.4,0.7-0.8,1.1-1.2c-1.7-2.5-5.1-3.1-7.5-1.4c-0.5,0.4-1,0.8-1.4,1.4c0.4,0.4,0.8,0.8,1.1,1.2c0.7-1.2,2-1.9,3.3-1.9
				C56.3,63.1,57.6,63.8,58.2,65L58.2,65z M176.3,49.9c0.4-0.5,0.7-0.8,1.1-1.2c-1.7-2.5-5.1-3.1-7.6-1.4c-0.5,0.4-1,0.8-1.4,1.4
				c0.4,0.4,0.8,0.8,1.1,1.2c0.7-1.2,2-1.9,3.3-1.9C174.4,48,175.6,48.8,176.3,49.9z M187.4,50.1c-2.8,0.1-5.5,1.6-7.1,3.9
				c0.5,0.3,0.9,0.6,1.4,0.9c1.4-2,3.7-3.1,6.2-3.1c0.8,0,1.7,0.1,2.5,0.4c-0.7-0.9-1.8-1.4-3-1.3C187.3,50.6,187.4,50.3,187.4,50.1
				L187.4,50.1z M176.1,37.3c0.7,0.2,1.5,0.4,2.2,0.6c0.5-0.7,1-1.3,1.6-1.9c0.1-0.9,0-1.8-0.2-2.7C178.3,34.4,177,35.7,176.1,37.3
				L176.1,37.3z M174.9,51.9c0,0,0.3-0.4,0.4-0.6c-0.2-1.1-1.2-1.9-2.3-1.9c-1.1,0-2.1,0.8-2.3,1.9c0.1,0.2,0.2,0.4,0.4,0.6
				c0.3,0,0.5-0.1,0.8-0.1l0,0c0-0.7,0.5-1.2,1.2-1.2s1.2,0.5,1.2,1.2c0,0,0,0,0,0v0.1C174.4,51.9,174.7,51.9,174.9,51.9z
				 M176.1,52.3c0.7,0.2,1.5,0.4,2.2,0.6c2.1-3.1,5.5-5,9.2-5.1c-0.1-0.8-0.2-1.5-0.5-2.2C182.4,46,178.4,48.5,176.1,52.3
				L176.1,52.3z M40.1,28c0.7,0,1.2,0.5,1.2,1.2v0.1l0.7,0.1c0,0,0.3-0.5,0.4-0.6c-0.2-1.1-1.2-1.9-2.3-1.9c-1.1,0-2.1,0.8-2.3,1.9
				c0.1,0.2,0.2,0.4,0.4,0.6c0.3,0,0.5-0.1,0.8-0.1l0,0C38.9,28.6,39.5,28.1,40.1,28L40.1,28z M96.3,81.8c0.6-0.3,1.1-0.8,1.4-1.4
				c-1.4,0.2-2.6,0.8-3.8,1.6C94.7,82.3,95.5,82.2,96.3,81.8L96.3,81.8z M108.9,7.6L108.9,7.6z M87.6,67.4c0.7,0.2,1.5,0.4,2.2,0.6
				c1.4-2.1,3.5-3.7,6-4.5c0.3-0.8,0.5-1.6,0.6-2.4C92.7,61.9,89.5,64.2,87.6,67.4L87.6,67.4z M162.6,10.9c-0.4-0.6-0.9-1-1.5-1.4
				c-0.5-0.2-1-0.3-1.5-0.3c-0.9,0.1-1.7,0.4-2.3,1c0.3-0.1,0.5-0.1,0.8-0.1c1.4,0,2.6,0.7,3.3,1.9
				C161.9,11.7,162.3,11.3,162.6,10.9L162.6,10.9z M87.6,7c0.7,0.2,1.5,0.4,2.2,0.6c1.1-1.6,2.6-3,4.4-3.9c-1.7,0.1-3.4,0.5-5,1
				C88.6,5.5,88.1,6.2,87.6,7L87.6,7z M160.2,14.3c0,0,0.3-0.5,0.4-0.6c-0.2-1.1-1.2-1.9-2.3-1.9c-1.1,0-2.1,0.8-2.3,1.9
				c0.1,0.2,0.2,0.4,0.4,0.6c0.3,0,0.5-0.1,0.8-0.1l0,0c0-0.7,0.5-1.2,1.2-1.2s1.2,0.5,1.2,1.2c0,0,0,0,0,0v0.1
				C159.7,14.2,159.9,14.2,160.2,14.3z M95,56.2C95,56.2,95,56.2,95,56.2c0.2,0.2,0.3,0.3,0.4,0.5C95.2,56.5,95,56.4,95,56.2
				L95,56.2z M93.2,54.8c-0.2-0.1-0.4-0.2-0.6-0.3L93.2,54.8C93.2,54.8,93.2,54.8,93.2,54.8z M156.9,10.5c-0.2-0.5-0.5-1-0.8-1.4
				c-1,0.4-1.8,1.1-2.4,1.9c0.4,0.4,0.8,0.8,1.1,1.2C155.3,11.4,156,10.8,156.9,10.5L156.9,10.5z M114,78.2c1.3,0.1,2.4,0.8,3.1,1.9
				c0.4-0.4,0.7-0.8,1.1-1.2c-0.9-1.4-2.5-2.2-4.1-2.3h-0.4l0,0c-1.6,0.1-3.2,1-4.1,2.3c0.4,0.4,0.8,0.8,1.1,1.2
				C111.5,79,112.7,78.2,114,78.2L114,78.2z M82.6,48.5c-0.4-0.4-0.9-0.7-1.4-1c-0.5,0.4-0.9,0.8-1.2,1.2c0.4,0.4,0.8,0.8,1.1,1.2
				C81.5,49.3,82,48.8,82.6,48.5L82.6,48.5z M132.8,5.8c-1,0-2.1,0.3-3,0.7c2,0.3,3.8,1.4,5,3c0.5-0.3,0.9-0.6,1.4-0.9
				C135.3,7.4,134.1,6.4,132.8,5.8L132.8,5.8z M114.2,49.5h-0.4l0,0c-1,0.2-1.7,0.9-1.9,1.8c0.1,0.2,0.2,0.4,0.4,0.6
				c0.2,0,0.5-0.1,0.7-0.1v-0.1c0-0.6,0.5-1.1,1-1.2c0.6,0.1,1,0.6,1,1.2v0.1l0.7,0.1c0,0,0.2-0.4,0.4-0.6
				C115.9,50.5,115.2,49.7,114.2,49.5z M68.9,25.4c0.1-0.4,0.2-0.9,0.2-1.4c0-0.1,0-0.2,0-0.4c-1.5,0.2-2.9,1-3.8,2.3
				c0.4,0.4,0.8,0.8,1.1,1.2C67,26.4,67.8,25.7,68.9,25.4L68.9,25.4z M114.2,53.2h-0.4l0,0c-0.8,0-1.6,0.1-2.4,0.2
				c0.4,0.6,0.8,1.1,1.4,1.5c0.2,0.2,0.4,0.3,0.7,0.4h0.6c1,0,2,0.2,3,0.5c0.2,0,0.4-0.1,0.6-0.2c0.1,0.2,0.1,0.3,0.2,0.5
				c1.9,0.7,3.5,1.9,4.8,3.5c0.8,0,1.6-0.3,2.3-0.7C122.5,55.5,118.5,53.3,114.2,53.2z M114.1,79.8h-0.3l0,0c-1,0.2-1.7,0.9-1.9,1.8
				c0,0.1,0.1,0.1,0.1,0.2C112.8,81.3,113.5,80.6,114.1,79.8L114.1,79.8z M99,80.3c0.7,0.7,1.6,1.1,2.6,1.1c0.6,0,1.1-0.1,1.6-0.3
				c-1.2-0.6-2.5-0.9-3.9-0.9C99.3,80.3,99.1,80.3,99,80.3L99,80.3z M118.3,48.7c-0.9-1.3-2.5-2.2-4.1-2.3h-0.4l0,0
				c-0.5,0-1.1,0.1-1.6,0.4c-0.9,0.7-1.5,1.6-1.8,2.7c0.1,0.2,0.3,0.3,0.4,0.5c0.7-1.2,1.9-1.9,3.2-1.9c1.3,0.1,2.5,0.8,3.1,2
				C117.5,49.5,117.9,49.1,118.3,48.7L118.3,48.7z M151.7,17.2c0.7-0.2,1.5,0,2.1,0.4c0.2,0.3,0.2,0.7,0.1,1
				c1.4-0.6,2.9-0.9,4.4-0.9c2.1,0,4.1,0.5,5.8,1.6c0.2-0.8,0.2-1.6,0.1-2.4c-1.9-0.9-3.9-1.4-6-1.4
				C155.9,15.5,153.6,16.1,151.7,17.2L151.7,17.2z M163.2,21.3c-1.5-1-3.2-1.5-5-1.5c-1.7,0-3.4,0.5-4.9,1.4c0,0.1,0,0.2,0.1,0.3
				c0.1,0.5,0.4,0.9,0.7,1.2c2.5-1.6,5.6-1.7,8.1-0.1c0.1-0.1,0.2-0.2,0.2-0.2C162.7,22.1,162.9,21.7,163.2,21.3z M87.8,34.8
				c0.3-0.4,0.7-0.8,1.1-1.2c-1.7-2.5-5.1-3.1-7.5-1.4c-0.5,0.4-1,0.8-1.4,1.4c0.4,0.4,0.8,0.8,1.1,1.2c0.7-1.2,2-1.9,3.3-1.9
				C85.9,32.9,87.2,33.6,87.8,34.8L87.8,34.8z M150.6,8.6c0.5,0.3,0.9,0.6,1.4,0.9c0.6-0.8,1.3-1.5,2.2-2c-0.5-0.3-1-0.4-1.6-0.5
				c-0.2,0-0.3,0-0.5,0C151.6,7.5,151.1,8,150.6,8.6L150.6,8.6z M85.7,6.6L85.7,6.6c0.3,0.1,0.5,0.1,0.7,0.1c0,0,0.3-0.4,0.4-0.6
				s0-0.1,0-0.2c-0.4,0.2-0.7,0.4-1.1,0.5C85.7,6.5,85.7,6.5,85.7,6.6L85.7,6.6z M163.4,30.3c0.4-0.6,0.9-1.2,1.5-1.8
				c-1.2,0.1-2.3,0.6-3.3,1.2C162.2,29.9,162.9,30.1,163.4,30.3L163.4,30.3z M137.2,1.9c0.3-0.4,0.7-0.8,1.1-1.2
				c-0.5,0.2-1.1,0.5-1.5,0.9C136.9,1.7,137,1.8,137.2,1.9z M146.4,7.1c0.7,0.2,1.5,0.4,2.2,0.6c0.3-0.5,0.7-0.9,1.1-1.4
				c0.3-0.9,0.3-1.8,0-2.6c0-0.1-0.1-0.2-0.1-0.3C148.4,4.5,147.3,5.7,146.4,7.1L146.4,7.1z M168,28.8c-1,0.6-1.8,1.5-2.5,2.4
				c0.5,0.3,0.9,0.6,1.4,0.9c0.8-1.1,1.8-1.9,3-2.4C169.2,29.3,168.6,29,168,28.8L168,28.8z M138.1,53c0.7-0.3,1.5-0.5,2.2-0.6
				c-3.8-6.5-12.2-8.6-18.7-4.7c-2,1.2-3.6,2.8-4.7,4.7c0.7,0.2,1.5,0.4,2.2,0.6c3.5-5.2,10.6-6.6,15.9-3.1
				C136.1,50.8,137.2,51.8,138.1,53L138.1,53z M134.7,54.9c0.5-0.3,0.9-0.6,1.4-0.9c-3-4.2-8.8-5.1-12.9-2.1
				c-0.8,0.6-1.6,1.3-2.1,2.1c0.5,0.3,0.9,0.6,1.4,0.9c1.5-2,3.7-3.1,6.2-3.1C131,51.7,133.3,52.9,134.7,54.9L134.7,54.9z
				 M68.1,21.7c-0.4-0.5-1-1-1.6-1.2c-1.7,0.7-3.2,1.8-4.3,3.3c0.5,0.3,0.9,0.6,1.4,0.9C64.7,23.1,66.3,22.1,68.1,21.7L68.1,21.7z
				 M65.5,18.5c-0.2-0.7-0.5-1.4-1-2c-2.7,1.1-5,3.1-6.5,5.6c0.7,0.2,1.5,0.4,2.2,0.6C61.5,20.9,63.3,19.4,65.5,18.5L65.5,18.5z
				 M54.9,13.9c0.5,0,1.1,0.1,1.6,0.2c-0.4-0.7-1-1.3-1.6-1.8c-3,0-5.8,1.4-7.5,3.9c0.5,0.3,0.9,0.6,1.4,0.9
				C50.2,15.1,52.5,13.9,54.9,13.9L54.9,13.9z M138.1,7.7c0.7-0.3,1.5-0.5,2.2-0.6c-1.1-1.9-2.7-3.4-4.5-4.6
				c-0.5,0.5-0.9,1.2-1.2,1.8C136,5.2,137.2,6.3,138.1,7.7L138.1,7.7z M96.3,67.5c-0.3-0.4-0.7-0.7-1.1-0.8c-0.3-0.1-0.7-0.1-1,0.1
				c-0.9,0.6-1.8,1.4-2.5,2.3c0.5,0.3,0.9,0.6,1.4,0.9C93.9,68.9,95,68,96.3,67.5L96.3,67.5z M84.5,72.7c-3,0-5.8,1.4-7.5,3.9
				c0.5,0.3,0.9,0.6,1.4,0.9c2.5-3.4,7.3-4.2,10.7-1.7c0.6,0.5,1.2,1,1.7,1.7c0.4-0.3,0.9-0.6,1.4-0.9
				C90.3,74.2,87.5,72.7,84.5,72.7L84.5,72.7z M133,56.3c-1.7-2.5-5.1-3.1-7.6-1.4c-0.5,0.4-1,0.8-1.4,1.4c0.4,0.4,0.8,0.8,1.1,1.2
				c0.7-1.2,2-1.9,3.4-1.9c1.4,0,2.7,0.8,3.3,2C132.2,57.1,132.6,56.7,133,56.3L133,56.3z M87.6,82.6c0.7,0.2,1.5,0.4,2.2,0.6
				c3.4-5.1,10.1-6.7,15.4-3.6c0,0,0.1-0.1,0.1-0.1s0.1,0.2,0.2,0.2c1,0.6,1.9,1.4,2.6,2.3c0.9,0.4,1.9,0.4,2.8,0.2c0,0,0.1,0,0.1,0
				c-2.5-4-6.8-6.4-11.5-6.4C94.6,75.9,90.1,78.4,87.6,82.6L87.6,82.6z M99.3,70.7c1.4,0,2.7,0.8,3.3,2c0.4-0.5,0.7-0.8,1.1-1.2
				c-1.7-2.5-5.1-3.1-7.5-1.4c-0.5,0.4-1,0.8-1.4,1.4c0.4,0.4,0.8,0.8,1.1,1.2C96.6,71.5,97.9,70.7,99.3,70.7L99.3,70.7z
				 M101.2,74.7c0,0,0.3-0.4,0.4-0.6c-0.3-1.3-1.5-2.1-2.8-1.8c-0.9,0.2-1.6,0.9-1.8,1.8c0.1,0.2,0.2,0.4,0.4,0.6
				c0.3,0,0.5-0.1,0.8-0.1l0,0c-0.1-0.6,0.4-1.2,1.1-1.3s1.2,0.4,1.3,1.1c0,0.1,0,0.1,0,0.2v0.1C100.8,74.7,101,74.7,101.2,74.7
				L101.2,74.7z M84.5,78.2c1.4,0,2.7,0.7,3.4,1.9c0.4-0.4,0.7-0.8,1.1-1.2c-1.7-2.5-5.1-3.1-7.5-1.4c-0.5,0.4-1,0.8-1.4,1.4
				c0.4,0.4,0.8,0.8,1.1,1.2C81.9,78.9,83.1,78.2,84.5,78.2L84.5,78.2z M137,63.8c-0.1,1.1,0,2.3,0.4,3.4c0.3,0.3,0.5,0.6,0.7,0.9
				c0.7-0.3,1.5-0.5,2.2-0.6C139.4,66.1,138.3,64.8,137,63.8L137,63.8z M69.7,84.2c0.2,0.6,0.4,1.1,0.6,1.7c1.1,0.2,2.1,0.9,2.6,1.9
				c0.4-0.4,0.7-0.8,1.1-1.2C73.1,85.1,71.5,84.2,69.7,84.2L69.7,84.2z M73.2,89.5c0.6,0.5,1.2,0.8,1.9,1.1c2.1-3.1,5.7-5,9.5-5
				c2.7,0,5.3,0.9,7.4,2.7c0.5-0.6,0.9-1.2,1.1-1.9c-5.9-4.7-14.5-3.7-19.2,2.2C73.6,88.9,73.4,89.2,73.2,89.5L73.2,89.5z
				 M86.4,82.3c0,0,0.3-0.5,0.4-0.6c-0.2-1.1-1.2-1.9-2.3-1.9c-1.1,0-2.1,0.8-2.3,1.9c0.1,0.2,0.2,0.4,0.4,0.6
				c0.3,0,0.5-0.1,0.8-0.1l0,0c-0.1-0.6,0.4-1.2,1.1-1.3s1.2,0.4,1.3,1.1c0,0.1,0,0.1,0,0.2v0.1C85.9,82.2,86.2,82.2,86.4,82.3
				L86.4,82.3z M134.2,45c-0.1,0-0.2,0.1-0.2,0.1c-0.5-0.5-1.1-0.9-1.7-1.2c-0.2,0.3-0.4,0.5-0.6,0.9c0.7,0.2,1.5,0.4,2.2,0.6
				L134.2,45z M86.5,21.8c0,0,0.3-0.5,0.4-0.6c-0.2-1.1-1.2-1.9-2.3-1.9c-1.1,0-2.1,0.8-2.3,1.9c0.1,0.2,0.2,0.4,0.4,0.6
				c0.3,0,0.5-0.1,0.8-0.1l0,0c-0.1-0.6,0.4-1.2,1.1-1.3s1.2,0.4,1.3,1.1c0,0.1,0,0.1,0,0.2v0.1L86.5,21.8z M105.5,24.6
				c0.5-0.3,0.9-0.6,1.4-0.9c-3-4.2-8.8-5.1-13-2.1c-0.8,0.6-1.5,1.3-2.1,2.1c0.5,0.3,0.9,0.6,1.4,0.9c2.5-3.4,7.3-4.2,10.7-1.7
				C104.5,23.4,105.1,24,105.5,24.6z M102.7,27.3c0.4-0.5,0.7-0.8,1.1-1.2c-1.7-2.5-5.1-3.1-7.5-1.4c-0.5,0.4-1,0.8-1.4,1.4
				c0.4,0.4,0.8,0.8,1.1,1.2c0.7-1.2,2-1.9,3.4-1.9C100.7,25.4,102,26.1,102.7,27.3L102.7,27.3z M118.1,22.4c-0.1-0.5-0.2-1-0.3-1.6
				c-0.3,0.4-0.6,0.8-0.9,1.3C117.3,22.2,117.7,22.3,118.1,22.4L118.1,22.4z M101.3,29.4c0,0,0.3-0.5,0.4-0.6
				c-0.3-1.3-1.5-2.1-2.8-1.8c-0.9,0.2-1.6,0.9-1.8,1.8c0.1,0.2,0.2,0.4,0.4,0.6c0.3,0,0.5-0.1,0.8-0.1l0,0
				c-0.1-0.6,0.4-1.2,1.1-1.3s1.2,0.4,1.3,1.1c0,0.1,0,0.1,0,0.2v0.1C100.8,29.4,101,29.4,101.3,29.4L101.3,29.4z M115.7,21.8
				c0,0,0.2-0.5,0.4-0.6c-0.2-0.9-1-1.7-1.9-1.8l0,0h-0.4l0,0c-1,0.2-1.7,0.9-1.9,1.8c0.1,0.2,0.2,0.4,0.4,0.6
				c0.2,0,0.5-0.1,0.7-0.1v-0.1c0-0.6,0.5-1.1,1-1.1c0.6,0.1,1,0.6,1,1.1v0.1C115.3,21.7,115.5,21.7,115.7,21.8L115.7,21.8z
				 M84.5,17.8c1.4,0,2.7,0.8,3.4,2c0.4-0.5,0.7-0.8,1.1-1.2c-1.7-2.5-5.1-3.1-7.5-1.4c-0.5,0.4-1,0.8-1.4,1.4
				c0.4,0.4,0.8,0.8,1.1,1.2C81.9,18.5,83.1,17.8,84.5,17.8L84.5,17.8z M106.6,16.1c0.5,0.3,0.9,0.6,1.4,0.9
				c1.4-1.9,3.7-3.1,6.1-3.1c0.3,0,0.5,0,0.8,0.1c-0.4-0.6-0.8-1.2-1.2-1.7C110.8,12.4,108.2,13.8,106.6,16.1L106.6,16.1z
				 M124.7,14.8l0.8-0.2c-0.1-0.2-0.2-0.3-0.3-0.5C125,14.3,124.8,14.5,124.7,14.8L124.7,14.8z M118.2,23.8
				c-1.3-0.5-2.7-0.7-4.1-0.7h-0.4c-4.7,0.1-8.9,2.6-11.4,6.6c0.7,0.2,1.5,0.4,2.2,0.6c2.9-4.6,8.7-6.3,13.7-4.2v-0.2
				C118.3,25.2,118.3,24.5,118.2,23.8L118.2,23.8z M114.1,16.2h-0.3l0,0c-1.6,0.1-3.2,0.9-4.1,2.3c0.4,0.4,0.8,0.8,1.1,1.2
				c0.9-1.8,3.1-2.4,4.8-1.5c0.6,0.3,1.2,0.9,1.5,1.5l0.2-0.3c-0.3-0.9-0.6-1.8-1-2.6C115.7,16.4,114.9,16.2,114.1,16.2
				C114.1,16.2,114.1,16.1,114.1,16.2L114.1,16.2z M102.7,12.2c0.4-0.5,0.7-0.8,1.1-1.2c-1.7-2.5-5.1-3.1-7.5-1.4
				c-0.5,0.4-1,0.8-1.4,1.4c0.4,0.4,0.8,0.8,1.1,1.2c1.1-1.8,3.4-2.5,5.3-1.4C101.9,11.1,102.4,11.6,102.7,12.2L102.7,12.2z
				 M87.6,22.2c0.7,0.2,1.5,0.4,2.2,0.6c3.5-5.2,10.6-6.6,15.9-3.1c1.2,0.8,2.3,1.9,3.1,3.1c0.7-0.3,1.5-0.5,2.2-0.6
				c-3.8-6.5-12.2-8.6-18.7-4.7C90.4,18.6,88.8,20.3,87.6,22.2L87.6,22.2z M114.2,27.4h-0.4l0,0c-2.9,0.1-5.5,1.5-7.2,3.9
				c0.5,0.3,0.9,0.6,1.4,0.9c1.4-1.9,3.7-3.1,6.1-3.1c1.4,0.1,2.7,0.5,3.9,1.2c0.1-0.6,0.2-1.1,0.3-1.7
				C116.9,27.8,115.6,27.4,114.2,27.4z M84.6,13.9c2.4,0,4.7,1.2,6.2,3.1c0.4-0.3,0.9-0.6,1.4-0.9c-3-4.2-8.8-5.1-13-2.1
				c-0.8,0.6-1.5,1.3-2.1,2.1c0.5,0.3,0.9,0.6,1.4,0.9C79.8,15.1,82.1,13.9,84.6,13.9L84.6,13.9z M84.6,25.2c3.8,0,7.4,1.9,9.5,5.1
				c0.7-0.3,1.4-0.5,2.2-0.6c-3.9-6.5-12.2-8.6-18.7-4.7c-1.2,0.7-2.3,1.6-3.2,2.7c0.1,0.9,0.2,1.7,0.4,2.6c0.1,0,0.2,0.1,0.3,0.1
				C77.1,27.2,80.7,25.2,84.6,25.2L84.6,25.2z M101.3,14.3c0,0,0.3-0.5,0.4-0.6c-0.3-1.3-1.5-2.1-2.8-1.8c-0.9,0.2-1.6,0.9-1.8,1.8
				c0.1,0.2,0.2,0.4,0.4,0.6c0.3,0,0.5-0.1,0.8-0.1l0,0c-0.1-0.6,0.4-1.2,1.1-1.3s1.2,0.4,1.3,1.1c0,0.1,0,0.1,0,0.2v0.1
				C100.8,14.2,101,14.2,101.3,14.3L101.3,14.3z M130.5,14.3c0,0,0.2-0.5,0.4-0.6c-0.3-1.3-1.5-2.1-2.8-1.8
				c-0.9,0.2-1.6,0.9-1.8,1.8c0.1,0.2,0.2,0.4,0.4,0.6c0.3,0,0.5-0.1,0.8-0.1l0,0c-0.1-0.6,0.4-1.2,1.1-1.3s1.2,0.4,1.3,1.1
				c0,0.1,0,0.1,0,0.2v0.1C130,14.2,130.3,14.2,130.5,14.3L130.5,14.3z M114.1,74.3c2.3,0.1,4.5,1.2,5.9,3.1
				c0.5-0.3,0.9-0.6,1.4-0.9c-1.7-2.3-4.3-3.7-7.2-3.9h-0.4l0,0c-2.9,0.1-5.5,1.5-7.2,3.9c0.5,0.3,0.9,0.6,1.4,0.9
				C109.4,75.5,111.6,74.4,114.1,74.3L114.1,74.3z M114.2,34.4c0,0-0.1,0-0.1,0h-0.2l0,0c-1,0.2-1.7,0.9-1.9,1.8
				c0.1,0.2,0.2,0.4,0.4,0.6c0.2,0,0.5-0.1,0.7-0.1v-0.1c0-0.6,0.5-1.1,1-1.1c0.6,0.1,1,0.6,1,1.1v0.1c0.1,0,0.3,0,0.4,0
				c0.2-0.3,0.4-0.6,0.5-1C115.7,35.1,115,34.6,114.2,34.4L114.2,34.4z M128.6,19.8c-1,0-1.9,0.2-2.8,0.5c0.7,0.5,1.5,0.8,2.4,0.8
				c-0.7,0-1.5,0.3-2,0.8c0.8-0.3,1.6-0.4,2.5-0.4c2.4,0,4.7,1.2,6.2,3.1c0.5-0.3,0.9-0.6,1.4-0.9C134.4,21.3,131.6,19.8,128.6,19.8
				L128.6,19.8z M114.2,31.2h-0.4l0,0c-1.6,0.1-3.2,0.9-4.1,2.3c0.4,0.4,0.8,0.8,1.1,1.2c0.7-1.2,1.9-1.9,3.2-1.9
				c1,0.1,2,0.6,2.6,1.4c0.2-0.5,0.4-1.1,0.6-1.7C116.4,31.8,115.3,31.3,114.2,31.2z M84.6,40.3c3.8,0,7.4,1.9,9.5,5.1
				c0.7-0.3,1.4-0.5,2.2-0.6c-3.6-6-11.1-8.3-17.4-5.4c0.5,0.6,1,1.2,1.5,1.8C81.7,40.6,83.1,40.3,84.6,40.3L84.6,40.3z M79.1,46.4
				c-0.6-0.2-1.2-0.3-1.9-0.4c-0.1,0.1-0.1,0.2-0.2,0.3c0.5,0.3,0.9,0.6,1.4,0.9C78.5,46.9,78.8,46.7,79.1,46.4L79.1,46.4z M84.6,29
				c2.4,0,4.7,1.2,6.2,3.1c0.4-0.3,0.9-0.6,1.4-0.9c-3-4.2-8.8-5.1-13-2.1c-0.8,0.6-1.5,1.3-2.1,2.1c0.5,0.3,0.9,0.6,1.4,0.9
				C79.8,30.2,82.1,29,84.6,29L84.6,29z M75.9,24.6c0.4-0.3,0.9-0.6,1.4-0.9c-0.7-1-1.6-1.8-2.5-2.4c-0.1,0.6-0.2,1.2-0.3,1.8
				C75,23.5,75.5,24.1,75.9,24.6L75.9,24.6z M79.2,37.9c0.7-0.3,1.5-0.5,2.2-0.6c-1.5-2.5-3.8-4.4-6.4-5.6c0.3,1.1,0.6,2.1,1.1,3.1
				C77.3,35.6,78.4,36.7,79.2,37.9z M99.3,66.9c2.4,0,4.7,1.2,6.2,3.1c0.5-0.3,0.9-0.6,1.4-0.9c-1.3-1.9-3.3-3.2-5.5-3.6
				c-0.4,0.2-0.7,0.3-1,0.5c-0.6-0.5-1.5-0.6-2.2-0.2c-0.6,0.3-1,0.9-1.2,1.5C97.7,67,98.5,66.8,99.3,66.9L99.3,66.9z M79.2,22.9
				c0.7-0.3,1.5-0.5,2.2-0.6c-1.3-2.1-3.2-3.9-5.4-5.1c-0.3,0.7-0.5,1.4-0.8,2.1C76.9,20.1,78.2,21.3,79.2,22.9L79.2,22.9z
				 M104.6,75.7c3.3-5.1,10.2-6.6,15.3-3.3c1,0.7,1.9,1.5,2.7,2.4c0-2.9-2.7-4.3-3.2-4.6c-1.5-0.7-3.3-0.7-4.8,0.2
				c-0.4-0.7-0.9-1.4-1.4-2c-4.4,0.3-8.5,2.7-10.8,6.5C103.2,75.1,103.9,75.4,104.6,75.7L104.6,75.7z M104.1,46.7
				c-1.5-0.6-3.2-0.9-4.8-0.9c-2.5,0-4.9,0.7-7,2c1.3,0.2,2.7,0.4,4,0.4c2.7,0,5.4-0.6,7.8-1.6L104.1,46.7z M90.7,47.3
				c0.4-0.3,0.9-0.6,1.4-0.9c-1.7-2.4-4.6-3.9-7.5-3.9c-0.8,0-1.6,0.1-2.5,0.3c0.6,0.5,1.1,0.9,1.8,1.4c0.2,0,0.5,0,0.7,0
				c2.4,0,4.7,1.1,6.2,3V47.3z M75.3,44.9c-0.6-0.4-1.2-0.8-1.9-1.1l-0.6,0.9c0.7,0.2,1.5,0.4,2.2,0.6
				C75.1,45.3,75.2,45.1,75.3,44.9z M144.1,24.2c0.3-0.3,0.5-0.7,0.6-1.1c-0.4,0-0.9-0.1-1.4-0.1c-3,0-6,1-8.4,2.9
				c0.3,0.1,0.7,0.2,1,0.3c0.7,0.1,1.5,0.2,2.3,0.2c1.5-0.8,3.2-1.2,4.8-1.2C143.5,24.9,143.8,24.6,144.1,24.2L144.1,24.2z
				 M130.9,24.2c-0.7-0.4-1.5-0.5-2.4-0.5c-1.1,0-2.2,0.4-3.1,1c0.2,0.6,0.6,1,1.1,1.3c0.6-0.4,1.3-0.6,2-0.5c0.4,0,0.7,0.1,1.1,0.2
				C130.2,25.2,130.6,24.8,130.9,24.2L130.9,24.2z M99.3,36.5c2.4,0,4.7,1.2,6.2,3.1c0.5-0.3,0.9-0.6,1.4-0.9c-3-4.2-8.8-5.1-13-2.1
				c-0.8,0.6-1.5,1.3-2.1,2.1c0.5,0.3,0.9,0.6,1.4,0.9C94.6,37.7,96.9,36.6,99.3,36.5L99.3,36.5z M99.3,32.8c3.8,0,7.4,1.9,9.5,5.1
				c0.7-0.3,1.5-0.5,2.2-0.6c-3.8-6.5-12.2-8.6-18.7-4.7c-2,1.2-3.6,2.8-4.7,4.7c0.7,0.2,1.5,0.4,2.2,0.6
				C91.9,34.7,95.5,32.8,99.3,32.8L99.3,32.8z M145,21.7c0.1-0.6,0.1-1.1,0-1.7c0,0,0.1,0,0.1,0c-0.4-0.5-1.1-0.8-1.7-0.8
				c-1.1,0-2.1,0.8-2.3,1.9c0.1,0.2,0.2,0.4,0.4,0.6c0.3,0,0.5-0.1,0.8-0.1l0,0c-0.1-0.6,0.4-1.2,1.1-1.3s1.2,0.4,1.3,1.1
				c0,0.1,0,0.1,0,0.2v0.1L145,21.7z M143.4,16.1c-1.8,0-3.4,0.9-4.5,2.3c0.4,0.4,0.8,0.8,1.1,1.2c1-1.8,3.4-2.5,5.2-1.4
				c0.6,0.3,1.1,0.8,1.4,1.4c0.4-0.5,0.7-0.8,1.1-1.2C146.8,17,145.2,16.1,143.4,16.1L143.4,16.1z M124.1,16.2c-0.1,0.5-0.1,1,0,1.5
				c0.1,0.3,0.1,0.5,0.2,0.8c1.4-0.5,2.8-0.8,4.2-0.8c3.8,0,7.4,1.9,9.5,5.1c0.7-0.3,1.5-0.5,2.2-0.6c-2.5-4.1-6.9-6.7-11.7-6.7
				C127,15.5,125.5,15.7,124.1,16.2L124.1,16.2z M133,10.9c-1-1.5-2.7-2.3-4.5-2.3c-0.5,0-0.9,0.1-1.4,0.2c-0.4,0.6-0.7,1.4-0.8,2.1
				c0.6-0.4,1.4-0.7,2.2-0.7c1.4,0,2.6,0.7,3.3,1.9C132.3,11.7,132.7,11.3,133,10.9L133,10.9z M102.4,14.5c0.7,0.2,1.5,0.4,2.2,0.6
				c1.7-2.5,4.3-4.3,7.4-4.9c-0.6-0.6-1.3-1.2-1.9-1.8C106.8,9.5,104.1,11.7,102.4,14.5L102.4,14.5z M143.4,12.2
				c-3,0-5.8,1.4-7.5,3.9c0.5,0.3,0.9,0.6,1.4,0.9c1.4-2,3.7-3.1,6.2-3.1c2.4,0,4.7,1.2,6.2,3.1c0.5-0.3,0.9-0.6,1.4-0.9
				C149.2,13.7,146.4,12.2,143.4,12.2L143.4,12.2z"/>
		</g>
	</g>
	<path class="st4" d="M170,30.5c0.1-0.2,0.2-0.4,0.3-0.5c0.1,0.1,0.2,0.1,0.2,0.2l0,0c-0.2,0.3-0.3,0.5-0.5,0.8
		c-0.6,1.4-0.5,3,0.4,4.3c0.4,0.6,0.9,1,1.6,1.2c0.6,0.2,1.3,0.2,1.9,0.1c1.4-0.2,2.3-1.6,2.1-2.9c-0.1-0.7-0.6-1.3-1.4-1.5
		c-0.6-0.1-1.3,0.3-1.5,0.9c-0.1,0.2-0.4,0.1-0.3-0.1c0.3-0.8,1.1-1.2,1.9-1.1c0.9,0.2,1.5,0.9,1.6,1.8c0.1,1.5-0.9,2.9-2.4,3.2
		c-0.7,0.2-1.4,0.1-2.1-0.1c-0.7-0.3-1.3-0.8-1.7-1.5C169.2,33.8,169.2,32,170,30.5z M158.5,54.7c-0.6-1.6-2.2-2.6-3.9-2.6
		c-0.9,0-1.9,0.2-2.7,0.8c-0.9,0.6-1.6,1.5-2,2.5c-0.5,1.1-0.8,2.2-0.8,3.4c-4.3-2.3-9.7-0.9-12.1,3.4c0.1,0,0.2,0,0.3,0
		s0,0.1,0,0.2c0.5-0.8,1.1-1.6,1.8-2.2c2.8-2.4,6.9-2.8,10.1-0.9c0.1,0.1,0.2,0.1,0.2,0c0,0,0-0.1,0-0.1c-0.1-2.1,0.7-4.1,2.2-5.5
		c0.7-0.6,1.6-1,2.5-1c0.9-0.1,1.7,0.1,2.5,0.5c0.8,0.4,1.5,1.2,1.7,2.1c0,0.1,0.1,0.1,0.2,0.1c0,0,0.1-0.1,0.1-0.1
		c0.4-0.8,1.4-1.2,2.2-0.8c0.2,0.1,0.4,0.2,0.5,0.4c0.1,0.2,0.4,0,0.2-0.2c-0.7-0.8-1.9-1-2.7-0.4C158.7,54.4,158.6,54.6,158.5,54.7
		z M125.8,58.3c0.5-0.7,0.8-1.6,1-2.5c0.2-1.5-0.4-3-1.6-3.9c-1.1-0.7-2.6-0.7-3.7,0.2c-0.5,0.4-0.9,1.1-0.9,1.8
		c-0.1,0.8,0.3,1.5,1,1.8c0.7,0.4,1.6,0.2,2-0.5c0.3-0.6,0.1-1.4-0.5-1.8c-0.2-0.1-0.3,0.2-0.1,0.3c0.5,0.3,0.6,0.9,0.3,1.4
		c-0.4,0.5-1.1,0.6-1.6,0.2c-0.6-0.4-0.8-1.1-0.7-1.8c0.1-0.6,0.5-1.1,1-1.4c1-0.6,2.3-0.6,3.2,0.1c1,0.9,1.5,2.1,1.4,3.4
		c-0.2,1.2-0.7,2.3-1.5,3.2C125.3,58.8,125.6,58.6,125.8,58.3L125.8,58.3z M144.9,39.9c0.2-0.1,0.1-0.4-0.1-0.3
		c-1,0.5-1.5,1.7-1.3,2.8c0.2,1.2,1.1,2.1,2.3,2.3c1.3,0.2,2.6-0.3,3.5-1.3c0.9-1.1,1.3-2.6,1.1-4c-0.1-1-0.4-1.9-0.9-2.7
		c-0.2-0.2-0.4-0.3-0.6-0.4c0.4,0.7,0.8,1.6,1,2.4c0.3,1.3,0.2,2.7-0.4,3.9c-0.6,1.1-1.7,1.8-2.9,1.9c-1.1,0.1-2.2-0.5-2.6-1.6
		C143.5,41.7,143.9,40.5,144.9,39.9z M181.3,56.8c0.8,0.3,1.4,1,1.6,1.8c0,0.1,0.1,0.1,0.2,0.1s0.1-0.1,0.1-0.2l0,0
		c-0.2-1.4-1.5-2.4-3-2.2c-0.4,0.1-0.7,0.2-1,0.4c0.3-1.3,0-2.6-0.8-3.6c-1-1.1-2.5-1.6-4-1.2c-0.6,0.1-1.1,0.4-1.6,0.8
		c0.7-2.5,0.2-5.3-1.4-7.4c-1.8-2.3-4.7-3.4-7.5-2.9c-1.6,0.2-3.1,0.9-4.2,2c-0.2,0.1,0.1,0.4,0.2,0.2c2.1-1.9,4.9-2.5,7.6-1.8
		c1.3,0.4,2.5,1.1,3.4,2.2c0.9,1,1.5,2.2,1.8,3.5c0.3,1.5,0.2,3.1-0.3,4.5c-0.1,0.2,0.2,0.3,0.3,0.2c0.9-1,2.3-1.5,3.6-1.2
		c1.3,0.3,2.4,1.4,2.6,2.8c0.2,0.8,0.1,1.6-0.2,2.3c0,0.1,0,0.2,0.1,0.2c0.1,0,0.1,0,0.2,0C179.5,56.8,180.5,56.5,181.3,56.8
		L181.3,56.8z M198.8,85.5c1.3-0.7,1.9-2.1,1.7-3.5c-0.2-1.1-0.7-2.1-1.6-2.8c-0.2-0.1-0.5-0.1-0.7-0.1c0.8,0.5,1.5,1.2,1.8,2.1
		c0.5,1.2,0.3,2.6-0.6,3.6c-0.8,0.8-2.2,0.8-3,0c-0.6-0.7-0.5-1.8,0.2-2.4c0.1-0.1,0.3-0.2,0.4-0.2c0.2-0.1,0.1-0.4-0.1-0.3
		c-1,0.4-1.5,1.6-1.2,2.6c0,0,0,0,0,0C196.2,85.7,197.8,85.9,198.8,85.5L198.8,85.5z M212.7,76.3c-1.1-0.1-2.2,0.5-2.7,1.5
		c-0.5,0.9-0.7,2-0.4,3c0.1,0.2,0.3,0.4,0.5,0.5c-0.4-0.8-0.4-1.8-0.2-2.7c0.3-0.9,1-1.7,1.9-2c0.9-0.3,1.8,0.3,2.1,1.1
		c0.1,0.4-0.1,0.9-0.5,1.2c-0.4,0.3-0.8,0.3-1.2,0.1c-0.2-0.1-0.3,0.1-0.2,0.3c0.7,0.4,1.6,0.2,2-0.5c0.1-0.1,0.1-0.2,0.2-0.3
		c0.2-1-0.5-2-1.5-2.2C212.8,76.4,212.8,76.4,212.7,76.3L212.7,76.3z M33.2,92c0.2-0.7,0.1-1.4-0.3-2c-0.7-0.8-1.9-1-2.7-0.3
		c-0.3,0.3-0.5,0.6-0.7,1c0,0.2,0.3,0.2,0.3,0c0.3-0.9,1.2-1.3,2.1-1c0.2,0.1,0.4,0.2,0.6,0.4c0.4,0.5,0.6,1.2,0.5,1.8
		c-0.1,0.7-0.6,1.2-1.1,1.5c-1.3,0.6-2.9,0.3-3.9-0.8c-1-1-1.3-2.5-0.9-3.9c0.2-0.7,0.6-1.3,1.2-1.7c-0.1,0-0.3,0-0.4-0.1
		c-0.4,0.3-0.7,0.8-0.9,1.2c-0.7,1.5-0.4,3.2,0.7,4.4c1,1.3,2.8,1.7,4.3,1C32.5,93.3,33,92.7,33.2,92z M20.2,83.5
		c-0.3-1.1-1.1-1.9-2.2-2.3c-1-0.3-2,0.2-2.5,1.1c-0.3,0.8,0,1.7,0.8,2c0.2,0.1,0.5,0.1,0.7,0.1c0.1,0,0.1-0.1,0.1-0.2
		s-0.1-0.1-0.2-0.1l0,0c-0.7,0-1.3-0.6-1.3-1.3c0-0.2,0-0.3,0.1-0.5c0.4-0.8,1.4-1.2,2.2-0.8c1.7,0.8,2.5,2.7,1.7,4.4
		c0,0.1-0.1,0.1-0.1,0.2c-0.1,0.1-0.1,0.3-0.2,0.4c0,0,0,0,0.1,0c0.1,0,0.3,0,0.4,0l0,0C20.4,85.6,20.5,84.5,20.2,83.5L20.2,83.5z
		 M95.4,73.5c-1-0.6-2.2-0.8-3.4-0.5c-1.1,0.3-2,1.1-2.5,2.1c-0.2,0.5-0.4,1-0.4,1.5c-1.5-1.6-3.6-2.5-5.8-2.6
		c-2.2-0.1-4.4,0.7-6,2.2c-0.9,0.8-1.7,1.9-2.1,3c-0.1,0.2,0.2,0.3,0.3,0.1c0.9-1.9,2.4-3.5,4.3-4.3c2-0.9,4.3-0.9,6.3,0
		c1.2,0.5,2.2,1.2,3.1,2.1c0.1,0.1,0.2,0.1,0.2,0c0,0,0.1-0.1,0.1-0.1c0-1.1,0.4-2.1,1.2-2.9c0.8-0.7,1.9-1.1,2.9-1
		c0.6,0,1.2,0.2,1.8,0.6C95.3,73.8,95.5,73.5,95.4,73.5L95.4,73.5z M118.9,74.8c0.2-0.7-0.1-1.5-0.6-2c-0.6-0.4-1.3-0.3-1.8,0.2
		c-0.1,0.2,0.1,0.4,0.2,0.2c0.4-0.4,1-0.5,1.4-0.1c0,0,0,0,0,0c0.4,0.4,0.6,1,0.4,1.6c-0.4,1.1-1.6,1.7-2.7,1.4
		c-1.2-0.4-2-1.6-1.9-2.9c0-1.2,0.6-2.4,1.5-3.2c0.1-0.1,0.2-0.2,0.3-0.3c-0.3,0.1-0.6,0.2-0.9,0.4c-0.8,0.8-1.3,2-1.2,3.2
		c0,1.4,1,2.7,2.3,3.1C117.3,76.8,118.5,76.1,118.9,74.8L118.9,74.8z M197.5,63.3c0.5-0.8,0.2-1.9-0.5-2.5c-0.6-0.5-1.5-0.3-2,0.3
		c-0.1,0.2,0.1,0.4,0.2,0.2c0.4-0.5,1.1-0.6,1.6-0.2c0.6,0.5,0.8,1.4,0.4,2.1c-0.7,1.3-2.2,2-3.7,1.7c-1.5-0.3-2.7-1.4-3.1-2.9
		c-0.4-1.5-0.1-3.2,0.9-4.5c0.1-0.1,0.2-0.2,0.3-0.4s0,0-0.1,0c0-0.2,0.1-0.3,0.1-0.5c-0.1,0.1-0.3,0.3-0.4,0.4
		c-1.2,1.4-1.6,3.2-1.1,4.9c0.2,0.8,0.6,1.6,1.2,2.1c0.6,0.5,1.3,0.9,2.1,1C195,65.5,196.6,64.7,197.5,63.3L197.5,63.3z M77.2,63.2
		c4.3,1.6,6.6,6.2,5.4,10.5c-0.1,0.2,0.2,0.3,0.3,0.1c0.8-2.8,0.1-5.9-1.7-8.2c-3-3.6-8.3-4.3-12.1-1.6c-0.5-1.6-1.8-2.8-3.4-3.3
		c-1.7-0.5-3.5,0-4.7,1.3c-0.6,0.7-1.1,1.5-1.3,2.4c-2.3-1-5-0.4-6.6,1.5c-0.5,0.5-0.8,1.1-1.1,1.8c-0.1,0.2,0.2,0.3,0.3,0.1
		c0.9-2.3,3.1-3.7,5.5-3.6c0.7,0,1.3,0.2,1.9,0.5c0.1,0.1,0.2,0,0.2-0.1c0.3-1.6,1.5-2.9,3-3.5c1.5-0.5,3.3-0.2,4.5,0.9
		c0.7,0.6,1.2,1.4,1.5,2.3c0,0.1,0.1,0.1,0.2,0.1c0,0,0.1,0,0.1,0C71.3,62.8,74.3,62.3,77.2,63.2L77.2,63.2z M61.6,50.7
		c1,1.3,2.7,1.7,4.1,1c1.5-0.7,2.6-2.3,2.6-4c0.1-1.2-0.2-2.4-0.8-3.5c-0.1,0.1-0.2,0.1-0.3,0.1c0.4,0.7,0.6,1.5,0.7,2.2
		c0.2,1.5-0.3,3.1-1.4,4.2c-1.1,1-2.6,1.2-3.9,0.5c-1.1-0.7-1.7-2.1-1.2-3.4c0.3-0.6,1.1-1.4,1.9-1c0.5,0.3,0.7,1.1,0.2,1.4
		c-0.2,0.1,0,0.4,0.2,0.3c0.5-0.4,0.6-1.1,0.2-1.6c0,0,0,0,0,0c-0.4-0.6-1.2-0.7-1.8-0.3C60.7,47.6,60.8,49.5,61.6,50.7z M54.8,76.7
		c-0.5-0.9-1.3-1.6-2.2-2c-0.9-0.5-1.8-0.7-2.8-0.6c-1,0-1.9,0.4-2.6,1.1c-0.5-1-1.5-1.6-2.6-1.7c-1.2,0-2.3,0.6-2.9,1.6
		c-0.1,0.2,0.2,0.4,0.2,0.2c0.7-1.4,2.4-1.9,3.8-1.2c0.6,0.3,1,0.8,1.3,1.4c0.1,0.1,0.2,0.1,0.3,0c1.4-1.3,3.4-1.5,5-0.6
		c1.8,1,3,2.8,3.2,4.8c0.2,1.1,0.2,2.2,0,3.3c0.2-0.2,0.3-0.4,0.4-0.4C56.3,80.5,55.8,78.4,54.8,76.7z M72.7,62.2
		c0-1.8,0.7-3.5,2.1-4.6c1.4-1.2,3.2-1.6,4.9-1.2c1,0.2,1.9,0.7,2.7,1.4c0.2,0.1,0.4-0.1,0.3-0.2c-1.4-1.3-3.4-1.9-5.3-1.6
		c-1.8,0.3-3.4,1.5-4.3,3.2c-0.5,0.9-0.7,2-0.7,3C72.4,62.4,72.7,62.4,72.7,62.2z M104.8,70.2c-0.8,0.5-1.3,1.2-1.6,2.1
		c0,0.2,0.3,0.2,0.3,0c0.4-1.4,1.7-2.4,3.2-2.3c1.4,0.2,2.5,1.3,2.5,2.7c0.1,0.8-0.2,1.5-0.6,2.1c-0.1,0.2,0.1,0.4,0.3,0.2
		c0.9-1.2,0.9-2.9,0-4.2C107.9,69.6,106.1,69.3,104.8,70.2L104.8,70.2z M158.4,17.2c0.6,0.4,0.9,1.1,0.8,1.9
		c-0.1,0.7-0.6,1.2-1.2,1.3c-0.6,0.1-1.2-0.2-1.5-0.8c-0.1-0.2-0.4-0.1-0.3,0.1c0.3,0.8,1.2,1.2,2,1c0.8-0.2,1.3-0.8,1.3-1.6
		c0.1-0.8-0.3-1.6-1-2.1c-0.7-0.5-1.7-0.7-2.5-0.4c-0.8,0.2-1.6,0.7-2.2,1.4c0,0.2,0,0.3,0,0.5l0,0c0.6-0.8,1.4-1.3,2.4-1.6
		C157,16.7,157.8,16.8,158.4,17.2L158.4,17.2z M147.2,11.9c0.1,0,0.2,0,0.2-0.1c0,0,0,0,0,0c0.6-1.2,2-1.8,3.3-1.4
		c0.2,0.1,0.3-0.2,0.1-0.3c-1.4-0.4-2.9,0.2-3.7,1.4c-0.8-0.5-1.7-0.7-2.7-0.6c-1.7,0.1-3.3,1.1-4.1,2.6c-0.8,1.5-0.7,3.3,0.1,4.8
		c0.1,0.2,0.4,0,0.3-0.2c-0.4-0.8-0.6-1.6-0.6-2.5c0.1-1.6,1-3.1,2.4-3.8C144,11.1,145.8,11.1,147.2,11.9z M135.2,6.9
		c-0.3-0.6-0.7-1.1-1.1-1.5c0,0.1-0.1,0.2-0.1,0.3c0.5,0.4,0.8,1,1,1.6c0.9,2.7-1.9,5.7-4.6,4.5c-0.6-0.2-1.1-0.8-1.3-1.4
		c-0.2-0.6-0.1-1.2,0.2-1.7c0.5-0.6,1.4-0.7,2.1-0.2c0.3,0.2,0.5,0.6,0.5,1c0,0.2,0.3,0.2,0.3,0.1c0-0.8-0.5-1.4-1.3-1.6
		c-0.7-0.2-1.5,0.1-2,0.7c-0.3,0.6-0.4,1.3-0.2,1.9c0.2,0.7,0.7,1.3,1.4,1.5c1.5,0.6,3.1,0.2,4.2-1C135.4,10,135.7,8.4,135.2,6.9
		L135.2,6.9z M145.4,20.1c-0.8-1-1.9-1.6-3.1-1.8c-1.4-0.2-2.7,0.2-3.8,1.1c-0.2-0.8-0.8-1.4-1.5-1.5c-0.9-0.2-1.8,0.2-2.2,1
		c0,0.1,0,0.2,0.1,0.2c0.1,0,0.2,0,0.2-0.1c0.4-0.6,1.1-1,1.9-0.8c0.7,0.2,1.2,0.8,1.3,1.5c0,0.1,0.1,0.1,0.2,0.1c0,0,0.1,0,0.1,0
		c0.6-0.5,1.3-0.9,2-1.1c1.3-0.4,2.7-0.1,3.8,0.7c0.3,0.2,0.5,0.4,0.7,0.7c0-0.1,0-0.1,0-0.2L145.4,20.1z M37.4,30.3
		c1,0,1.9,0.4,2.7,1l0,0C40,31.1,40,31,39.9,30.8c-0.7-0.5-1.6-0.8-2.5-0.9c-0.9,0-1.8,0.3-2.4,1c-0.5,0.6-0.7,1.5-0.5,2.3
		c0.2,0.7,0.9,1.3,1.6,1.3c0.8,0,1.6-0.6,1.7-1.4c0-0.2-0.3-0.3-0.3-0.1c-0.1,0.6-0.6,1.1-1.3,1.1c-0.7,0-1.3-0.4-1.5-1
		c-0.2-0.7-0.1-1.5,0.4-2C35.9,30.6,36.7,30.3,37.4,30.3L37.4,30.3z M49.7,22.4c2.5,0.7,3.9,3.3,3.2,5.8c-0.1,0.2,0.2,0.3,0.3,0.1
		c0.5-1.6,0.1-3.4-1-4.7c-1.8-2-4.9-2.2-7-0.5c-1-1.1-2.6-1.3-3.9-0.6c-0.2,0.1,0,0.4,0.2,0.2c1.2-0.7,2.7-0.4,3.6,0.6
		c0,0.1,0.1,0.1,0.2,0c0,0,0,0,0,0C46.4,22.4,48.2,22.1,49.7,22.4L49.7,22.4z M57.5,20c1.3,1,3,1,4.3,0.1c0.6-0.4,1-1.1,1.1-1.8
		c0-0.7-0.2-1.3-0.7-1.8c-0.5-0.5-1.3-0.6-2-0.3c-0.7,0.3-1.1,1.1-0.9,1.8c0.1,0.2,0.4,0.1,0.3-0.1c-0.1-0.6,0.2-1.2,0.7-1.4
		c0.5-0.3,1.2-0.2,1.6,0.2c0.4,0.4,0.7,1,0.6,1.6c-0.1,0.7-0.4,1.3-1,1.7c-2.4,1.7-5.8-0.6-5.5-3.4c0.1-0.6,0.3-1.3,0.7-1.8
		l-0.2-0.3c-0.4,0.5-0.7,1.1-0.8,1.8C55.6,17.7,56.3,19.2,57.5,20L57.5,20z M49.2,31c0,0.1,0,0.1,0,0.2c0.2-0.3,0.3-0.5,0.5-0.8
		c1.4-1.6,3.9-2,5.7-0.9c0.1,0.1,0.2-0.1,0.2-0.2c-0.1-0.7,0.3-1.4,0.9-1.8c0.7-0.3,1.5-0.2,2,0.4c0.1,0.1,0.2,0.1,0.2,0
		c0,0,0.1-0.1,0-0.2c-0.6-0.7-1.5-0.9-2.4-0.5c-0.7,0.4-1.1,1.1-1.1,1.9c-1.2-0.6-2.6-0.7-3.9-0.2c-1.1,0.4-2.1,1.3-2.6,2.4
		C48.9,31.2,49,31.1,49.2,31z"/>
</g>
</svg>
