<?xml version="1.0" encoding="UTF-8" standalone="no"?>
<!-- Created with Inkscape (http://www.inkscape.org/) -->

<svg
   width="13.09285mm"
   height="132.46463mm"
   viewBox="0 0 13.09285 132.46463"
   version="1.1"
   id="svg5"
   xml:space="preserve"
   xmlns="http://www.w3.org/2000/svg"
   xmlns:svg="http://www.w3.org/2000/svg"><defs
     id="defs2"><filter
       id="filter_2_57_dd"
       x="0"
       y="0"
       width="58"
       height="502"
       filterUnits="userSpaceOnUse"
       color-interpolation-filters="sRGB"><feFlood
         flood-opacity="0"
         result="BackgroundImageFix"
         id="feFlood14" /><feColorMatrix
         in="SourceAlpha"
         type="matrix"
         values="0 0 0 0 0 0 0 0 0 0 0 0 0 0 0 0 0 0 127 0"
         id="feColorMatrix16" /><feOffset
         dx="0"
         dy="4"
         id="feOffset18" /><feGaussianBlur
         stdDeviation="1.33333"
         id="feGaussianBlur20" /><feColorMatrix
         type="matrix"
         values="0 0 0 0 0 0 0 0 0 0 0 0 0 0 0 0 0 0 0.25 0"
         id="feColorMatrix22" /><feBlend
         mode="normal"
         in2="BackgroundImageFix"
         result="effect_dropShadow_1"
         id="feBlend24" /><feBlend
         mode="normal"
         in="SourceGraphic"
         in2="effect_dropShadow_1"
         result="shape"
         id="feBlend26" /></filter><clipPath
       clipPathUnits="userSpaceOnUse"
       id="clipPath496"><rect
         style="fill:#000000;stroke-width:1.00535"
         id="rect498"
         width="49.484798"
         height="500.65372"
         x="4.3674035"
         y="0.047399167" /></clipPath></defs><g
     id="layer1"
     transform="translate(-114.41455,-76.220937)"><g
       style="fill:none"
       id="g45"
       transform="matrix(0.26458333,0,0,0.26458333,113.25901,76.208396)"><path
         id="矢量 1"
         d="M 34,36.4489 C 42.0425,34.439 48,27.1652 48,18.5 48,8.28273 39.7173,0 29.5,0 19.2827,0 11,8.28273 11,18.5 c 0,8.302 5.4685,15.3268 13,17.6687 V 47 H 4 v 400 h 20 v 10.831 c -7.5315,2.342 -13,9.367 -13,17.669 0,10.217 8.2827,18.5 18.5,18.5 10.2173,0 18.5,-8.283 18.5,-18.5 0,-8.665 -5.9575,-15.939 -14,-17.949 V 447 H 54 V 47 H 34 Z"
         fill-rule="evenodd"
         fill="#dd574c"
         style="filter:url(#filter_2_57_dd)"
         clip-path="url(#clipPath496)" /></g></g></svg>
